<?xml version="1.0" standalone="no"?>
<!DOCTYPE svg PUBLIC "-//W3C//DTD SVG 1.1//EN" "http://www.w3.org/Graphics/SVG/1.1/DTD/svg11.dtd" >
<svg xmlns="http://www.w3.org/2000/svg">
<metadata></metadata>
<defs>
<font id="bell_mt_std_semiboldregular" horiz-adv-x="1044" >
<font-face units-per-em="2048" ascent="1364" descent="-684" />
<missing-glyph horiz-adv-x="522" />
<glyph unicode="&#xfb01;" horiz-adv-x="1067" d="M35 786q0 37 26 46t127 6q-1 24 -1 43.5t2 60t7.5 74.5t18.5 79t31.5 80t49.5 71.5t69.5 60.5t94.5 39.5t122 15.5q124 0 213.5 -46.5t89.5 -131.5q0 -29 -27.5 -61.5t-73.5 -32.5q-43 0 -61 21.5t-43 86.5q-43 111 -135 111q-185 0 -185 -316q0 -76 7 -155 q185 -3 286.5 4.5t253.5 36.5q-18 -171 -18 -451q0 -146 5 -226.5t10 -98t14 -29.5t22 -17t61 -12q25 -6 25 -22q0 -18 -11.5 -21.5t-64.5 -3.5h-305h-22.5t-14.5 2t-11.5 7t-2.5 13q0 9 6 15t12 7.5t19 4.5q60 7 74 47t14 185q0 76 -3.5 250.5t-8.5 189.5q-6 18 -27 23.5 t-78 5.5h-235q-1 -48 -0.5 -114t1.5 -158t1 -109q0 -213 6 -249q8 -45 37 -58q6 -3 14 -5l43 -12q12 -6 12 -20q0 -18 -10.5 -21.5t-46.5 -3.5h-287q-58 0 -64 7q-3 4 -3 13q0 25 30 25q23 2 38.5 7.5t26.5 22.5t16 31.5t8 53.5t3.5 69t0.5 95q0 144 -13 426q-66 0 -110 6 q-16 2 -24.5 8.5t-9.5 11t-1 12.5z" />
<glyph unicode="&#xfb02;" horiz-adv-x="1130" d="M39 780q2 64 8 70q5 4 64 8t82 4q13 221 67 318q32 58 79.5 98t97 56t83.5 22t64 6q18 0 112.5 -7t110.5 -7q4 0 70 5t77 5q-8 -309 -8 -955q0 -263 17 -309q7 -15 15 -24t22 -13.5t23.5 -6t31.5 -3.5q12 -1 18 -2.5t11.5 -6.5t5.5 -13q0 -18 -11 -21.5t-61 -3.5h-301 q-24 0 -33.5 0.5t-20.5 2.5t-14.5 7.5t-3.5 14.5q0 12 7.5 16t41.5 12q22 5 32.5 12.5t21.5 40t16 95.5q12 164 6 555q-40 4 -91.5 6.5t-101 3t-90 0t-75 -1t-37.5 -0.5q0 -35 -3 -218.5t-3 -213.5l-2 -68q-3 -44 0 -81.5t12.5 -65.5t34.5 -46t67 -24q15 -1 22 -2.5t11 -6.5 t4 -15q0 -16 -12 -19.5t-49 -3.5h-330q-19 0 -28 0.5t-21 2.5t-16.5 7.5t-4.5 14.5q0 11 8 14.5t29 5.5q53 4 71 19t21 51q7 79 7 659q-12 -1 -63.5 -5.5t-72.5 -4.5q-18 0 -18 16zM381 1056.5q-6 -97.5 2 -192.5q88 2 227 2q8 0 160 -8q6 60 6 164q0 85 -17 144.5t-47 89 t-60.5 41.5t-65.5 12q-24 0 -51 -6.5t-61 -29.5t-54 -59q-33 -60 -39 -157.5z" />
<glyph unicode="&#xfb03;" horiz-adv-x="1622" d="M49 795q0 37 25 43q9 3 61 10t60 10q0 205 69 328q50 90 139 133t185 43q102 0 198 -45q33 -16 74 -57q23 19 41 31.5t55.5 32.5t87.5 31t109 11q33 0 75.5 -6t98 -22t92.5 -53t37 -89t-33.5 -76t-66.5 -24q-68 0 -96 84q-11 33 -19.5 51t-24.5 40.5t-41 33t-59 10.5 q-89 0 -138.5 -73t-49.5 -193q0 -17 1 -104.5t1 -102.5q169 -2 283 8t255 39q-12 -396 -12 -440q0 -311 6 -336q6 -28 23 -44t31 -19.5t36 -4.5q25 -4 25 -20q0 -17 -11.5 -21t-45.5 -4h-299q-20 0 -28.5 0.5t-18.5 2.5t-13.5 7.5t-3.5 14.5q0 22 37 26q29 3 47.5 14 t26.5 31t10.5 35t3.5 41q2 55 2 377q0 39 -0.5 60t-2.5 46.5t-5.5 36.5t-11.5 25t-17.5 18.5t-26 10t-36 7t-47.5 1.5l-213 2q-13 -218 -13 -367q0 -45 5 -165.5t10 -133.5q8 -19 22 -25.5t51 -15.5q31 -12 31 -24q0 -25 -55 -25h-270q-82 0 -82 29q0 20 36 20 q57 0 68.5 36.5t11.5 188.5v482q-26 -1 -104 -1t-168 0.5t-100 0.5v-549q0 -105 12 -123q18 -31 84 -35l5 -1q6 -1 8.5 -1.5t7.5 -2.5t7.5 -4t4.5 -5.5t2 -7.5q0 -13 -9.5 -19t-19.5 -7t-31 -1h-303q-22 0 -32.5 1t-19.5 6.5t-9 17.5q0 7 3.5 11.5t13 7.5t17 4t25.5 3 q37 4 47 55q15 128 15 410q0 25 -1 51t-2.5 80t-3.5 119q-72 8 -110 8q-29 0 -29 21zM368 1000q0 -114 3 -158q110 -4 164 -4q8 0 204 4q6 146 33 252q-40 9 -60 25t-38 57q-15 36 -21 48t-18.5 34.5t-22 29.5t-25.5 14t-36 7q-8 0 -20.5 -1t-39.5 -9t-49 -22t-41.5 -43 t-25.5 -69q-7 -51 -7 -165z" />
<glyph unicode="&#xfb04;" horiz-adv-x="1622" d="M51 801q0 29 7.5 37t23.5 8q76 6 119 14q3 84 13 150.5t35.5 135.5t65.5 115t107 75.5t156 29.5q150 0 274 -88q19 17 32 26.5t44.5 26.5t74 26t93.5 9q3 0 159 -8q56 -3 195 -6q-6 -924 -8 -1119q-2 -113 13 -146t81 -36q39 0 39 -22q0 -20 -14.5 -24.5t-53.5 -4.5h-250 q-37 0 -65 4q-27 3 -27 27q0 15 43 22q36 6 51 30.5t15 74.5v608q-20 0 -124 -3t-108 -3q-16 0 -66.5 2.5t-78.5 3.5q2 -188 2 -375q0 -40 -0.5 -85t-1.5 -70t-0.5 -54t2 -43t5.5 -30.5t10 -23t16.5 -14.5t23.5 -11.5t33 -6.5q39 -7 39 -26q0 -10 -4.5 -15.5t-16.5 -8 t-21 -3t-28 -0.5h-270q-39 0 -52 4t-13 23q0 11 10 16.5t45 9.5q38 5 45.5 36.5t6.5 149.5q-1 60 -1 97q0 77 -1 197.5t-1 228.5q-14 -2 -137.5 -3.5t-214.5 -0.5q0 -133 -1 -328t-1 -291q0 -45 19 -62.5t69 -25.5q30 -5 30 -24q0 -13 -9.5 -19t-20 -7t-33.5 -1h-322 q-11 0 -20.5 6.5t-9.5 18.5q0 13 8 16.5t49 11.5q19 4 31.5 10t20.5 17.5t12 21.5t5 32t1 38.5t-1 51t-1 59.5q0 179 -6 475q-34 7 -107 14q-20 0 -27.5 6t-7.5 23zM371 860q11 0 49 -2t45 -2q32 0 260 6q2 152 27 248q-22 12 -34.5 21.5t-29 30.5t-31.5 52q-17 37 -29 54.5 t-35 31t-56 13.5q-53 0 -89.5 -33t-54.5 -88q-16 -49 -20 -118t-2 -214zM897 860q74 -2 207 -2q131 0 174 2q0 19 1.5 75.5t1.5 79.5t-2.5 67.5t-8 68.5t-16.5 51.5t-27 44.5q-63 70 -142 70q-46 0 -77 -17t-57.5 -64t-39.5 -140t-14 -236z" />
<glyph horiz-adv-x="2048" />
<glyph horiz-adv-x="2048" />
<glyph unicode="&#xd;" horiz-adv-x="2048" />
<glyph unicode=" "  horiz-adv-x="522" />
<glyph unicode="&#x09;" horiz-adv-x="522" />
<glyph unicode="&#xa0;" horiz-adv-x="522" />
<glyph unicode="!" horiz-adv-x="512" d="M129 1196q0 17 4.5 36.5t16 44t37.5 40.5t63 16q58 0 93.5 -40.5t35.5 -110.5q0 -25 -36 -322t-40 -346q-17 -185 -20 -190q-2 -9 -31 -9q-21 0 -25.5 10t-7.5 56q-10 157 -19 237.5t-50 391.5q-21 160 -21 186zM141 98q0 51 35.5 86t85.5 35q52 0 87.5 -35.5t35.5 -85.5 q0 -51 -36 -87t-87 -36q-48 0 -84.5 36t-36.5 87z" />
<glyph unicode="&#x22;" horiz-adv-x="831" d="M133 1221q0 120 96 120q42 0 73.5 -27.5t31.5 -78.5q0 -41 -27 -182l-55 -295h-43l-53 297q-23 128 -23 166zM500 1221q0 120 96 120q42 0 73 -27.5t31 -78.5q0 -46 -26 -182l-56 -295h-43l-53 297q-22 122 -22 166z" />
<glyph unicode="#" horiz-adv-x="1366" d="M92 362v105h225l82 387h-307v107h330l86 409h104l-88 -409h441l86 409h104l-86 -409h205v-107h-225l-80 -387h305v-105h-328l-86 -409h-104l86 409h-443l-84 -409h-104l86 409h-205zM422 469h442l80 385h-440z" />
<glyph unicode="$" d="M104 238q0 61 31 89.5t72 28.5q47 0 74.5 -33.5t27.5 -74.5q0 -27 -14 -48.5t-29 -31.5q-21 -13 -27 -19.5t-6 -15.5q0 -14 15.5 -33t44.5 -39.5t80.5 -37.5t113.5 -23v461q-43 15 -67.5 24t-63 25t-61 29t-52 32.5t-46.5 40t-33.5 46.5t-23.5 57t-7 67q0 78 41.5 145.5 t110.5 104.5q89 49 202 53v127h76v-127q90 -6 159.5 -30t107 -57.5t55.5 -68.5t18 -69q0 -38 -25 -71t-75 -33q-39 0 -63.5 25.5t-24.5 56.5q0 29 18 61q27 40 27 49q0 2 -2.5 8.5t-14.5 18.5t-31.5 22.5t-58.5 20t-90 12.5v-383q36 -11 53 -16t52.5 -17t54.5 -21t51 -24 t50 -29.5t42 -34t37.5 -41.5t27 -48.5t19.5 -58t6 -66.5q0 -86 -40.5 -155.5t-104.5 -110.5q-45 -28 -93 -45t-78.5 -22t-76.5 -9v-246h-76v246q-78 8 -140.5 26.5t-101.5 40.5t-67.5 51t-42 53t-21.5 51.5t-9 40.5t-1 26zM248 862q0 -23 6.5 -43t14 -34.5t27.5 -29 t33 -23.5t46 -22.5t50.5 -20t61.5 -21.5v364q-63 -4 -110 -20.5t-71 -35.5t-38 -44t-17 -40.5t-3 -29.5zM563 2q105 11 166 49q41 25 68.5 70t27.5 96q0 34 -10 62t-32 49.5t-42.5 37t-57 31t-58 23t-62.5 20.5v-438z" />
<glyph unicode="%" horiz-adv-x="1556" d="M72 983q0 81 27.5 148t72 110t99.5 66.5t112 23.5q55 0 108 -22t97 -63t71 -106t27 -143q0 -83 -27.5 -150t-72.5 -107.5t-97.5 -61.5t-107.5 -21q-52 0 -104.5 19.5t-99.5 57t-76 102.5t-29 147zM225 977q0 -47 6.5 -90.5t21.5 -86t45.5 -68t72.5 -25.5q71 0 116 82 t45 237q0 136 -45.5 196t-105.5 60q-37 0 -65.5 -18t-44.5 -50.5t-26.5 -63.5t-14 -71.5t-4.5 -59.5t-1 -42zM326 -20l819 1351h84l-815 -1351h-88zM850 303q0 80 27.5 148t72 111t99 67t110.5 24q55 0 109 -22.5t98 -63.5t71 -105.5t27 -142.5q0 -83 -28 -150.5t-73 -108 t-97.5 -62t-106.5 -21.5q-52 0 -104.5 19.5t-99.5 57.5t-76 103t-29 146zM1004 297q0 -47 6.5 -90t21 -86t44 -68.5t71.5 -25.5q72 0 118 82t46 237q0 71 -14.5 124t-38 81t-48.5 40.5t-51 12.5q-37 0 -65.5 -18t-44.5 -50.5t-26 -63t-13.5 -72.5t-4.5 -60t-1 -43z" />
<glyph unicode="&#x26;" horiz-adv-x="1472" d="M74 274q0 62 24.5 122t55.5 101.5t85 88t86.5 69.5t86.5 58q-30 34 -43 48.5t-42 53.5t-43 68t-27 71t-13 82q0 119 84 186.5t192 67.5q100 0 175 -60.5t75 -148.5q0 -36 -12 -72t-27 -61.5t-42.5 -56.5t-42 -45t-42.5 -39q117 -98 176.5 -171t171.5 -243 q109 165 109 279q0 35 -11.5 58t-33.5 33t-38 13t-40 4q-49 0 -49 27t43 27q19 0 135 -4.5t139 -4.5q10 0 70 3t70 3q28 0 28 -24q0 -23 -24 -23q-40 0 -76 -17t-60.5 -39.5t-49 -59t-37.5 -61.5t-29 -60q-59 -129 -113 -211q28 -55 47 -87.5t49 -75.5t60.5 -64t62.5 -21 q48 0 115 41q24 12 37 12q6 0 12 -6.5t6 -15.5q0 -14 -41 -46.5t-110 -62.5t-131 -30q-38 0 -67.5 9t-50 20.5t-45 41.5t-39.5 53t-46 74q-30 -27 -50 -44t-68 -51t-90.5 -54t-102.5 -37t-119 -17q-81 0 -148 27.5t-107.5 71.5t-62.5 96t-22 104zM272 387q0 -32 8.5 -69.5 t29 -78t49.5 -73t74 -53.5t99 -21q137 0 285 135q-90 159 -163 247t-203 198q-87 -72 -133 -136t-46 -149zM383 1100q0 -125 178 -256q31 32 49.5 54.5t39 67.5t20.5 89q0 70 -46.5 126t-109.5 56q-53 0 -92 -40t-39 -97z" />
<glyph unicode="'" horiz-adv-x="362" d="M82 1221q0 120 96 120q42 0 73.5 -27.5t31.5 -78.5q0 -41 -27 -182l-55 -295h-43l-54 297q-22 122 -22 166z" />
<glyph unicode="(" horiz-adv-x="661" d="M100 401q0 151 37 305t90.5 268t110.5 205.5t99 139t55 47.5q14 0 44.5 -9t30.5 -18q0 -13 -24 -43q-37 -48 -81.5 -125t-99 -196t-90.5 -274.5t-36 -307.5q0 -66 6 -135t25 -162.5t49 -181.5t82.5 -188t121.5 -187q37 -46 37 -55q0 -16 -32 -23.5t-56 -7.5 q-17 0 -58.5 47t-94.5 137t-101.5 202t-81.5 263t-33 299z" />
<glyph unicode=")" horiz-adv-x="661" d="M94 1337q0 15 35 21l39 8q17 0 51 -41q60 -71 117 -165t109.5 -212.5t84 -262t31.5 -284.5q0 -108 -17.5 -218t-46.5 -201t-65 -175t-73 -147.5t-71 -110.5t-59 -71.5t-36 -24.5q-22 0 -55.5 7.5t-33.5 23.5q0 4 7 14.5t17.5 24t12.5 16.5q82 104 141 224.5t88.5 235 t42.5 210t13 184.5q0 125 -25.5 253.5t-61 226.5t-81 190t-78.5 144.5t-61 88.5q-25 33 -25 41z" />
<glyph unicode="*" horiz-adv-x="1024" d="M90 926q0 27 21 47t53 20t132 -19t136 -28q18 -6 33 -6q10 0 10 8q0 4 -46.5 35.5t-105 70t-69.5 46.5q-24 18 -35 27.5t-24 28.5t-13 38q0 22 16 38.5t40 16.5q49 0 129 -106q130 -162 135 -162q6 0 6 8q0 3 -2 15l-2 12q-62 235 -62 278q0 25 19 47.5t49 22.5 q22 0 42.5 -17.5t20.5 -50.5q0 -60 -30 -264q-8 -32 -8 -43q0 -8 6 -8q7 0 12.5 6t21.5 30q2 3 3.5 5t3.5 5.5t4 6.5q117 172 133 189q10 11 22 18q1 0 9 3.5t16 6t14 2.5q20 0 41 -15t21 -44q0 -22 -18.5 -41.5t-88.5 -67.5q-19 -14 -76 -50.5t-79 -53.5q-11 -11 -11 -14 q0 -4 4.5 -7.5t8.5 -3.5q16 0 49 11q122 29 154 35t67 6q11 0 21.5 -1.5t29.5 -6.5t31 -19.5t12 -36.5q0 -11 -4.5 -23t-21 -24t-43.5 -12q-54 0 -265 43q-2 0 -13 3t-13 3q-11 0 -11 -8q0 -6 6 -11t26 -17q13 -8 22 -13q123 -76 190 -137q29 -29 29 -58q0 -25 -18 -44 t-42 -19q-37 0 -73 43t-131 188q-26 35 -27 35q-10 0 -10 -10q0 -5 5 -30.5t5 -29.5q29 -181 29 -231q0 -32 -18 -56t-48 -24q-34 0 -49.5 25.5t-15.5 46.5q0 26 28.5 157.5t28.5 135.5t-3 7t-5 3q-5 0 -11 -7t-26 -36q-94 -143 -115 -172t-41 -41q-25 -17 -43 -17 q-19 0 -40 15t-21 41q0 32 23 55t104 82q108 77 125 88l3 3q4 2 6.5 4.5t2.5 4.5q0 8 -10 8q-7 0 -42 -8.5t-38 -9.5q-151 -37 -221 -37q-26 0 -48 19.5t-22 46.5z" />
<glyph unicode="+" horiz-adv-x="1366" d="M143 543v106h488v488h106v-488h488v-106h-488v-488h-106v488h-488z" />
<glyph unicode="," horiz-adv-x="512" d="M102 -307q0 13 25 26q63 35 100 100t37 111q0 15 -5.5 22.5t-13 9.5t-24.5 3q-5 0 -13 1t-28 8t-35.5 17.5t-28 32t-12.5 50.5q0 61 41 92t95 31q64 0 116 -47.5t52 -116.5q0 -75 -38 -147t-88 -118t-93.5 -74t-61.5 -28q-10 0 -17.5 9.5t-7.5 17.5z" />
<glyph unicode="-" horiz-adv-x="747" d="M37 385v74q0 31 9.5 37t53.5 6h549q43 0 52.5 -6.5t9.5 -42.5v-68q0 -31 -1.5 -38.5t-9.5 -10.5q-8 -4 -51 -4h-549q-49 0 -59 6q-4 4 -4 47z" />
<glyph unicode="." horiz-adv-x="468" d="M113 98q0 51 35 86t85 35q52 0 87.5 -35.5t35.5 -85.5q0 -51 -36 -87t-87 -36q-48 0 -84 35.5t-36 87.5z" />
<glyph unicode="/" d="M113 -37l708 1399h111l-709 -1399h-110z" />
<glyph unicode="0" d="M55 526q0 152 65 281t175.5 203.5t239.5 74.5t235.5 -81t163.5 -206t57 -261q0 -77 -19.5 -155t-60 -151t-96 -129.5t-133.5 -90.5t-166 -34q-130 0 -236 72.5t-165.5 198t-59.5 278.5zM258 541q0 -146 29.5 -259.5t91 -182t147.5 -68.5q53 0 96 24.5t70 60t46.5 88 t28.5 96.5t14.5 98t6 79t0.5 53q0 31 -0.5 57t-6 81t-14 98.5t-27.5 95.5t-44.5 87t-66.5 59t-92 24q-68 0 -123 -45t-88 -117.5t-50.5 -157t-17.5 -171.5z" />
<glyph unicode="1" d="M270 977q0 12 5.5 18.5t12 8.5t23.5 4q22 3 58 8.5t48.5 7.5t36 6t32.5 6.5t25.5 6.5t28 9t26 11t32.5 14q16 8 31 8q12 0 16 -10t4 -47q0 -22 -0.5 -175t-0.5 -273t1 -245.5t4 -158.5q2 -27 4 -40.5t8.5 -31.5t17.5 -27t30.5 -16.5t48.5 -9.5q2 0 7 -1q39 -6 43 -19 q1 -3 1 -6q0 -4 -1.5 -8.5t-9.5 -10.5t-22 -6q-37 0 -220 -1t-232 -1q-37 0 -37 25q0 19 45 24q63 7 96.5 27t40.5 71q6 37 6 254q0 234 -4.5 338t-12 130.5t-28.5 47.5q-17 17 -38 23.5t-91 13.5q-35 7 -35 25z" />
<glyph unicode="2" d="M92 16q0 14 31 39q22 17 62 50q211 167 279 235q88 86 148 186q97 162 97 314q0 72 -42 128t-110 56q-114 0 -210.5 -115.5t-96.5 -273.5q0 -100 84 -100q26 0 51 13.5t41 31t29.5 38t18.5 32t7 16.5q10 22 15.5 29t15.5 7q9 0 17 -6t8 -16q0 -22 -19 -58.5t-50 -73.5 t-78 -64t-95 -27q-72 0 -130.5 54.5t-58.5 127.5q0 108 79 213t198 169t233 64q128 0 210.5 -77t82.5 -199q0 -145 -122 -280.5t-437 -356.5v-4h316q77 0 115.5 13.5t68.5 56.5q30 44 39 53.5t22 9.5q23 0 23 -20q0 -16 -16 -48l-109 -233h-651q-46 0 -56 2t-10 14z" />
<glyph unicode="3" d="M102 184q0 42 31.5 76.5t75.5 34.5q41 0 68.5 -24.5t27.5 -53.5q0 -8 -12 -52t-12 -52q0 -33 37.5 -58.5t107.5 -25.5q56 0 93.5 22.5t72.5 65.5q43 55 85 155t42 172q0 4 -1.5 13.5t-8.5 27.5t-18 33.5t-32.5 27t-50.5 11.5t-55 -14.5t-111 -79.5q-14 -14 -32 -14 q-8 0 -15.5 7.5t-7.5 18.5q0 14 31 37q119 87 209 193q37 43 52 81.5t15 90.5q0 57 -34.5 104t-96.5 47q-96 0 -162.5 -80t-66.5 -157q0 -37 22 -63t50 -26q34 0 73 52q31 43 45 43q11 0 18 -7.5t7 -15.5q0 -12 -17 -38.5t-44 -55t-65.5 -49.5t-74.5 -21q-35 0 -63 12.5 t-43 30.5t-25 40.5t-13 40t-3 32.5q0 55 30.5 111t83 102.5t131 76t166.5 29.5q128 0 198.5 -57t70.5 -139q0 -28 -5.5 -51t-23 -47t-32.5 -41t-50 -45t-59.5 -45t-77.5 -54q63 -7 102.5 -17.5t75.5 -35.5q47 -32 73.5 -82t26.5 -106q0 -98 -64.5 -188.5t-173 -146 t-229.5 -55.5q-79 0 -155.5 23t-131.5 72.5t-55 113.5z" />
<glyph unicode="4" d="M49 385q5 40 8 51.5t15 26.5q230 288 467 522q70 70 89.5 85t43.5 15q35 0 35 -32q0 -2 -0.5 -297.5t0.5 -298.5q26 1 40.5 1.5t40 4.5t41.5 10t35.5 18t31.5 29t21 43.5t11 59.5q1 13 2.5 19t6.5 9.5t15 3.5q25 0 25 -32v-330q1 -20 0.5 -34.5t-6.5 -23t-19 -8.5 q-20 0 -26 31q-12 57 -28 88t-41 44t-61.5 14t-88.5 -1q-3 -76 2 -183t22 -134q10 -15 25.5 -23t30.5 -10t53 -6q30 -5 30 -24q0 -17 -11.5 -21t-45.5 -4h-403q-52 0 -59 7q-5 5 -5 15q0 11 5.5 16.5t14.5 7.5t18 3h5q41 1 67.5 10t38.5 28.5t16 36.5t7 48q2 14 6 107.5 t4 119.5q-322 -2 -479 -12zM137 446q341 6 391 9q2 12 2 80q0 26 3.5 179.5t3.5 182.5q-227 -218 -400 -451z" />
<glyph unicode="5" d="M102 193q0 43 30.5 76.5t74.5 33.5q38 0 67 -24.5t29 -61.5q0 -9 -10 -48t-10 -44q0 -94 127 -94q59 0 106.5 22t78 59.5t52.5 80.5t33 91.5t15.5 86.5t4.5 71q0 14 -0.5 24t-3 33t-7.5 40.5t-15.5 39t-25.5 35.5t-38.5 23.5t-52.5 9.5q-51 0 -96.5 -23t-75 -56.5 t-47.5 -66.5t-23 -59q-4 -39 -28 -39q-10 0 -17.5 7.5t-7.5 21.5q0 22 44 294t59 353q63 -16 94 -20q55 -10 110 -10q154 0 252 112q15 19 27 19q9 0 15.5 -7.5t6.5 -17.5q0 -26 -25.5 -66.5t-72 -84.5t-128 -75.5t-177.5 -31.5q-14 0 -42.5 2t-31.5 2q-33 -148 -53 -293 q33 27 59 45t80 37t111 19q131 0 221 -87.5t90 -205.5q0 -97 -47 -181t-120 -138t-159 -84.5t-167 -30.5q-74 0 -142.5 23.5t-116 73t-47.5 114.5z" />
<glyph unicode="6" d="M84 451q0 148 46 269.5t125 200.5t181.5 121.5t216.5 42.5q124 0 208.5 -46.5t84.5 -133.5q0 -51 -31 -78.5t-77 -27.5q-50 0 -73.5 27.5t-21.5 64.5l2 78q-4 19 -11.5 31t-32.5 22t-66 10q-33 0 -65 -7t-76.5 -33.5t-80 -69.5t-68 -125t-48.5 -191q46 26 72.5 39 t77.5 27t102 14q52 0 104 -12.5t102 -39t88 -65t61.5 -95.5t23.5 -124q0 -73 -32 -141.5t-86.5 -120.5t-134 -83.5t-169.5 -31.5q-86 0 -161.5 30.5t-134 88.5t-92.5 150.5t-34 208.5zM276 352q0 -16 1.5 -35.5t7 -52.5t14.5 -63.5t26.5 -63t40.5 -56t59 -39t79 -15.5 q99 0 158 86.5t59 212.5q0 136 -59.5 215.5t-161.5 79.5q-104 0 -164 -75t-60 -194z" />
<glyph unicode="7" d="M121 778q0 17 31.5 151.5t46.5 168.5q13 32 32 32q11 0 27 -24q8 -20 18 -28.5t37 -12.5t86 -4h523l-19 -55q-128 -255 -164.5 -340t-54.5 -172q0 -1 -4.5 -22t-5 -24.5t-4 -24t-4.5 -31.5t-4 -35.5t-5 -47t-5 -56t-5.5 -73t-5.5 -86.5q-9 -145 -106 -145q-47 0 -74 33 t-27 79q0 88 110 334t244 498h-401q-82 0 -127 -26t-80 -87q-16 -28 -35 -28q-24 0 -24 26z" />
<glyph unicode="8" d="M135 248q0 49 21 91.5t62.5 78.5t74 58t84.5 52q-36 18 -60 31.5t-54 37t-47 48.5t-29.5 62t-12.5 81q0 60 25.5 117.5t71.5 103.5t118.5 74.5t159.5 28.5q151 0 242.5 -69t91.5 -164q0 -41 -16 -80.5t-35 -65t-51.5 -53.5t-48 -38.5t-42.5 -27.5q34 -19 54.5 -30.5 t58.5 -40.5t60.5 -56.5t40.5 -70t18 -88.5q0 -146 -122.5 -247t-291.5 -101q-151 0 -262 80.5t-111 187.5zM268 242q0 -83 68 -146t188 -63q63 0 111.5 20.5t75 53.5t40 68.5t13.5 70.5q0 40 -14.5 72.5t-37.5 55.5t-68 46.5t-88 40t-116 41.5q-32 -22 -52.5 -38.5 t-53 -50.5t-49.5 -77.5t-17 -93.5zM311 866q0 -25 8.5 -47.5t20.5 -39t38 -34t45.5 -28.5t60 -26.5t65 -24t76.5 -25.5q21 13 33 21t36.5 30t39 43t26.5 54.5t12 70.5q0 91 -63 145t-160 54q-102 0 -170 -55.5t-68 -137.5z" />
<glyph unicode="9" d="M90 129q0 49 32.5 80t80.5 31q47 0 70.5 -28t23.5 -58q0 -6 -4 -37.5t-4 -36.5q0 -42 34 -62t76 -20q127 0 226 125q81 101 120 332q-141 -80 -278 -80q-150 0 -251 101.5t-101 238.5q0 151 120 260.5t295 109.5q63 0 122.5 -16t115.5 -52.5t98 -90t67 -135.5t25 -183 q0 -124 -36.5 -240t-106 -211.5t-182 -153.5t-252.5 -58q-126 0 -208.5 51t-82.5 133zM317 743q0 -40 5.5 -78.5t20.5 -81t39 -73.5t64.5 -51.5t92.5 -20.5q25 0 50.5 6.5t56.5 26.5t54.5 51t39.5 86.5t16 126.5q0 133 -60.5 215t-158.5 82q-29 0 -57.5 -8.5t-58.5 -30 t-52.5 -53t-37 -82.5t-14.5 -115z" />
<glyph unicode=":" horiz-adv-x="468" d="M113 98q0 51 35 86t85 35q52 0 87.5 -35.5t35.5 -85.5q0 -51 -36 -87t-87 -36q-48 0 -84 35.5t-36 87.5zM113 618q0 51 35 86t85 35q52 0 87.5 -35.5t35.5 -85.5q0 -51 -36 -86.5t-87 -35.5q-48 0 -84 35.5t-36 86.5z" />
<glyph unicode=";" horiz-adv-x="512" d="M102 -307q0 13 25 26q64 32 100.5 98t36.5 113q0 15 -5.5 22.5t-13 9.5t-24.5 3q-5 0 -13 1t-28 8t-35.5 17.5t-28 32t-12.5 50.5q0 61 41 92t95 31q64 0 116 -47.5t52 -116.5q0 -75 -38 -147t-88 -118t-93.5 -74t-61.5 -28q-10 0 -17.5 9.5t-7.5 17.5zM135 618 q0 51 35.5 86t85.5 35q52 0 87.5 -35.5t35.5 -85.5q0 -51 -36 -86.5t-87 -35.5q-48 0 -84.5 35.5t-36.5 86.5z" />
<glyph unicode="&#x3c;" horiz-adv-x="1366" d="M143 551v96l1080 455v-117l-936 -387l936 -387v-117z" />
<glyph unicode="=" horiz-adv-x="1366" d="M143 313v107h1082v-107h-1082zM143 782v107h1082v-107h-1082z" />
<glyph unicode="&#x3e;" horiz-adv-x="1366" d="M143 94v117l936 385l-936 387v119l1080 -457v-96z" />
<glyph unicode="?" horiz-adv-x="917" d="M129 98q0 51 35.5 86t85.5 35q52 0 87.5 -35.5t35.5 -85.5q0 -51 -36 -87t-87 -36q-48 0 -84.5 36t-36.5 87zM131 1176q0 73 67.5 117t184.5 44q111 0 206.5 -48.5t153.5 -138.5t58 -200q0 -151 -96 -254.5t-234 -103.5q-40 0 -77 10t-55 19t-48 26l-21 -278 q-2 -38 -7 -42q-4 -3 -17 -3q-29 0 -34 5t-5 31v416q108 -108 199 -108q57 0 107 53t76.5 128.5t26.5 147.5q0 71 -24.5 137t-76 112t-118.5 46q-23 0 -37.5 -5.5t-20 -17t-6.5 -18.5t-1 -20v-66q-5 -28 -19 -47t-31.5 -26.5t-28.5 -10t-20 -2.5q-36 0 -69 27t-33 70z" />
<glyph unicode="@" horiz-adv-x="1898" d="M92 391q0 196 70 370t194.5 302.5t306.5 203t396 74.5q147 0 268.5 -38.5t203.5 -103.5t139 -152.5t82.5 -183t25.5 -197.5q0 -132 -41.5 -258t-115.5 -227.5t-189.5 -163.5t-251.5 -62q-100 0 -152.5 47t-52.5 131q0 59 24 133l-4 4q-30 -51 -50 -83t-57 -81.5 t-69.5 -78t-76.5 -50.5t-89 -22q-46 0 -80.5 21t-52.5 55.5t-26.5 71.5t-8.5 77q0 115 36 230t94 204t126.5 159t137 107.5t122.5 37.5q34 0 60.5 -12t40.5 -27t23.5 -39.5t12.5 -40t5 -37.5h4l33 119l243 10l-184 -629q-29 -109 -29 -153q0 -33 22.5 -57.5t59.5 -24.5 q41 0 95 26t113 80t108.5 126t81.5 174t32 214q0 99 -25.5 191t-79 172.5t-128.5 140.5t-180 94.5t-228 34.5q-165 0 -309 -51.5t-248 -140.5t-178.5 -206.5t-111.5 -251.5t-37 -274q0 -178 61.5 -327t167.5 -249.5t248.5 -156t304.5 -55.5q88 0 178.5 17.5t187 59.5 t180 104t156 157.5t117.5 214.5h62q-39 -95 -89.5 -176t-103 -139t-114 -105t-116.5 -76.5t-117 -52t-108.5 -33.5t-97.5 -17t-78.5 -7.5t-56.5 -1.5q-187 0 -350.5 64t-281.5 178t-186.5 278.5t-68.5 357.5zM743 231q0 -42 18 -68t42 -26q34 0 85 55t98 136t80.5 187 t33.5 196q0 70 -22 102.5t-48 32.5q-17 0 -43 -13.5t-45 -41.5q-90 -129 -144.5 -298t-54.5 -262z" />
<glyph unicode="A" horiz-adv-x="1472" d="M51 18q0 11 7 17.5t13 8.5t19 5q25 5 43 11t36 19t30 24t28 38t26 47t28 65.5t30.5 79.5t36.5 101q88 242 121.5 332t91.5 234.5t141 338.5h58q9 -21 53 -125.5t83 -198t50 -122.5q5 -12 123.5 -330.5t144.5 -376.5q17 -38 35 -64.5t33 -41.5t38 -23.5t39 -11.5t46 -6 q31 -4 31 -27q0 -22 -33 -22q-5 0 -103 4q-94 4 -114 4q-3 0 -27.5 -0.5t-62 -1t-70.5 -0.5q-152 -4 -180 -4q-31 0 -31 22q0 15 11 19t63 12q96 11 96 86q0 31 -14.5 80t-96.5 291q-204 -4 -438 -4q-15 -35 -34 -84.5t-43.5 -130.5t-24.5 -121q0 -31 16.5 -54.5t42.5 -36.5 t44 -18.5t36 -9.5q38 -8 46.5 -12t8.5 -17q0 -24 -30 -24q-26 0 -170 4q-140 4 -166 4q-3 0 -25.5 -1t-41.5 -1t-25 2q-19 4 -19 20zM457 569q8 0 73 2t80 2q17 0 117 -2t119 -2q-77 205 -199 494q-38 -91 -100 -251t-90 -243z" />
<glyph unicode="B" horiz-adv-x="1280" d="M63 10q0 14 13.5 20t64.5 17q50 11 72.5 35.5t34.5 87.5q18 96 18 582q0 393 -35 456q-23 40 -112 54q-12 1 -18.5 9t-6.5 17q0 23 47 23q303 0 336 2q205 10 260 10q76 0 144 -17t125 -51.5t90.5 -94t33.5 -136.5q0 -47 -13 -88t-31.5 -69.5t-50 -54t-56 -40.5 t-63 -29.5t-57.5 -20.5t-52 -15v-5q40 -11 68 -19t71.5 -25t74 -34t65.5 -44t56 -57.5t35.5 -72.5t14.5 -90q0 -108 -60.5 -194t-164 -133t-228.5 -47q-15 0 -83 2.5t-107 3.5t-106.5 3.5t-82.5 2.5q-113 0 -278 -10q-19 8 -19 22zM481 272q0 -173 15 -192q11 -14 57 -22 t76.5 -9.5t52.5 -1.5q128 0 201 81.5t73 215.5q0 63 -16 114t-38.5 82.5t-57.5 54.5t-63.5 34t-67 17t-56.5 6.5t-43 0.5q-64 0 -127 -2q0 -27 -3 -188t-3 -191zM483 926q0 -59 4 -211q33 0 51 0.5t56.5 3t62 7t59.5 15t59 24.5t50 37t42 52t25.5 69.5t10.5 88.5 q0 74 -23 126.5t-64 80t-87.5 39.5t-103.5 12q-56 0 -138 -23q0 -29 -2 -171t-2 -150z" />
<glyph unicode="C" horiz-adv-x="1323" d="M74 639q0 137 46 262t128.5 220t207.5 151.5t273 56.5q79 0 158 -19t118.5 -36.5t96.5 -46.5q23 17 32 26.5t37 44.5q10 15 25 15q11 0 17 -10t6 -21q24 -270 24 -373q0 -28 -24 -28q-10 0 -14.5 5.5t-18.5 35.5q-166 354 -436 354q-180 0 -292 -160t-112 -432 q0 -136 32 -247t82.5 -181t115 -117t126 -66.5t119.5 -19.5q233 0 398 269q15 24 30 24q14 0 22.5 -9.5t8.5 -19.5q0 -15 -20.5 -52.5t-66 -88t-107 -96t-157 -77.5t-202.5 -32q-137 0 -257.5 50t-207.5 137t-137.5 212t-50.5 269z" />
<glyph unicode="D" horiz-adv-x="1599" d="M39 8q0 17 10.5 21.5t48.5 7.5q90 9 122.5 46.5t43.5 127.5q4 34 12.5 355t8.5 372q0 57 -2 101.5t-8 77.5t-11.5 56.5t-17.5 39.5t-20.5 25.5t-27 15.5t-30 8.5t-35.5 5.5q-22 0 -22 22q0 25 39 25q8 0 46 -2.5t60 -3.5q26 -1 63.5 -5t42.5 -4q33 0 88.5 1t139.5 2 t139 2h17q228 0 401 -80q163 -75 261.5 -230.5t98.5 -365.5q0 -90 -21.5 -176.5t-75 -175t-134.5 -155t-210.5 -108t-291.5 -41.5q-29 0 -301 21q-74 4 -168 4q-21 0 -115 -4q-23 -1 -62.5 -3.5t-47.5 -2.5q-41 0 -41 20zM485 226q3 -29 8 -56.5t23 -52t44.5 -43t72 -29 t106.5 -10.5q220 0 358 159.5t138 419.5q0 60 -9 123t-33.5 146t-80.5 161t-137 132q-50 33 -119.5 52t-193.5 19q-134 0 -142 -28q-3 -13 -7.5 -101t-9 -215.5t-8 -248t-6.5 -234.5t-4 -137q-2 -14 -2 -28.5t2 -28.5z" />
<glyph unicode="E" horiz-adv-x="1343" d="M43 20q0 13 13 18.5t69 14.5q31 5 45.5 10t34.5 22t28.5 46.5t15.5 84t7 134.5q0 477 -3.5 622.5t-16.5 190.5q-17 62 -142 90q-16 4 -20 9t-4 12q0 29 39 29q25 0 152.5 -4.5t148.5 -4.5l405 2h322q20 -81 35 -155.5t20.5 -108.5t5.5 -39q0 -7 -5.5 -14.5t-12.5 -7.5 q-17 0 -29 24q-18 29 -63.5 81.5t-79.5 82.5q-53 46 -118 65t-177 19q-110 0 -228 -16q-12 -137 -14 -518h46q31 1 53 1q36 2 73.5 7.5t58.5 16.5t43.5 32t38 50t33.5 73l4 8l4 8t3.5 6t4 5.5l4 4t5.5 3t6 0.5q7 0 13.5 -6.5t6.5 -20.5q0 -21 -2 -27q-6 -88 -6 -190l2 -246 q0 -31 -22 -31t-27 37q-13 64 -40 104.5t-73.5 62t-97.5 30t-131 10.5q-2 -105 -2 -188q0 -229 16 -297q28 -117 248 -117q95 0 175.5 20.5t128.5 47t88 64.5t55 60t28 46q15 34 21 41.5t18 7.5q21 0 21 -25q0 -8 -10.5 -61.5t-28 -131t-33.5 -130.5q-192 -1 -324 -1t-204 1 q-31 0 -183 8q-114 6 -157 6h-240q-2 0 -7 0.5t-7 1t-6.5 1t-6.5 1t-5.5 1.5t-5.5 2.5t-3.5 3.5t-2.5 5t-1 6z" />
<glyph unicode="F" horiz-adv-x="1300" d="M57 1262q0 11 9 19t22 9q52 5 407.5 11t450.5 6q228 0 242 -9q9 -6 12.5 -18t9.5 -59q3 -18 17.5 -109.5t15.5 -95.5v-10q0 -9 -5 -17t-11 -8q-4 0 -8.5 2t-7.5 4t-6.5 6.5t-5 6.5t-5.5 7.5t-4 6.5q-27 46 -62 82.5t-69.5 60t-77 41t-76.5 26.5t-75 14t-66.5 6t-56.5 1 q-53 0 -117 -6t-76 -18q-10 -9 -13.5 -29.5t-4.5 -62.5v-11q-7 -172 -7 -317q0 -63 3 -84q28 -2 54 -1q26 0 52 1q50 3 90.5 13t73 39t53.5 77q0 2 9.5 43.5t13.5 48.5q7 10 18 10q27 0 26 -30v-39q-4 -95 -8 -207q-1 -30 -1.5 -85t-1 -93t-1.5 -43q-3 -15 -12.5 -22 t-17.5 -7q-12 0 -16 11t-7 48q-5 52 -40.5 100t-86.5 62q-36 10 -72 12q-18 1 -49 1t-77 -1q-5 -64 -5 -381q0 -33 1 -52.5t4.5 -51.5t13 -52t24.5 -40.5t41 -30.5t60 -10q28 0 41.5 -4.5t13.5 -20.5q0 -24 -35 -24q-19 0 -137 8q-28 1 -79.5 3.5t-63.5 2.5q-8 0 -29 -1 t-51.5 -2.5t-52.5 -2.5q-110 -8 -125 -8q-27 0 -27 26q0 13 12 17.5t54 7.5q44 3 67 24t33 78q20 128 20 416q0 536 -34 614q-18 40 -54 55t-65 15q-38 0 -50 3.5t-12 17.5z" />
<glyph unicode="G" horiz-adv-x="1579" d="M74 645q0 195 98.5 353.5t265 246.5t363.5 88q113 0 184.5 -21t210.5 -83q32 -12 47 -12t24 7.5t23 30.5q9 15 25 15q15 0 19 -9.5t8 -47.5q1 -8 1 -13q1 -17 9 -88t15 -134t7 -73q0 -24 -22 -24q-5 0 -9 1t-7 2.5t-6 4.5l-4.5 4.5t-4 5.5t-3.5 5.5t-3 5.5t-2 5 q-33 66 -76 123.5t-103 113t-140 88t-169 32.5q-101 0 -184 -40.5t-136.5 -104.5t-90.5 -146.5t-52.5 -164t-15.5 -159.5q0 -135 43 -253.5t112.5 -197.5t158 -124t180.5 -45q96 0 167.5 44.5t106.5 98.5q19 32 19 111q0 74 -1.5 107t-10.5 76t-29.5 59.5t-57.5 29t-94 12.5 q-45 0 -45 25q0 17 12 22t47 7q172 8 537 8q45 0 45 -25q0 -31 -51 -37q-84 -10 -108 -42q-19 -26 -22 -111q0 -9 -1 -43q0 -34 -4.5 -121.5t-8.5 -95.5q-6 -14 -55 -43.5t-123 -62t-179 -57t-204 -24.5q-96 0 -192.5 23.5t-189.5 76t-164.5 128.5t-115.5 190.5t-44 251.5z " />
<glyph unicode="H" horiz-adv-x="1556" d="M55 12q0 13 9.5 18t41.5 13q33 9 47.5 14t34 17.5t28.5 32.5t13 51q9 70 18 273t9 296q0 402 -37 469q-16 29 -37.5 36.5t-85.5 14.5q-30 2 -30 27q0 20 36 20q41 0 256 4.5t250 4.5q37 0 37 -25q0 -13 -12 -18t-55 -11q-29 -4 -48 -12.5t-29.5 -17.5t-15.5 -30.5 t-6 -38.5t-2 -56q-3 -165 -3 -280q0 -69 1 -120q117 -6 305 -6q138 0 303 6q9 202 9 277q0 76 -7 126t-18 79.5t-34.5 45.5t-45.5 21t-61 8h-3q-37 7 -38 27q0 22 41 22q10 0 83.5 -1t123.5 -1q176 -4 204 -4h170q17 -3 17 -18q0 -25 -35 -25q-83 -5 -122.5 -35t-45.5 -112 q-9 -127 -16 -406.5t-7 -439.5q0 -51 5 -83t20.5 -63t48.5 -48t86 -23q16 -3 23.5 -4.5t14.5 -7.5t7 -15q0 -24 -47 -24q-19 0 -133 4q-110 4 -133 4q-38 0 -131 -3t-115 -3h-18q-29 0 -29 22q0 12 9.5 17.5t35.5 5.5q115 0 127 98q14 121 14 486q-183 6 -247 6 q-116 0 -361 -13q-8 -106 -8 -229q0 -211 11.5 -259.5t74.5 -74.5q4 -1 20.5 -5t31 -8t18.5 -7q8 -12 8 -19q0 -22 -37 -22q-21 0 -127 4t-129 4q-5 0 -48 -1t-73 -1q-29 0 -71 -2t-46 -2q-45 0 -45 20z" />
<glyph unicode="I" horiz-adv-x="747" d="M88 1278q0 22 35 22q122 -4 250 -4q36 0 130 2t130 2q45 0 45 -22q0 -6 -1.5 -10t-5 -7t-6.5 -5t-9 -3.5t-8.5 -2t-9 -1t-7.5 -0.5q-35 -1 -61.5 -14t-40.5 -31.5t-20.5 -32.5t-8.5 -26q-19 -78 -19 -443q0 -487 27 -569q13 -40 42.5 -61.5t80.5 -30.5q27 -5 34 -9t7 -16 q0 -26 -43 -26q-7 0 -19.5 1t-13.5 1q-63 8 -201 8q-128 0 -243 -8h-13q-37 0 -37 24q0 13 11 17t59 10q66 8 84 80q10 55 10 375q0 585 -26 669q-5 16 -13 29t-21 22t-22 14.5t-27 10l-24 6t-24 4.5q-21 3 -21 25z" />
<glyph unicode="J" horiz-adv-x="811" d="M-25 143q0 54 33.5 87.5t87.5 33.5q50 0 74.5 -28.5t24.5 -55.5q0 -23 -11 -41q-22 -38 -22 -53q0 -8 2.5 -17.5t18 -21.5t42.5 -12q26 0 47 8t35.5 26.5t25 36.5t17 50t10.5 53.5t5 61t1.5 59t0.5 59.5v539q0 46 -0.5 69t-2.5 62t-6 59.5t-12.5 48t-21 42t-31.5 26.5 t-43 16q-41 6 -51.5 11t-10.5 20q0 16 13 19.5t53 3.5q188 -11 227 -11q16 0 90 4q23 0 55.5 1t35.5 1q84 0 98 -8q10 -5 10 -20q0 -23 -27 -23q-29 0 -50.5 -2.5t-38.5 -11.5t-28 -18.5t-19.5 -31t-12.5 -41t-6.5 -56.5t-3 -69t-0.5 -87v-234v-124t-1 -101.5t-2.5 -86 t-5.5 -67.5t-8.5 -58t-12.5 -45.5t-16.5 -41t-22.5 -33t-28.5 -34t-35.5 -33.5q-110 -101 -254 -101q-92 0 -157 45.5t-65 124.5z" />
<glyph unicode="K" horiz-adv-x="1429" d="M72 1278q0 10 5 15.5t17.5 8t22 3t28.5 0.5l447 5q33 0 33 -24q0 -14 -10.5 -17.5t-57.5 -6.5q-30 -3 -50 -14t-29 -29.5t-12 -36t-3 -41.5q0 -253 8 -475q129 115 207 192.5t199 218.5q67 78 67 111q0 60 -102 72q-27 3 -34 6.5t-7 17.5q0 25 28 25q20 2 177 1 q286 0 311 -1q18 -3 18 -23q0 -16 -13 -20q-6 -2 -28 -5l-6 -1q-33 -4 -60.5 -11.5t-60.5 -25.5t-56 -31.5t-64.5 -51t-66.5 -60.5t-82.5 -83.5t-92 -97.5t-113.5 -123h9q97 0 163 -21q70 -22 118.5 -74.5t77.5 -125.5t54 -190q12 -60 28 -107.5t31 -79.5t35 -56t34.5 -37 t36.5 -22.5t34 -12.5t33 -7q34 -8 34 -27q0 -16 -10 -19t-41 -3q-12 0 -86 4q-20 0 -49.5 1t-32.5 1q-95 0 -155 -6q-47 53 -63 108.5t-56 296.5q-6 34 -13 64.5t-23.5 77t-38 79t-56.5 56.5t-78 24q-39 0 -80 -18.5t-65.5 -37.5t-61.5 -52q-8 -76 -8 -262v-67t1.5 -52.5 t2.5 -44.5t5.5 -33t9 -27.5t14.5 -18.5t19.5 -16t26.5 -10.5t33.5 -11t42.5 -8.5q14 -3 22 -8.5t9.5 -9t1.5 -5.5q0 -11 -8 -18.5t-20 -7.5q-33 0 -189 4l-158 4q-12 0 -79 -5t-80 -5q-20 0 -28.5 8.5t-8.5 17.5q0 8 6.5 12.5t13.5 6t23 4.5q26 2 59.5 23t44.5 55 q13 49 24 258.5t11 314.5q0 49 -1.5 128.5t-11 210.5t-26.5 167q-16 29 -40 39.5t-74 17.5q-37 3 -37 25z" />
<glyph unicode="L" horiz-adv-x="1300" d="M53 8q0 11 7.5 16.5t14.5 6.5t27 2q85 6 122 49.5t50 136.5q11 70 11 735q0 92 -16 154.5t-46 94.5t-61 45.5t-74 17.5q-12 1 -18.5 9t-6.5 15q0 23 39 23q9 0 73.5 -2t107.5 -2q76 -2 172 -2h254q8 0 15 -5.5t7 -15.5q0 -14 -14.5 -20t-83.5 -21q-72 -16 -98 -58 t-29 -124q-6 -167 -6 -596q0 -285 26.5 -351.5t163.5 -66.5q36 0 54.5 0.5t54 3.5t57.5 8.5t56.5 16.5t59.5 27.5t58 41.5t61 57t59.5 76.5t61.5 98.5q15 30 21 36.5t18 6.5q19 0 19 -27q0 -7 -6.5 -50t-14 -92t-8.5 -60q-13 -99 -39 -205q-44 0 -273 6t-267 6 q-167 0 -336 -8q-75 -6 -131 -6q-101 0 -121.5 3t-20.5 19z" />
<glyph unicode="M" horiz-adv-x="1921" d="M47 10q0 12 13.5 18t72.5 17q79 17 108 79t31 208q1 27 4.5 185.5t6 294.5t2.5 177q0 55 -6 95t-22.5 80t-51.5 65t-88 33q-23 4 -30.5 5.5t-13 7.5t-5.5 17q0 14 10.5 17.5t48.5 3.5q16 0 164 -4q35 -1 108 -2t101 -3q123 -256 278 -561t201 -383q191 339 459 944h420 q34 0 34 -22q0 -14 -16 -19.5t-72 -13.5t-81 -44t-33 -99q-7 -48 -20 -278.5t-13 -348.5q0 -100 1 -157t5.5 -109t11 -76t21 -44.5t31 -28t45.5 -13.5q5 -1 30 -4t29 -4q12 -8 12 -18q0 -3 -1.5 -7.5t-9.5 -11t-22 -6.5q-28 0 -104.5 3t-106.5 3q-216 0 -303 -6h-20 q-13 0 -24 6.5t-11 20.5q0 11 8 14.5t33 5.5q29 2 52 11.5t37.5 20t25 32t15.5 36t8 43.5t3.5 43t1.5 46q1 27 9 235.5t16 404t8 199.5q-9 1 -18 -12t-17 -33q-32 -64 -117.5 -238.5t-212 -443t-151.5 -344.5q-10 -37 -29 -37q-10 0 -15.5 6.5t-14.5 28.5 q-38 89 -90.5 199.5t-117 238t-109 214.5t-113.5 218t-84 160h-13q-12 -450 -12 -801q0 -35 1.5 -58t9.5 -55.5t23 -53t44 -38t70 -22.5q50 -6 59.5 -10t9.5 -17q0 -20 -26 -20h-183q-23 0 -137 -4t-135 -4q-33 0 -33 18z" />
<glyph unicode="N" horiz-adv-x="1556" d="M47 1274q0 17 12 19.5t74 2.5h273q244 -289 602 -694q157 -179 217 -250q6 399 6 508q0 88 -1.5 128t-11.5 96t-30.5 81t-59.5 47t-98 29q-39 4 -49 8t-10 15q0 28 45 28q30 0 189.5 3t185.5 3q97 0 116 -3t19 -21q0 -23 -33 -23q-41 -3 -72.5 -14.5t-51.5 -26t-34.5 -40 t-21.5 -44.5t-10.5 -52.5t-4 -52.5t-0.5 -54q0 -609 -10 -928q0 -47 -22 -47q-15 0 -43 28q-67 76 -243 276t-243 276.5t-172.5 198.5t-181.5 214l-4 -4q0 -7 0.5 -65.5t1 -87.5t1.5 -94t2.5 -106.5t3.5 -103t5 -105t6.5 -91t8 -83t10.5 -59.5q29 -124 188 -135q15 -2 21 -3 t14 -6.5t8 -16.5q0 -25 -49 -25q-20 0 -144 4t-134 4q-14 0 -95 -4t-96 -4q-47 0 -47 25q0 24 57 24q57 3 93.5 21t54.5 53.5t24 74.5t6 99q0 135 -6.5 395t-15.5 314q-16 87 -79.5 156.5t-111.5 80.5q-40 8 -49.5 13t-9.5 18z" />
<glyph unicode="O" horiz-adv-x="1515" d="M84 637q0 135 54 261t145.5 220t220 150.5t270.5 56.5q144 0 268 -52.5t209 -141t133 -206.5t48 -247q0 -131 -50.5 -257.5t-139.5 -226t-222 -160.5t-285 -61q-146 0 -269.5 53.5t-206.5 144.5t-129 211.5t-46 254.5zM356 649q0 -282 114 -448t288 -166q172 0 286.5 165 t114.5 449q0 142 -32 259.5t-86.5 194.5t-127.5 119t-155 42q-172 0 -287 -166t-115 -449z" />
<glyph unicode="P" horiz-adv-x="1280" d="M86 1286q0 23 37 23l430 2h26q203 0 301 -15q104 -16 177 -63q58 -36 94.5 -107.5t36.5 -154.5q0 -73 -26.5 -132t-65 -96t-96.5 -63.5t-105 -39t-108.5 -19.5t-89 -8t-62.5 -1q-78 0 -164 4q-10 -157 -10 -184q0 -48 4.5 -159t9.5 -134q9 -32 39 -55t102 -39 q18 -4 23.5 -10t5.5 -15q0 -14 -14 -17t-49 -3l-465 -2q-29 0 -29 22q0 13 9 18.5t32 10.5q77 17 100 82q25 64 25 561q0 318 -3 395t-18 109q-14 31 -40.5 43t-77.5 21q-29 5 -29 26zM471 670q5 0 48.5 -2t64.5 -2q42 0 82.5 5.5t93 26t91.5 54t66 96t27 145.5 q0 38 -6.5 72t-25.5 70t-48.5 61.5t-81 42t-118.5 16.5q-91 0 -193 -16q4 -78 4 -143q-1 -10 -3 -198q-2 -134 -1 -193v-35z" />
<glyph unicode="Q" horiz-adv-x="1515" d="M82 608q0 138 53.5 268.5t144 228.5t219.5 157t271 59q182 0 332.5 -89t234.5 -236t84 -318q0 -42 -4.5 -84t-24 -110t-51.5 -130.5t-94.5 -137t-146.5 -138.5q-72 -55 -150.5 -95t-365.5 -171v-5q3 0 25 2.5t32 2.5q62 0 108 -20.5t216 -119.5q112 -65 192 -65 q45 0 83 17.5t58.5 37t51.5 55.5q22 31 43 31q8 0 17 -8.5t9 -18.5q0 -26 -71 -106q-78 -88 -155.5 -123t-166.5 -35q-106 0 -192.5 39.5t-182.5 108.5q-109 78 -137.5 93t-69.5 15q-36 0 -61 -13.5t-37.5 -31t-19.5 -45.5t-8 -45t-1 -43q0 -82 -79 -82q-39 0 -60.5 26.5 t-21.5 51.5q0 19 9.5 43t35.5 60.5t84.5 82.5t142.5 93q42 24 195 89t204 83l-4 4q-3 0 -49 -4q-50 -5 -67 -5q-88 0 -176 25.5t-169 79t-143.5 127t-99.5 177t-37 222.5zM354 662q0 -80 13 -162t43 -166t74 -148.5t112.5 -105.5t151.5 -41q80 0 152 39t127.5 111.5 t88.5 186.5t33 253q0 120 -26.5 232t-75.5 201.5t-125.5 143.5t-169.5 54q-72 0 -132.5 -27t-103 -74.5t-74.5 -106.5t-51 -127.5t-28 -134t-9 -128.5z" />
<glyph unicode="R" horiz-adv-x="1429" d="M49 1282q0 27 39 27l105 -2q44 0 274.5 8t267.5 8q218 0 333.5 -91t115.5 -237q0 -52 -16 -96.5t-39.5 -75.5t-59.5 -57t-66.5 -41t-69.5 -27.5t-59.5 -17.5t-46.5 -10v-4q79 -31 121.5 -54t76.5 -65t52.5 -95.5t40.5 -150.5q15 -64 36.5 -110.5t41 -71t49 -40.5 t47.5 -20.5t49 -9.5q36 -6 43 -9.5t7 -16.5q0 -23 -37 -23q-174 0 -225.5 2t-157.5 12q-17 21 -26 35t-23.5 53.5t-22.5 92.5q-35 210 -57.5 283.5t-75.5 115.5q-64 53 -178 53q-59 0 -115 -8v-170q0 -148 1 -205q2 -86 13 -123q7 -23 19.5 -40t25.5 -26t35.5 -15.5t38.5 -9 t45 -5.5q1 0 5 -1t7 -2.5l7 -3.5t6 -6t2 -9q0 -7 -6 -15t-19 -8q-204 0 -399 4h-8q-13 0 -80 -3t-78 -3q-37 0 -37 25q0 13 10 16t58 6q17 2 26 3.5t30 11.5t33.5 24.5t24.5 45t15 71.5q4 59 4 430q0 122 -6 312t-19 224q-20 48 -48.5 64.5t-90.5 28.5q-34 6 -37 12 q-2 3 -2 10zM473 700q39 1 61 2.5t64.5 5.5t69 9.5t65.5 16.5t63.5 25.5t52.5 37t44 50.5t26.5 66t10.5 84q0 47 -14 92t-43.5 87t-85.5 68t-130 26q-48 0 -178 -19q-9 -181 -9 -355q0 -99 3 -196z" />
<glyph unicode="S" horiz-adv-x="1067" d="M76 406q0 11 6 20.5t16 9.5q13 0 18.5 -7.5t12.5 -27.5q13 -33 48 -99t77 -124q47 -64 123.5 -107.5t167.5 -43.5q119 0 198.5 73.5t79.5 180.5q0 52 -19.5 93.5t-45 69t-86.5 57.5t-105.5 46.5t-140.5 50.5q-36 13 -56.5 20.5t-62 27t-67.5 37.5t-60 47.5t-54 61.5 t-34 76.5t-14 94.5q0 67 29.5 130.5t82 113.5t133 80t175.5 30q70 0 130 -15t90.5 -30t69.5 -39q23 23 35 47q11 25 16 31t15 6q17 0 22 -21q1 -5 2 -17l1 -5l34 -275l7 -32q0 -8 -5.5 -16.5t-17.5 -8.5q-14 0 -20.5 7.5t-24.5 45.5q-16 33 -38.5 66.5t-57 71t-73.5 66 t-90 47t-104 18.5q-110 0 -170.5 -64.5t-60.5 -150.5q0 -50 20 -87.5t64.5 -66t94 -48t128.5 -42.5q44 -13 78 -24t82 -32t84 -42.5t74.5 -54.5t63.5 -70t41 -87.5t16 -107.5q0 -70 -29 -141t-84 -133t-147.5 -101t-206.5 -39q-75 0 -147.5 20t-105 37t-83.5 48 q-24 -38 -39 -72q-7 -18 -13.5 -23.5t-15.5 -5.5q-17 0 -22.5 14.5t-8.5 57.5z" />
<glyph unicode="T" horiz-adv-x="1515" d="M49 987q0 20 35 320q138 0 289 -7q212 -8 286 -8q130 0 498 8q26 1 129.5 4t155.5 3q10 -64 18 -172l10 -131q0 -14 -6 -24.5t-16 -10.5t-16 6t-29 37q-70 96 -79 107q-56 64 -138 88q-95 28 -305 28q-15 -260 -15 -465q0 -545 39 -633q13 -28 32 -46t49 -26.5t53 -11.5 t67 -7q29 0 29 -19.5t-13.5 -24t-72.5 -4.5q-45 0 -162.5 2t-163.5 2q-16 0 -96 -2t-88 -2q-84 0 -103.5 4t-19.5 23q0 4 1 7.5t3 6t5 4.5t5 3t6 2l6 1.5t6 1t5 0.5q42 1 77 11t67.5 40.5t41.5 79.5q16 77 16 306q0 269 -22 747q-96 0 -160 -5t-121 -18t-96.5 -38t-73 -63.5 t-63.5 -96.5q-21 -40 -27 -48t-16 -8q-5 0 -10.5 2t-11 9t-5.5 18z" />
<glyph unicode="U" horiz-adv-x="1642" d="M106 1278q0 25 37 25q185 -5 193 -5l319 5q24 0 35 -0.5t24 -2.5t18 -7.5t5 -14.5q0 -14 -10.5 -18.5t-34.5 -6.5q-114 -10 -139 -128.5t-25 -483.5q0 -196 17 -299.5t82 -167.5q55 -55 133 -78.5t155 -23.5q38 0 74 4.5t86.5 21t89 44.5t70.5 80.5t43 123.5 q27 166 27 504q0 71 -1.5 116.5t-7.5 95t-17 79t-29.5 56t-47 39t-67.5 15.5q-41 4 -48 12q-4 5 -4 15q0 25 39 25h406q47 0 47 -25t-41 -25q-34 -2 -60.5 -16.5t-42 -41t-25.5 -52t-14.5 -65t-5.5 -64.5t-2 -66q-8 -420 -15 -526t-34 -176q-17 -44 -40.5 -80.5t-65 -73 t-95.5 -61.5t-135.5 -40.5t-181.5 -15.5q-238 0 -377 97q-72 50 -103.5 126.5t-31.5 227.5l2 358q0 163 -7.5 254t-18.5 122t-31 52q-13 15 -28 20t-81 19q-20 5 -27.5 10.5t-7.5 16.5z" />
<glyph unicode="V" horiz-adv-x="1429" d="M37 1270q0 17 11.5 20.5t46.5 3.5h5h451q92 0 106 -4q17 -4 17 -20q0 -14 -9.5 -18t-43.5 -7q-18 -2 -27.5 -3.5t-28 -8.5t-28.5 -17.5t-18.5 -32t-8.5 -50.5t4 -54.5t23 -92.5t57 -173q34 -97 199 -526q50 121 156 423t118 343q10 47 10 86q0 81 -102 102q-31 5 -42 10 t-11 17q0 10 3.5 15.5t14.5 7.5t18 2.5t27 0.5h348q22 0 29 -0.5t18 -2.5t14 -7t3 -14q0 -19 -39 -23q-34 -4 -63 -19t-55 -46.5t-45 -60.5t-42.5 -83.5t-38 -92t-39.5 -107.5q-12 -34 -94 -263.5t-98 -271.5q-43 -112 -71.5 -186t-39.5 -101.5t-16 -42.5h-68 q-339 905 -434 1110q-45 97 -77 125.5t-99 36.5q-41 6 -41 25z" />
<glyph unicode="W" horiz-adv-x="2177" d="M39 1266q0 18 9.5 21t47.5 3h482q60 -2 67 -7q4 -6 4 -17q0 -13 -10 -16.5t-57 -8.5q-31 -3 -59.5 -29t-28.5 -63q0 -34 18.5 -84t110.5 -266q16 -36 98.5 -229.5t87.5 -204.5q5 -6 27 -52q22 59 120 344t109 316q-60 162 -90.5 209t-95.5 55q-58 8 -58 29q0 9 3.5 14 t15.5 7t20 2.5t31 0.5h487h24t15.5 -2t12 -7t2.5 -13q0 -14 -15 -20t-57 -13q-36 -5 -63 -32t-27 -68q0 -85 73 -267q59 -146 228 -540q50 122 192 528q5 15 14.5 42.5t13.5 39t11 32.5l10 30t8 25.5t6.5 24.5t4.5 21t3.5 21.5t1.5 19t1 21.5q0 5 -1 12.5t-7 24t-16.5 30 t-31.5 25t-50 14.5q-50 6 -50 25q0 10 4 15.5t16 7.5t20 2.5t30 0.5h332q50 0 58 -8q5 -6 5 -16t-8.5 -14.5t-42.5 -12.5q-26 -6 -47 -15.5t-41.5 -29.5t-37 -40.5t-37.5 -61t-37.5 -78.5t-41.5 -105t-46.5 -127t-55.5 -159q-51 -147 -137.5 -382.5t-97.5 -267.5h-43 q-31 80 -189.5 467.5t-177.5 436.5q-10 -28 -58.5 -167.5t-91.5 -263.5t-57 -161q-53 -143 -104 -312h-43q-376 868 -488 1082q-31 60 -60 98.5t-56.5 56.5t-43 24t-41.5 11q-16 3 -20 7.5t-4 13.5z" />
<glyph unicode="X" horiz-adv-x="1515" d="M29 1266q0 20 15.5 24t61.5 4h527q21 0 28 -0.5t18 -2t14 -7t3 -14.5q0 -13 -10.5 -16.5t-48.5 -8.5q-96 -11 -96 -65q0 -65 243 -389q18 27 142 188q53 70 69.5 105.5t16.5 64.5q0 40 -26 62.5t-60 29.5q-48 8 -60 12.5t-12 16.5q0 9 2.5 14t11.5 7.5t16 2.5h27h424 q51 0 59 -8q5 -5 5 -16q0 -9 -7 -14.5t-12.5 -6t-19.5 -2.5q-115 -7 -205 -94q-60 -59 -155 -179.5t-173 -236.5q17 -23 96 -145t93 -141q118 -167 189.5 -250.5t122.5 -116.5t116 -45q29 -5 38 -9.5t9 -17.5q0 -22 -64 -22q-22 0 -142 8t-140 8q-24 0 -151.5 -8t-139.5 -8 q-45 0 -45 24q0 19 33 19q8 0 22.5 2t39.5 8.5t42 23.5t17 42q0 27 -17.5 58.5t-107.5 166.5q-123 184 -150 219q-268 -347 -268 -420q0 -35 37.5 -57t124.5 -37q47 -6 47 -25q0 -16 -17.5 -20t-62.5 -4q-8 0 -28 1t-49 2.5t-50 2.5q-80 6 -105 6q-16 0 -119 -7t-112 -7 q-39 0 -39 24q0 27 45 27q121 3 209 98q50 55 115.5 145t226.5 326q-34 53 -136.5 205.5t-129.5 190.5q-96 132 -157.5 179.5t-145.5 59.5q-27 3 -36 7t-9 16z" />
<glyph unicode="Y" horiz-adv-x="1515" d="M72 1268q0 16 10.5 19t46.5 3h473q53 0 63.5 -2.5t10.5 -19.5q0 -12 -8 -16.5t-43 -10.5q-99 -18 -99 -76q0 -24 16.5 -52t98.5 -148q12 -16 68.5 -99t66.5 -96q15 -24 55 -78q52 67 129 175.5t113 164.5q55 88 55 127q0 21 -9.5 36t-29.5 24t-34 13t-39 9 q-35 7 -41 10.5t-6 14.5q0 20 22 23q8 1 41 1h371q24 0 32 -0.5t21.5 -2.5t18 -7t4.5 -14q0 -12 -9 -15.5t-51 -9.5q-52 -8 -89.5 -29t-92 -81t-141.5 -181q-7 -10 -34.5 -48t-49 -69t-47.5 -68.5t-42.5 -65t-21.5 -40.5q-14 -39 -14 -307q0 -55 0.5 -89t3.5 -69.5t7 -54.5 t12 -38.5t18.5 -28.5t27.5 -17.5t36.5 -12t47.5 -5.5q25 -2 34 -6.5t9 -18.5q0 -22 -51 -22q-35 0 -137 6q-68 4 -145 4q-8 0 -27 -1t-47 -2.5t-49 -2.5q-22 -1 -47 -3t-40 -3.5t-16 -1.5q-41 0 -41 24q0 19 25 19q32 0 57.5 8t42.5 21t29 33.5t19 41t10.5 49t4.5 51.5t1 54 q0 41 -7.5 146.5t-15.5 121.5q-17 33 -63 106t-54 87q-242 416 -358 473q-15 9 -88 28q-14 3 -14 19z" />
<glyph unicode="Z" horiz-adv-x="1323" d="M92 12q0 28 174.5 292.5t381 567.5t241.5 361q-82 8 -242 8q-74 0 -123 -3t-94 -14.5t-73 -26t-62.5 -46.5t-61 -65.5t-69.5 -92.5q-19 -32 -37 -32q-7 0 -12.5 6t-5.5 16q0 5 8 37l96 301q22 -1 77.5 -5.5t90.5 -6.5q105 -6 264 -6q362 0 502 14q6 2 22 2q21 0 21 -12 q0 -20 -275 -423l-12 -18q-65 -94 -214 -317t-222 -340q-39 -63 -86 -143q156 -5 260 -5q106 0 175.5 9.5t135 38.5t120 78t120.5 132q22 28 29.5 34.5t17.5 6.5q8 0 14.5 -6.5t6.5 -13.5q0 -1 -9 -31l-100 -309h-1036q-23 0 -23 12z" />
<glyph unicode="[" horiz-adv-x="1067" d="M225 905q0 240 17 342q6 27 28 27q10 0 199 -13.5t219 -13.5q29 0 114 4.5t103 8.5q18 2 33.5 12.5t15.5 32.5q0 3 -4 20.5t-4 20.5t1 6.5t6 8.5t14 5q16 0 26.5 -12t15 -29.5t6 -28t1.5 -16.5q0 -15 -6 -36t-24 -49.5t-45.5 -51.5t-76.5 -39.5t-110 -16.5q-93 0 -187 20 t-264 75q10 -830 10 -901q0 -514 2 -668q266 111 443 111q63 0 113 -14t78 -34.5t46.5 -46.5t24.5 -47.5t6 -40.5q0 -33 -16 -61.5t-33 -28.5q-9 0 -16 7.5t-7 13.5q0 3 3.5 17t3.5 17q0 58 -109 58q-162 0 -522 -47q-14 -2 -25.5 -4t-16.5 -3t-9 -1.5t-7 -0.5q-16 0 -30 7 q-11 282 -14 530t-3 860z" />
<glyph unicode="\" d="M113 1362h110l709 -1399h-111z" />
<glyph unicode="]" horiz-adv-x="1067" d="M41 -459q0 19 6 40.5t24.5 47.5t46.5 46.5t78 34.5t113 14q177 0 443 -111q2 154 2 668q0 71 10 901q-170 -55 -264 -75t-187 -20q-61 0 -110 16.5t-76.5 39.5t-45.5 51.5t-24 49.5t-6 36q0 6 1.5 16.5t6 28t15 29.5t26.5 12q9 0 14 -5t6 -8.5t1 -6.5t-4 -20.5t-4 -20.5 q0 -22 15.5 -32.5t33.5 -12.5q18 -4 103 -8.5t114 -4.5q30 0 219 13.5t199 13.5q22 0 28 -27q17 -102 17 -342q0 -612 -3 -860t-14 -530q-14 -7 -30 -7q-3 0 -7 0.5t-9 1.5t-16.5 3t-25.5 4q-360 47 -522 47q-109 0 -109 -58q0 -3 3.5 -17t3.5 -17q0 -6 -7 -13.5t-16 -7.5 q-18 0 -33.5 28.5t-15.5 61.5z" />
<glyph unicode="^" horiz-adv-x="960" d="M37 573l432 717h29l426 -717h-111l-332 562l-334 -562h-110z" />
<glyph unicode="_" horiz-adv-x="1024" d="M-12 -154h1048v-102h-1048v102z" />
<glyph unicode="`" horiz-adv-x="681" d="M76 1249q0 33 25.5 55.5t54.5 22.5q60 0 141 -117l133 -192q27 -34 27 -47q0 -9 -9.5 -20t-21.5 -11q-10 0 -16.5 4t-30.5 23l-184 143q-54 42 -81.5 70.5t-32.5 40.5t-5 28z" />
<glyph unicode="a" horiz-adv-x="917" d="M68 186q0 90 59.5 150t148.5 90q19 7 52 18q125 43 157 59t54 50q20 34 20 88q0 81 -38 123.5t-105 42.5q-27 0 -47.5 -7.5t-31.5 -16.5t-20 -27.5t-12 -30.5t-8 -35q-6 -26 -9.5 -38t-14.5 -32.5t-29.5 -30t-46.5 -9.5q-35 0 -63 28.5t-28 59.5q0 79 87.5 133.5 t236.5 54.5q76 0 132.5 -14t90 -36.5t54 -56.5t27.5 -68t7 -77q0 -23 -3 -142.5t-3 -139.5q0 -110 10.5 -171.5t28 -81.5t47.5 -20l45 4q11 0 19 -5.5t8 -14.5q0 -22 -53.5 -35.5t-120.5 -13.5q-56 0 -86.5 4.5t-47 20t-20.5 33.5t-6 56q-110 -123 -254 -123 q-104 0 -170.5 59.5t-66.5 151.5zM260 213q0 -61 34 -109.5t83 -48.5q60 0 115 51q42 38 53.5 91t11.5 153q0 66 -4 144q-34 -31 -64 -50t-145 -84q-27 -15 -55.5 -55.5t-28.5 -91.5z" />
<glyph unicode="b" d="M33 1337q0 25 41 25q157 0 252 -12q2 -40 1 -126q0 -155 -5 -458q41 30 65.5 45.5t70.5 30t99 14.5q89 0 165.5 -34.5t128.5 -92.5t81 -135t29 -160q0 -86 -29.5 -167.5t-82.5 -146t-134 -104t-176 -39.5q-79 0 -169.5 34.5t-148.5 74.5q-17 -23 -31 -51q-18 -35 -26 -35 q-4 0 -7.5 0.5t-6 1t-4.5 2.5t-3.5 3t-2 4.5t-1 6t-0.5 7.5v8.5v11v12.5l15 1067v18q0 50 -10 90q-12 48 -31 60q-28 16 -60 23q-20 6 -20 22zM313 262q1 -60 19 -105t47.5 -71t64 -38.5t72.5 -12.5q107 0 172.5 100t65.5 262q0 62 -12.5 127t-38.5 128t-74.5 103t-112.5 40 q-51 0 -95.5 -27.5t-66.5 -69.5q-21 -39 -31 -111t-10 -152v-173z" />
<glyph unicode="c" horiz-adv-x="874" d="M70 397q0 120 50.5 224.5t148.5 170.5t223 66q44 0 95.5 -12t100.5 -34t81 -61t32 -87q0 -33 -22 -58.5t-60 -25.5q-39 0 -58 26t-40 86q-38 113 -142 113q-40 0 -72.5 -15.5t-53 -39.5t-36 -57.5t-23 -64t-12 -65t-5.5 -54t-1 -38.5q0 -193 81 -310.5t182 -117.5 q22 0 50 8.5t62.5 27.5t64.5 59t44 95q5 17 8 23.5t9.5 13t15.5 6.5q22 0 22 -26q0 -30 -12 -65t-39.5 -72.5t-65.5 -67.5t-96.5 -49t-126.5 -19q-168 0 -286.5 116t-118.5 304z" />
<glyph unicode="d" d="M68 393q0 81 29.5 163.5t80.5 149.5t128.5 109.5t166.5 42.5q160 0 232 -129h4q0 479 -11 522q-4 17 -13.5 29t-25.5 19.5t-28 11t-33 8.5q-20 3 -20 20q0 16 11 19.5t44 3.5h256l-6 -1110q0 -113 5 -137q10 -43 54 -61q16 -7 41 -13q1 0 4.5 -1t5 -1.5l4.5 -1.5t4.5 -2 t4 -2.5t3.5 -3t2.5 -3.5t2 -4.5t0.5 -5.5q0 -8 -3.5 -13t-15 -6.5t-18.5 -2t-27 -0.5h-256q3 47 6 153l-4 5q-19 -35 -34.5 -57t-45.5 -52t-73.5 -45.5t-98.5 -15.5q-150 0 -263 118.5t-113 292.5zM274 420q0 -83 15 -148.5t38 -105t53.5 -65.5t59 -36t56.5 -10q81 0 135 78 q74 105 74 334q0 120 -25 190q-53 148 -184 148q-56 0 -98 -26.5t-65 -66t-37 -94.5t-18 -101t-4 -97z" />
<glyph unicode="e" horiz-adv-x="897" d="M63 401q0 185 125.5 321t294.5 136q149 0 254 -106.5t105 -241.5q0 -23 -9 -32t-38 -9q-181 0 -533 -8q-1 -18 -1 -35q0 -135 42 -225q36 -77 101 -109.5t128 -32.5q49 0 95.5 18.5t73 37t73.5 57.5q24 12 27 12q10 0 16 -7t6 -17q0 -8 -11.5 -27t-38.5 -46t-64.5 -51.5 t-97 -41.5t-128.5 -17q-102 0 -184.5 37t-132.5 98t-76.5 135t-26.5 154zM268 522q78 -4 152 -4h64t50 1.5t41.5 4t29.5 7.5t22.5 12.5t13 18.5t9 25t1.5 34q0 73 -47.5 128.5t-122.5 55.5q-177 0 -213 -283z" />
<glyph unicode="f" horiz-adv-x="618" d="M39 784q0 8 10 35t21 31q3 1 61 5.5t66 4.5q2 56 4 84.5t8 79.5t18 90.5t31 71.5q104 176 326 176q43 0 84.5 -7.5t81 -24t64 -47.5t24.5 -73q0 -38 -27 -57.5t-59 -19.5q-27 0 -51 14.5t-36 29.5t-28 40q-32 52 -56 72t-61 20q-49 0 -80 -29t-46.5 -90.5t-19.5 -138.5 q-2 -44 -2 -100q0 -42 1 -91q147 0 182 -8q5 0 11.5 -4t6.5 -12q0 -14 -11 -44t-27 -34q-23 -4 -63 -4t-99 4q0 -588 8 -627q10 -44 38 -62t89 -32q17 -3 24 -8.5t7 -18.5q0 -22 -31 -22q-3 0 -13 1t-14 1q-74 8 -194 8q-60 0 -189 -12h-12q-13 0 -22 7.5t-9 16.5 q0 13 12.5 18.5t61.5 16.5q36 8 49.5 36.5t16.5 84.5q4 55 6 314t2 270q-8 1 -55 2t-54 2q-33 4 -44 10t-11 20z" />
<glyph unicode="g" horiz-adv-x="1130" d="M72 -356q0 40 18 75t41.5 58.5t67 48.5t72 37.5t79.5 32.5v4q-37 6 -60.5 11t-55.5 16.5t-50 26t-31.5 39.5t-13.5 58q0 130 211 197v4q-44 14 -79 35t-56.5 42t-37.5 47t-23.5 45t-11.5 42.5t-4.5 33t-0.5 21.5q0 136 108.5 238t266.5 102q160 0 256 -96h8 q68 61 111.5 84.5t91.5 23.5q62 0 94.5 -37t32.5 -77q0 -31 -25.5 -56.5t-60.5 -25.5q-54 0 -82 55q-2 4 -7 11q-19 34 -28 37q-3 1 -8 1q-29 0 -90 -61q47 -82 47 -166q0 -16 -2 -35.5t-11 -50.5t-23 -59.5t-40.5 -59.5t-61.5 -55t-88.5 -41t-119.5 -21q-221 -14 -221 -104 q0 -32 21 -47.5t77.5 -23.5t175.5 -11q52 -1 81 -2t75 -4.5t71.5 -8t62 -13.5t56.5 -20.5t43.5 -29.5t35.5 -41t20 -53.5t8 -67.5q0 -52 -16.5 -100.5t-56 -94.5t-98 -80t-150.5 -54.5t-206 -20.5q-413 0 -413 191zM233 -332q0 -50 28 -84.5t73 -50t85 -21.5t81 -6 q162 0 266 66.5t104 163.5q0 153 -301 153q-87 0 -154.5 -20.5t-105.5 -54t-57 -71t-19 -75.5zM330 545q0 -119 51 -192.5t131 -73.5q14 0 28.5 3t37 17t39.5 38t29.5 71t12.5 110q0 138 -45 213.5t-120 75.5q-39 0 -69 -18t-46.5 -48.5t-27.5 -60t-15 -64t-5 -48t-1 -23.5z " />
<glyph unicode="h" horiz-adv-x="1087" d="M45 1331q0 23 47 23q175 0 273 8v-107.5t-0.5 -219.5t-0.5 -218.5t1 -103.5q47 48 80 74.5t83 46.5t109 20q274 0 274 -324l-6 -358q0 -21 1.5 -35.5t7.5 -37.5t22.5 -37t42.5 -17q17 -2 24.5 -4t14 -7.5t6.5 -15.5q0 -16 -11 -19t-48 -3h-273q-23 0 -31 0.5t-19.5 2.5 t-15 7t-3.5 14q0 12 9 17t44 10q28 5 39 20t18.5 90.5t7.5 243.5q0 375 -166 375q-64 0 -115.5 -40.5t-70.5 -90.5q-29 -88 -29 -434q0 -98 15 -133t53 -43q29 -5 37 -9.5t8 -17.5q0 -9 -8.5 -14.5t-20.5 -5.5q-10 0 -96 4t-104 4q-16 0 -89 -5l-73 -5q-23 0 -23 22 q0 14 7.5 19t39.5 12q51 7 62 65q27 122 27 715q0 210 -10 298t-31 128q-12 22 -26 34.5t-25 17.5t-35 12q-1 1 -3.5 2t-4.5 2t-4.5 2t-4 2.5t-3 3.5t-2.5 4.5t-1 5.5z" />
<glyph unicode="i" horiz-adv-x="555" d="M43 14q0 6 2.5 10.5t5 7t9 4.5t9 2.5t9.5 1.5t8 1q85 0 98 65q9 51 9 297q0 326 -27 355q-16 21 -84 28q-37 6 -37 25q0 16 9.5 20.5t39.5 6.5l268 16v-242v-428q3 -88 19 -112.5t86 -30.5q27 -2 38 -6.5t11 -18.5q0 -22 -31 -22l-61 4q-19 0 -46.5 1t-29.5 1 q-11 0 -129 -4q-24 -1 -54.5 -2.5t-51.5 -2.5t-29 -1q-41 0 -41 24zM125 1243q0 46 32.5 79.5t78.5 33.5q47 0 80.5 -33.5t33.5 -79.5t-33.5 -79.5t-80.5 -33.5q-46 0 -78.5 33.5t-32.5 79.5z" />
<glyph unicode="j" horiz-adv-x="555" d="M-176 -381q0 46 28 78.5t76 32.5q45 0 67.5 -25.5t22.5 -54.5q0 -8 -13 -46t-13 -44q0 -20 18.5 -33.5t42.5 -13.5q49 0 101 45q47 43 47 247v9v12q0 15 -2 94t-2 92v561q0 54 -1.5 90t-7 61t-11 37.5t-19 20t-24.5 9t-34 2.5q-41 2 -52 5.5t-11 16.5t9.5 19.5t16.5 7.5 t27 2q26 2 148.5 4.5t134.5 3.5v-750q0 -185 -12.5 -274t-36.5 -152q-25 -64 -63.5 -109t-82.5 -65.5t-80.5 -28.5t-74.5 -8q-97 0 -148 47.5t-51 106.5zM125 1243q0 46 32.5 79.5t78.5 33.5q47 0 80.5 -33.5t33.5 -79.5t-33.5 -79.5t-80.5 -33.5q-46 0 -78.5 33.5 t-32.5 79.5z" />
<glyph unicode="k" d="M31 1305q0 10 14 18q159 16 313 39q0 -482 11 -922q172 133 254 230q43 51 43 80q0 20 -17 27t-67 14q-11 0 -21 5.5t-10 16.5q0 17 16 21q19 8 230 8q58 0 87 -1t45.5 -4.5t19.5 -7.5t3 -14q0 -3 -1 -5.5t-2 -4.5t-3 -4t-4 -3l-5 -2.5t-5 -2t-6.5 -1.5t-6 -1.5 t-6.5 -1.5t-6 -1q-35 -3 -73 -19.5t-62 -37.5q-18 -15 -93.5 -89.5t-84.5 -82.5q35 -16 61 -33.5t48 -46.5t35.5 -51.5t30.5 -71.5t26.5 -81t29.5 -105q10 -37 20 -57.5t30.5 -33t38 -17.5t61.5 -13q36 -6 43.5 -9.5t7.5 -16.5q0 -23 -51 -23h-275q-26 27 -39.5 59 t-27.5 115q-11 64 -28.5 112.5t-34.5 75.5t-41 47t-36.5 26t-33.5 14q-31 -30 -90 -74q0 -34 -1 -63q0 -116 7 -154q14 -92 77 -108q6 -2 13 -3q5 -1 13 -2q20 -3 25 -6t5 -16q0 -16 -10 -19.5t-45 -3.5h-334q-22 0 -31.5 1t-18 8t-8.5 22v3.5t0.5 2.5t2 2t3 1.5t4.5 1 t6.5 1t9 2t11.5 2.5t15 3t18 5q31 8 38 15q8 8 17 30q8 20 10 94q1 32 0 81q0 65 -1 161q-2 168 -2 248v50q0 121 -0.5 178t-3 132.5t-8 115.5t-15.5 61t-34 32t-77 23q-24 6 -24 29z" />
<glyph unicode="l" horiz-adv-x="555" d="M2 1294q0 14 12 18.5t41 6.5q69 3 156.5 15t140.5 28q0 -14 1.5 -367.5t5 -601.5t10.5 -272t19.5 -40t32 -24.5t33.5 -11.5t38 -6q32 -6 32 -25q0 -12 -9.5 -17.5t-17 -6t-24.5 -0.5q-19 0 -117 4t-110 4q-14 0 -85 -5t-83 -5q-49 0 -49 22t45 27q67 6 93 45t26 143 q0 42 -3.5 264.5t-3.5 258.5l-2 329q0 52 -8 85t-29.5 53t-44.5 29.5t-67 21.5q-33 8 -33 28z" />
<glyph unicode="m" horiz-adv-x="1622" d="M31 813q0 21 43 27q34 5 65 8t52.5 5t49.5 2.5t41.5 0.5h45h45.5q12 -60 12 -63q0 -7 -3 -43.5t-3 -42.5q82 82 144 116.5t141 34.5q47 0 86.5 -12t72 -37t47.5 -40t41 -44q27 26 44 40t56.5 40t88.5 39.5t104 13.5q42 0 77 -8t60 -20t44.5 -32t32 -38t21.5 -43t13.5 -43 t6.5 -43.5t2.5 -37t0.5 -30.5q0 -1 -1 -66t-2 -137.5t-1 -93.5q0 -142 12 -179.5t70 -41.5q25 -3 30 -6t5 -16q0 -16 -11.5 -19.5t-50.5 -3.5h-317q-18 0 -25.5 0.5t-17 2.5t-13 7t-3.5 13q0 14 11.5 18t37.5 6q33 2 50 12t30.5 44.5t17.5 97t4 174.5q0 137 -6.5 211.5 t-13.5 93.5t-25 47q-20 31 -50.5 50.5t-64.5 19.5q-13 0 -27 -3t-25 -6.5t-24 -11.5t-21.5 -13.5t-21 -17t-18.5 -17t-17.5 -18.5t-14.5 -17t-13.5 -17t-11.5 -14q-10 -43 -16 -89t-8 -105q-4 -59 -4 -92v-44v-66q0 -76 1 -96q0 -45 8.5 -72t28.5 -37.5t36 -13t48 -2.5 q33 0 33 -20q0 -17 -12.5 -21t-51.5 -4h-342q-21 0 -30 0.5t-19 2t-13 6t-3 11.5q0 14 12 19t49 10q62 8 74 78q12 68 12 293q0 61 -1.5 100.5t-5.5 85.5t-13 74t-24 53t-38 36t-55 11q-20 0 -42.5 -5.5t-53.5 -19.5t-59.5 -46t-47.5 -78q-24 -59 -32.5 -155t-8.5 -267 q0 -34 2 -56t9.5 -47t25 -39t45.5 -18q47 -6 56.5 -9.5t9.5 -14.5q0 -18 -14 -21.5t-64 -3.5h-307q-21 0 -29.5 0.5t-18.5 2.5t-13 6.5t-3 13.5q0 12 13 16q7 2 43 8q26 4 40.5 18.5t18.5 30t6 43.5q10 80 10 324q0 216 -13 263.5t-83 59.5q-3 1 -23 3.5t-22 3.5 q-14 7 -14 20z" />
<glyph unicode="n" horiz-adv-x="1067" d="M31 12q0 20 41 27q45 8 62.5 25.5t21.5 41.5q7 45 11.5 198.5t4.5 238.5q0 126 -21.5 182.5t-76.5 71.5q-17 5 -23 7t-10 7t-4 14q0 25 37 25q106 0 248 10q16 -57 21.5 -92t6.5 -98h4q113 182 314 182q21 0 44 -3t62 -19t68 -42q28 -27 50 -81q21 -52 21 -121v-6 l-6 -400v-9q-1 -65 13 -89q14 -26 49 -37q36 -11 44.5 -16t8.5 -15q0 -4 -1.5 -9t-8.5 -10t-17 -5q-6 0 -23.5 1t-44 2.5t-46.5 2.5q-73 6 -107 6q-26 0 -69 -6q-15 -1 -38 -3.5t-28 -2.5q-14 0 -21.5 7.5t-7.5 16.5q0 20 33 27q71 14 82 57q14 50 14 391q0 285 -155 285 q-35 0 -68 -14t-67.5 -50t-59.5 -91.5t-41 -147t-16 -207.5q0 -55 2 -92t8 -61.5t11.5 -38t20 -21t24.5 -9.5t34 -5q10 -1 14.5 -2.5t9.5 -7.5t5 -17q0 -24 -23 -24q-4 0 -13 1t-11 1q-45 10 -156 10q-14 0 -96 -4q-20 -1 -54.5 -3.5t-41.5 -2.5q-13 0 -24 6.5t-11 17.5z " />
<glyph unicode="o" horiz-adv-x="1024" d="M55 422q0 88 36.5 169.5t97.5 140.5t146.5 94.5t178.5 35.5q127 0 229 -60.5t155.5 -156t53.5 -203.5q0 -80 -32.5 -161.5t-90 -148.5t-145.5 -109.5t-188 -42.5q-187 0 -314 128.5t-127 313.5zM262 432q0 -162 70 -276.5t178 -114.5q96 0 170 102.5t74 259.5 q0 89 -26.5 177t-87.5 154.5t-144 66.5q-63 0 -110.5 -35.5t-73 -92.5t-38 -118t-12.5 -123z" />
<glyph unicode="p" d="M0 -479q0 12 7 18t14 7.5t28 4.5l10 1q10 0 16 1t17 5.5t19.5 11t18.5 19.5t17 30q21 50 21 817q0 202 -3 234q-8 96 -51 120q-12 6 -28 9q-35 6 -43 10t-8 16q0 4 0.5 7.5t2.5 5.5l4 4t5.5 3t6 2t8 1.5t9 0.5t10.5 0.5t11 0.5l258 8q1 -32 1 -64t-1 -65q23 23 38 35.5 t46.5 34t71.5 32.5t86 11q62 0 127.5 -29t122.5 -80.5t94 -134.5t37 -180q0 -106 -39.5 -192t-101.5 -137.5t-133.5 -79t-141.5 -27.5q-45 0 -89 10.5t-63.5 19t-54.5 25.5q-6 -72 -9 -156q-1 -42 -1 -83.5t1 -81.5q3 -81 15 -103q34 -67 93 -72q23 -2 31.5 -7t8.5 -19 q0 -21 -24 -21q-19 0 -27 2q-81 6 -248 6q-27 0 -72.5 -2t-62.5 -2q-14 0 -34.5 7t-20.5 16zM344 299q0 -88 10 -130t43 -75q24 -24 62.5 -38.5t75.5 -14.5q26 0 53 6.5t62 29.5t61 59.5t44.5 103.5t18.5 155q0 81 -15 146.5t-39 106t-55.5 67.5t-62.5 38t-63 11 q-55 0 -98 -29.5t-62 -72.5q-21 -48 -28 -120t-7 -243z" />
<glyph unicode="q" horiz-adv-x="1087" d="M72 406q0 82 30.5 161t85.5 143.5t139.5 104t184.5 39.5q164 0 297 -104q3 4 23.5 39.5t25.5 41.5q4 9 16 9q27 0 27 -49q0 -1093 17 -1153q5 -18 13.5 -31t16.5 -20t24 -11.5t25.5 -6t32.5 -3.5q18 -2 27.5 -6.5t9.5 -18.5q0 -10 -4 -15.5t-16.5 -7.5t-21 -2.5 t-32.5 -0.5h-321l-41 2q-51 0 -51 24q0 14 9.5 18t45.5 9q49 7 69.5 31.5t20.5 101.5l-1 78q-2 78 -3.5 166.5t-1.5 113.5q-119 -63 -240 -63q-74 0 -139.5 24.5t-113.5 65.5t-83.5 93.5t-53 111t-17.5 115.5zM293 424q0 -29 2.5 -59.5t10 -77t24 -85.5t41.5 -75t66 -57 t93 -21q120 0 168 117q25 61 25 162q0 250 -21 334q-3 15 -12.5 34t-28.5 45t-54 43t-79 17q-56 0 -99 -26t-68 -65t-41 -92t-21.5 -99.5t-5.5 -94.5z" />
<glyph unicode="r" horiz-adv-x="831" d="M33 807q0 8 3.5 13.5t10.5 8t12 4t14 2.5l9 1q3 0 262 14q6 -28 12 -100t6 -107h5q44 81 97 131.5t94 66t81 15.5q57 0 100 -32.5t43 -98.5q0 -59 -28.5 -83t-63.5 -24q-32 0 -48 12.5t-38 53.5q-28 55 -61 55t-62.5 -26.5t-48.5 -55.5q-42 -64 -57 -130.5t-15 -202.5 q0 -68 1 -111.5t7 -75.5t10.5 -47.5t19.5 -25.5t26 -12.5t37 -6.5q28 -6 28 -25q0 -8 -4 -13t-14 -6.5t-16 -2t-21 -0.5h-325q-46 0 -54 8q-4 5 -4 14q0 16 11 20t53 7q53 4 64 59.5t11 280.5q0 321 -36 363q-9 11 -26 17.5t-29 8.5t-44 6q-22 6 -22 25z" />
<glyph unicode="s" horiz-adv-x="788" d="M80 250q0 28 4 41.5t8 15.5t12 2q10 0 15.5 -7.5t23.5 -45.5q17 -37 31 -63t37.5 -59t48 -53t60.5 -34t77 -14q70 0 114 41t44 90q0 37 -15 66t-49 52t-62 37t-81 35q-250 101 -250 267q0 95 79.5 164t195.5 69q87 0 174 -41q20 -10 35 -10q6 0 10.5 4t11.5 18 q8 17 21 17q8 0 13.5 -4.5t8 -16t3 -18t1.5 -23.5l8 -145q3 -37 0 -52.5t-20 -15.5q-11 0 -16.5 7.5t-24.5 46.5q-20 43 -35 67.5t-41 54.5t-61.5 44t-81.5 14q-58 0 -99.5 -25t-41.5 -78q0 -52 50 -91t173 -93q132 -57 186.5 -110t54.5 -138q0 -110 -85.5 -198t-219.5 -88 q-54 0 -86.5 10t-120.5 51q-9 6 -22 6q-24 0 -39 -39q-3 -10 -16 -10q-25 0 -25 35q-8 140 -8 217z" />
<glyph unicode="t" horiz-adv-x="704" d="M25 797q0 17 32 30q42 14 76.5 31t58.5 33.5t44.5 40t32.5 41t24.5 47t18.5 47t16 51.5q12 31 26 31q21 0 21 -37q0 -215 2 -252q118 4 246 4q32 0 32 -20q0 -66 -39 -66q-143 -7 -239 -18q-12 -202 -12 -449v-38t2.5 -42t7 -46.5t14.5 -41.5t23.5 -37.5t35.5 -23.5 t50 -10q32 0 55.5 8t81.5 37q12 8 24 8q6 0 11.5 -5.5t5.5 -10.5q0 -15 -32.5 -45.5t-95 -58.5t-126.5 -28q-60 0 -104.5 18.5t-68.5 46t-38.5 67.5t-18.5 74t-4 75q0 49 15 510q-12 1 -78.5 4t-77.5 4q-22 4 -22 21z" />
<glyph unicode="u" d="M68 815q0 16 11.5 19.5t49.5 3.5h207v-514q0 -34 1.5 -59t9 -64t21.5 -64t42.5 -44t68.5 -19q57 0 118 46.5t87 112.5q33 83 33 447q0 59 -16.5 78.5t-57.5 27.5q-25 5 -34 10t-9 17q0 25 90 25h187q10 -88 10 -170q0 -17 -5 -228.5t-5 -214.5q0 -74 9 -113t21 -48.5 t37 -14.5t33 -10.5t8 -18.5q0 -16 -9 -19t-38 -3h-164q-28 0 -39.5 1t-20 8.5t-7.5 23.5l2 51q1 11 1 32.5t-1 53.5q-24 -29 -37 -43.5t-47 -45.5t-63 -47.5t-73.5 -31t-91.5 -14.5q-215 0 -231 241q-3 33 -3 216q1 31 1 65v50q0 191 -4 192q-4 19 -16.5 25t-57.5 16 q-18 9 -18 24z" />
<glyph unicode="v" horiz-adv-x="1003" d="M20 813q0 19 13.5 23t52.5 4h260q27 0 38 -0.5t24.5 -3t17.5 -8t4 -15.5q0 -12 -7.5 -16.5t-33.5 -10.5q-49 -9 -49 -47q0 -30 80 -216t147 -318q54 117 125.5 303t71.5 229q0 24 -11 36.5t-46 19.5q-29 4 -29 22q0 17 13 21t54 4h207q37 0 37 -25q0 -5 -1 -9t-4 -7 t-5.5 -4.5t-7.5 -3t-7 -2t-7.5 -1t-6.5 -0.5q-24 -1 -45 -10t-40 -31t-32.5 -40.5t-31 -57.5t-27 -62.5t-29.5 -74.5q-69 -177 -170 -420q-41 -95 -46 -103q-9 -12 -23 -12q-17 0 -33.5 28t-55.5 113q-17 39 -28 62q-78 169 -140.5 305t-90.5 197q-16 34 -45.5 66t-61.5 40 q-31 4 -31 25z" />
<glyph unicode="w" horiz-adv-x="1449" d="M25 815q0 17 17 21t62 4h261q27 0 39 -0.5t25.5 -3t18.5 -8.5t5 -17q0 -12 -13 -18t-49 -15q-18 -4 -32.5 -15.5t-14.5 -31.5q0 -27 81 -225.5t122 -286.5q45 98 99 244t54 194q0 11 -2 25t-9 38.5t-26 42.5t-47 23q-26 5 -34.5 9.5t-8.5 17.5q0 19 14.5 23t53.5 4h256 q43 0 55.5 -4t12.5 -23q0 -9 -4.5 -15t-9 -7.5t-15.5 -4.5q-62 -14 -62 -61q0 -30 73 -202.5t124 -284.5q42 112 101 287t59 208q0 47 -45 55q-30 3 -41.5 8t-11.5 17q0 19 14 23t55 4h158q18 0 27.5 -1t19.5 -6.5t10 -17.5q0 -11 -8 -16.5t-27 -10.5q-50 -14 -72.5 -48 t-56.5 -130l-202 -583q-1 -4 -4 -13.5t-5 -14.5t-5.5 -11t-9 -8.5t-13.5 -2.5q-29 0 -41 29l-232 574l-215 -560q-1 -2 -4 -12.5t-4.5 -13t-6 -8.5t-11.5 -7.5t-17 -1.5q-12 0 -18.5 8t-15.5 29l-222 512q-91 214 -110 232q-13 13 -74 35q-18 7 -18 22z" />
<glyph unicode="x" horiz-adv-x="1087" d="M39 815q0 17 13 21t44 4h367q25 0 34.5 -1t16 -6t6.5 -16q0 -19 -22 -24q-44 -9 -64 -17t-20 -24q0 -18 63 -105q43 -58 86 -123q2 3 14 18t18.5 23t19 24.5t20.5 27.5t19 27t17.5 28t13.5 24.5t10 22.5t3 18q0 16 -9.5 27t-18.5 14.5t-25 7.5q-29 9 -35 13t-6 16 q0 17 11 21t42 4h213q22 0 32.5 -0.5t22.5 -2.5t16.5 -7.5t4.5 -14.5q0 -22 -31 -22q-55 0 -84 -19q-69 -38 -233 -295q0 -1 14.5 -21.5t31 -44.5t41.5 -59.5t49.5 -69t51.5 -68.5t49.5 -62.5t43 -48t32.5 -27.5q45 -23 109 -33q22 -4 22 -25q0 -16 -13 -19t-50 -3h-371 q-58 0 -64 7q-3 4 -3 13q0 11 7 17t11 7.5t19 4.5q37 4 56 17.5t19 27.5q0 15 -12 34t-68 95q-76 107 -92 125q-70 -100 -103.5 -154t-38.5 -68t-5 -30q0 -8 3.5 -16.5t21 -19t47.5 -13.5q34 -3 43.5 -7t9.5 -18q0 -16 -11 -19t-51 -3h-262q-21 0 -30.5 0.5t-20.5 2.5 t-14.5 7.5t-3.5 14.5t6 12.5t34 9.5q36 9 51 13.5t40 15.5t43.5 28t38.5 43q86 106 172 246q-224 317 -273 359q-19 17 -38 25.5t-31 11t-43 6.5q-27 4 -27 22z" />
<glyph unicode="y" d="M16 -416q0 50 33.5 84.5t79.5 34.5q50 0 76 -27.5t31 -54.5q4 -30 6 -40t9 -17.5t21 -7.5q38 0 81.5 50.5t75 116t52.5 123t21 76.5q0 75 -152 431t-196 411q-9 12 -21 19t-22 9.5t-31 6.5q-25 5 -25 22q0 25 25 25q18 0 100 -10l309 10q10 0 20.5 -8t10.5 -21 q0 -20 -28 -20q-8 0 -21.5 -3t-32 -10.5t-31 -25.5t-12.5 -43q0 -34 43 -137q9 -22 84 -200t88 -212q4 9 42.5 113t80 235t41.5 174q0 50 -20 76.5t-86 34.5q-41 4 -41 22q0 25 39 25q3 0 34.5 -1t53.5 -1l67 -4q10 0 84 4q21 0 52.5 1t35.5 1q27 0 27 -27q0 -7 -7.5 -11.5 t-41.5 -16.5q-30 -13 -46.5 -25.5t-45.5 -61.5t-62 -139q-176 -505 -219.5 -626t-73.5 -185q-22 -48 -42 -85t-51.5 -81t-64 -72t-77.5 -47.5t-94 -19.5q-72 0 -125.5 38t-53.5 97z" />
<glyph unicode="z" horiz-adv-x="917" d="M78 18q0 5 27.5 50t59.5 96t38 61q226 349 340 561q-36 2 -68 2q-119 0 -181 -24q-78 -30 -147 -135q-20 -28 -28.5 -37.5t-18.5 -9.5q-8 0 -14 8t-6 16q0 6 13.5 54.5t31 106t20.5 69.5q54 0 226 2t209 2q96 0 141 -2.5t52 -6t7 -10.5q0 -25 -110 -192 q-20 -29 -163.5 -257.5t-197.5 -318.5q67 -1 97 -1h34h40q44 0 59.5 2t42.5 7.5t37 12t28 19.5t29.5 27t28.5 36q66 88 88 110q4 4 16 4q22 0 22 -20l-59 -250h-649q-45 0 -45 18z" />
<glyph unicode="{" horiz-adv-x="811" d="M147 340v41q62 9 109 34t71.5 57.5t36 63.5t11.5 60q0 17 -3.5 43.5t-8 47.5t-9 41t-4.5 22q-20 87 -20 155q0 63 24.5 125.5t70 117t118.5 93.5t162 51v-35q-103 -25 -164.5 -83t-61.5 -154q0 -58 25 -156q20 -103 20 -155q0 -24 -4.5 -51.5t-23 -70t-48.5 -80t-87 -77 t-132 -65.5v-5q147 -52 221 -149t74 -197q0 -58 -20 -155q-25 -113 -25 -158q0 -179 226 -238v-34q-173 24 -274 138.5t-101 250.5q0 66 20 155q5 15 15 68.5t10 85.5q0 29 -12 60t-36.5 63.5t-71 57t-108.5 32.5z" />
<glyph unicode="|" d="M467 -512v2048h111v-2048h-111z" />
<glyph unicode="}" horiz-adv-x="811" d="M106 -539q226 59 226 238q0 46 -25 158q-20 97 -20 155q0 100 74 197t221 149v4q-75 26 -132 65.5t-87 77t-48.5 80.5t-23 70.5t-4.5 51.5q0 52 20 155q25 98 25 156q0 96 -61.5 154t-164.5 83v35q89 -12 162 -51t118.5 -93.5t70 -117t24.5 -125.5q0 -68 -20 -155 q0 -2 -4.5 -22t-9 -41t-8 -47.5t-3.5 -43.5q0 -29 11.5 -60t36 -63.5t71.5 -57.5t109 -34v-41q-62 -8 -108.5 -32.5t-71 -57t-36.5 -63.5t-12 -60q0 -32 10 -85.5t15 -68.5q20 -89 20 -155q0 -136 -101 -250.5t-274 -138.5v34z" />
<glyph unicode="~" horiz-adv-x="1366" d="M147 457q3 59 17.5 106t33 76t45 50.5t47.5 31.5t45.5 15.5t33.5 6t18 0.5q30 0 54.5 -3.5t110 -32t216.5 -84.5q69 -30 114.5 -45t64 -18t40.5 -3t43 4t45.5 16.5t43 32t33 53.5t19.5 78h48q-3 -135 -75 -210.5t-175 -75.5q-54 0 -107.5 17t-214.5 83q-87 35 -123 48.5 t-76 24.5t-69 11q-42 0 -75.5 -16t-51.5 -35.5t-32 -50t-17.5 -45t-7.5 -35.5h-48z" />
<glyph unicode="&#xa1;" horiz-adv-x="512" d="M127 721q0 51 36 87t87 36q48 0 84.5 -36t36.5 -87t-35.5 -86t-85.5 -35q-52 0 -87.5 35.5t-35.5 85.5zM133 -360q0 25 36 321.5t40 345.5q17 186 20 191q2 8 31 8q21 0 25.5 -10t7.5 -56q9 -148 18.5 -234t38.5 -306q8 -56 12 -88q21 -160 21 -187q0 -17 -4.5 -36.5 t-16 -44t-37.5 -40.5t-63 -16q-58 0 -93.5 41t-35.5 111z" />
<glyph unicode="&#xa2;" horiz-adv-x="874" d="M70 397q0 195 121.5 328t291.5 133q54 0 109 -14l104 299l43 -17l-100 -295q80 -26 121 -72t41 -93q0 -36 -23 -61t-59 -25q-19 0 -33 6t-23.5 17.5t-14 20t-9.5 21.5q-1 2 -16 39.5t-19 44.5l-211 -614q67 -72 148 -72q18 0 44.5 7.5t62 26t66.5 59.5t46 97q5 17 8 23.5 t9.5 13t15.5 6.5q22 0 22 -26q0 -29 -11.5 -63.5t-38.5 -72t-65 -68t-97.5 -50t-129.5 -19.5q-73 0 -121 19l-102 -297l-49 16l104 297q-108 51 -171.5 151.5t-63.5 233.5zM274 469q0 -181 82 -307l213 614q-33 29 -92 29q-40 0 -72 -15.5t-52.5 -39t-36 -57t-23.5 -64 t-12.5 -65.5t-5.5 -55.5t-1 -39.5z" />
<glyph unicode="&#xa3;" horiz-adv-x="1728" d="M47 -76q0 76 71 121t171 45q71 0 134.5 -14t174.5 -49q37 76 80 295l-397 -31l-13 12q-3 51 4.5 61t53.5 13l368 26q55 314 82 426q24 98 61 179t77.5 135t88.5 95t91 64t88 37t75.5 18.5t57.5 4.5q151 0 263 -98t112 -244q0 -74 -35.5 -149t-101 -127t-140.5 -52 q-52 0 -100.5 21t-48.5 43q0 10 7 16t15 6q11 0 23 -6q67 -27 94 -27q58 0 102.5 68t44.5 199q0 79 -22.5 144t-76 109t-130.5 44q-243 0 -307 -324q-1 -5 -99 -565l400 33q22 3 34 1.5t16.5 -8.5t4.5 -26q0 -21 -6 -33l-465 -47q-28 -103 -62 -179t-55 -105.5t-53 -65.5 q202 -58 379 -58q81 0 148.5 12t109.5 30.5t72.5 42.5t44 45.5t18.5 41.5q7 34 12 42t17 8q29 0 29 -50q0 -85 -31 -153.5t-81.5 -109.5t-109.5 -62t-120 -21q-65 0 -143 17t-164 50t-128.5 51t-111.5 50q-38 -32 -68.5 -53.5t-81 -50t-110.5 -43.5t-125 -15 q-117 0 -177.5 46.5t-60.5 113.5zM172 -86q0 -27 12.5 -46t28 -28.5t38 -14.5t34 -6t24.5 -1q19 0 41.5 3.5t64.5 16t83.5 47t70.5 86.5q-42 20 -69 31t-77 23t-99 12q-75 0 -113.5 -39t-38.5 -84z" />
<glyph unicode="&#xa4;" horiz-adv-x="1386" d="M215 195l127 124q-27 36 -44 65t-34.5 88.5t-17.5 125.5q0 65 18 124.5t34.5 88t43.5 66.5l-127 122l76 76l125 -125q29 21 48.5 33t56 29.5t79.5 26t92 8.5q66 0 126.5 -19t86.5 -34.5t66 -43.5l127 125l73 -76l-124 -125q20 -28 31.5 -47.5t28.5 -56t25.5 -80.5 t8.5 -94q0 -65 -18 -123.5t-35 -87t-44 -63.5l127 -127l-73 -74l-127 125q-27 -19 -46.5 -31.5t-56 -29.5t-81 -26t-95.5 -9q-50 0 -93.5 8.5t-80.5 27t-54 28.5t-48 32l-125 -125zM352 598q0 -141 100.5 -241.5t241.5 -100.5t240.5 100.5t99.5 241.5t-99.5 241.5 t-240.5 100.5t-241.5 -100.5t-100.5 -241.5z" />
<glyph unicode="&#xa5;" horiz-adv-x="1515" d="M72 1268q0 16 10.5 19t46.5 3h473q53 0 63.5 -2.5t10.5 -19.5q0 -12 -8 -16.5t-43 -10.5q-99 -18 -99 -76q0 -24 16.5 -52t98.5 -148q12 -16 68.5 -99t66.5 -96q15 -24 55 -78q52 67 129 175.5t113 164.5q55 88 55 127q0 21 -9.5 36t-29.5 24t-34 13t-39 9 q-35 7 -41 10.5t-6 14.5q0 20 22 23q8 1 41 1h371q24 0 32 -0.5t21.5 -2.5t18 -7t4.5 -14q0 -12 -9 -15.5t-51 -9.5q-52 -8 -89.5 -29t-92 -81t-141.5 -181q-7 -10 -37.5 -51t-56 -76.5t-54 -79t-43.5 -78t-12 -53.5h518v-67h-522q0 -13 -1 -88t-1 -101h524v-67h-524 q0 -68 2.5 -103.5t10 -67.5t25.5 -46t44 -22.5t71 -12.5q25 -2 34 -6.5t9 -18.5q0 -22 -51 -22q-35 0 -137 6q-68 4 -145 4q-8 0 -27 -1t-47 -2.5t-49 -2.5q-22 -1 -47 -3t-40 -3.5t-16 -1.5q-41 0 -41 24q0 19 25 19q44 0 76 16.5t48.5 40t25.5 61.5t11 68.5t1 73.5h-543 v67h541q-2 53 -15 189h-526v67h489q-16 32 -44.5 74.5t-39.5 61.5q-242 416 -358 473q-15 9 -88 28q-14 3 -14 19z" />
<glyph unicode="&#xa6;" d="M467 358h111v-716h-111v716zM467 666v716h111v-716h-111z" />
<glyph unicode="&#xa7;" horiz-adv-x="980" d="M86 592q0 189 221 211q-27 47 -40.5 74.5t-28.5 81.5t-15 110q0 121 80.5 207t202.5 86q102 0 175 -55.5t73 -132.5q0 -53 -36 -98.5t-87 -45.5q-36 0 -64 23.5t-28 60.5q0 25 9.5 39.5t35.5 34.5q34 23 34 49q0 27 -27.5 48.5t-74.5 21.5q-76 0 -118 -53t-42 -119 q0 -158 230 -433q182 -219 222 -274q78 -109 86 -191q1 -13 1 -26q0 -175 -217 -213q28 -45 43 -72.5t34 -87t19 -114.5q0 -36 -9.5 -72.5t-32 -72.5t-55 -63.5t-83.5 -45t-113 -17.5q-60 0 -106.5 18t-72.5 46.5t-39 60t-13 62.5q0 48 37 89.5t90 41.5q43 0 65.5 -26.5 t22.5 -55.5q0 -32 -33 -60q-37 -30 -37 -55q0 -33 23.5 -52.5t70.5 -19.5q59 0 105.5 41t46.5 115q0 36 -6 67.5t-24 68.5t-36 66t-59 79t-73.5 87.5t-98.5 110.5q-154 171 -206 270t-52 185zM193 651q0 -66 72.5 -162t332.5 -387l33 -36q47 -2 79 8.5t44.5 28t17 30 t4.5 23.5q0 67 -84 161q-117 130 -193.5 224t-80.5 98q-27 31 -43.5 47.5t-44 32.5t-54.5 16q-36 0 -59.5 -27.5t-23.5 -56.5z" />
<glyph unicode="&#xa8;" horiz-adv-x="681" d="M33 1110q0 45 31.5 77t74.5 32q45 0 77 -32t32 -77q0 -44 -32 -75t-77 -31q-43 0 -74.5 31t-31.5 75zM434 1110q0 45 32 77t77 32q43 0 74.5 -32t31.5 -77q0 -44 -31.5 -75t-74.5 -31q-45 0 -77 31t-32 75z" />
<glyph unicode="&#xa9;" horiz-adv-x="1536" d="M59 633q0 194 96 357t259 257t354 94q192 0 355.5 -94t259.5 -257t96 -357q0 -144 -56.5 -275.5t-151.5 -226.5t-226.5 -151t-276.5 -56q-115 0 -223.5 36t-195.5 101.5t-152.5 152.5t-101.5 195.5t-36 223.5zM150 633q0 -168 82.5 -311t225 -226.5t310.5 -83.5t311 83.5 t226.5 226.5t83.5 311q0 170 -84 313t-226.5 225t-310.5 82q-125 0 -239 -48.5t-197 -131t-132.5 -198t-49.5 -242.5zM336 623q0 197 128 318.5t312 121.5q85 0 197 -41q32 -12 47 -12q38 0 45 51h39v-264h-39q-10 55 -34.5 96.5t-52 63t-60.5 35t-55.5 17t-43.5 3.5 q-64 0 -112.5 -26t-75 -64t-43.5 -90t-22 -95t-5 -88q0 -93 12.5 -160t53.5 -120q33 -43 83 -69t105 -26q149 0 260 140v-72q-121 -127 -317 -127q-81 0 -155.5 26t-134.5 75t-96 128.5t-36 178.5z" />
<glyph unicode="&#xaa;" horiz-adv-x="598" d="M37 922q0 26 6.5 46t24.5 37t34 28t51 25t58 21.5t72 22.5q69 20 69 88q0 88 -82 88q-33 0 -44.5 -14t-18.5 -47q-4 -19 -9 -31.5t-22.5 -24.5t-44.5 -12q-28 0 -49 18.5t-21 38.5q0 48 60 83.5t160 35.5q121 0 166 -42t45 -114q0 -14 -2.5 -85.5t-2.5 -82.5 q0 -153 43 -153l31 4q10 0 18.5 -6t8.5 -12q0 -17 -36.5 -27t-86.5 -10q-47 0 -72 7.5t-31 17t-8 28.5q-64 -57 -153 -57q-70 0 -117 35.5t-47 93.5zM184 938q0 -33 17.5 -59.5t44.5 -26.5q25 0 54 18.5t40 53.5q14 43 8 159q-16 -11 -119 -65q-15 -8 -30 -30t-15 -50z" />
<glyph unicode="&#xab;" horiz-adv-x="1067" d="M61 418l367 330q47 42 62.5 51.5t39.5 9.5q13 0 13 -10q0 -1 -11 -23l-221 -358l213 -342q19 -32 19 -37q0 -10 -27 -10q-9 0 -13.5 0.5t-13.5 6t-22 17.5zM530 418l367 330q47 42 62.5 51.5t39.5 9.5q13 0 13 -10q0 -1 -11 -23l-221 -358l213 -342q19 -32 19 -37 q0 -10 -27 -10q-9 0 -13.5 0.5t-13.5 6t-22 17.5z" />
<glyph unicode="&#xac;" horiz-adv-x="1366" d="M143 782v107h1082v-576h-107v469h-975z" />
<glyph unicode="&#xad;" horiz-adv-x="747" d="M37 385v74q0 31 9.5 37t53.5 6h549q43 0 52.5 -6.5t9.5 -42.5v-68q0 -31 -1.5 -38.5t-9.5 -10.5q-8 -4 -51 -4h-549q-49 0 -59 6q-4 4 -4 47z" />
<glyph unicode="&#xae;" horiz-adv-x="1536" d="M59 633q0 194 96 357t259 257t354 94q192 0 355.5 -94t259.5 -257t96 -357q0 -144 -56.5 -275.5t-151.5 -226.5t-226.5 -151t-276.5 -56q-115 0 -223.5 36t-195.5 101.5t-152.5 152.5t-101.5 195.5t-36 223.5zM150 633q0 -168 82.5 -311t225 -226.5t310.5 -83.5t311 83.5 t226.5 226.5t83.5 311q0 170 -84 313t-226.5 225t-310.5 82q-125 0 -239 -48.5t-197 -131t-132.5 -198t-49.5 -242.5zM373 236v34q29 -1 45 2t31 16t21.5 41.5t6.5 76.5v473q0 79 -15.5 103t-72.5 28v34h363q84 0 140.5 -8t78.5 -17t45 -24q33 -21 61.5 -64.5t28.5 -105.5 q0 -14 -1 -27t-10.5 -42t-26.5 -52t-53.5 -47.5t-86.5 -38.5l137 -249q48 -89 104 -99v-34h-241l-205 368h-47v-198q0 -83 21.5 -108t99.5 -28v-34h-424zM676 655q20 -4 57 -4q58 0 108 44.5t50 133.5q0 172 -176 172h-39v-346z" />
<glyph unicode="&#xaf;" horiz-adv-x="681" d="M31 987v121h618v-121h-618z" />
<glyph unicode="&#xb0;" horiz-adv-x="811" d="M59 995q0 142 102 244t245 102q142 0 244 -101.5t102 -244.5t-102 -244.5t-244 -101.5q-143 0 -245 102t-102 244zM170 995q0 -97 69 -166t167 -69t166.5 69t68.5 166q0 98 -68.5 167t-166.5 69t-167 -69t-69 -167z" />
<glyph unicode="&#xb1;" horiz-adv-x="1366" d="M143 0v106h1082v-106h-1082zM143 727v107h488v487h106v-487h488v-107h-488v-487h-106v487h-488z" />
<glyph unicode="&#xb2;" horiz-adv-x="724" d="M78 719q0 16 24 29q126 71 248 210q57 67 83 121t26 119q0 119 -92 119q-83 0 -131 -64.5t-48 -128.5q0 -12 2 -25t12.5 -28.5t28.5 -15.5q26 0 74 43q14 14 25 14q3 0 7 -1t9.5 -7.5t5.5 -16.5q0 -9 -18 -30t-53 -41.5t-70 -20.5q-62 0 -93.5 41.5t-31.5 85.5 q0 38 21 80t60 80.5t104 63t143 24.5q46 0 83.5 -11.5t60.5 -29.5t38 -41t21 -44t6 -40q0 -35 -9.5 -67.5t-34 -65.5t-46 -57.5t-66.5 -60.5t-73 -56.5t-87 -62.5h154q30 0 48 1.5t44.5 12.5t40.5 33q26 39 34 44q6 3 13 3t12.5 -6.5t5.5 -14.5q0 -10 -4 -20 q-39 -95 -73 -182h-478q-26 0 -26 14z" />
<glyph unicode="&#xb3;" horiz-adv-x="724" d="M84 831q0 38 28 58t56 20q33 0 49 -15.5t16 -37.5q0 -15 -7 -37.5t-7 -27.5q0 -22 19.5 -35t54.5 -13q47 0 84.5 29.5t57 72t29 80t9.5 62.5q0 18 -10 28.5t-19 12.5t-18 2q-35 0 -64 -18q-55 -29 -65 -29t-15.5 8t-5.5 13q0 11 25 28q31 21 50.5 36.5t48.5 42.5t44 57.5 t15 62.5q0 44 -24.5 66t-57.5 22q-62 0 -100.5 -49t-38.5 -94q0 -25 18 -25q4 0 24 9t23 9q7 0 14 -6t7 -12q0 -16 -35 -44t-68 -28q-37 0 -61.5 31t-24.5 66q0 76 83.5 135t199.5 59q87 0 133.5 -40t46.5 -91q0 -30 -11.5 -56t-33.5 -46t-37.5 -31t-40.5 -25 q66 -7 106 -48.5t40 -98.5q0 -90 -86 -166t-226 -76q-102 0 -163.5 41t-61.5 98z" />
<glyph unicode="&#xb4;" horiz-adv-x="681" d="M225 971q0 13 27 47l133 192q81 117 141 117q29 0 54.5 -22.5t25.5 -55.5q0 -16 -5 -28t-32.5 -40.5t-81.5 -70.5l-184 -143q-38 -26 -47 -27q-12 0 -21.5 11t-9.5 20z" />
<glyph unicode="&#xb5;" horiz-adv-x="1024" d="M55 -332q0 7 0.5 13t0.5 11.5t1.5 14t2 14t3.5 17.5t4.5 19.5t5.5 25.5t7 30l9.5 38t10.5 45q19 83 19 294v650h164v-457q0 -46 1 -72t4.5 -65.5t13 -62t24.5 -45.5t40.5 -33.5t59.5 -10.5q115 0 233 135v611h166v-578q0 -50 2 -78t8.5 -55t20.5 -38t37 -11q64 0 82 123 h41q-8 -105 -55.5 -168.5t-143.5 -63.5q-40 0 -69.5 15t-44.5 33.5t-25.5 49.5t-13 48.5t-5.5 44.5q-23 -28 -38 -44.5t-49 -48t-64.5 -50t-74 -33.5t-87.5 -15q-33 0 -58.5 7t-44 22.5t-27.5 26t-23 30.5h-5q0 -99 21 -209q29 -151 29 -178q0 -41 -25 -76.5t-70 -35.5 q-26 0 -44.5 12t-27.5 31t-12.5 35.5t-3.5 31.5z" />
<glyph unicode="&#xb6;" horiz-adv-x="1536" d="M201 735q0 52 8.5 106t39 126.5t79.5 130t139.5 105t210.5 63.5q182 24 510 24h149v-43q-26 -5 -46.5 -9.5t-37.5 -13t-29 -14t-22 -19.5t-16 -22.5t-10 -30t-6 -34t-3.5 -43.5t-1.5 -50v-61v-1433h-90v1712q-96 4 -190 -17v-1695h-90v708q-53 -1 -105.5 -1.5t-118.5 14 t-122 43.5q-88 46 -146 128t-80 163t-22 163z" />
<glyph unicode="&#xb7;" horiz-adv-x="468" d="M113 539q0 51 35 85.5t85 34.5q51 0 87 -34.5t36 -85.5t-36 -87t-87 -36q-50 0 -85 36t-35 87z" />
<glyph unicode="&#xb8;" horiz-adv-x="681" d="M197 -336q0 11 6 16.5t11.5 6.5t21.5 2l10 2q9 2 21.5 4.5t27 9t27 15t20.5 22.5t8 31q0 50 -61 63l43 92q24 67 30 80h44q-4 -15 -12 -36t-13 -35q20 -5 34.5 -11t33 -19t28.5 -37t10 -56q0 -46 -23.5 -79.5t-55 -50.5t-73 -26.5t-66 -11.5t-46.5 -2q-26 0 -26 20z" />
<glyph unicode="&#xb9;" horiz-adv-x="724" d="M170 729q0 9 8 14.5t15 7t12 1.5q30 2 46 6.5t28.5 13t17 31.5t6.5 51.5t2 83.5v211q0 57 -15 85t-57 34q-36 5 -45.5 9t-9.5 17q0 23 29 23q55 0 115.5 14t91.5 31q8 8 18 8q19 0 19 -70q0 -64 -5 -161q-1 -19 0 -68t2 -117t1 -77q0 -70 14 -96t74 -29q11 0 19.5 -7.5 t8.5 -17.5q0 -8 -3.5 -13t-14 -6.5t-16.5 -2t-23 -0.5h-279q-18 0 -24 0.5t-17 2.5t-14.5 7t-3.5 14z" />
<glyph unicode="&#xba;" horiz-adv-x="661" d="M31 1059q0 109 89.5 187.5t215.5 78.5q128 0 210.5 -76t82.5 -178q0 -65 -36.5 -128t-107.5 -106.5t-159 -43.5q-125 0 -210 77t-85 189zM186 1065q0 -91 42.5 -158t105.5 -67q55 0 99 59.5t44 149.5q0 51 -16 102t-52.5 89t-84.5 38q-47 0 -79.5 -36t-45.5 -82t-13 -95z " />
<glyph unicode="&#xbb;" horiz-adv-x="1067" d="M55 37l11 22l221 359l-213 342q-19 32 -19 37q0 10 27 10q22 0 49 -25l406 -364l-367 -330q-47 -42 -62.5 -51.5t-39.5 -9.5q-13 0 -13 10zM524 37l11 22l221 359l-213 342q-19 32 -19 37q0 10 27 10q22 0 49 -25l406 -364l-367 -330q-47 -42 -62.5 -51.5t-39.5 -9.5 q-13 0 -13 10z" />
<glyph unicode="&#xbc;" horiz-adv-x="1515" d="M172 725q0 23 35 23q73 4 86.5 48.5t11.5 256.5l2 94q0 56 -16 84.5t-58 34.5q-38 6 -45.5 9.5t-7.5 16.5q0 23 27 23q56 1 117 15t90 30q16 8 20 8q17 0 17 -70q0 -110 -2 -151l-3 -45q0 -263 12 -310q8 -31 31 -37l17 -3q37 -3 49 -8t12 -21q0 -8 -4 -13t-14 -7 t-18 -2.5t-23 -0.5h-279q-20 0 -29.5 1t-18.5 6.5t-9 17.5zM289 -27l844 1395h92l-842 -1395h-94zM823 223v35q214 227 381 383q27 27 47 27q19 0 23 -10t4 -46v-290l-2 -43q117 -9 129 65q8 43 12.5 52.5t18.5 9.5q24 0 24 -31l-6 -150v-84q-3 -20 -20 -20q-13 0 -18 10 t-11 47q-6 31 -31.5 41t-97.5 10q2 -120 11 -144t43 -33q2 0 5 -1q30 -8 36.5 -12t6.5 -16q0 -16 -9.5 -19.5t-43.5 -3.5h-227q-60 0 -73 3.5t-13 21.5q0 12 8.5 15.5t42.5 8.5q42 7 52 39t15 141q-28 1 -161 -2.5t-146 -3.5zM915 279h215q1 17 4.5 115t4.5 116 q-171 -171 -224 -231z" />
<glyph unicode="&#xbd;" horiz-adv-x="1515" d="M172 725q0 23 35 23q73 4 86.5 48.5t11.5 256.5l2 94q0 56 -16 84.5t-58 34.5q-38 6 -45.5 9.5t-7.5 16.5q0 23 27 23q56 1 117 15t90 30q16 8 20 8q17 0 17 -70q0 -110 -2 -151l-3 -45q0 -263 12 -310q8 -31 31 -37l17 -3q37 -3 49 -8t12 -21q0 -8 -4 -13t-14 -7 t-18 -2.5t-23 -0.5h-279q-20 0 -29.5 1t-18.5 6.5t-9 17.5zM289 -27l844 1395h92l-842 -1395h-94zM866 16q0 12 27 27q25 15 57 37.5t88.5 70.5t99.5 97t76 116t33 130q0 116 -90 116q-43 0 -79 -19.5t-57 -49.5t-32.5 -62.5t-11.5 -60.5q0 -23 10.5 -46.5t34.5 -23.5 q27 0 72 45q16 13 24 13q25 0 25 -25q0 -8 -18.5 -29t-54 -42t-71.5 -21q-61 0 -93 41t-32 86q0 31 13 64.5t40.5 66.5t65.5 59.5t93 43t118 16.5q57 0 100.5 -17.5t65.5 -45t32.5 -54t10.5 -51.5q0 -36 -9 -67.5t-32 -63.5t-45 -56t-66 -58.5t-74.5 -56.5t-90.5 -63v-4h153 q30 0 48 1.5t45 12.5t40 33q19 28 28 37.5t20 9.5q20 0 20 -18q0 -3 -17 -46.5t-38 -95t-25 -63.5h-475q-29 0 -29 16z" />
<glyph unicode="&#xbe;" horiz-adv-x="1515" d="M84 827q0 38 29.5 58t58.5 20q24 0 42.5 -17.5t18.5 -37.5q0 -5 -7 -32.5t-7 -31.5q0 -18 21.5 -33.5t52.5 -15.5q47 0 84.5 30t57 72.5t29 80.5t9.5 63q0 18 -10 29t-19 13.5t-18 2.5q-32 0 -64 -20q-55 -29 -65 -29t-15.5 7.5t-5.5 12.5q0 14 25 31q158 96 158 199 q0 44 -24.5 67t-57.5 23q-62 0 -100.5 -49.5t-38.5 -95.5q0 -25 18 -25q4 0 24 9t23 9q7 0 14 -6t7 -12q0 -16 -35 -44t-68 -28q-37 0 -61.5 31t-24.5 66q0 76 83.5 135t199.5 59q87 0 133.5 -40t46.5 -91q0 -91 -123 -156v-4q79 -12 112.5 -54t33.5 -93q0 -90 -86 -166 t-226 -76q-102 0 -163.5 41t-61.5 98zM289 -27l844 1395h92l-842 -1395h-94zM823 223v35q214 227 381 383q27 27 47 27q19 0 23 -10t4 -46v-290l-2 -43q117 -9 129 65q8 43 12.5 52.5t18.5 9.5q24 0 24 -31l-6 -150v-84q-3 -20 -20 -20q-13 0 -18 10t-11 47q-4 31 -30.5 41 t-98.5 10q2 -120 11 -144t43 -33q2 0 5 -1q30 -8 36.5 -12t6.5 -16q0 -16 -9.5 -19.5t-43.5 -3.5h-227q-60 0 -73 3.5t-13 21.5q0 12 8.5 15.5t42.5 8.5q42 6 52 38.5t15 141.5q-28 1 -161 -2.5t-146 -3.5zM915 279h215q1 17 4.5 115t4.5 116q-171 -171 -224 -231z" />
<glyph unicode="&#xbf;" horiz-adv-x="917" d="M117 -125q0 151 95.5 254.5t233.5 103.5q40 0 77 -9.5t56 -19t48 -26.5l20 279q2 32 5 38.5t20 6.5q29 0 34 -5t5 -32v-416q-109 109 -199 109q-57 0 -107 -53.5t-77 -129t-27 -147.5q0 -71 24.5 -137t76 -112t118.5 -46q23 0 38 5.5t20 17t6.5 19t1.5 19.5v66 q5 28 18.5 47t31 26.5t28.5 10t20 2.5q36 0 69 -27t33 -69q0 -73 -67 -117.5t-184 -44.5q-111 0 -206.5 48.5t-153.5 138.5t-58 200zM545 727q0 51 36 87t87 36q48 0 84 -35.5t36 -87.5q0 -51 -35 -86t-85 -35q-52 0 -87.5 35.5t-35.5 85.5z" />
<glyph unicode="&#xc0;" horiz-adv-x="1472" d="M51 18q0 11 7 17.5t13 8.5t19 5q25 5 43 11t36 19t30 24t28 38t26 47t28 65.5t30.5 79.5t36.5 101q88 242 121.5 332t91.5 234.5t141 338.5h58q9 -21 53 -125.5t83 -198t50 -122.5q5 -12 123.5 -330.5t144.5 -376.5q17 -38 35 -64.5t33 -41.5t38 -23.5t39 -11.5t46 -6 q31 -4 31 -27q0 -22 -33 -22q-5 0 -103 4q-94 4 -114 4q-3 0 -27.5 -0.5t-62 -1t-70.5 -0.5q-152 -4 -180 -4q-31 0 -31 22q0 15 11 19t63 12q96 11 96 86q0 31 -14.5 80t-96.5 291q-204 -4 -438 -4q-15 -35 -34 -84.5t-43.5 -130.5t-24.5 -121q0 -31 16.5 -54.5t42.5 -36.5 t44 -18.5t36 -9.5q38 -8 46.5 -12t8.5 -17q0 -24 -30 -24q-26 0 -170 4q-140 4 -166 4q-3 0 -25.5 -1t-41.5 -1t-25 2q-19 4 -19 20zM457 569q8 0 73 2t80 2q17 0 117 -2t119 -2q-77 205 -199 494q-38 -91 -100 -251t-90 -243zM502 1704q0 33 25.5 55.5t54.5 22.5 q60 0 141 -117l133 -192q27 -34 27 -48q0 -9 -9.5 -19.5t-21.5 -10.5q-10 0 -17 4t-30 22l-184 144q-54 42 -81.5 70.5t-32.5 40.5t-5 28z" />
<glyph unicode="&#xc1;" horiz-adv-x="1472" d="M51 18q0 11 7 17.5t13 8.5t19 5q25 5 43 11t36 19t30 24t28 38t26 47t28 65.5t30.5 79.5t36.5 101q88 242 121.5 332t91.5 234.5t141 338.5h58q9 -21 53 -125.5t83 -198t50 -122.5q5 -12 123.5 -330.5t144.5 -376.5q17 -38 35 -64.5t33 -41.5t38 -23.5t39 -11.5t46 -6 q31 -4 31 -27q0 -22 -33 -22q-5 0 -103 4q-94 4 -114 4q-3 0 -27.5 -0.5t-62 -1t-70.5 -0.5q-152 -4 -180 -4q-31 0 -31 22q0 15 11 19t63 12q96 11 96 86q0 31 -14.5 80t-96.5 291q-204 -4 -438 -4q-15 -35 -34 -84.5t-43.5 -130.5t-24.5 -121q0 -31 16.5 -54.5t42.5 -36.5 t44 -18.5t36 -9.5q38 -8 46.5 -12t8.5 -17q0 -24 -30 -24q-26 0 -170 4q-140 4 -166 4q-3 0 -25.5 -1t-41.5 -1t-25 2q-19 4 -19 20zM457 569q8 0 73 2t80 2q17 0 117 -2t119 -2q-77 205 -199 494q-38 -91 -100 -251t-90 -243zM621 1425q0 15 26 48l133 192q81 117 142 117 q29 0 54 -22.5t25 -55.5q0 -16 -4.5 -27.5t-32 -40.5t-81.5 -71l-185 -144q-23 -18 -30 -22t-17 -4q-12 0 -21 10.5t-9 19.5z" />
<glyph unicode="&#xc2;" horiz-adv-x="1472" d="M51 18q0 11 7 17.5t13 8.5t19 5q25 5 43 11t36 19t30 24t28 38t26 47t28 65.5t30.5 79.5t36.5 101q88 242 121.5 332t91.5 234.5t141 338.5h58q9 -21 53 -125.5t83 -198t50 -122.5q5 -12 123.5 -330.5t144.5 -376.5q17 -38 35 -64.5t33 -41.5t38 -23.5t39 -11.5t46 -6 q31 -4 31 -27q0 -22 -33 -22q-5 0 -103 4q-94 4 -114 4q-3 0 -27.5 -0.5t-62 -1t-70.5 -0.5q-152 -4 -180 -4q-31 0 -31 22q0 15 11 19t63 12q96 11 96 86q0 31 -14.5 80t-96.5 291q-204 -4 -438 -4q-15 -35 -34 -84.5t-43.5 -130.5t-24.5 -121q0 -31 16.5 -54.5t42.5 -36.5 t44 -18.5t36 -9.5q38 -8 46.5 -12t8.5 -17q0 -24 -30 -24q-26 0 -170 4q-140 4 -166 4q-3 0 -25.5 -1t-41.5 -1t-25 2q-19 4 -19 20zM457 569q8 0 73 2t80 2q17 0 117 -2t119 -2q-77 205 -199 494q-38 -91 -100 -251t-90 -243zM467 1415q0 6 16 37l179 336h151l174 -336 l19 -37q0 -9 -9 -10.5t-49 -1.5l-213 213l-207 -213h-32q-29 0 -29 12z" />
<glyph unicode="&#xc3;" horiz-adv-x="1472" d="M51 18q0 11 7 17.5t13 8.5t19 5q25 5 43 11t36 19t30 24t28 38t26 47t28 65.5t30.5 79.5t36.5 101q88 242 121.5 332t91.5 234.5t141 338.5h58q9 -21 53 -125.5t83 -198t50 -122.5q5 -12 123.5 -330.5t144.5 -376.5q17 -38 35 -64.5t33 -41.5t38 -23.5t39 -11.5t46 -6 q31 -4 31 -27q0 -22 -33 -22q-5 0 -103 4q-94 4 -114 4q-3 0 -27.5 -0.5t-62 -1t-70.5 -0.5q-152 -4 -180 -4q-31 0 -31 22q0 15 11 19t63 12q96 11 96 86q0 31 -14.5 80t-96.5 291q-204 -4 -438 -4q-15 -35 -34 -84.5t-43.5 -130.5t-24.5 -121q0 -31 16.5 -54.5t42.5 -36.5 t44 -18.5t36 -9.5q38 -8 46.5 -12t8.5 -17q0 -24 -30 -24q-26 0 -170 4q-140 4 -166 4q-3 0 -25.5 -1t-41.5 -1t-25 2q-19 4 -19 20zM449 1464q0 86 51 148.5t123 62.5q57 0 143 -49q78 -47 121 -47q23 0 39.5 13.5t23 26t13.5 32.5q3 7 5 11t10.5 8.5t20.5 4.5q27 0 27 -28 q0 -8 -1.5 -20.5t-6 -40t-16 -52.5t-29.5 -49.5t-49.5 -39.5t-71.5 -15q-55 0 -123 36q-11 6 -27 14.5t-23 12.5t-17.5 9.5t-15 8t-11.5 5.5t-10.5 4t-8.5 2t-9 1.5t-9 0.5q-58 0 -82 -68q-8 -24 -37 -24q-14 0 -21.5 6t-8 11t-0.5 15zM457 569q8 0 73 2t80 2q17 0 117 -2 t119 -2q-77 205 -199 494q-38 -91 -100 -251t-90 -243z" />
<glyph unicode="&#xc4;" horiz-adv-x="1472" d="M51 18q0 11 7 17.5t13 8.5t19 5q25 5 43 11t36 19t30 24t28 38t26 47t28 65.5t30.5 79.5t36.5 101q88 242 121.5 332t91.5 234.5t141 338.5h58q9 -21 53 -125.5t83 -198t50 -122.5q5 -12 123.5 -330.5t144.5 -376.5q17 -38 35 -64.5t33 -41.5t38 -23.5t39 -11.5t46 -6 q31 -4 31 -27q0 -22 -33 -22q-5 0 -103 4q-94 4 -114 4q-3 0 -27.5 -0.5t-62 -1t-70.5 -0.5q-152 -4 -180 -4q-31 0 -31 22q0 15 11 19t63 12q96 11 96 86q0 31 -14.5 80t-96.5 291q-204 -4 -438 -4q-15 -35 -34 -84.5t-43.5 -130.5t-24.5 -121q0 -31 16.5 -54.5t42.5 -36.5 t44 -18.5t36 -9.5q38 -8 46.5 -12t8.5 -17q0 -24 -30 -24q-26 0 -170 4q-140 4 -166 4q-3 0 -25.5 -1t-41.5 -1t-25 2q-19 4 -19 20zM428 1565q0 45 32 76.5t75 31.5q45 0 76.5 -31.5t31.5 -76.5q0 -44 -32 -75.5t-76 -31.5q-43 0 -75 31.5t-32 75.5zM457 569q8 0 73 2t80 2 q17 0 117 -2t119 -2q-77 205 -199 494q-38 -91 -100 -251t-90 -243zM829 1565q0 45 32 76.5t77 31.5q43 0 74.5 -31.5t31.5 -76.5q0 -44 -31.5 -75.5t-74.5 -31.5q-44 0 -76.5 31.5t-32.5 75.5z" />
<glyph unicode="&#xc5;" horiz-adv-x="1472" d="M51 18q0 11 7 17.5t13 8.5t19 5q25 5 43 11t36 19t30 24t28 38t26 47t28 65.5t30.5 79.5t36.5 101q88 242 121.5 332t91.5 234.5t141 338.5h58q9 -21 53 -125.5t83 -198t50 -122.5q5 -12 123.5 -330.5t144.5 -376.5q17 -38 35 -64.5t33 -41.5t38 -23.5t39 -11.5t46 -6 q31 -4 31 -27q0 -22 -33 -22q-5 0 -103 4q-94 4 -114 4q-3 0 -27.5 -0.5t-62 -1t-70.5 -0.5q-152 -4 -180 -4q-31 0 -31 22q0 15 11 19t63 12q96 11 96 86q0 31 -14.5 80t-96.5 291q-204 -4 -438 -4q-15 -35 -34 -84.5t-43.5 -130.5t-24.5 -121q0 -31 16.5 -54.5t42.5 -36.5 t44 -18.5t36 -9.5q38 -8 46.5 -12t8.5 -17q0 -24 -30 -24q-26 0 -170 4q-140 4 -166 4q-3 0 -25.5 -1t-41.5 -1t-25 2q-19 4 -19 20zM457 569q8 0 73 2t80 2q17 0 117 -2t119 -2q-77 205 -199 494q-38 -91 -100 -251t-90 -243zM569 1591q0 69 49 117.5t117 48.5 q69 0 118.5 -48.5t49.5 -117.5t-49.5 -118.5t-118.5 -49.5q-68 0 -117 49.5t-49 118.5zM655 1591q0 -33 23.5 -57.5t56.5 -24.5q35 0 58.5 24t23.5 58t-24 57t-58 23q-33 0 -56.5 -23.5t-23.5 -56.5z" />
<glyph unicode="&#xc6;" horiz-adv-x="2111" d="M18 12q0 15 9 19.5t41 9.5q85 16 146.5 89t170.5 267q6 11 40 72.5t63.5 115.5t72 132.5t76 143.5t64.5 128.5t48 107t17 60.5q0 49 -37.5 68t-114.5 26q-47 5 -59 9.5t-12 19.5q0 16 12 19.5t53 3.5h1282l82 -285q6 -24 6 -31q0 -9 -6 -15.5t-14 -6.5q-11 0 -21 10.5 t-39 52.5q-53 78 -109 123t-144.5 69.5t-217.5 24.5q-90 0 -184 -8q-14 -194 -14 -530h92.5t73 5t58 14.5t47 29.5t40 50t37.5 75q14 32 19 39.5t14 7.5q10 0 18 -8.5t8 -26.5q0 -13 -5 -111t-5 -116q0 -19 4 -119t4 -117q0 -37 -20 -37q-14 0 -20 13t-11 45q-6 39 -23 69.5 t-35.5 50.5t-51.5 34t-55 21t-64.5 11.5t-61.5 5.5t-63 2v-66.5v-90.5t0.5 -92t2.5 -96.5t5 -77t8 -58.5q25 -119 234 -119q97 0 175 14.5t130 37t93 57.5t65.5 69t46.5 78q12 27 17 33t17 6q9 0 16 -5t7 -13q0 -9 -6 -33l-68 -297h-532q-164 6 -346 6l-240 2q-25 0 -25 23 q0 13 9 18t32 8q25 3 40 7.5t38 17t37 40t19 68.5q16 109 16 463q-15 0 -118.5 -0.5t-189.5 -0.5t-112 1q-225 -373 -225 -508q0 -91 127 -98q43 0 43 -25q0 -20 -43 -20q-17 0 -104 3t-101 3l-225 -6q-34 0 -44 2.5t-10 15.5zM633 713h387q0 315 -8 409q-12 109 -68 109 q-24 0 -57 -43q-29 -39 -92.5 -157t-110.5 -212.5t-51 -105.5z" />
<glyph unicode="&#xc7;" horiz-adv-x="1323" d="M74 639q0 137 46 262t128.5 220t207.5 151.5t273 56.5q79 0 158 -19t118.5 -36.5t96.5 -46.5q23 17 32 26.5t37 44.5q10 15 25 15q11 0 17 -10t6 -21q24 -270 24 -373q0 -28 -24 -28q-10 0 -14.5 5.5t-18.5 35.5q-166 354 -436 354q-180 0 -292 -160t-112 -432 q0 -136 32 -247t82.5 -181t115 -117t126 -66.5t119.5 -19.5q233 0 398 269q15 24 30 24q10 0 19.5 -5.5t12.5 -12t-1 -11.5q0 -15 -17 -48t-56 -78.5t-92 -88t-135.5 -78.5t-176.5 -49q-6 -15 -23 -49q158 -22 158 -147q0 -25 -6.5 -49t-29 -54.5t-59.5 -52.5t-105.5 -37.5 t-159.5 -15.5q-28 0 -40 5t-12 22q0 14 11 18t63 10q27 3 47 7.5t45 15t39 31.5t14 51q0 20 -9 34t-26.5 21.5t-32 11t-36.5 6.5q62 95 96 170q-137 -4 -259.5 44.5t-211 137t-140.5 214.5t-52 270z" />
<glyph unicode="&#xc8;" horiz-adv-x="1343" d="M43 20q0 13 13 18.5t69 14.5q31 5 45.5 10t34.5 22t28.5 46.5t15.5 84t7 134.5q0 477 -3.5 622.5t-16.5 190.5q-17 62 -142 90q-16 4 -20 9t-4 12q0 29 39 29q25 0 152.5 -4.5t148.5 -4.5l405 2h322q20 -81 35 -155.5t20.5 -108.5t5.5 -39q0 -7 -5.5 -14.5t-12.5 -7.5 q-17 0 -29 24q-18 29 -63.5 81.5t-79.5 82.5q-53 46 -118 65t-177 19q-110 0 -228 -16q-12 -137 -14 -518q62 -1 98.5 0.5t74 7.5t58.5 17t43.5 32t38 50t33.5 73l4 8l4 8t3.5 6t4 5.5l4 4t5.5 3t6 0.5q7 0 13.5 -6.5t6.5 -20.5q0 -21 -2 -27q-6 -88 -6 -190l2 -246 q0 -31 -22 -31t-27 37q-13 64 -40 104.5t-73.5 62t-97.5 30t-131 10.5q-8 -392 14 -485q28 -117 248 -117q95 0 175.5 20.5t128.5 47t88 64.5t55 60t28 46q15 34 21 41.5t18 7.5q21 0 21 -25q0 -8 -10.5 -61.5t-28 -131t-33.5 -130.5q-385 -2 -528 0q-31 0 -183 8 q-114 6 -157 6h-240q-2 0 -7 0.5t-7 1t-6.5 1t-6.5 1t-5.5 1.5t-5.5 2.5t-3.5 3.5t-2.5 5t-1 6zM449 1704q0 33 25 55.5t54 22.5q61 0 142 -117l133 -192q26 -33 26 -48q0 -9 -9 -19.5t-21 -10.5q-10 0 -17 4t-30 22l-185 144q-54 42 -81.5 71t-32 40.5t-4.5 27.5z" />
<glyph unicode="&#xc9;" horiz-adv-x="1343" d="M43 20q0 13 13 18.5t69 14.5q31 5 45.5 10t34.5 22t28.5 46.5t15.5 84t7 134.5q0 477 -3.5 622.5t-16.5 190.5q-17 62 -142 90q-16 4 -20 9t-4 12q0 29 39 29q25 0 152.5 -4.5t148.5 -4.5l405 2h322q20 -81 35 -155.5t20.5 -108.5t5.5 -39q0 -7 -5.5 -14.5t-12.5 -7.5 q-17 0 -29 24q-18 29 -63.5 81.5t-79.5 82.5q-53 46 -118 65t-177 19q-110 0 -228 -16q-12 -137 -14 -518q62 -1 98.5 0.5t74 7.5t58.5 17t43.5 32t38 50t33.5 73l4 8l4 8t3.5 6t4 5.5l4 4t5.5 3t6 0.5q7 0 13.5 -6.5t6.5 -20.5q0 -21 -2 -27q-6 -88 -6 -190l2 -246 q0 -31 -22 -31t-27 37q-13 64 -40 104.5t-73.5 62t-97.5 30t-131 10.5q-8 -392 14 -485q28 -117 248 -117q95 0 175.5 20.5t128.5 47t88 64.5t55 60t28 46q15 34 21 41.5t18 7.5q21 0 21 -25q0 -8 -10.5 -61.5t-28 -131t-33.5 -130.5q-385 -2 -528 0q-31 0 -183 8 q-114 6 -157 6h-240q-2 0 -7 0.5t-7 1t-6.5 1t-6.5 1t-5.5 1.5t-5.5 2.5t-3.5 3.5t-2.5 5t-1 6zM557 1425q0 14 27 48l133 192q81 117 141 117q29 0 54.5 -22.5t25.5 -55.5q0 -16 -5 -28t-32.5 -40.5t-81.5 -70.5l-184 -144q-23 -18 -30 -22t-17 -4q-12 0 -21.5 10.5 t-9.5 19.5z" />
<glyph unicode="&#xca;" horiz-adv-x="1343" d="M43 20q0 13 13 18.5t69 14.5q31 5 45.5 10t34.5 22t28.5 46.5t15.5 84t7 134.5q0 477 -3.5 622.5t-16.5 190.5q-17 62 -142 90q-16 4 -20 9t-4 12q0 29 39 29q25 0 152.5 -4.5t148.5 -4.5l405 2h322q20 -81 35 -155.5t20.5 -108.5t5.5 -39q0 -7 -5.5 -14.5t-12.5 -7.5 q-17 0 -29 24q-18 29 -63.5 81.5t-79.5 82.5q-53 46 -118 65t-177 19q-110 0 -228 -16q-12 -137 -14 -518q62 -1 98.5 0.5t74 7.5t58.5 17t43.5 32t38 50t33.5 73l4 8l4 8t3.5 6t4 5.5l4 4t5.5 3t6 0.5q7 0 13.5 -6.5t6.5 -20.5q0 -21 -2 -27q-6 -88 -6 -190l2 -246 q0 -31 -22 -31t-27 37q-13 64 -40 104.5t-73.5 62t-97.5 30t-131 10.5q-8 -392 14 -485q28 -117 248 -117q95 0 175.5 20.5t128.5 47t88 64.5t55 60t28 46q15 34 21 41.5t18 7.5q21 0 21 -25q0 -8 -10.5 -61.5t-28 -131t-33.5 -130.5q-385 -2 -528 0q-31 0 -183 8 q-114 6 -157 6h-240q-2 0 -7 0.5t-7 1t-6.5 1t-6.5 1t-5.5 1.5t-5.5 2.5t-3.5 3.5t-2.5 5t-1 6zM403 1415q0 4 17 37l178 336h152l174 -336q18 -35 18 -37q0 -9 -8.5 -10.5t-48.5 -1.5l-213 213l-207 -213h-33q-29 0 -29 12z" />
<glyph unicode="&#xcb;" horiz-adv-x="1343" d="M43 20q0 13 13 18.5t69 14.5q31 5 45.5 10t34.5 22t28.5 46.5t15.5 84t7 134.5q0 477 -3.5 622.5t-16.5 190.5q-17 62 -142 90q-16 4 -20 9t-4 12q0 29 39 29q25 0 152.5 -4.5t148.5 -4.5l405 2h322q20 -81 35 -155.5t20.5 -108.5t5.5 -39q0 -7 -5.5 -14.5t-12.5 -7.5 q-17 0 -29 24q-18 29 -63.5 81.5t-79.5 82.5q-53 46 -118 65t-177 19q-110 0 -228 -16q-12 -137 -14 -518q62 -1 98.5 0.5t74 7.5t58.5 17t43.5 32t38 50t33.5 73l4 8l4 8t3.5 6t4 5.5l4 4t5.5 3t6 0.5q7 0 13.5 -6.5t6.5 -20.5q0 -21 -2 -27q-6 -88 -6 -190l2 -246 q0 -31 -22 -31t-27 37q-13 64 -40 104.5t-73.5 62t-97.5 30t-131 10.5q-8 -392 14 -485q28 -117 248 -117q95 0 175.5 20.5t128.5 47t88 64.5t55 60t28 46q15 34 21 41.5t18 7.5q21 0 21 -25q0 -8 -10.5 -61.5t-28 -131t-33.5 -130.5q-385 -2 -528 0q-31 0 -183 8 q-114 6 -157 6h-240q-2 0 -7 0.5t-7 1t-6.5 1t-6.5 1t-5.5 1.5t-5.5 2.5t-3.5 3.5t-2.5 5t-1 6zM365 1565q0 45 31.5 76.5t74.5 31.5q45 0 77 -31.5t32 -76.5q0 -44 -32.5 -75.5t-76.5 -31.5q-43 0 -74.5 31.5t-31.5 75.5zM766 1565q0 45 31.5 76.5t76.5 31.5q43 0 75 -31.5 t32 -76.5q0 -44 -32 -75.5t-75 -31.5q-44 0 -76 31.5t-32 75.5z" />
<glyph unicode="&#xcc;" horiz-adv-x="747" d="M88 1278q0 22 35 22q122 -4 250 -4q36 0 130 2t130 2q45 0 45 -22q0 -6 -1.5 -10t-5 -7t-6.5 -5t-9 -3.5t-8.5 -2t-9 -1t-7.5 -0.5q-35 -1 -61.5 -14t-40.5 -31.5t-20.5 -32.5t-8.5 -26q-19 -78 -19 -443q0 -487 27 -569q13 -40 42.5 -61.5t80.5 -30.5q27 -5 34 -9t7 -16 q0 -26 -43 -26q-7 0 -19.5 1t-13.5 1q-63 8 -201 8q-128 0 -243 -8h-13q-37 0 -37 24q0 13 11 17t59 10q66 8 84 80q10 55 10 375q0 585 -26 669q-5 16 -13 29t-21 22t-22 14.5t-27 10l-24 6t-24 4.5q-21 3 -21 25zM150 1704q0 33 25 55.5t54 22.5q61 0 142 -117l133 -192 q26 -33 26 -48q0 -9 -9 -19.5t-21 -10.5q-10 0 -17 4t-30 22l-185 144q-54 42 -81.5 71t-32 40.5t-4.5 27.5z" />
<glyph unicode="&#xcd;" horiz-adv-x="747" d="M88 1278q0 22 35 22q122 -4 250 -4q36 0 130 2t130 2q45 0 45 -22q0 -6 -1.5 -10t-5 -7t-6.5 -5t-9 -3.5t-8.5 -2t-9 -1t-7.5 -0.5q-35 -1 -61.5 -14t-40.5 -31.5t-20.5 -32.5t-8.5 -26q-19 -78 -19 -443q0 -487 27 -569q13 -40 42.5 -61.5t80.5 -30.5q27 -5 34 -9t7 -16 q0 -26 -43 -26q-7 0 -19.5 1t-13.5 1q-63 8 -201 8q-128 0 -243 -8h-13q-37 0 -37 24q0 13 11 17t59 10q66 8 84 80q10 55 10 375q0 585 -26 669q-5 16 -13 29t-21 22t-22 14.5t-27 10l-24 6t-24 4.5q-21 3 -21 25zM258 1425q0 14 27 48l133 192q81 117 141 117 q29 0 54.5 -22.5t25.5 -55.5q0 -16 -5 -28t-32.5 -40.5t-81.5 -70.5l-184 -144q-23 -18 -30 -22t-17 -4q-12 0 -21.5 10.5t-9.5 19.5z" />
<glyph unicode="&#xce;" horiz-adv-x="747" d="M88 1278q0 22 35 22q122 -4 250 -4q36 0 130 2t130 2q45 0 45 -22q0 -6 -1.5 -10t-5 -7t-6.5 -5t-9 -3.5t-8.5 -2t-9 -1t-7.5 -0.5q-35 -1 -61.5 -14t-40.5 -31.5t-20.5 -32.5t-8.5 -26q-19 -78 -19 -443q0 -487 27 -569q13 -40 42.5 -61.5t80.5 -30.5q27 -5 34 -9t7 -16 q0 -26 -43 -26q-7 0 -19.5 1t-13.5 1q-63 8 -201 8q-128 0 -243 -8h-13q-37 0 -37 24q0 13 11 17t59 10q66 8 84 80q10 55 10 375q0 585 -26 669q-5 16 -13 29t-21 22t-22 14.5t-27 10l-24 6t-24 4.5q-21 3 -21 25zM104 1415q0 4 17 37l178 336h152l174 -336q18 -35 18 -37 q0 -9 -8.5 -10.5t-48.5 -1.5l-213 213l-207 -213h-33q-29 0 -29 12z" />
<glyph unicode="&#xcf;" horiz-adv-x="747" d="M66 1565q0 45 31.5 76.5t74.5 31.5q45 0 77 -31.5t32 -76.5q0 -44 -32.5 -75.5t-76.5 -31.5q-43 0 -74.5 31.5t-31.5 75.5zM88 1278q0 22 35 22q122 -4 250 -4q36 0 130 2t130 2q45 0 45 -22q0 -6 -1.5 -10t-5 -7t-6.5 -5t-9 -3.5t-8.5 -2t-9 -1t-7.5 -0.5 q-35 -1 -61.5 -14t-40.5 -31.5t-20.5 -32.5t-8.5 -26q-19 -78 -19 -443q0 -487 27 -569q13 -40 42.5 -61.5t80.5 -30.5q27 -5 34 -9t7 -16q0 -26 -43 -26q-7 0 -19.5 1t-13.5 1q-63 8 -201 8q-128 0 -243 -8h-13q-37 0 -37 24q0 13 11 17t59 10q66 8 84 80q10 55 10 375 q0 585 -26 669q-5 16 -13 29t-21 22t-22 14.5t-27 10l-24 6t-24 4.5q-21 3 -21 25zM467 1565q0 45 31.5 76.5t76.5 31.5q43 0 75 -31.5t32 -76.5q0 -44 -32 -75.5t-75 -31.5q-44 0 -76 31.5t-32 75.5z" />
<glyph unicode="&#xd0;" horiz-adv-x="1599" d="M39 8q0 18 12 22.5t47 6.5q62 3 94 26t54 66q9 18 15 49t9 89t4.5 94.5t3.5 127.5t3 127h-168v68h168q5 315 -4 406q-11 107 -41 141q-29 33 -103 37q-22 0 -22 22q0 25 39 25q28 0 118.5 -7.5t93.5 -7.5q30 0 157.5 2.5t211.5 2.5q242 0 416 -80q163 -75 261.5 -230.5 t98.5 -365.5q0 -90 -21.5 -176.5t-75 -175t-134.5 -155t-210.5 -108t-291.5 -41.5q-29 0 -301 21q-74 4 -168 4q-21 0 -115 -4q-23 -1 -62.5 -3.5t-47.5 -2.5q-41 0 -41 20zM485 244q1 -53 9.5 -82.5t23.5 -46.5q38 -42 88.5 -61t132.5 -19q220 0 358 159.5t138 419.5 q0 60 -9 123t-33.5 146t-80.5 161t-137 132q-50 33 -119.5 52t-193.5 19q-136 0 -142 -28q-3 -15 -5.5 -47.5t-4.5 -87.5t-4 -107.5t-5 -140t-5 -152.5h354v-68h-354q-2 -55 -6 -144.5t-5 -132t0 -95.5z" />
<glyph unicode="&#xd1;" horiz-adv-x="1556" d="M47 1274q0 17 12 19.5t74 2.5h273q244 -289 602 -694q157 -179 217 -250q6 399 6 508q0 88 -1.5 128t-11.5 96t-30.5 81t-59.5 47t-98 29q-39 4 -49 8t-10 15q0 28 45 28q30 0 189.5 3t185.5 3q97 0 116 -3t19 -21q0 -23 -33 -23q-41 -3 -72.5 -14.5t-51.5 -26t-34.5 -40 t-21.5 -44.5t-10.5 -52.5t-4 -52.5t-0.5 -54q0 -609 -10 -928q0 -47 -22 -47q-15 0 -43 28q-67 76 -243 276t-243 276.5t-172.5 198.5t-181.5 214l-4 -4q0 -7 0.5 -65.5t1 -87.5t1.5 -94t2.5 -106.5t3.5 -103t5 -105t6.5 -91t8 -83t10.5 -59.5q29 -124 188 -135q15 -2 21 -3 t14 -6.5t8 -16.5q0 -25 -49 -25q-20 0 -144 4t-134 4q-14 0 -95 -4t-96 -4q-47 0 -47 25q0 24 57 24q57 3 93.5 21t54.5 53.5t24 74.5t6 99q0 135 -6.5 395t-15.5 314q-16 87 -79.5 156.5t-111.5 80.5q-40 8 -49.5 13t-9.5 18zM492 1464q0 86 51 148.5t123 62.5 q57 0 143 -49q78 -47 121 -47q23 0 39.5 13.5t23 26t13.5 32.5q3 7 5 11t10.5 8.5t20.5 4.5q27 0 27 -28q0 -8 -1.5 -20.5t-6 -40t-16 -52.5t-29.5 -49.5t-49.5 -39.5t-71.5 -15q-55 0 -123 36q-11 6 -27 14.5t-23 12.5t-17.5 9.5t-15 8t-11.5 5.5t-10.5 4t-8.5 2t-9 1.5 t-9 0.5q-58 0 -82 -68q-8 -24 -37 -24q-14 0 -21.5 6t-8 11t-0.5 15z" />
<glyph unicode="&#xd2;" horiz-adv-x="1515" d="M84 637q0 135 54 261t145.5 220t220 150.5t270.5 56.5q144 0 268 -52.5t209 -141t133 -206.5t48 -247q0 -131 -50.5 -257.5t-139.5 -226t-222 -160.5t-285 -61q-146 0 -269.5 53.5t-206.5 144.5t-129 211.5t-46 254.5zM356 649q0 -282 114 -448t288 -166q172 0 286.5 165 t114.5 449q0 142 -32 259.5t-86.5 194.5t-127.5 119t-155 42q-172 0 -287 -166t-115 -449zM535 1704q0 33 25 55.5t54 22.5q61 0 142 -117l133 -192q26 -33 26 -48q0 -9 -9 -19.5t-21 -10.5q-10 0 -17 4t-30 22l-185 144q-54 42 -81.5 71t-32 40.5t-4.5 27.5z" />
<glyph unicode="&#xd3;" horiz-adv-x="1515" d="M84 637q0 135 54 261t145.5 220t220 150.5t270.5 56.5q144 0 268 -52.5t209 -141t133 -206.5t48 -247q0 -131 -50.5 -257.5t-139.5 -226t-222 -160.5t-285 -61q-146 0 -269.5 53.5t-206.5 144.5t-129 211.5t-46 254.5zM356 649q0 -282 114 -448t288 -166q172 0 286.5 165 t114.5 449q0 142 -32 259.5t-86.5 194.5t-127.5 119t-155 42q-172 0 -287 -166t-115 -449zM643 1425q0 14 27 48l133 192q81 117 141 117q29 0 54.5 -22.5t25.5 -55.5q0 -16 -5 -28t-32.5 -40.5t-81.5 -70.5l-184 -144q-23 -18 -30 -22t-17 -4q-12 0 -21.5 10.5t-9.5 19.5z " />
<glyph unicode="&#xd4;" horiz-adv-x="1515" d="M84 637q0 135 54 261t145.5 220t220 150.5t270.5 56.5q144 0 268 -52.5t209 -141t133 -206.5t48 -247q0 -131 -50.5 -257.5t-139.5 -226t-222 -160.5t-285 -61q-146 0 -269.5 53.5t-206.5 144.5t-129 211.5t-46 254.5zM356 649q0 -282 114 -448t288 -166q172 0 286.5 165 t114.5 449q0 142 -32 259.5t-86.5 194.5t-127.5 119t-155 42q-172 0 -287 -166t-115 -449zM489 1415q0 4 17 37l178 336h152l174 -336q18 -35 18 -37q0 -9 -8.5 -10.5t-48.5 -1.5l-213 213l-207 -213h-33q-29 0 -29 12z" />
<glyph unicode="&#xd5;" horiz-adv-x="1515" d="M84 637q0 135 54 261t145.5 220t220 150.5t270.5 56.5q144 0 268 -52.5t209 -141t133 -206.5t48 -247q0 -131 -50.5 -257.5t-139.5 -226t-222 -160.5t-285 -61q-146 0 -269.5 53.5t-206.5 144.5t-129 211.5t-46 254.5zM356 649q0 -282 114 -448t288 -166q172 0 286.5 165 t114.5 449q0 142 -32 259.5t-86.5 194.5t-127.5 119t-155 42q-172 0 -287 -166t-115 -449zM471 1464q0 86 51 148.5t123 62.5q57 0 143 -49q78 -47 121 -47q23 0 39.5 13.5t23 26t13.5 32.5q10 24 37 24t27 -28q0 -10 -1.5 -27t-11.5 -53t-26.5 -64t-52 -50.5t-83.5 -22.5 q-54 0 -122 36q-11 6 -27 14.5t-23 12.5t-17.5 9.5t-15 8t-11.5 5.5t-10.5 4t-8.5 2t-9 1.5t-9 0.5q-58 0 -82 -68q-8 -24 -37 -24q-14 0 -21.5 6t-8.5 11t-1 15z" />
<glyph unicode="&#xd6;" horiz-adv-x="1515" d="M84 637q0 135 54 261t145.5 220t220 150.5t270.5 56.5q144 0 268 -52.5t209 -141t133 -206.5t48 -247q0 -131 -50.5 -257.5t-139.5 -226t-222 -160.5t-285 -61q-146 0 -269.5 53.5t-206.5 144.5t-129 211.5t-46 254.5zM356 649q0 -282 114 -448t288 -166q172 0 286.5 165 t114.5 449q0 142 -32 259.5t-86.5 194.5t-127.5 119t-155 42q-172 0 -287 -166t-115 -449zM451 1565q0 45 31.5 76.5t74.5 31.5q45 0 77 -31.5t32 -76.5q0 -44 -32.5 -75.5t-76.5 -31.5q-43 0 -74.5 31.5t-31.5 75.5zM852 1565q0 45 32 76.5t77 31.5q43 0 74.5 -31.5 t31.5 -76.5q0 -44 -31.5 -75.5t-74.5 -31.5q-44 0 -76.5 31.5t-32.5 75.5z" />
<glyph unicode="&#xd7;" horiz-adv-x="1366" d="M190 1014l76 78l416 -420l418 420l76 -78l-418 -418l413 -414l-75 -76l-414 414l-412 -414l-75 76l411 414z" />
<glyph unicode="&#xd8;" horiz-adv-x="1515" d="M84 637q0 180 90 337.5t250 254t350 96.5q232 0 416 -139l141 157l47 -38l-141 -160q97 -94 146 -217.5t49 -249.5q0 -131 -50.5 -257.5t-139.5 -226t-222 -160.5t-285 -61q-238 0 -411 138l-146 -162l-49 43l145 164q-55 55 -94.5 123t-59 134.5t-28 121t-8.5 102.5z M356 655q0 -106 17.5 -200t40.5 -144l657 740q-116 213 -313 213q-176 0 -289 -169.5t-113 -439.5zM442 248q18 -30 32 -51t44.5 -54.5t61.5 -54.5t78.5 -37t99.5 -16q171 0 286 165t115 449q0 190 -59 340z" />
<glyph unicode="&#xd9;" horiz-adv-x="1642" d="M106 1278q0 25 37 25q185 -5 193 -5l319 5q24 0 35 -0.5t24 -2.5t18 -7.5t5 -14.5q0 -14 -10.5 -18.5t-34.5 -6.5q-114 -10 -139 -128.5t-25 -483.5q0 -196 17 -299.5t82 -167.5q55 -55 133 -78.5t155 -23.5q38 0 74 4.5t86.5 21t89 44.5t70.5 80.5t43 123.5 q27 166 27 504q0 71 -1.5 116.5t-7.5 95t-17 79t-29.5 56t-47 39t-67.5 15.5q-41 4 -48 12q-4 5 -4 15q0 25 39 25h406q47 0 47 -25t-41 -25q-34 -2 -60.5 -16.5t-42 -41t-25.5 -52t-14.5 -65t-5.5 -64.5t-2 -66q-8 -420 -15 -526t-34 -176q-17 -44 -40.5 -80.5t-65 -73 t-95.5 -61.5t-135.5 -40.5t-181.5 -15.5q-238 0 -377 97q-72 50 -103.5 126.5t-31.5 227.5l2 358q0 163 -7.5 254t-18.5 122t-31 52q-13 15 -28 20t-81 19q-20 5 -27.5 10.5t-7.5 16.5zM598 1704q0 33 25.5 55.5t54.5 22.5q60 0 141 -117l133 -192q27 -34 27 -48 q0 -9 -9.5 -19.5t-21.5 -10.5q-10 0 -17 4t-30 22l-184 144q-54 42 -81.5 70.5t-32.5 40.5t-5 28z" />
<glyph unicode="&#xda;" horiz-adv-x="1642" d="M106 1278q0 25 37 25q185 -5 193 -5l319 5q24 0 35 -0.5t24 -2.5t18 -7.5t5 -14.5q0 -14 -10.5 -18.5t-34.5 -6.5q-114 -10 -139 -128.5t-25 -483.5q0 -196 17 -299.5t82 -167.5q55 -55 133 -78.5t155 -23.5q38 0 74 4.5t86.5 21t89 44.5t70.5 80.5t43 123.5 q27 166 27 504q0 71 -1.5 116.5t-7.5 95t-17 79t-29.5 56t-47 39t-67.5 15.5q-41 4 -48 12q-4 5 -4 15q0 25 39 25h406q47 0 47 -25t-41 -25q-34 -2 -60.5 -16.5t-42 -41t-25.5 -52t-14.5 -65t-5.5 -64.5t-2 -66q-8 -420 -15 -526t-34 -176q-17 -44 -40.5 -80.5t-65 -73 t-95.5 -61.5t-135.5 -40.5t-181.5 -15.5q-238 0 -377 97q-72 50 -103.5 126.5t-31.5 227.5l2 358q0 163 -7.5 254t-18.5 122t-31 52q-13 15 -28 20t-81 19q-20 5 -27.5 10.5t-7.5 16.5zM748 1425q0 15 26 48l133 192q81 117 142 117q29 0 54 -22.5t25 -55.5 q0 -16 -4.5 -27.5t-32 -40.5t-81.5 -71l-185 -144q-23 -18 -30 -22t-17 -4q-12 0 -21 10.5t-9 19.5z" />
<glyph unicode="&#xdb;" horiz-adv-x="1642" d="M106 1278q0 25 37 25q185 -5 193 -5l319 5q24 0 35 -0.5t24 -2.5t18 -7.5t5 -14.5q0 -14 -10.5 -18.5t-34.5 -6.5q-114 -10 -139 -128.5t-25 -483.5q0 -196 17 -299.5t82 -167.5q55 -55 133 -78.5t155 -23.5q38 0 74 4.5t86.5 21t89 44.5t70.5 80.5t43 123.5 q27 166 27 504q0 71 -1.5 116.5t-7.5 95t-17 79t-29.5 56t-47 39t-67.5 15.5q-41 4 -48 12q-4 5 -4 15q0 25 39 25h406q47 0 47 -25t-41 -25q-34 -2 -60.5 -16.5t-42 -41t-25.5 -52t-14.5 -65t-5.5 -64.5t-2 -66q-8 -420 -15 -526t-34 -176q-17 -44 -40.5 -80.5t-65 -73 t-95.5 -61.5t-135.5 -40.5t-181.5 -15.5q-238 0 -377 97q-72 50 -103.5 126.5t-31.5 227.5l2 358q0 163 -7.5 254t-18.5 122t-31 52q-13 15 -28 20t-81 19q-20 5 -27.5 10.5t-7.5 16.5zM594 1415q0 6 16 37l178 336h152l174 -336l19 -37q0 -9 -9 -10.5t-49 -1.5l-213 213 l-207 -213h-32q-29 0 -29 12z" />
<glyph unicode="&#xdc;" horiz-adv-x="1642" d="M106 1278q0 25 37 25q185 -5 193 -5l319 5q24 0 35 -0.5t24 -2.5t18 -7.5t5 -14.5q0 -14 -10.5 -18.5t-34.5 -6.5q-114 -10 -139 -128.5t-25 -483.5q0 -196 17 -299.5t82 -167.5q55 -55 133 -78.5t155 -23.5q38 0 74 4.5t86.5 21t89 44.5t70.5 80.5t43 123.5 q27 166 27 504q0 71 -1.5 116.5t-7.5 95t-17 79t-29.5 56t-47 39t-67.5 15.5q-41 4 -48 12q-4 5 -4 15q0 25 39 25h406q47 0 47 -25t-41 -25q-34 -2 -60.5 -16.5t-42 -41t-25.5 -52t-14.5 -65t-5.5 -64.5t-2 -66q-8 -420 -15 -526t-34 -176q-17 -44 -40.5 -80.5t-65 -73 t-95.5 -61.5t-135.5 -40.5t-181.5 -15.5q-238 0 -377 97q-72 50 -103.5 126.5t-31.5 227.5l2 358q0 163 -7.5 254t-18.5 122t-31 52q-13 15 -28 20t-81 19q-20 5 -27.5 10.5t-7.5 16.5zM555 1565q0 45 32 76.5t75 31.5q45 0 76.5 -31.5t31.5 -76.5q0 -44 -32 -75.5 t-76 -31.5q-43 0 -75 31.5t-32 75.5zM956 1565q0 45 32 76.5t77 31.5q43 0 74.5 -31.5t31.5 -76.5q0 -44 -31.5 -75.5t-74.5 -31.5q-44 0 -76.5 31.5t-32.5 75.5z" />
<glyph unicode="&#xdd;" horiz-adv-x="1515" d="M72 1268q0 16 10.5 19t46.5 3h473q53 0 63.5 -2.5t10.5 -19.5q0 -12 -8 -16.5t-43 -10.5q-99 -18 -99 -76q0 -24 16.5 -52t98.5 -148q12 -16 68.5 -99t66.5 -96q15 -24 55 -78q52 67 129 175.5t113 164.5q55 88 55 127q0 21 -9.5 36t-29.5 24t-34 13t-39 9 q-35 7 -41 10.5t-6 14.5q0 20 22 23q8 1 41 1h371q24 0 32 -0.5t21.5 -2.5t18 -7t4.5 -14q0 -12 -9 -15.5t-51 -9.5q-52 -8 -89.5 -29t-92 -81t-141.5 -181q-7 -10 -34.5 -48t-49 -69t-47.5 -68.5t-42.5 -65t-21.5 -40.5q-14 -39 -14 -307q0 -55 0.5 -89t3.5 -69.5t7 -54.5 t12 -38.5t18.5 -28.5t27.5 -17.5t36.5 -12t47.5 -5.5q25 -2 34 -6.5t9 -18.5q0 -22 -51 -22q-35 0 -137 6q-68 4 -145 4q-8 0 -27 -1t-47 -2.5t-49 -2.5q-22 -1 -47 -3t-40 -3.5t-16 -1.5q-41 0 -41 24q0 19 25 19q32 0 57.5 8t42.5 21t29 33.5t19 41t10.5 49t4.5 51.5t1 54 q0 41 -7.5 146.5t-15.5 121.5q-17 33 -63 106t-54 87q-242 416 -358 473q-15 9 -88 28q-14 3 -14 19zM643 1425q0 14 27 48l133 192q81 117 141 117q29 0 54.5 -22.5t25.5 -55.5q0 -16 -5 -28t-32.5 -40.5t-81.5 -70.5l-184 -144q-23 -18 -30 -22t-17 -4q-12 0 -21.5 10.5 t-9.5 19.5z" />
<glyph unicode="&#xde;" horiz-adv-x="1280" d="M86 20q0 14 11.5 20.5t45.5 14.5q33 8 54 24.5t31 41.5t13 43t5 47q12 180 12 571q0 298 -8 369q-3 25 -13 44t-21 29.5t-32.5 18.5t-35.5 11t-42 8q-20 4 -20 22q0 27 55 27h459q20 0 28.5 -1t16.5 -6t8 -16q0 -23 -43 -28h-4q-127 -15 -127 -160v-62h232q185 0 290 -45 q90 -38 138.5 -118.5t48.5 -174.5q0 -74 -26.5 -133t-65 -96t-97 -63.5t-105.5 -39t-109 -19.5t-90 -8t-64 -1q-81 0 -164 6q1 -61 2 -92.5t5 -69t11.5 -55t21.5 -36t34.5 -27t50.5 -13.5q45 -8 54 -11.5t9 -16.5q0 -25 -49 -25h-473q-47 0 -47 20zM467 397q54 -4 115 -4 q143 0 235 62q65 44 95 117t30 153q0 53 -13.5 96t-33 69.5t-49.5 46t-54.5 28.5t-56.5 14t-46.5 5.5t-33.5 0.5q-103 0 -178 -16q0 -39 -5 -282.5t-5 -289.5z" />
<glyph unicode="&#xdf;" horiz-adv-x="1087" d="M43 20q0 23 37 23q26 1 54 17.5t42 37.5q19 30 19 95q0 49 -2.5 310t-2.5 304q0 180 22.5 281.5t86.5 171.5q43 46 115 74t149 28q147 0 249.5 -79.5t102.5 -211.5q0 -37 -9.5 -69.5t-23 -55.5t-37 -44t-43 -33.5t-49.5 -25.5t-48 -19t-46 -15v-4q26 -4 47.5 -8 t59.5 -16.5t68 -29.5t64 -48t56.5 -69.5t38 -97t15.5 -128.5q0 -177 -101 -293.5t-252 -116.5q-50 0 -85 17t-48.5 42t-18.5 42t-5 30q0 35 23.5 59.5t58.5 24.5q16 0 33 -6t36.5 -30.5t24.5 -63.5q3 -21 5 -29.5t10 -17.5t24 -9q102 0 102 238q0 74 -5 135t-12 106.5 t-21 81t-26 59.5t-33 42t-36.5 27.5t-41.5 16.5t-43 9.5t-46 5.5q-32 3 -43.5 8t-11.5 19q0 11 10 18t17.5 8t23.5 3q90 8 138 63.5t48 181.5q0 14 -0.5 25t-4 36.5t-9.5 45t-19.5 44t-32 41t-48 27.5t-66.5 11q-34 0 -62 -8.5t-47 -28t-33 -39t-22.5 -53t-13.5 -57.5 t-7 -65.5t-2.5 -64t-0.5 -65.5q0 -747 10 -813q3 -27 19 -46.5t44 -23.5l16.5 -4.5t10 -6.5t4.5 -14q0 -16 -10.5 -19t-50.5 -3h-299h-5q-20 0 -28 0.5t-17.5 2.5t-12.5 6.5t-3 12.5z" />
<glyph unicode="&#xe0;" horiz-adv-x="917" d="M68 186q0 90 59.5 150t148.5 90q19 7 52 18q125 43 157 59t54 50q20 34 20 88q0 81 -38 123.5t-105 42.5q-27 0 -47.5 -7.5t-31.5 -16.5t-20 -27.5t-12 -30.5t-8 -35q-6 -26 -9.5 -38t-14.5 -32.5t-29.5 -30t-46.5 -9.5q-35 0 -63 28.5t-28 59.5q0 79 87.5 133.5 t236.5 54.5q76 0 132.5 -14t90 -36.5t54 -56.5t27.5 -68t7 -77q0 -23 -3 -142.5t-3 -139.5q0 -110 10.5 -171.5t28 -81.5t47.5 -20l45 4q11 0 19 -5.5t8 -14.5q0 -22 -53.5 -35.5t-120.5 -13.5q-56 0 -86.5 4.5t-47 20t-20.5 33.5t-6 56q-110 -123 -254 -123 q-104 0 -170.5 59.5t-66.5 151.5zM195 1253q0 33 25 55.5t54 22.5q61 0 142 -117l133 -192q26 -33 26 -47q0 -9 -9 -20t-21 -11q-10 0 -16.5 4t-30.5 23l-185 143q-54 42 -81.5 71t-32 40.5t-4.5 27.5zM260 213q0 -61 34 -109.5t83 -48.5q60 0 115 51q42 38 53.5 91 t11.5 153q0 66 -4 144q-34 -31 -64 -50t-145 -84q-27 -15 -55.5 -55.5t-28.5 -91.5z" />
<glyph unicode="&#xe1;" horiz-adv-x="917" d="M68 186q0 90 59.5 150t148.5 90q19 7 52 18q125 43 157 59t54 50q20 34 20 88q0 81 -38 123.5t-105 42.5q-27 0 -47.5 -7.5t-31.5 -16.5t-20 -27.5t-12 -30.5t-8 -35q-6 -26 -9.5 -38t-14.5 -32.5t-29.5 -30t-46.5 -9.5q-35 0 -63 28.5t-28 59.5q0 79 87.5 133.5 t236.5 54.5q76 0 132.5 -14t90 -36.5t54 -56.5t27.5 -68t7 -77q0 -23 -3 -142.5t-3 -139.5q0 -110 10.5 -171.5t28 -81.5t47.5 -20l45 4q11 0 19 -5.5t8 -14.5q0 -22 -53.5 -35.5t-120.5 -13.5q-56 0 -86.5 4.5t-47 20t-20.5 33.5t-6 56q-110 -123 -254 -123 q-104 0 -170.5 59.5t-66.5 151.5zM260 213q0 -61 34 -109.5t83 -48.5q60 0 115 51q42 38 53.5 91t11.5 153q0 66 -4 144q-34 -31 -64 -50t-145 -84q-27 -15 -55.5 -55.5t-28.5 -91.5zM313 975q0 13 27 47l133 192q81 117 141 117q29 0 54.5 -22.5t25.5 -55.5q0 -16 -5 -28 t-32.5 -40.5t-81.5 -70.5l-184 -143q-38 -26 -47 -27q-12 0 -21.5 11t-9.5 20z" />
<glyph unicode="&#xe2;" horiz-adv-x="917" d="M68 186q0 90 59.5 150t148.5 90q19 7 52 18q125 43 157 59t54 50q20 34 20 88q0 81 -38 123.5t-105 42.5q-27 0 -47.5 -7.5t-31.5 -16.5t-20 -27.5t-12 -30.5t-8 -35q-6 -26 -9.5 -38t-14.5 -32.5t-29.5 -30t-46.5 -9.5q-35 0 -63 28.5t-28 59.5q0 79 87.5 133.5 t236.5 54.5q76 0 132.5 -14t90 -36.5t54 -56.5t27.5 -68t7 -77q0 -23 -3 -142.5t-3 -139.5q0 -110 10.5 -171.5t28 -81.5t47.5 -20l45 4q11 0 19 -5.5t8 -14.5q0 -22 -53.5 -35.5t-120.5 -13.5q-56 0 -86.5 4.5t-47 20t-20.5 33.5t-6 56q-110 -123 -254 -123 q-104 0 -170.5 59.5t-66.5 151.5zM190 965q0 3 17 36l178 336h152l174 -336q18 -35 18 -36q0 -9 -9 -11t-48 -2l-213 213l-207 -213h-33q-29 0 -29 13zM260 213q0 -61 34 -109.5t83 -48.5q60 0 115 51q42 38 53.5 91t11.5 153q0 66 -4 144q-34 -31 -64 -50t-145 -84 q-27 -15 -55.5 -55.5t-28.5 -91.5z" />
<glyph unicode="&#xe3;" horiz-adv-x="917" d="M68 186q0 90 59.5 150t148.5 90q19 7 52 18q125 43 157 59t54 50q20 34 20 88q0 81 -38 123.5t-105 42.5q-27 0 -47.5 -7.5t-31.5 -16.5t-20 -27.5t-12 -30.5t-8 -35q-6 -26 -9.5 -38t-14.5 -32.5t-29.5 -30t-46.5 -9.5q-35 0 -63 28.5t-28 59.5q0 79 87.5 133.5 t236.5 54.5q76 0 132.5 -14t90 -36.5t54 -56.5t27.5 -68t7 -77q0 -23 -3 -142.5t-3 -139.5q0 -110 10.5 -171.5t28 -81.5t47.5 -20l45 4q11 0 19 -5.5t8 -14.5q0 -22 -53.5 -35.5t-120.5 -13.5q-56 0 -86.5 4.5t-47 20t-20.5 33.5t-6 56q-110 -123 -254 -123 q-104 0 -170.5 59.5t-66.5 151.5zM172 1014q0 86 51 148.5t123 62.5q57 0 143 -49q80 -48 121 -48q23 0 39.5 13.5t23 26t13.5 32.5q10 25 37 25t27 -29q0 -10 -1.5 -27t-11.5 -53t-26.5 -64t-52 -50.5t-83.5 -22.5q-52 0 -122 37q-94 51 -111 55q-9 2 -20 2q-59 0 -82 -67 q-8 -25 -37 -25q-14 0 -21.5 6t-8.5 11.5t-1 15.5zM260 213q0 -61 34 -109.5t83 -48.5q60 0 115 51q42 38 53.5 91t11.5 153q0 66 -4 144q-34 -31 -64 -50t-145 -84q-27 -15 -55.5 -55.5t-28.5 -91.5z" />
<glyph unicode="&#xe4;" horiz-adv-x="917" d="M68 186q0 90 59.5 150t148.5 90q19 7 52 18q125 43 157 59t54 50q20 34 20 88q0 81 -38 123.5t-105 42.5q-27 0 -47.5 -7.5t-31.5 -16.5t-20 -27.5t-12 -30.5t-8 -35q-6 -26 -9.5 -38t-14.5 -32.5t-29.5 -30t-46.5 -9.5q-35 0 -63 28.5t-28 59.5q0 79 87.5 133.5 t236.5 54.5q76 0 132.5 -14t90 -36.5t54 -56.5t27.5 -68t7 -77q0 -23 -3 -142.5t-3 -139.5q0 -110 10.5 -171.5t28 -81.5t47.5 -20l45 4q11 0 19 -5.5t8 -14.5q0 -22 -53.5 -35.5t-120.5 -13.5q-56 0 -86.5 4.5t-47 20t-20.5 33.5t-6 56q-110 -123 -254 -123 q-104 0 -170.5 59.5t-66.5 151.5zM152 1114q0 45 31.5 77t74.5 32q45 0 77 -32t32 -77q0 -44 -32 -75t-77 -31q-43 0 -74.5 31t-31.5 75zM260 213q0 -61 34 -109.5t83 -48.5q60 0 115 51q42 38 53.5 91t11.5 153q0 66 -4 144q-34 -31 -64 -50t-145 -84q-27 -15 -55.5 -55.5 t-28.5 -91.5zM553 1114q0 45 32 77t77 32q43 0 74.5 -32t31.5 -77q0 -44 -31.5 -75t-74.5 -31q-45 0 -77 31t-32 75z" />
<glyph unicode="&#xe5;" horiz-adv-x="917" d="M68 186q0 90 59.5 150t148.5 90q19 7 52 18q125 43 157 59t54 50q20 34 20 88q0 81 -38 123.5t-105 42.5q-27 0 -47.5 -7.5t-31.5 -16.5t-20 -27.5t-12 -30.5t-8 -35q-6 -26 -9.5 -38t-14.5 -32.5t-29.5 -30t-46.5 -9.5q-35 0 -63 28.5t-28 59.5q0 79 87.5 133.5 t236.5 54.5q76 0 132.5 -14t90 -36.5t54 -56.5t27.5 -68t7 -77q0 -23 -3 -142.5t-3 -139.5q0 -110 10.5 -171.5t28 -81.5t47.5 -20l45 4q11 0 19 -5.5t8 -14.5q0 -22 -53.5 -35.5t-120.5 -13.5q-56 0 -86.5 4.5t-47 20t-20.5 33.5t-6 56q-110 -123 -254 -123 q-104 0 -170.5 59.5t-66.5 151.5zM260 213q0 -61 34 -109.5t83 -48.5q60 0 115 51q42 38 53.5 91t11.5 153q0 66 -4 144q-34 -31 -64 -50t-145 -84q-27 -15 -55.5 -55.5t-28.5 -91.5zM293 1141q0 69 49 117.5t117 48.5q69 0 118.5 -48.5t49.5 -117.5t-49.5 -118.5 t-118.5 -49.5q-68 0 -117 49.5t-49 118.5zM379 1141q0 -33 23.5 -57.5t56.5 -24.5q35 0 58.5 24t23.5 58t-24 57t-58 23q-33 0 -56.5 -23.5t-23.5 -56.5z" />
<glyph unicode="&#xe6;" horiz-adv-x="1386" d="M63 150q0 118 122 203q81 56 299 142q14 6 63 25q0 43 -0.5 66t-3.5 61.5t-10.5 59.5t-19.5 44t-32.5 33.5t-48.5 10.5q-103 0 -149 -88q-47 -87 -66.5 -109.5t-58.5 -22.5q-30 0 -48.5 16.5t-23 31t-4.5 24.5q0 52 66.5 99.5t150.5 72.5t150 25q51 0 93.5 -10.5 t74.5 -30.5t49.5 -35t40.5 -39q111 113 266 113q74 0 134 -27.5t96 -68t60.5 -89.5t34 -89t9.5 -70q0 -15 -5.5 -20.5t-23.5 -6.5q-8 -2 -77.5 -8t-202 -14.5t-259.5 -12.5q-9 -135 21 -223q28 -83 94 -130.5t137 -47.5q56 0 126 33.5t140 105.5q14 16 27 16q8 0 16.5 -5 t8.5 -13q0 -10 -16 -32.5t-50 -51t-77.5 -54.5t-107 -43.5t-130.5 -17.5q-64 0 -120.5 13t-91.5 29t-68 42.5t-46.5 41t-30.5 36.5q-34 -30 -60.5 -50t-72.5 -50t-95.5 -46t-98.5 -16q-76 0 -128.5 49t-52.5 128zM233 233q0 -33 11.5 -66.5t41.5 -61t72 -27.5t81.5 22.5 t113.5 85.5q-6 40 -6 97v184q-182 -70 -248 -119.5t-66 -114.5zM739 485q242 15 301 27q41 9 54.5 23.5t13.5 46.5q0 20 -1.5 39.5t-10.5 53t-24.5 57.5t-47 42.5t-74.5 18.5q-69 0 -123 -45q-88 -80 -88 -263z" />
<glyph unicode="&#xe7;" horiz-adv-x="874" d="M70 397q0 120 50.5 224.5t148.5 170.5t223 66q44 0 95.5 -12t100.5 -34t81 -61t32 -87q0 -33 -22 -58.5t-60 -25.5q-39 0 -58 26t-40 86q-38 113 -142 113q-40 0 -72.5 -15.5t-53 -39.5t-36 -57.5t-23 -64t-12 -65t-5.5 -54t-1 -38.5q0 -193 81 -310.5t182 -117.5 q22 0 50 8.5t62.5 27.5t64.5 59t44 95q5 17 8 23.5t9.5 13t15.5 6.5q12 0 20.5 -9.5t1.5 -16.5q0 -37 -20.5 -81.5t-56 -86t-93.5 -71.5t-125 -34q-12 -29 -18 -49q24 -7 41 -14t39.5 -21.5t34.5 -37t12 -52.5q0 -43 -24.5 -75t-58 -48.5t-81.5 -26t-81.5 -11.5t-70.5 -2 q-43 0 -43 24q0 13 10.5 17t65.5 12q111 13 111 78q0 24 -16 34.5t-60 24.5q65 95 86 147q-106 2 -195.5 52t-145.5 146.5t-56 221.5z" />
<glyph unicode="&#xe8;" horiz-adv-x="897" d="M63 401q0 185 125.5 321t294.5 136q149 0 254 -106.5t105 -241.5q0 -23 -9 -32t-38 -9q-181 0 -533 -8q-6 -159 41 -260q36 -77 101 -109.5t128 -32.5q49 0 95.5 18.5t73 37t73.5 57.5q24 12 27 12q10 0 16 -7t6 -17q0 -8 -11.5 -27t-38.5 -46t-64.5 -51.5t-97 -41.5 t-128.5 -17q-102 0 -184.5 37t-132.5 98t-76.5 135t-26.5 154zM225 1253q0 33 25.5 55.5t54.5 22.5q60 0 141 -117l134 -192q26 -33 26 -47q0 -9 -9.5 -20t-21.5 -11q-10 0 -16.5 4t-30.5 23l-184 143q-54 42 -81.5 70.5t-32.5 40.5t-5 28zM268 522q78 -4 152 -4h64t50 1.5 t41.5 4t29.5 7.5t22.5 12.5t13 18.5t9 25t1.5 34q0 73 -47.5 128.5t-122.5 55.5q-177 0 -213 -283z" />
<glyph unicode="&#xe9;" horiz-adv-x="897" d="M63 401q0 185 125.5 321t294.5 136q149 0 254 -106.5t105 -241.5q0 -23 -9 -32t-38 -9q-181 0 -533 -8q-6 -159 41 -260q36 -77 101 -109.5t128 -32.5q49 0 95.5 18.5t73 37t73.5 57.5q24 12 27 12q10 0 16 -7t6 -17q0 -8 -11.5 -27t-38.5 -46t-64.5 -51.5t-97 -41.5 t-128.5 -17q-102 0 -184.5 37t-132.5 98t-76.5 135t-26.5 154zM268 522q78 -4 152 -4h64t50 1.5t41.5 4t29.5 7.5t22.5 12.5t13 18.5t9 25t1.5 34q0 73 -47.5 128.5t-122.5 55.5q-177 0 -213 -283zM334 975q0 14 26 47l134 192q81 117 141 117q29 0 54.5 -22.5t25.5 -55.5 q0 -16 -5 -28t-32.5 -40.5t-81.5 -70.5l-184 -143q-38 -26 -47 -27q-12 0 -21.5 11t-9.5 20z" />
<glyph unicode="&#xea;" horiz-adv-x="897" d="M63 401q0 185 125.5 321t294.5 136q149 0 254 -106.5t105 -241.5q0 -23 -9 -32t-38 -9q-181 0 -533 -8q-6 -159 41 -260q36 -77 101 -109.5t128 -32.5q49 0 95.5 18.5t73 37t73.5 57.5q24 12 27 12q10 0 16 -7t6 -17q0 -8 -11.5 -27t-38.5 -46t-64.5 -51.5t-97 -41.5 t-128.5 -17q-102 0 -184.5 37t-132.5 98t-76.5 135t-26.5 154zM180 965q0 3 17 36l178 336h151l174 -336q7 -13 12 -22t6 -11t1 -3q0 -9 -9 -11t-48 -2l-213 213l-207 -213h-33q-29 0 -29 13zM268 522q78 -4 152 -4h64t50 1.5t41.5 4t29.5 7.5t22.5 12.5t13 18.5t9 25 t1.5 34q0 73 -47.5 128.5t-122.5 55.5q-177 0 -213 -283z" />
<glyph unicode="&#xeb;" horiz-adv-x="897" d="M63 401q0 185 125.5 321t294.5 136q149 0 254 -106.5t105 -241.5q0 -23 -9 -32t-38 -9q-181 0 -533 -8q-6 -159 41 -260q36 -77 101 -109.5t128 -32.5q49 0 95.5 18.5t73 37t73.5 57.5q24 12 27 12q10 0 16 -7t6 -17q0 -8 -11.5 -27t-38.5 -46t-64.5 -51.5t-97 -41.5 t-128.5 -17q-102 0 -184.5 37t-132.5 98t-76.5 135t-26.5 154zM182 1114q0 45 32 77t75 32q45 0 76.5 -31.5t31.5 -77.5q0 -44 -32 -75t-76 -31q-43 0 -75 31t-32 75zM268 522q78 -4 152 -4h64t50 1.5t41.5 4t29.5 7.5t22.5 12.5t13 18.5t9 25t1.5 34q0 73 -47.5 128.5 t-122.5 55.5q-177 0 -213 -283zM584 1114q0 46 32 77.5t76 31.5q43 0 75 -32t32 -77q0 -44 -32 -75t-75 -31q-44 0 -76 31t-32 75z" />
<glyph unicode="&#xec;" horiz-adv-x="555" d="M33 1253q0 33 25.5 55.5t54.5 22.5q60 0 141 -117l133 -192q27 -34 27 -47q0 -9 -9.5 -20t-21.5 -11q-10 0 -16.5 4t-30.5 23l-184 143q-54 42 -81.5 70.5t-32.5 40.5t-5 28zM43 14q0 6 2.5 10.5t5 7t9 4.5t9 2.5t9.5 1.5t8 1q85 0 98 65q9 51 9 297q0 326 -27 355 q-16 21 -84 28q-37 6 -37 25q0 16 9.5 20.5t39.5 6.5l268 16v-242v-428q3 -88 19 -112.5t86 -30.5q27 -2 38 -6.5t11 -18.5q0 -22 -31 -22l-61 4q-19 0 -46.5 1t-29.5 1q-11 0 -129 -4q-24 -1 -54.5 -2.5t-51.5 -2.5t-29 -1q-41 0 -41 24z" />
<glyph unicode="&#xed;" horiz-adv-x="555" d="M43 14q0 6 2.5 10.5t5 7t9 4.5t9 2.5t9.5 1.5t8 1q85 0 98 65q9 51 9 297q0 326 -27 355q-16 21 -84 28q-37 6 -37 25q0 16 9.5 20.5t39.5 6.5l268 16v-242v-428q3 -88 19 -112.5t86 -30.5q27 -2 38 -6.5t11 -18.5q0 -22 -31 -22l-61 4q-19 0 -46.5 1t-29.5 1 q-11 0 -129 -4q-24 -1 -54.5 -2.5t-51.5 -2.5t-29 -1q-41 0 -41 24zM131 975q0 13 27 47l133 192q81 117 141 117q29 0 54.5 -22.5t25.5 -55.5q0 -16 -5 -28t-32.5 -40.5t-81.5 -70.5l-184 -143q-38 -26 -47 -27q-12 0 -21.5 11t-9.5 20z" />
<glyph unicode="&#xee;" horiz-adv-x="555" d="M8 965q0 3 17 36l178 336h151l174 -336q7 -13 12 -22t6 -11t1 -3q0 -9 -9.5 -11t-48.5 -2l-213 213l-206 -213h-33q-29 0 -29 13zM43 14q0 6 2.5 10.5t5 7t9 4.5t9 2.5t9.5 1.5t8 1q85 0 98 65q9 51 9 297q0 326 -27 355q-16 21 -84 28q-37 6 -37 25q0 16 9.5 20.5 t39.5 6.5l268 16v-242v-428q3 -88 19 -112.5t86 -30.5q27 -2 38 -6.5t11 -18.5q0 -22 -31 -22l-61 4q-19 0 -46.5 1t-29.5 1q-11 0 -129 -4q-24 -1 -54.5 -2.5t-51.5 -2.5t-29 -1q-41 0 -41 24z" />
<glyph unicode="&#xef;" horiz-adv-x="555" d="M-31 1114q0 45 32 77t75 32q44 0 76 -31.5t32 -77.5q0 -44 -32 -75t-76 -31q-43 0 -75 31t-32 75zM43 14q0 6 2.5 10.5t5 7t9 4.5t9 2.5t9.5 1.5t8 1q85 0 98 65q9 51 9 297q0 326 -27 355q-16 21 -84 28q-37 6 -37 25q0 16 9.5 20.5t39.5 6.5l268 16v-242v-428 q3 -88 19 -112.5t86 -30.5q27 -2 38 -6.5t11 -18.5q0 -22 -31 -22l-61 4q-19 0 -46.5 1t-29.5 1q-11 0 -129 -4q-24 -1 -54.5 -2.5t-51.5 -2.5t-29 -1q-41 0 -41 24zM371 1114q0 46 31.5 77.5t76.5 31.5q43 0 75 -32t32 -77q0 -44 -32 -75t-75 -31q-44 0 -76 31t-32 75z" />
<glyph unicode="&#xf0;" horiz-adv-x="1024" d="M68 418q0 83 24.5 155.5t66 124t96 88t115.5 54.5t124 18q101 0 194 -65l4 4q-59 165 -211 338l-178 -136l-31 43l172 134q-42 53 -102 102q-40 32 -66.5 55.5t-35.5 30.5h96q64 -41 184 -131l172 131l33 -43l-162 -127q167 -148 280 -347t113 -384q0 -141 -65.5 -253 t-169.5 -170t-223 -58q-83 0 -160.5 31t-137.5 86.5t-96 138.5t-36 180zM266 432q0 -186 75 -287.5t177 -101.5q73 0 129 53t83.5 134t27.5 173t-27 180t-86 151t-137 63q-40 0 -80.5 -20t-77.5 -61t-60.5 -115t-23.5 -169z" />
<glyph unicode="&#xf1;" horiz-adv-x="1067" d="M31 12q0 20 41 27q45 8 62.5 25.5t21.5 41.5q7 45 11.5 198.5t4.5 238.5q0 126 -21.5 182.5t-76.5 71.5q-17 5 -23 7t-10 7t-4 14q0 25 37 25q106 0 248 10q16 -57 21.5 -92t6.5 -98h4q113 182 314 182q21 0 44 -3t62 -19t68 -42.5t50.5 -80.5t20.5 -127l-6 -400 q-1 -72 13.5 -97.5t48.5 -37.5q36 -11 44.5 -16t8.5 -15q0 -4 -1.5 -9t-8.5 -10t-17 -5q-6 0 -23.5 1t-44 2.5t-46.5 2.5q-73 6 -107 6q-26 0 -69 -6q-15 -1 -38 -3.5t-28 -2.5q-14 0 -21.5 7.5t-7.5 16.5q0 20 33 27q71 14 82 57q14 50 14 391q0 285 -155 285 q-35 0 -68 -14t-67.5 -50t-59.5 -91.5t-41 -147t-16 -207.5q0 -55 2 -92t8 -61.5t11.5 -38t20 -21t24.5 -9.5t34 -5q10 -1 14.5 -2.5t9.5 -7.5t5 -17q0 -24 -23 -24q-4 0 -13 1t-11 1q-45 10 -156 10q-14 0 -96 -4q-20 -1 -54.5 -3.5t-41.5 -2.5q-13 0 -24 6.5t-11 17.5z M246 1014q0 86 51 148.5t123 62.5q57 0 143 -49q80 -48 121 -48q23 0 39.5 13.5t23 26t13.5 32.5q10 25 37 25q26 0 26 -29q0 -8 -1.5 -20.5t-6 -40t-16 -52.5t-29.5 -49.5t-49.5 -39.5t-71.5 -15q-53 0 -123 37q-94 51 -111 55q-9 2 -20 2q-59 0 -82 -67q-8 -25 -37 -25 q-14 0 -21.5 6t-8 11.5t-0.5 15.5z" />
<glyph unicode="&#xf2;" horiz-adv-x="1024" d="M55 422q0 88 36.5 169.5t97.5 140.5t146.5 94.5t178.5 35.5q127 0 229 -60.5t155.5 -156t53.5 -203.5q0 -80 -32.5 -161.5t-90 -148.5t-145.5 -109.5t-188 -42.5q-187 0 -314 128.5t-127 313.5zM248 1253q0 33 25.5 55.5t54.5 22.5q60 0 141 -117l133 -192q27 -34 27 -47 q0 -9 -9.5 -20t-21.5 -11q-10 0 -16.5 4t-30.5 23l-184 143q-54 42 -81.5 70.5t-32.5 40.5t-5 28zM262 432q0 -162 70 -276.5t178 -114.5q96 0 170 102.5t74 259.5q0 89 -26.5 177t-87.5 154.5t-144 66.5q-63 0 -110.5 -35.5t-73 -92.5t-38 -118t-12.5 -123z" />
<glyph unicode="&#xf3;" horiz-adv-x="1024" d="M55 422q0 88 36.5 169.5t97.5 140.5t146.5 94.5t178.5 35.5q127 0 229 -60.5t155.5 -156t53.5 -203.5q0 -80 -32.5 -161.5t-90 -148.5t-145.5 -109.5t-188 -42.5q-187 0 -314 128.5t-127 313.5zM262 432q0 -162 70 -276.5t178 -114.5q96 0 170 102.5t74 259.5 q0 89 -26.5 177t-87.5 154.5t-144 66.5q-63 0 -110.5 -35.5t-73 -92.5t-38 -118t-12.5 -123zM397 975q0 13 27 47l133 192q81 117 141 117q29 0 54.5 -22.5t25.5 -55.5q0 -16 -5 -28t-32.5 -40.5t-81.5 -70.5l-184 -143q-38 -26 -47 -27q-12 0 -21.5 11t-9.5 20z" />
<glyph unicode="&#xf4;" horiz-adv-x="1024" d="M55 422q0 88 36.5 169.5t97.5 140.5t146.5 94.5t178.5 35.5q127 0 229 -60.5t155.5 -156t53.5 -203.5q0 -80 -32.5 -161.5t-90 -148.5t-145.5 -109.5t-188 -42.5q-187 0 -314 128.5t-127 313.5zM244 965q0 5 16 36l178 336h152l174 -336q18 -35 18 -36q0 -9 -9 -11 t-48 -2l-213 213l-207 -213h-33q-28 0 -28 13zM262 432q0 -162 70 -276.5t178 -114.5q96 0 170 102.5t74 259.5q0 89 -26.5 177t-87.5 154.5t-144 66.5q-63 0 -110.5 -35.5t-73 -92.5t-38 -118t-12.5 -123z" />
<glyph unicode="&#xf5;" horiz-adv-x="1024" d="M55 422q0 88 36.5 169.5t97.5 140.5t146.5 94.5t178.5 35.5q127 0 229 -60.5t155.5 -156t53.5 -203.5q0 -80 -32.5 -161.5t-90 -148.5t-145.5 -109.5t-188 -42.5q-187 0 -314 128.5t-127 313.5zM225 1014q0 86 51 148.5t123 62.5q58 0 144 -49q80 -48 121 -48 q23 0 39.5 13.5t22.5 26t13 32.5q10 25 37 25t27 -29q0 -8 -1.5 -20.5t-6 -40t-16 -52.5t-29.5 -49.5t-49.5 -39.5t-71.5 -15q-53 0 -123 37q-94 51 -111 55q-9 2 -20 2q-59 0 -82 -67q-8 -25 -37 -25q-14 0 -21.5 6t-8.5 11.5t-1 15.5zM262 432q0 -162 70 -276.5 t178 -114.5q96 0 170 102.5t74 259.5q0 89 -26.5 177t-87.5 154.5t-144 66.5q-63 0 -110.5 -35.5t-73 -92.5t-38 -118t-12.5 -123z" />
<glyph unicode="&#xf6;" horiz-adv-x="1024" d="M55 422q0 88 36.5 169.5t97.5 140.5t146.5 94.5t178.5 35.5q127 0 229 -60.5t155.5 -156t53.5 -203.5q0 -80 -32.5 -161.5t-90 -148.5t-145.5 -109.5t-188 -42.5q-187 0 -314 128.5t-127 313.5zM205 1114q0 45 31.5 77t74.5 32q45 0 77 -32t32 -77q0 -44 -32 -75t-77 -31 q-43 0 -74.5 31t-31.5 75zM262 432q0 -162 70 -276.5t178 -114.5q96 0 170 102.5t74 259.5q0 89 -26.5 177t-87.5 154.5t-144 66.5q-63 0 -110.5 -35.5t-73 -92.5t-38 -118t-12.5 -123zM606 1114q0 45 32 77t77 32q43 0 74.5 -32t31.5 -77q0 -44 -31.5 -75t-74.5 -31 q-45 0 -77 31t-32 75z" />
<glyph unicode="&#xf7;" horiz-adv-x="1366" d="M143 543v106h1082v-106h-1082zM610 180q0 29 21.5 50.5t50.5 21.5q31 0 52.5 -21.5t21.5 -50.5q0 -31 -21.5 -52.5t-52.5 -21.5q-29 0 -50.5 21.5t-21.5 52.5zM610 1014q0 30 21 50.5t51 20.5q31 0 52.5 -20.5t21.5 -50.5t-22 -52t-52 -22q-29 0 -50.5 22.5t-21.5 51.5z " />
<glyph unicode="&#xf8;" horiz-adv-x="1024" d="M55 420q0 182 134.5 312t324.5 130q157 0 279 -92l131 152l39 -35l-132 -154q62 -63 91.5 -140t29.5 -151q0 -80 -33 -161.5t-90 -148.5t-144.5 -109.5t-186.5 -42.5q-145 0 -254 75l-131 -151l-39 35l129 149q-76 65 -112 155.5t-36 176.5zM262 436q0 -128 43 -231 l389 452q-15 28 -30 49t-39 45t-57 37t-72 13q-62 0 -109.5 -35.5t-73.5 -92.5t-38.5 -117.5t-12.5 -119.5zM330 156q31 -53 79 -84t101 -31q96 0 170 102.5t74 259.5q0 90 -35 199z" />
<glyph unicode="&#xf9;" d="M68 815q0 16 11.5 19.5t49.5 3.5h207v-514q0 -34 1.5 -59t9 -64t21.5 -64t42.5 -44t68.5 -19q57 0 118 46.5t87 112.5q33 83 33 447q0 59 -16.5 78.5t-57.5 27.5q-25 5 -34 10t-9 17q0 25 90 25h187q10 -88 10 -170q0 -17 -5 -228.5t-5 -214.5q0 -74 9 -113t21 -48.5 t37 -14.5t33 -10.5t8 -18.5q0 -16 -9 -19t-38 -3h-164q-28 0 -39.5 1t-20 8.5t-7.5 23.5l2 51q2 22 0 86q-24 -29 -37 -43.5t-47 -45.5t-63 -47.5t-73.5 -31t-91.5 -14.5q-215 0 -231 241q-3 39 -2.5 280.5t-3.5 242.5q-4 19 -16.5 25t-57.5 16q-18 9 -18 24zM258 1253 q0 33 25.5 55.5t54.5 22.5q60 0 141 -117l133 -192q27 -34 27 -47q0 -9 -9.5 -20t-21.5 -11q-10 0 -16.5 4t-30.5 23l-184 143q-54 42 -81.5 70.5t-32.5 40.5t-5 28z" />
<glyph unicode="&#xfa;" d="M68 815q0 16 11.5 19.5t49.5 3.5h207v-514q0 -34 1.5 -59t9 -64t21.5 -64t42.5 -44t68.5 -19q57 0 118 46.5t87 112.5q33 83 33 447q0 59 -16.5 78.5t-57.5 27.5q-25 5 -34 10t-9 17q0 25 90 25h187q10 -88 10 -170q0 -17 -5 -228.5t-5 -214.5q0 -74 9 -113t21 -48.5 t37 -14.5t33 -10.5t8 -18.5q0 -16 -9 -19t-38 -3h-164q-28 0 -39.5 1t-20 8.5t-7.5 23.5l2 51q2 22 0 86q-24 -29 -37 -43.5t-47 -45.5t-63 -47.5t-73.5 -31t-91.5 -14.5q-215 0 -231 241q-3 39 -2.5 280.5t-3.5 242.5q-4 19 -16.5 25t-57.5 16q-18 9 -18 24zM408 975 q0 14 26 47l133 192q81 117 142 117q29 0 54 -22.5t25 -55.5q0 -16 -4.5 -27.5t-32 -40.5t-81.5 -71l-185 -143q-38 -26 -47 -27q-12 0 -21 11t-9 20z" />
<glyph unicode="&#xfb;" d="M68 815q0 16 11.5 19.5t49.5 3.5h207v-514q0 -34 1.5 -59t9 -64t21.5 -64t42.5 -44t68.5 -19q57 0 118 46.5t87 112.5q33 83 33 447q0 59 -16.5 78.5t-57.5 27.5q-25 5 -34 10t-9 17q0 25 90 25h187q10 -88 10 -170q0 -17 -5 -228.5t-5 -214.5q0 -74 9 -113t21 -48.5 t37 -14.5t33 -10.5t8 -18.5q0 -16 -9 -19t-38 -3h-164q-28 0 -39.5 1t-20 8.5t-7.5 23.5l2 51q2 22 0 86q-24 -29 -37 -43.5t-47 -45.5t-63 -47.5t-73.5 -31t-91.5 -14.5q-215 0 -231 241q-3 39 -2.5 280.5t-3.5 242.5q-4 19 -16.5 25t-57.5 16q-18 9 -18 24zM254 965 q0 5 16 36l179 336h151l174 -336q7 -13 12 -22t6 -11t1 -3q0 -9 -9.5 -11t-48.5 -2l-213 213l-207 -213h-32q-29 0 -29 13z" />
<glyph unicode="&#xfc;" d="M68 815q0 16 11.5 19.5t49.5 3.5h207v-514q0 -34 1.5 -59t9 -64t21.5 -64t42.5 -44t68.5 -19q57 0 118 46.5t87 112.5q33 83 33 447q0 59 -16.5 78.5t-57.5 27.5q-25 5 -34 10t-9 17q0 25 90 25h187q10 -88 10 -170q0 -17 -5 -228.5t-5 -214.5q0 -74 9 -113t21 -48.5 t37 -14.5t33 -10.5t8 -18.5q0 -16 -9 -19t-38 -3h-164q-28 0 -39.5 1t-20 8.5t-7.5 23.5l2 51q2 22 0 86q-24 -29 -37 -43.5t-47 -45.5t-63 -47.5t-73.5 -31t-91.5 -14.5q-215 0 -231 241q-3 39 -2.5 280.5t-3.5 242.5q-4 19 -16.5 25t-57.5 16q-18 9 -18 24zM215 1114 q0 45 32 77t75 32q44 0 76 -31.5t32 -77.5q0 -44 -32 -75t-76 -31q-43 0 -75 31t-32 75zM616 1114q0 45 32 77t77 32q43 0 74.5 -32t31.5 -77q0 -44 -31.5 -75t-74.5 -31q-45 0 -77 31t-32 75z" />
<glyph unicode="&#xfd;" d="M16 -416q0 50 33.5 84.5t79.5 34.5q50 0 76 -27.5t31 -54.5q4 -30 6 -40t9 -17.5t21 -7.5q38 0 81.5 50.5t75 116t52.5 123t21 76.5q0 75 -152 431t-196 411q-9 12 -21 19t-22 9.5t-31 6.5q-25 5 -25 22q0 25 25 25q18 0 100 -10l309 10q10 0 20.5 -8t10.5 -21 q0 -20 -28 -20q-8 0 -21.5 -3t-32 -10.5t-31 -25.5t-12.5 -43q0 -34 43 -137q9 -22 84 -200t88 -212q4 9 42.5 113t80 235t41.5 174q0 50 -20 76.5t-86 34.5q-41 4 -41 22q0 25 39 25q3 0 34.5 -1t53.5 -1l67 -4q10 0 84 4q21 0 52.5 1t35.5 1q27 0 27 -27q0 -7 -7.5 -11.5 t-41.5 -16.5q-30 -13 -46.5 -25.5t-45.5 -61.5t-62 -139q-176 -505 -219.5 -626t-73.5 -185q-22 -48 -42 -85t-51.5 -81t-64 -72t-77.5 -47.5t-94 -19.5q-72 0 -125.5 38t-53.5 97zM408 975q0 14 26 47l133 192q81 117 142 117q29 0 54 -22.5t25 -55.5q0 -16 -4.5 -27.5 t-32 -40.5t-81.5 -71l-185 -143q-38 -26 -47 -27q-12 0 -21 11t-9 20z" />
<glyph unicode="&#xfe;" d="M0 -475q0 14 10 18.5t53 10.5q19 3 28.5 6t23.5 11t22.5 24.5t12.5 42.5q18 110 18 479v897q0 167 -10.5 227t-57.5 68q-42 7 -52.5 12.5t-10.5 17.5q0 17 14.5 21t54.5 2h238v-649h4q96 125 244 125q44 0 94 -15.5t101 -50.5t92.5 -83.5t67.5 -121t26 -157.5 q0 -105 -40 -190t-103 -135.5t-135 -77.5t-142 -27q-46 0 -90 11t-65 21t-58 29q-4 -192 -4 -293q0 -44 1.5 -67.5t7.5 -51.5t18.5 -43t35 -27.5t56.5 -17.5q30 -3 30 -24q0 -23 -30 -23q-23 0 -129 4q-110 4 -127 4h-166q-11 0 -22 6t-11 17zM344 350q0 -106 2.5 -139.5 t13.5 -63.5q13 -34 37.5 -57.5t53 -33.5t48.5 -13.5t36 -3.5q9 0 19 1t35.5 7.5t47.5 19t48.5 38.5t45 62t31 94t12.5 130q0 98 -24 179.5t-79 135.5t-132 54q-127 0 -168 -129q-27 -84 -27 -281z" />
<glyph unicode="&#xff;" d="M16 -416q0 50 33.5 84.5t79.5 34.5q50 0 76 -27.5t31 -54.5q4 -30 6 -40t9 -17.5t21 -7.5q38 0 81.5 50.5t75 116t52.5 123t21 76.5q0 75 -152 431t-196 411q-9 12 -21 19t-22 9.5t-31 6.5q-25 5 -25 22q0 25 25 25q18 0 100 -10l309 10q10 0 20.5 -8t10.5 -21 q0 -20 -28 -20q-8 0 -21.5 -3t-32 -10.5t-31 -25.5t-12.5 -43q0 -34 43 -137q9 -22 84 -200t88 -212q4 9 42.5 113t80 235t41.5 174q0 50 -20 76.5t-86 34.5q-41 4 -41 22q0 25 39 25q3 0 34.5 -1t53.5 -1l67 -4q10 0 84 4q21 0 52.5 1t35.5 1q27 0 27 -27q0 -7 -7.5 -11.5 t-41.5 -16.5q-30 -13 -46.5 -25.5t-45.5 -61.5t-62 -139q-176 -505 -219.5 -626t-73.5 -185q-22 -48 -42 -85t-51.5 -81t-64 -72t-77.5 -47.5t-94 -19.5q-72 0 -125.5 38t-53.5 97zM215 1114q0 45 32 77t75 32q44 0 76 -31.5t32 -77.5q0 -44 -32 -75t-76 -31q-43 0 -75 31 t-32 75zM616 1114q0 45 32 77t77 32q43 0 74.5 -32t31.5 -77q0 -44 -31.5 -75t-74.5 -31q-45 0 -77 31t-32 75z" />
<glyph unicode="&#x152;" horiz-adv-x="2240" d="M74 631q0 184 94.5 343t250 251t331.5 92q30 0 194 -12q173 -13 189 -13q12 0 62.5 2.5t76.5 3.5q31 1 80.5 4t58.5 3h631q63 -258 63 -314q0 -11 -5.5 -18.5t-12.5 -7.5q-9 0 -16.5 9t-32.5 50q-36 59 -80 101t-85.5 65.5t-93.5 36.5t-93 16.5t-95 3.5q-87 0 -215 -14 q-17 -263 -12 -520q77 -2 131 -0.5t94 17.5t70.5 51.5t58.5 101.5q14 34 18.5 40.5t16.5 6.5q7 0 14 -6.5t7 -18.5v-22q-9 -83 -9 -193q0 -212 4 -235l3 -13q0 -7 -4.5 -18t-4.5 -12l-14 -4q-13 4 -18.5 15t-16.5 54q-9 35 -26.5 62t-36 44.5t-50 30.5t-54 19.5t-62 10.5 t-60 5t-61.5 2v-215q0 -241 10 -278q32 -111 264 -111q95 0 173.5 19t127 44.5t88.5 65.5t58 68t37 65l3 6q14 27 22 30l7 1q7 0 13 -5t6 -13q0 -4 -8 -41.5t-16.5 -79t-10.5 -51.5q-9 -55 -37 -162h-551q-34 0 -213 9t-209 9q-80 0 -278 -22q-74 -8 -125 -8 q-148 0 -272.5 54t-206 144.5t-127 207t-45.5 243.5zM346 686q0 -87 13 -172.5t44.5 -170.5t77.5 -149.5t117.5 -104.5t159.5 -40q76 0 151.5 31.5t126.5 85.5q40 42 64 91t42.5 164t18.5 290q0 50 -2.5 91.5t-12 100t-25.5 104.5t-46 94t-71 80.5t-103.5 53t-140.5 20.5 q-75 0 -138 -24.5t-107 -68t-77.5 -99t-53 -120t-29 -129t-9.5 -128.5z" />
<glyph unicode="&#x153;" horiz-adv-x="1599" d="M45 403q0 117 65.5 221.5t173.5 166t228 61.5q66 0 122 -15.5t98.5 -44.5t66.5 -50.5t53 -53.5q31 32 51.5 50.5t62 47.5t92.5 43.5t109 14.5q52 0 102.5 -14t98 -45.5t83.5 -77.5t58 -115.5t23 -153.5q-86 -6 -246 -6q-236 0 -336 6q-3 -192 68 -297.5t188 -105.5 q62 0 105 24t131 97q14 14 28 14q8 0 13.5 -7t5.5 -13q0 -13 -23 -40.5t-62.5 -58.5t-105 -54.5t-137.5 -23.5q-218 0 -340 195q-22 -27 -40 -46t-54 -49.5t-71 -49.5t-86 -33.5t-105 -14.5q-92 0 -173 39t-134 100.5t-83 137.5t-30 151zM252 428q0 -200 65 -301.5 t168 -101.5q105 0 184 114.5t79 294.5q0 26 -2.5 54.5t-10 74t-24 85t-41 76t-66 58t-94.5 21.5q-110 0 -178 -82q-37 -44 -58.5 -109t-21.5 -184zM950 481q278 0 322 8q21 4 30.5 7.5t25 14t22 31t6.5 52.5q0 78 -52 139.5t-133 61.5q-33 0 -61 -7.5t-48.5 -23.5t-36 -32.5 t-27 -44t-19 -48t-13.5 -54t-9 -52.5t-7 -52z" />
<glyph unicode="&#x178;" horiz-adv-x="1515" d="M72 1268q0 16 10.5 19t46.5 3h473q53 0 63.5 -2.5t10.5 -19.5q0 -12 -8 -16.5t-43 -10.5q-99 -18 -99 -76q0 -24 16.5 -52t98.5 -148q12 -16 68.5 -99t66.5 -96q15 -24 55 -78q52 67 129 175.5t113 164.5q55 88 55 127q0 21 -9.5 36t-29.5 24t-34 13t-39 9 q-35 7 -41 10.5t-6 14.5q0 20 22 23q8 1 41 1h371q24 0 32 -0.5t21.5 -2.5t18 -7t4.5 -14q0 -12 -9 -15.5t-51 -9.5q-52 -8 -89.5 -29t-92 -81t-141.5 -181q-7 -10 -34.5 -48t-49 -69t-47.5 -68.5t-42.5 -65t-21.5 -40.5q-14 -39 -14 -307q0 -55 0.5 -89t3.5 -69.5t7 -54.5 t12 -38.5t18.5 -28.5t27.5 -17.5t36.5 -12t47.5 -5.5q25 -2 34 -6.5t9 -18.5q0 -22 -51 -22q-35 0 -137 6q-68 4 -145 4q-8 0 -27 -1t-47 -2.5t-49 -2.5q-22 -1 -47 -3t-40 -3.5t-16 -1.5q-41 0 -41 24q0 19 25 19q32 0 57.5 8t42.5 21t29 33.5t19 41t10.5 49t4.5 51.5t1 54 q0 41 -7.5 146.5t-15.5 121.5q-17 33 -63 106t-54 87q-242 416 -358 473q-15 9 -88 28q-14 3 -14 19zM451 1565q0 45 31.5 76.5t74.5 31.5q45 0 77 -31.5t32 -76.5q0 -44 -32.5 -75.5t-76.5 -31.5q-43 0 -74.5 31.5t-31.5 75.5zM852 1565q0 45 32 76.5t77 31.5 q43 0 74.5 -31.5t31.5 -76.5q0 -44 -31.5 -75.5t-74.5 -31.5q-44 0 -76.5 31.5t-32.5 75.5z" />
<glyph unicode="&#x2c6;" horiz-adv-x="681" d="M72 961q0 5 16 36l178 336h152l174 -336q18 -35 18 -36q0 -9 -9 -11t-48 -2l-213 213l-207 -213h-33q-28 0 -28 13z" />
<glyph unicode="&#x2dc;" horiz-adv-x="681" d="M53 1010q0 86 51 148.5t123 62.5q56 0 144 -50q78 -47 121 -47q23 0 39.5 13.5t22.5 26t13 32.5q10 25 37 25t27 -29q0 -8 -1.5 -20.5t-6 -40t-16 -52.5t-29.5 -49.5t-49.5 -39.5t-71.5 -15q-53 0 -123 37q-8 4 -21 11q-76 42 -95 45l-15 1q-58 0 -82 -68q-8 -24 -37 -24 q-14 0 -21.5 6t-8.5 11.5t-1 15.5z" />
<glyph unicode="&#x2000;" horiz-adv-x="894" />
<glyph unicode="&#x2001;" horiz-adv-x="1788" />
<glyph unicode="&#x2002;" horiz-adv-x="894" />
<glyph unicode="&#x2003;" horiz-adv-x="1788" />
<glyph unicode="&#x2004;" horiz-adv-x="596" />
<glyph unicode="&#x2005;" horiz-adv-x="447" />
<glyph unicode="&#x2006;" horiz-adv-x="298" />
<glyph unicode="&#x2007;" horiz-adv-x="298" />
<glyph unicode="&#x2008;" horiz-adv-x="223" />
<glyph unicode="&#x2009;" horiz-adv-x="357" />
<glyph unicode="&#x200a;" horiz-adv-x="99" />
<glyph unicode="&#x2010;" horiz-adv-x="747" d="M37 385v74q0 31 9.5 37t53.5 6h549q43 0 52.5 -6.5t9.5 -42.5v-68q0 -31 -1.5 -38.5t-9.5 -10.5q-8 -4 -51 -4h-549q-49 0 -59 6q-4 4 -4 47z" />
<glyph unicode="&#x2011;" horiz-adv-x="747" d="M37 385v74q0 31 9.5 37t53.5 6h549q43 0 52.5 -6.5t9.5 -42.5v-68q0 -31 -1.5 -38.5t-9.5 -10.5q-8 -4 -51 -4h-549q-49 0 -59 6q-4 4 -4 47z" />
<glyph unicode="&#x2012;" horiz-adv-x="747" d="M37 385v74q0 31 9.5 37t53.5 6h549q43 0 52.5 -6.5t9.5 -42.5v-68q0 -31 -1.5 -38.5t-9.5 -10.5q-8 -4 -51 -4h-549q-49 0 -59 6q-4 4 -4 47z" />
<glyph unicode="&#x2013;" horiz-adv-x="1024" d="M-12 446v132h1048v-132h-1048z" />
<glyph unicode="&#x2014;" horiz-adv-x="2048" d="M-12 446v132h2072v-132h-2072z" />
<glyph unicode="&#x2018;" horiz-adv-x="405" d="M51 1047q0 57 40.5 116t92 97.5t95 63t55.5 24.5q6 0 13 -7t7 -16q0 -8 -10 -18q-103 -86 -124 -109t-21 -55q0 -18 30 -35q39 -17 59.5 -36.5t20.5 -55.5q0 -5 -0.5 -12.5t-6.5 -24.5t-16 -30t-31.5 -23.5t-51.5 -10.5q-72 0 -112 41.5t-40 90.5z" />
<glyph unicode="&#x2019;" horiz-adv-x="405" d="M51 938q0 8 10 18q104 87 125 109.5t21 54.5q0 18 -31 35q-39 17 -59.5 36.5t-20.5 55.5q0 5 0.5 12.5t6.5 24.5t16 30t32 23.5t52 10.5q72 0 111.5 -41t39.5 -90q0 -47 -27 -95t-65.5 -83.5t-79.5 -64.5t-71 -44t-39 -15q-6 0 -13.5 7.5t-7.5 15.5z" />
<glyph unicode="&#x201a;" horiz-adv-x="512" d="M104 -213q0 7 11 18q103 86 124 109t21 55q0 18 -31 35q-38 17 -58.5 36.5t-20.5 55.5q0 5 0.5 12.5t6.5 24.5t16 30t31.5 23.5t51.5 10.5q72 0 112 -41t40 -90q0 -57 -40.5 -116t-92 -98t-95 -63.5t-55.5 -24.5q-7 0 -14 7t-7 16z" />
<glyph unicode="&#x201c;" horiz-adv-x="768" d="M51 1047q0 57 40.5 116t92 97.5t95 63t55.5 24.5q6 0 13 -7t7 -16q0 -8 -10 -18q-103 -86 -124 -109t-21 -55q0 -18 30 -35q39 -17 59.5 -36.5t20.5 -55.5q0 -5 -0.5 -12.5t-6.5 -24.5t-16 -30t-31.5 -23.5t-51.5 -10.5q-72 0 -112 41.5t-40 90.5zM414 1047q0 47 27 95 t65.5 83.5t79.5 64t71 43.5t39 15q6 0 13.5 -7t7.5 -16q0 -8 -10 -18q-104 -87 -125 -109.5t-21 -54.5q0 -18 31 -35q39 -17 59.5 -36.5t20.5 -55.5q0 -5 -0.5 -12.5t-6.5 -24.5t-16 -30t-32 -23.5t-52 -10.5q-72 0 -111.5 41.5t-39.5 90.5z" />
<glyph unicode="&#x201d;" horiz-adv-x="768" d="M51 938q0 8 10 18q104 87 125 109.5t21 54.5q0 18 -31 35q-39 17 -59.5 36.5t-20.5 55.5q0 5 0.5 12.5t6.5 24.5t16 30t32 23.5t52 10.5q72 0 111.5 -41t39.5 -90q0 -47 -27 -95t-65.5 -83.5t-79.5 -64.5t-71 -44t-39 -15q-6 0 -13.5 7.5t-7.5 15.5zM414 938q0 8 10 18 q103 86 124 109t21 55q0 18 -30 35q-39 17 -59.5 36.5t-20.5 55.5q0 5 0.5 12.5t6.5 24.5t16 30t31.5 23.5t51.5 10.5q72 0 112 -41t40 -90q0 -57 -40.5 -116t-92 -98t-95 -63.5t-55.5 -24.5q-6 0 -13 7t-7 16z" />
<glyph unicode="&#x201e;" horiz-adv-x="768" d="M51 -213q0 8 10 18q104 87 125 109.5t21 54.5q0 18 -31 35q-39 17 -59.5 36.5t-20.5 55.5q0 5 0.5 12.5t6.5 24.5t16 30t32 23.5t52 10.5q72 0 111.5 -41t39.5 -90q0 -47 -27 -95t-65.5 -83.5t-79.5 -64.5t-71 -44t-39 -15q-6 0 -13.5 7t-7.5 16zM414 -213q0 8 10 18 q103 86 124 109t21 55q0 18 -30 35q-39 17 -59.5 36.5t-20.5 55.5q0 5 0.5 12.5t6.5 24.5t16 30t31.5 23.5t51.5 10.5q72 0 112 -41t40 -90q0 -57 -40.5 -116t-92 -98t-95 -63.5t-55.5 -24.5q-6 0 -13 7t-7 16z" />
<glyph unicode="&#x2022;" horiz-adv-x="724" d="M113 678q0 103 73 176.5t176 73.5q104 0 178 -73.5t74 -176.5q0 -104 -74 -178t-178 -74q-103 0 -176 74t-73 178z" />
<glyph unicode="&#x2026;" horiz-adv-x="2048" d="M219 98q0 51 36 86t87 35t86 -35.5t35 -85.5q0 -51 -35.5 -87t-85.5 -36t-86.5 35.5t-36.5 87.5zM901 98q0 50 36.5 85.5t86.5 35.5q51 0 86 -35.5t35 -85.5q0 -51 -35 -87t-86 -36q-50 0 -86.5 35.5t-36.5 87.5zM1583 98q0 50 36.5 85.5t86.5 35.5q52 0 86.5 -35.5 t34.5 -85.5q0 -51 -35 -87t-86 -36q-48 0 -85.5 36t-37.5 87z" />
<glyph unicode="&#x202f;" horiz-adv-x="357" />
<glyph unicode="&#x2039;" horiz-adv-x="598" d="M63 420l367 330q47 42 62.5 51.5t39.5 9.5q13 0 13 -10q0 -3 -10 -23l-222 -358l213 -342q19 -32 19 -37q0 -10 -27 -10q-9 0 -13.5 0.5t-13.5 6t-22 17.5z" />
<glyph unicode="&#x203a;" horiz-adv-x="598" d="M53 37q0 2 10 22l222 359l-213 342q-19 32 -19 37q0 10 27 10q22 0 49 -25l406 -364l-367 -330q-47 -42 -62.5 -51.5t-39.5 -9.5q-13 0 -13 10z" />
<glyph unicode="&#x205f;" horiz-adv-x="447" />
<glyph unicode="&#x20ac;" horiz-adv-x="1126" d="M33 436q0 27 10 36t49 9h64q0 7 -1 21.5t-1 21.5q0 40 6 80h-68q-33 0 -46 9t-13 32q0 27 10 36t49 9h88q56 169 198 282t320 113q82 0 149 -20.5t106.5 -53t60 -68.5t20.5 -71q0 -51 -27.5 -77.5t-64.5 -26.5q-42 0 -67 28t-25 60q0 16 20.5 47.5t20.5 50.5q0 15 -17 32 t-61 32.5t-104 15.5q-116 0 -212 -95t-128 -249h510q30 0 42.5 -8.5t12.5 -32.5q0 -27 -12 -36t-43 -9h-523v-43q0 -55 2 -80h457q30 0 42.5 -8.5t12.5 -32.5q0 -27 -12 -36t-43 -9h-444q18 -93 57.5 -162t88.5 -105.5t97 -53.5t95 -17q55 0 105.5 23t87 60.5t57.5 65.5 t38 58q11 19 27 19q10 0 17.5 -7.5t7.5 -15.5q0 -13 -15 -43.5t-49 -72t-79.5 -79t-116.5 -64t-150 -26.5q-177 0 -306.5 115.5t-166.5 304.5h-74q-33 0 -46 9t-13 32z" />
<glyph unicode="&#x2122;" horiz-adv-x="2048" d="M41 1090l20 200h730l20 -200h-33q-5 38 -19.5 65t-32.5 41.5t-44 22.5t-47.5 10t-50.5 2h-74v-580q0 -82 18.5 -105.5t85.5 -27.5v-35h-374v35q47 5 65.5 14t26.5 34t8 83v582h-76q-99 0 -137 -33t-53 -108h-33zM881 483v35q73 1 92.5 25t19.5 106v467q0 33 -0.5 47 t-3.5 34t-9.5 27t-19 16t-31.5 11t-48 2v37h286l273 -571l264 571h278v-37q-71 -1 -89.5 -24.5t-18.5 -110.5v-467q0 -83 17 -106t91 -27v-35h-397v35q77 3 98 27.5t21 103.5v492h-4l-301 -658h-33l-305 650h-4v-482q0 -31 0.5 -45.5t5.5 -35t14.5 -29.5t27.5 -16t46 -7h37 v-35h-307z" />
<glyph unicode="&#xe000;" horiz-adv-x="839" d="M0 0v840h840v-840h-840z" />
</font>
</defs>
</svg>
