<?xml version="1.0" standalone="no"?>
<!DOCTYPE svg PUBLIC "-//W3C//DTD SVG 1.1//EN" "http://www.w3.org/Graphics/SVG/1.1/DTD/svg11.dtd" >
<svg xmlns="http://www.w3.org/2000/svg">
<metadata></metadata>
<defs>
<font id="bell_mt_stditalic" horiz-adv-x="1003" >
<font-face units-per-em="2048" ascent="1364" descent="-684" />
<missing-glyph horiz-adv-x="501" />
<glyph unicode="&#xfb01;" horiz-adv-x="1044" d="M-371 -379q0 53 32.5 78t70.5 25q13 0 26.5 -3.5t29 -20t15.5 -44.5q0 -7 -12 -46t-12 -46q0 -27 20 -43t36 -19.5t28 -3.5q18 0 42.5 9t57 30.5t66.5 66.5t61 107q55 129 100 283t205 741q6 30 6 31q-14 0 -206 -4q7 30 16 57q144 6 207 6q14 51 27 92t36.5 99.5 t49.5 103t65 93t83 79.5t104 51.5t128 20.5q33 0 71.5 -9t76.5 -26t63 -48.5t25 -70.5q0 -31 -18.5 -51t-35.5 -25.5t-30 -5.5q-26 0 -47 16t-21 40q0 4 3 29.5t3 29.5q0 80 -96 80q-40 0 -75 -12t-73 -44.5t-71 -86t-66.5 -141.5t-62.5 -205h338l135 2q-46 -172 -186 -588 q-45 -131 -45 -160q0 -32 17 -44.5t34 -12.5q40 0 87 29.5t66.5 50t32.5 36.5q38 50 56 50q6 0 10 -5.5t4 -11.5q0 -7 -13 -28.5t-40 -50.5t-61.5 -56t-85 -46t-103.5 -19q-117 0 -117 98q0 51 12.5 99t71.5 227q5 15 7.5 23.5t7 22l8.5 25.5l86 264q1 4 3 10.5t3.5 11 t1.5 5.5q-173 2 -348 0q-91 -334 -154.5 -551.5t-102.5 -323.5t-57 -143.5t-43 -73.5q-147 -219 -342 -219q-55 0 -97.5 17t-66 43.5t-35.5 53.5t-12 52z" />
<glyph unicode="&#xfb02;" horiz-adv-x="1044" d="M-369 -385q0 43 25.5 76t69.5 33q24 0 40.5 -8.5t23.5 -22t10 -23.5t3 -18q0 -7 -11 -44.5t-11 -43.5q0 -32 27.5 -48t58.5 -16q154 0 276 342q3 8 4 11q45 124 138 472t112 441h-204q4 23 14 55l209 8q19 73 41.5 137t63 140.5t88 130.5t118 90.5t152.5 36.5 q3 0 31.5 -1t47.5 -1q66 -4 78 -4q53 0 127 4q-10 -43 -107.5 -359.5t-185.5 -615t-88 -336.5q0 -6 5.5 -11t11.5 -5q9 0 41.5 19t86.5 67t97 110q21 31 37 31q6 0 12 -5.5t6 -12.5q0 -12 -31 -54t-76.5 -90t-108 -85.5t-115.5 -37.5q-31 0 -54.5 27t-23.5 74q0 29 5 61.5 t20.5 89.5t31 108.5t49 164.5t62.5 211l14 49q0 10 -18 10h-9q-33 -4 -155 -4h-133q-12 -41 -111 -390t-119 -415q-153 -508 -473 -508q-90 0 -146.5 50t-56.5 110zM555 836q121 2 315 2q26 60 66.5 197t40.5 186q0 34 -22.5 68t-73.5 34q-65 0 -124 -50.5t-91 -119.5 q-27 -57 -63 -153.5t-48 -163.5z" />
<glyph unicode="&#xfb03;" horiz-adv-x="1536" d="M-379 -379q0 36 25 71.5t71 35.5q31 0 53.5 -21t22.5 -59q0 -6 -10 -41t-10 -41q0 -25 21.5 -46.5t60.5 -21.5q92 0 165 109t152 358q39 121 124.5 440.5t92.5 360.5q-94 -2 -209 -2l15 61q39 1 69 2t69 3.5t73 3.5q44 195 139 337q36 54 82 93.5t84 59t79 31t61 13.5 t36 2q149 0 231 -117q117 113 275 113q85 0 159 -41.5t74 -107.5q0 -36 -22.5 -61.5t-55.5 -25.5q-29 0 -49 18t-20 46q0 5 4 33.5t4 32.5q0 65 -96 65q-55 0 -100.5 -22.5t-79.5 -60t-65 -102t-54.5 -134t-51.5 -170.5h476q-8 -34 -76 -243.5t-109 -322.5 q-45 -123 -45 -180q0 -26 13.5 -40t22 -15.5t17.5 -1.5q18 0 33.5 4t51 27.5t79.5 66.5q37 37 49 53q13 13 23 13q7 0 11.5 -5.5t4.5 -11.5q0 -16 -22.5 -43.5t-38.5 -40.5q-56 -54 -113.5 -85t-130.5 -31q-33 0 -57.5 9.5t-36 21.5t-18 28t-7 23.5t-0.5 13.5 q0 42 43.5 186.5t96.5 305t63 196.5q-8 0 -74 2t-98 2q-34 0 -100 -2t-74 -2q-12 -35 -90 -311q-107 -382 -154.5 -521.5t-81.5 -199.5q-70 -125 -168 -201t-202 -76q-68 0 -130.5 36.5t-82.5 111.5q-44 -56 -105.5 -92t-104 -46t-75.5 -10q-96 0 -152.5 50.5t-56.5 115.5z M199 -281q75 -3 75 -79q0 -5 -3 -36.5t-3 -37.5q0 -30 23 -49t53 -19q71 0 139 74q78 85 128.5 227t175.5 595q17 61 26 93q35 120 76 279q-204 3 -363 -2q-2 -17 -60.5 -230.5t-139.5 -473.5t-127 -341zM545 834q152 2 358 2q10 45 44.5 139t78.5 166q-86 0 -88 84 q-1 27 -3 41t-9 29.5t-22 21.5t-40 6q-54 0 -94.5 -31t-64.5 -65q-92 -129 -160 -393z" />
<glyph unicode="&#xfb04;" horiz-adv-x="1536" d="M-367 -383q0 43 25.5 76t69.5 33q38 0 58.5 -21t20.5 -43q0 -24 -18 -72q-4 -16 -4 -28q0 -7 2 -14.5t8.5 -20.5t25 -21t46.5 -8q77 0 138.5 74.5t126 247.5t151.5 493q37 138 116 435q2 5 4.5 13t4 13.5t2.5 7.5h-215l14 62q109 2 215 0q21 83 44.5 150t63 140.5 t86.5 122.5t116 81t151 32q49 0 87 -11t63.5 -33.5t35.5 -35t25 -35.5q113 113 245 113l154 -10q75 -6 152 -6q-102 -346 -211 -764q-66 -246 -129 -455q-3 -6 -6 -19t-5 -23t-2 -11q0 -6 4.5 -15.5t12.5 -9.5q21 0 80.5 58t132.5 155q24 35 41 35q14 0 14 -18q0 -11 -4 -18 t-21 -27q-23 -27 -56 -67t-45.5 -54.5t-33 -36t-36.5 -34t-37 -25.5q-66 -43 -113 -43q-23 0 -42.5 19t-19.5 44q0 51 91.5 376.5t97.5 356.5q-193 3 -330 6q-15 -49 -78 -284q-116 -433 -182.5 -618t-163.5 -294q-119 -131 -264 -131q-71 0 -133 35.5t-82 108.5 q-19 -22 -28.5 -32.5t-39.5 -35.5t-57 -38.5t-70.5 -25.5t-91.5 -12q-95 0 -151 49t-56 113zM209 -279q76 -9 76 -86q0 -4 -2 -33t-2 -34q0 -6 2 -14t8 -21.5t23 -22t42 -8.5q55 0 113 50t100 129q57 111 174 522q12 41 76 288t76 291q-178 -2 -358 0 q-31 -132 -116.5 -432.5t-107.5 -367.5q-35 -106 -55.5 -157.5t-48.5 -103.5zM553 844q185 2 354 0q5 16 21.5 68.5t27 86t25 72.5t23.5 55q-28 6 -46.5 17.5t-26 26t-9.5 23.5t-2 17q0 4 2 26t2 26q0 36 -18.5 49.5t-53.5 13.5q-49 0 -95 -38.5t-77 -92.5t-59 -126.5 t-42.5 -123t-25.5 -100.5zM1042 844q169 -2 336 0q0 1 11 39t22.5 80.5t24 93t20.5 93.5t8 64q0 11 -3.5 26t-13.5 36.5t-35 36t-60 14.5q-48 0 -87 -22t-68.5 -58t-57 -100.5t-49 -132t-48.5 -170.5z" />
<glyph horiz-adv-x="2048" />
<glyph horiz-adv-x="2048" />
<glyph unicode="&#xd;" horiz-adv-x="2048" />
<glyph unicode=" "  horiz-adv-x="501" />
<glyph unicode="&#x09;" horiz-adv-x="501" />
<glyph unicode="&#xa0;" horiz-adv-x="501" />
<glyph unicode="!" horiz-adv-x="618" d="M229 63q0 33 26 61t60 28q35 0 61.5 -26t26.5 -63q0 -35 -26.5 -60.5t-61.5 -25.5t-60.5 26t-25.5 60zM346 311q6 29 10 43q78 271 117 709q4 40 7 66.5t9 58t14 50.5t20.5 37t30 26t40.5 8q44 0 66 -29t22 -53q0 -25 -33.5 -135t-56.5 -174q-80 -221 -199 -572 q-19 -51 -31 -51q-16 0 -16 16z" />
<glyph unicode="&#x22;" horiz-adv-x="854" d="M373 752l30 297q5 47 8 72.5t10 65t17.5 61t26.5 44.5t39.5 33t54.5 10q30 0 54 -16t24 -55q0 -28 -14.5 -66t-67.5 -151l-139 -295h-43zM745 752l31 297q5 47 8 72.5t10 65t17.5 61t26.5 44.5t39.5 33t54.5 10q30 0 54 -16t24 -55q0 -28 -14.5 -66t-67.5 -151l-140 -295 h-43z" />
<glyph unicode="#" horiz-adv-x="1366" d="M238 367v88h231l86 407h-317v88h335l89 416h86l-89 -416h457l86 416h88l-88 -416h213v-88h-231l-84 -407h315v-88h-334l-84 -414h-90l88 414h-458l-84 -414h-88l86 414h-213zM555 457h459l84 405h-457z" />
<glyph unicode="$" d="M174 205q0 57 30 87t64 30q35 0 56.5 -28t21.5 -61q0 -39 -33 -67q-36 -30 -38 -35q-1 -3 -1 -6q0 -30 43 -67t115 -54l158 516q-35 36 -51 53t-43 51t-39.5 59t-22.5 61t-10 73q0 72 34.5 127.5t87.5 85t110 42.5t108 9l43 123h51l-35 -123q96 -20 155.5 -72t59.5 -135 q0 -36 -21.5 -64t-58.5 -28q-35 0 -56 23t-21 57q0 46 37 62q4 2 11 5q14 6 18.5 8.5t6.5 5t2 7.5q0 12 -17 30.5t-36 29.5q-36 18 -96 30l-121 -399q58 -61 84 -89t59.5 -69t46 -68.5t22 -63.5t9.5 -77q0 -66 -26 -123t-67 -94t-83.5 -60.5t-83.5 -33.5q-69 -16 -172 -10 l-78 -248h-59l80 258q-108 19 -176 92.5t-68 149.5zM489 -6q16 -4 58 -4q99 0 166 65.5t67 151.5q0 44 -18.5 91t-48.5 87t-45 57t-31 33zM528 879q0 -88 115 -193l109 358q-63 0 -108.5 -16.5t-67 -37.5t-33.5 -48.5t-13.5 -40t-1.5 -22.5z" />
<glyph unicode="%" horiz-adv-x="1515" d="M227 -27l1241 1364h74l-1239 -1364h-76zM256 926q0 96 33.5 175.5t87.5 129.5t118 77t128 27q121 0 188.5 -85t67.5 -199q0 -82 -33.5 -157t-86 -126.5t-117 -82t-126.5 -30.5q-110 0 -185 75.5t-75 195.5zM371 864q0 -9 1 -22t9 -41t21 -49.5t41 -38.5t65 -17 q70 0 130.5 71.5t93 171t32.5 191.5q0 24 -5 48.5t-17.5 52.5t-40.5 45.5t-68 17.5q-56 0 -103 -35.5t-75.5 -87t-48 -113t-27.5 -111t-8 -83.5zM885 248q0 86 32.5 163t84.5 129t117.5 82.5t131.5 30.5q105 0 181.5 -75t76.5 -203q0 -91 -33.5 -168.5t-87 -127.5t-119 -78 t-130.5 -28q-67 0 -119 28t-80 72t-41.5 88.5t-13.5 86.5zM999 180q0 -13 1.5 -28.5t9.5 -41.5t20.5 -46t38.5 -35t61 -15q63 0 116 46.5t84 116.5t48 143.5t17 136.5q0 59 -33 107t-92 48q-77 0 -141 -69t-97 -167.5t-33 -195.5z" />
<glyph unicode="&#x26;" horiz-adv-x="1665" d="M221 508q0 65 21.5 122.5t50.5 94.5t70.5 70t70.5 49t62 30q0 1 -6 10t-8.5 13t-9 15.5t-10 18.5t-9.5 19.5t-9 23t-7.5 24t-7 26.5t-4 27.5t-1.5 29.5q0 65 27 126.5t87.5 106t141.5 44.5q97 0 160 -59.5t63 -141.5q0 -27 -12 -57q-10 30 -21 51.5t-33 49.5t-59 43.5 t-86 15.5q-56 0 -98 -21.5t-65.5 -57t-34.5 -74t-11 -77.5q0 -13 1.5 -25t2.5 -20.5t5.5 -20t5.5 -16t8 -17t8 -15t10.5 -17t10.5 -16.5q194 -5 194 -127q0 -27 -24.5 -42.5t-55.5 -15.5q-50 0 -86 41q-40 50 -52.5 61t-31.5 11q-48 0 -100.5 -69t-52.5 -162 q0 -65 22 -126.5t69.5 -118.5t117 -99t171.5 -67.5t224 -25.5q98 0 180 15t138.5 39.5t100 58.5t69 68.5t42 74t22 71t5.5 62.5q0 57 -21 113.5t-60 104.5t-102 78t-139 30q-96 0 -169.5 -55.5t-73.5 -138.5q0 -65 34.5 -116.5t87.5 -51.5q56 0 56 20q0 7 -5 12.5t-28 24.5 q-23 20 -23 47q0 39 31.5 58.5t59.5 19.5q9 0 23.5 -4t34 -14.5t33 -33.5t13.5 -55q0 -63 -50 -100t-110 -37q-47 0 -86.5 22.5t-64 57.5t-38 75t-13.5 77q0 9 1.5 23t9 42t20.5 54.5t39.5 56t62 51.5t92 36.5t125.5 14.5q19 0 120.5 -4t118.5 -4q107 0 191 56.5t84 137.5 q0 74 -54 127.5t-112 53.5q-35 0 -35 -15q0 -3 5 -16.5t5 -15.5q6 -15 6 -35q0 -35 -28.5 -57.5t-61.5 -22.5t-60.5 24.5t-27.5 67.5q0 51 40 86t106 35q111 0 192.5 -71t81.5 -199q0 -186 -184 -269q-55 -25 -182 -35q30 -37 47.5 -64t36 -88.5t18.5 -135.5 q0 -104 -44 -197.5t-124.5 -165t-203.5 -113.5t-271 -42q-154 0 -283 44.5t-212 118.5t-129 168t-46 195z" />
<glyph unicode="'" horiz-adv-x="448" d="M373 752l30 297q5 47 8 72.5t10 65t17.5 61t26.5 44.5t39.5 33t54.5 10q30 0 54 -16t24 -55q0 -28 -14.5 -66t-67.5 -151l-139 -295h-43z" />
<glyph unicode="(" horiz-adv-x="641" d="M279 113q0 378 149.5 687t421.5 525q33 27 51 33t72 6q26 0 26 -8q0 -7 -53 -39q-291 -246 -424 -510q-168 -331 -168 -682q0 -94 12.5 -184.5t26 -148.5t42 -131t40.5 -98t41 -83l12 -17q0 -8 -18 -8q-61 0 -74 19q-50 79 -103.5 260t-53.5 379z" />
<glyph unicode=")" horiz-adv-x="491" d="M-184 -537q0 1 51 39q291 246 426 510q168 331 168 682q0 94 -12.5 184.5t-26 148.5t-42 131t-40.5 98t-41 83l-12 17q0 8 18 8q62 0 74 -18q50 -79 104 -260.5t54 -378.5q0 -377 -150 -687t-422 -526q-33 -27 -51 -33t-72 -6q-26 0 -26 8z" />
<glyph unicode="*" horiz-adv-x="1024" d="M340 930q0 23 17 36.5t30 16t21 2.5q35 0 75 -5.5t209 -33.5q8 -4 19 -4q14 0 14 8q0 3 -18.5 17t-20.5 14q-179 129 -215.5 160.5t-36.5 60.5q0 21 15 35t36 14q19 0 38 -14.5t73 -73.5q10 -10 48 -56.5t70 -84t36 -37.5q8 0 8 10q0 7 -4.5 24t-5.5 21q-43 187 -43 252 q0 35 15.5 56.5t35.5 21.5q4 0 8.5 -0.5t14.5 -5t17 -12.5t13 -24t6 -38q0 -27 -14.5 -156.5t-14.5 -134.5q0 -12 9 -12q7 0 28 35q148 229 221 229q14 0 30 -12t16 -33q0 -23 -14 -37t-101 -79q-15 -12 -70 -50.5t-76 -56.5q-8 -8 -8 -10q0 -12 17 -12q4 0 18.5 3t31.5 7 t19 4l197 26q20 0 38.5 -3.5t36 -18t17.5 -37.5q0 -20 -14.5 -34.5t-42.5 -14.5q-29 0 -133 14.5t-148 24.5l-18 4q-17 0 -17 -10l97 -72q114 -86 145 -115t31 -61q0 -19 -17 -32t-37 -13q-35 0 -73 42.5t-146 194.5q-17 25 -18 25q-10 0 -10 -16q0 -9 4 -33.5t4 -28.5 q20 -185 20 -239q0 -24 -11.5 -44t-39.5 -20q-57 0 -57 74q0 66 41 268q0 2 3 12.5t3 12.5q0 12 -8 12q-2 0 -25 -30.5t-51.5 -69t-34.5 -45.5q-99 -130 -135 -130q-18 0 -32.5 14.5t-14.5 35.5q0 25 14 41t84 75q66 55 154 115q2 0 5 3.5t3 6.5q0 9 -8 9q-2 0 -10.5 -2.5 t-10.5 -2.5q-227 -41 -276 -41q-28 0 -52 15.5t-24 42.5z" />
<glyph unicode="+" horiz-adv-x="1366" d="M289 549v88h493v493h88v-493h494v-88h-494v-494h-88v494h-493z" />
<glyph unicode="," horiz-adv-x="385" d="M74 -311q0 7 6 11.5t33 18.5q68 39 105.5 93t37.5 110q0 3 -6 51q-77 0 -107 34t-30 75q0 52 35 77t73 25q62 0 99.5 -52t37.5 -126q0 -65 -25 -123.5t-60.5 -96t-74.5 -65.5t-67 -40.5t-37 -12.5q-5 0 -12.5 5.5t-7.5 15.5z" />
<glyph unicode="-" horiz-adv-x="788" d="M162 369q0 5 6 26l20 66q6 14 11.5 18t21.5 4l570 -2q26 0 26 -14q0 -10 -4 -14l-20 -66q-6 -23 -11 -28t-26 -5l-561 2q-33 0 -33 13z" />
<glyph unicode="." horiz-adv-x="448" d="M174 78q0 41 29 69.5t69 28.5q41 0 70 -29t29 -69t-29 -69t-70 -29q-40 0 -69 28.5t-29 69.5z" />
<glyph unicode="/" horiz-adv-x="1024" d="M240 -37l704 1389h86l-704 -1389h-86z" />
<glyph unicode="0" d="M176 406q0 123 41.5 244t114 217.5t179.5 156t228 59.5q77 0 139.5 -28t101.5 -72t65.5 -101t37.5 -111t11 -105q0 -72 -16.5 -149.5t-47.5 -155t-80.5 -147t-110.5 -123t-143 -85t-174 -31.5q-69 0 -125 21t-91 52.5t-61 76t-39 83.5t-20 84t-8.5 68.5t-1.5 45.5z M322 268q0 -17 2 -36t8 -50.5t20 -58.5t35 -52t56.5 -40t80.5 -15q130 0 221 136q82 122 142.5 293.5t60.5 351.5q0 33 -6 65.5t-21 65.5t-37 58t-58 40.5t-81 15.5q-82 0 -153.5 -56t-119.5 -142.5t-83 -192.5t-51 -204.5t-16 -178.5z" />
<glyph unicode="1" d="M248 14q0 13 10 16t43 5q105 4 148 162q25 92 174 567q23 71 28.5 94t5.5 51q0 30 -30 57t-99 27q-12 0 -18.5 1t-12 5t-5.5 13q0 14 16.5 18t87.5 8h4h4q50 3 71 4.5t58 9t70 21.5q42 21 45 21q5 0 9.5 -6t4.5 -13q0 -11 -144.5 -475.5t-144.5 -482.5q0 -40 33 -62 t74 -22q27 0 35 -3t8 -16q0 -18 -29 -18q-21 0 -127 4q-30 0 -74 1t-49 1q-3 0 -32.5 -1t-49.5 -1q-74 -4 -83 -4q-31 0 -31 18z" />
<glyph unicode="2" d="M82 8q0 7 19 19t34 18q21 13 84 55t161 110.5t199.5 153t161.5 152.5q166 182 166 336q0 85 -52.5 136.5t-145.5 51.5q-78 0 -148 -40t-114 -97.5t-69.5 -118t-25.5 -106.5q0 -39 31.5 -67.5t65.5 -28.5q47 0 91.5 28.5t69.5 65.5q18 29 27 38t18 9q8 0 13.5 -5.5 t5.5 -10.5q0 -11 -19.5 -39t-52 -60t-84.5 -56t-108 -24q-80 0 -119 50.5t-39 115.5q0 64 40 133t106.5 126.5t163.5 94.5t202 37q83 0 145.5 -24t95.5 -62.5t48.5 -78.5t15.5 -80q0 -225 -299 -432q-87 -60 -438 -273v-4q405 0 432 8q33 8 69.5 39t53.5 58q21 31 29.5 40 t19.5 9q8 0 14 -6t6 -13q0 -10 -34 -59q-110 -181 -129 -207q-56 -2 -323 -2.5t-294 -1.5l-59 -2q-35 0 -35 14z" />
<glyph unicode="3" d="M131 215q0 37 22.5 66.5t61.5 29.5q36 0 57 -22t21 -49q0 -12 -19 -58q-8 -20 -8 -43q0 -55 52.5 -90t121.5 -35q61 0 115.5 29.5t92 74.5t65.5 98.5t41.5 103t13.5 86.5q0 58 -36 99.5t-89 41.5q-43 0 -104 -33q-50 -25 -56 -25q-7 0 -12.5 6.5t-5.5 14.5q0 11 12 19.5 t41 19.5q166 84 207 109t76 65q59 68 59 156q0 79 -45 120t-119 41q-96 0 -163.5 -67t-67.5 -160q0 -42 19 -63t44 -21q27 0 44 9.5t61 47.5q14 7 18 7q7 0 12 -5.5t5 -9.5q0 -32 -67.5 -74t-119.5 -42q-57 0 -93 41t-36 92q0 113 105.5 199.5t267.5 86.5q126 0 202.5 -64.5 t76.5 -154.5q0 -34 -9.5 -63t-22 -50t-40.5 -42.5t-48 -34.5t-63.5 -31.5t-68 -27.5t-78.5 -29v-4q81 0 127 -21q53 -24 85 -79.5t32 -119.5q0 -44 -14.5 -93t-50 -102t-86 -95.5t-130.5 -69.5t-176 -27q-78 0 -139 18.5t-96 45t-57.5 61.5t-30 63t-7.5 54z" />
<glyph unicode="4" d="M137 418q2 17 15 43q33 26 183.5 159.5t166.5 147.5q224 184 354 287q33 27 47 33t45 6q27 0 27 -17q0 -7 -41.5 -143t-92.5 -298.5t-55 -176.5l142 -2q42 -1 73.5 24.5t43 51t14.5 45.5q3 16 7.5 21t12.5 5q11 0 17 -7t6 -13q0 -1 -88 -291q-12 -41 -19.5 -54.5 t-17.5 -13.5q-8 0 -13.5 7.5t-5.5 15.5q0 5 5.5 32t5.5 31q0 86 -76 103q-18 4 -119 4q-6 -22 -39 -128.5t-33 -107.5q-6 -24 -6 -49q0 -38 29.5 -65t60.5 -29q39 -2 52.5 -6t13.5 -17q0 -18 -39 -18q-16 0 -95.5 5t-92.5 5q-17 0 -101.5 -4t-91.5 -4q-16 0 -23.5 0.5t-17 2 t-13 5t-3.5 10.5q0 13 15 17t52 6q25 1 46.5 14t35 31.5t20 29.5t9.5 19q4 13 23.5 80t37.5 126.5t25 76.5h-502zM211 459q12 0 118.5 -0.5t198.5 -0.5t123 1q1 3 36 116.5t73 235t47 143.5l-4 4q-8 -6 -31.5 -22.5t-31.5 -22.5t-31.5 -23.5t-40.5 -31.5t-49.5 -41 t-67 -57.5t-84.5 -74t-111 -97.5z" />
<glyph unicode="5" d="M150 225q0 9 2 19t9 29t27 31.5t50 12.5q20 0 35 -6.5t22 -14.5t11 -20t4.5 -18t0.5 -12q0 -8 -13 -51.5t-13 -51.5q0 -38 41.5 -80.5t122.5 -42.5q70 0 132 35.5t104.5 91t74 121.5t46.5 127.5t15 108.5q0 45 -16.5 80t-43 54t-53.5 28.5t-53 9.5q-55 0 -112 -35 t-86 -74q-64 -91 -70 -96q-8 -4 -12 -4q-21 0 -21 20q0 4 51 130.5t113.5 279t75.5 186.5q9 -2 44.5 -9.5t55.5 -10.5q62 -10 117 -10q154 0 238 94q4 5 11 12q25 26 32 27q4 0 12 -6.5t8 -14.5q0 -12 -21.5 -47.5t-56.5 -73.5q-49 -55 -122 -80.5t-197 -25.5q-69 0 -131 10 q-24 -55 -58 -139q-28 -70 -46.5 -112t-22.5 -52l4 -4q58 40 102.5 58t106.5 18q132 0 215.5 -85.5t83.5 -215.5q0 -71 -32.5 -146t-91 -140.5t-154 -107.5t-208.5 -42q-71 0 -129.5 17.5t-95 44t-62 60t-36 64.5t-10.5 59z" />
<glyph unicode="6" d="M215 393q0 81 24 172t76 184t125 167.5t181 121.5t233 47q134 0 209.5 -59t75.5 -139q0 -55 -24.5 -79t-59.5 -24q-33 0 -54.5 20t-21.5 46q0 8 14.5 47.5t14.5 46.5q0 46 -48.5 73t-99.5 27q-89 0 -170 -52.5t-143 -133.5q-13 -17 -26.5 -37.5t-23.5 -38t-21.5 -41.5 t-18 -39t-16.5 -40t-14 -35.5t-13 -35t-11 -28.5l5 -4q32 32 61 54.5t89.5 45.5t129.5 23q147 0 236.5 -91t89.5 -222q0 -156 -128 -274t-302 -118q-170 0 -269.5 118.5t-99.5 297.5zM354 289q0 -116 66 -193.5t164 -77.5q59 0 107 27.5t77.5 69.5t49.5 94t28 98t8 86 q0 94 -54 165t-155 71q-51 0 -101.5 -21.5t-93.5 -62t-69.5 -107.5t-26.5 -149z" />
<glyph unicode="7" d="M283 844q0 6 38.5 77t47.5 83q7 18 37.5 78.5t35.5 66.5q5 8 15 8q16 0 16 -18q0 -44 21 -62t84 -18h266q243 0 266 -2q-3 -21 -12.5 -35.5t-46.5 -56.5q-115 -128 -180 -209.5t-124 -181.5t-100 -205t-90 -267l-27 -88q-9 -21 -31 -37t-46 -16q-27 0 -48.5 18.5 t-21.5 47.5q0 30 7.5 64.5t27.5 77.5t37 79t53.5 90.5t59 89.5t72 99.5t73.5 96t82 103t79.5 98t83.5 101.5q-509 0 -528 -4q-49 -17 -92 -66q-25 -27 -37 -27q-6 0 -12 4.5t-6 10.5z" />
<glyph unicode="8" d="M174 221q0 40 13.5 76t32.5 63t52 52.5t59 41.5t67.5 34t63 26t58.5 21q-32 24 -50.5 40.5t-46.5 48.5t-42 70.5t-14 83.5q0 115 114 210t275 95q131 0 215 -66t84 -163q0 -53 -24 -99t-56 -75t-78 -54.5t-76 -37t-63 -21.5q178 -106 178 -256q0 -62 -29 -121t-83 -107.5 t-141.5 -78t-195.5 -29.5q-80 0 -140 20.5t-92 49t-51.5 65.5t-24.5 63t-5 48zM276 209q0 -89 66.5 -141t165.5 -52q119 0 206 72.5t87 165.5q0 42 -18.5 78t-58.5 69t-72 53.5t-91 53.5q-136 -49 -210.5 -128t-74.5 -171zM479 834q0 -81 88 -144q8 -7 39 -27.5t65 -43 t42 -27.5q23 9 31.5 12t40.5 18t49.5 27.5t45.5 35.5t43.5 47t27.5 57.5t12 70.5q0 88 -63 135t-152 47q-115 0 -192 -60.5t-77 -147.5z" />
<glyph unicode="9" d="M109 158q0 55 25.5 78.5t58.5 23.5q32 0 51.5 -20t19.5 -45q0 -7 -14 -45.5t-14 -45.5q0 -33 20.5 -55.5t51 -31.5t51 -12t36.5 -3q36 0 77.5 13t94.5 48t101.5 88t96.5 142.5t81 202.5l-4 4q-65 -58 -126.5 -87.5t-148.5 -29.5q-85 0 -151 27t-103.5 72t-56 97.5 t-18.5 108.5q0 111 63 203.5t160 142t201 49.5q169 0 270.5 -113.5t101.5 -303.5q0 -83 -24 -175.5t-76.5 -187.5t-125 -170.5t-181 -123.5t-234.5 -48q-142 0 -213 58.5t-71 138.5zM399 657q0 -59 21 -104t53.5 -69t65.5 -36t63 -12q52 0 103 21.5t94 61t69.5 103.5 t26.5 142q0 125 -64 201.5t-165 76.5q-84 0 -146.5 -59.5t-91.5 -145t-29 -180.5z" />
<glyph unicode=":" horiz-adv-x="362" d="M119 86q0 40 28.5 69t69.5 29q40 0 69 -28.5t29 -69.5t-29 -69.5t-69 -28.5q-42 0 -70 29t-28 69zM256 647q0 40 28.5 69t69.5 29q40 0 69.5 -28.5t29.5 -69.5t-29.5 -69.5t-69.5 -28.5q-42 0 -70 29t-28 69z" />
<glyph unicode=";" horiz-adv-x="385" d="M78 -311q0 7 7.5 13t47.5 30q43 26 83 77t40 111q0 11 -8 51q-68 7 -100.5 37.5t-32.5 73.5q0 41 26.5 70.5t77.5 29.5q63 0 100 -53.5t37 -116.5q0 -76 -33.5 -144t-78.5 -108.5t-85.5 -64t-60.5 -23.5q-9 0 -14.5 6t-5.5 11zM258 659q0 40 28.5 69.5t69.5 29.5 q40 0 69.5 -29t29.5 -70t-29.5 -69.5t-69.5 -28.5q-42 0 -70 29t-28 69z" />
<glyph unicode="&#x3c;" horiz-adv-x="1366" d="M291 557v78l1071 452v-96l-954 -395l954 -397v-99z" />
<glyph unicode="=" horiz-adv-x="1366" d="M289 322v88h1075v-88h-1075zM289 786v88h1075v-88h-1075z" />
<glyph unicode="&#x3e;" horiz-adv-x="1366" d="M291 100v97l954 397l-954 397v96l1071 -454v-80z" />
<glyph unicode="?" horiz-adv-x="811" d="M291 471q0 55 18.5 99t73 91t87.5 69t127 79l9 6q52 32 89.5 58.5t82.5 68.5t69.5 92.5t24.5 104.5q0 55 -18.5 94t-50.5 59t-65 28.5t-70 8.5q-87 0 -145 -42t-58 -89v-8.5t1.5 -7t2 -5.5t3.5 -5.5t4.5 -5.5t6.5 -6.5t8 -6.5t10.5 -8l12.5 -10q8 -6 17.5 -23.5 t9.5 -36.5q0 -30 -21 -52t-55 -22q-41 0 -72 33.5t-31 89.5q0 91 88 168.5t220 77.5q71 0 126 -18.5t87 -47t52 -66.5t27 -71.5t7 -68.5q0 -41 -8.5 -79t-20.5 -69t-36 -62t-43.5 -53t-56 -49t-60 -43t-69 -41t-70 -37.5l-73.5 -37.5q-105 -52 -146.5 -86.5t-41.5 -85.5 q0 -55 42 -90t103 -35q50 0 109 22q3 2 25.5 10.5t23.5 8.5q7 0 13 -5.5t6 -9.5q0 -23 -54.5 -45t-126.5 -22q-84 0 -139 53.5t-55 128.5zM334 63q0 37 25.5 63t62.5 26q36 0 61 -25.5t25 -63.5q0 -35 -25.5 -60.5t-60.5 -25.5q-37 0 -62.5 25.5t-25.5 60.5z" />
<glyph unicode="@" horiz-adv-x="1878" d="M178 444q0 207 76 390.5t204.5 311.5t302 202.5t363.5 74.5q141 0 260 -38t202 -103.5t140.5 -153.5t85 -187t27.5 -204q0 -94 -22 -191.5t-68.5 -190t-110.5 -164.5t-155 -116t-195 -44q-153 0 -153 139q0 58 18 141l-4 4q-33 -41 -57.5 -70t-69 -73t-83 -71.5 t-87.5 -48.5t-94 -21q-59 0 -101.5 39t-60.5 90t-18 104q0 76 25 160t66.5 160.5t97.5 146.5t116.5 121.5t124.5 82t120 30.5q68 0 111.5 -35.5t58.5 -104.5h5l30 111l158 22l-117 -399q-67 -229 -80.5 -285t-13.5 -94q0 -26 18 -52t58 -26q69 0 143.5 51t136.5 136.5 t102 209t40 255.5q0 130 -46.5 243.5t-130 196t-205.5 129.5t-266 47q-154 0 -292 -54t-239.5 -146.5t-176.5 -213.5t-112.5 -259t-37.5 -279q0 -177 59.5 -327t163.5 -253.5t249 -161t313 -57.5q90 0 177 17t178.5 57.5t171 102.5t152 158.5t124.5 217.5h57 q-48 -150 -141 -269t-210 -193t-248.5 -113t-266.5 -39q-183 0 -344 66t-277.5 181.5t-184 281.5t-67.5 357zM735 295q0 -57 32.5 -100t82.5 -43q47 0 96 27t90.5 71t68 78t50.5 71q42 66 75.5 183.5t33.5 187.5q0 65 -34 106.5t-91 41.5q-69 0 -144.5 -73.5t-131 -174.5 t-92 -206t-36.5 -169z" />
<glyph unicode="A" horiz-adv-x="1300" d="M-2 20q0 18 31 23q44 9 85.5 31t82.5 60.5t65 65t66 76.5q445 533 657 781l53 65q52 64 91.5 110t54.5 58q70 21 190 43q-14 -57 -87 -334.5t-136.5 -520.5t-65.5 -259q-2 -18 -2 -49q0 -60 33.5 -92t79.5 -39q27 -5 33 -7.5t6 -11.5q0 -20 -29 -20q-15 0 -92 3t-90 3 l-262 -2q-57 0 -70.5 3t-13.5 16q0 20 27 20q38 4 60 9.5t46.5 25t39.5 45t37 83t41.5 123.5t51.5 181h-295l-53 2h-3q-32 0 -58 -20q-27 -21 -74 -80q-54 -67 -84 -105.5t-68.5 -104t-38.5 -100.5q0 -52 86 -59q43 -5 55.5 -9t12.5 -14q0 -16 -29 -16q-62 0 -199 2l-213 2 q-22 0 -22 12zM653 582q0 -10 8.5 -15.5t18.5 -5.5l315 -2q10 29 85 290.5t75 278.5q0 19 -14 19q-13 0 -30.5 -15t-53.5 -57q-195 -224 -381 -454q-2 -3 -6 -7.5t-5 -6t-3.5 -4.5t-3.5 -4.5t-2 -3.5l-1.5 -3t-1 -3t-0.5 -3.5v-3.5z" />
<glyph unicode="B" horiz-adv-x="1280" d="M20 8q0 9 6.5 11.5t36.5 7.5q105 17 135 32q48 23 79 93q26 60 85 274q146 529 165 618q16 78 16 138q0 30 -30.5 53t-62.5 31.5t-61 11.5q-35 4 -35 20q0 15 39 15q21 0 79.5 -4t86.5 -6q204 -11 217 -11q42 0 107 2t110 2q92 0 163 -21.5t109.5 -52t63 -71.5t32 -73.5 t7.5 -63.5q0 -49 -14 -91.5t-35 -72.5t-55 -55.5t-65.5 -41.5t-74.5 -30t-74.5 -21.5t-72.5 -15.5v-4q38 -11 60.5 -18.5t62 -23.5t64.5 -32t56 -41.5t48.5 -54.5t30 -69t12.5 -87q0 -95 -58 -182.5t-141 -124.5q-68 -31 -153 -45t-224 -14q-64 0 -172 6q-72 4 -168 4 q-25 0 -180 -6t-164 -6q-12 0 -21.5 6t-9.5 14zM481 127q0 -32 17.5 -53t52 -30t68 -12t83.5 -3q84 0 151.5 18.5t109.5 45.5t73 65t45.5 69.5t22.5 67t9 49.5t1 25q0 68 -24 121.5t-61.5 85t-88.5 51.5t-99 27.5t-98 7.5q-28 0 -79.5 -3.5t-57.5 -3.5q-4 -17 -19.5 -73 t-34.5 -123t-22 -76q-49 -171 -49 -256zM623 705q161 0 205.5 2.5t99.5 15.5q67 16 118.5 47.5t79.5 65.5t46 74t23 68.5t5 53.5q0 64 -18 109t-52 68.5t-74 33.5t-93 10q-106 0 -142 -13t-65 -64q-28 -51 -61 -167.5t-49 -189.5t-23 -114z" />
<glyph unicode="C" horiz-adv-x="1236" d="M223 475q0 140 42.5 273t115 236t165 182t197 121t205.5 42q91 0 195 -49q69 -33 90 -33q44 0 76 41l8.5 8.5l6.5 6.5l5 5t4.5 4t3.5 3t3 2.5t3 1t3.5 0.5h3.5q16 0 16 -19q0 -2 -6.5 -24.5t-13.5 -49t-9 -32.5q-47 -203 -59 -287q-3 -26 -21 -26q-11 0 -13.5 10t-2.5 49 q-7 126 -53 209q-34 61 -101 100t-139 39q-80 0 -152 -36t-126.5 -98t-99 -143t-72.5 -173t-43 -186.5t-15 -184.5q0 -104 24.5 -183.5t59.5 -123t81.5 -71t82 -36t68.5 -8.5q112 0 230.5 71.5t195.5 194.5q19 29 30 29q8 0 13.5 -6.5t5.5 -11.5q0 -17 -25 -55.5 t-76.5 -88.5t-117.5 -95.5t-161 -76.5t-194 -31q-106 0 -191 42.5t-136.5 113.5t-79 159t-27.5 185z" />
<glyph unicode="D" horiz-adv-x="1515" d="M76 10q0 7 12.5 12.5t52.5 16.5q35 11 45 14.5t35 14.5t34.5 20t22 25.5t19.5 38.5q102 429 145 634.5t43 303.5q0 64 -42.5 112.5t-116.5 48.5q-16 0 -24 1t-14.5 5t-6.5 13q0 13 10 15.5t42 2.5h11h7q55 0 272 13q232 14 266 14q99 0 173.5 -10t149.5 -36.5t137 -78.5 t113 -131q103 -159 103 -387q0 -39 -4 -80t-21.5 -111.5t-47.5 -132t-89 -128t-139 -111.5q-206 -114 -501 -114q-24 0 -48 1l-279 6h-11q-31 0 -119 -4q-108 -4 -122 -4l-80 -2q-10 0 -19 6t-9 12zM526 203q0 -162 219 -162q109 0 201 32.5t153 83.5t109 119.5t75 135 t44.5 135.5t23 115t5.5 79q0 133 -53 257.5t-132 187.5q-107 86 -286 86q-43 0 -68.5 -6.5t-48.5 -27t-39 -56.5t-33 -99q-52 -186 -111 -461.5t-59 -418.5z" />
<glyph unicode="E" horiz-adv-x="1386" d="M39 12q0 9 13 14t67 17q38 8 53.5 12.5t39 22.5t35 39.5t32.5 73t39.5 114t48.5 170.5q40 138 87.5 341.5t47.5 270.5q0 78 -42 119t-120 41q-39 0 -39 21q0 14 8.5 17t42.5 3q140 0 535 10q441 12 473 13q14 -69 22 -264q0 -4 2 -27.5t2 -26.5q0 -20 -14 -20 q-10 0 -19.5 15.5t-25.5 55.5q-20 47 -61.5 99t-69.5 74q-29 22 -64.5 32.5t-103.5 10.5q-148 0 -274 -17q-12 -28 -37.5 -115.5t-49 -174.5t-44 -164t-21.5 -80q50 -1 99 -3h12l86 10q49 10 90.5 28.5t77 58t57.5 96.5q14 37 19 46t14 9q7 0 12.5 -6.5t5.5 -13.5 q0 -2 -16 -61.5t-33 -124.5t-20 -76q-4 -21 -23 -101.5t-35 -160.5q-10 -50 -16 -54q-3 -2 -10 -2q-19 0 -19 21q0 5 1 26t1.5 35.5t-0.5 24.5q-18 109 -49 148.5t-92 49.5q-34 5 -172 5q-5 -24 -34.5 -130t-53 -201.5t-23.5 -125.5q0 -34 10.5 -61t24 -44t38.5 -29 t43.5 -17.5t49.5 -8.5t45 -3.5t41 -0.5q61 0 90.5 0.5t73.5 4t66 10t57 19.5t58.5 31t59.5 47.5t70.5 65t81.5 86.5q15 25 45 55q11 11 19 11q14 0 14 -21q0 -56 -127 -354q-8 2 -50 2q-35 0 -95 -2q-130 -2 -144 -2q-46 0 -291.5 6t-285.5 6q-25 0 -155.5 -7t-151.5 -7 q-29 0 -29 18z" />
<glyph unicode="F" horiz-adv-x="1343" d="M57 29q0 11 11.5 14.5t42.5 2.5q46 4 76.5 16.5t49.5 37t27.5 42.5t20.5 55q46 128 150 499.5t104 466.5q0 30 -18 50.5t-44 29t-42.5 11.5t-26.5 3q-37 0 -37 19q0 22 35 22t217.5 -4t212.5 -4q92 -2 342 -4q178 -2 243 -2h33q2 -32 2 -81q0 -32 -1 -72q-2 -99 -7 -150 q-4 -49 -8 -61.5t-15 -12.5q-21 0 -26 37q-4 25 -14.5 61t-28.5 79.5t-46.5 80.5t-60.5 52q-38 19 -97 25.5t-224 6.5q-85 0 -135 -10q-74 -127 -170 -537q40 -1 75 0q92 0 144 5q72 8 114.5 32.5t79.5 81.5q2 3 17 32.5t28.5 51t20.5 21.5t11.5 -7.5t4.5 -15.5l-39 -145 q-9 -34 -96 -381q0 -6 -7.5 -20.5t-17.5 -14.5q-6 0 -12 5.5t-6 12.5t6 51t6 52q0 43 -13.5 76.5t-33.5 54.5t-52.5 35t-60 20t-67.5 8.5t-63 2t-58 -2.5q-6 -21 -27 -89t-51 -171q-40 -137 -49.5 -180.5t-9.5 -77.5q0 -38 34 -67t60 -33q63 -12 69 -19q3 -3 3 -10 q0 -16 -29 -16q-31 0 -194.5 8t-190.5 8q-7 0 -44 -1.5t-60.5 -2t-38.5 1.5q-19 4 -19 21z" />
<glyph unicode="G" horiz-adv-x="1492" d="M215 557q0 113 36 226t105.5 211.5t163.5 174.5t218 120t261 44q161 0 318 -69q7 -3 36.5 -18.5t56.5 -28.5t36 -13q13 0 20 6t33 33q4 12 21 12q6 0 12 -5.5t6 -12.5q0 -1 -19 -78t-40 -162.5t-25 -103.5q-6 -23 -16 -23q-17 0 -21 11.5t-10 66.5q-6 52 -31 108.5 t-70 111t-120 89.5t-166 35q-106 0 -201.5 -52t-164.5 -136t-120 -187.5t-76.5 -209.5t-25.5 -199q0 -128 51 -240.5t139.5 -180t190.5 -67.5q52 0 119.5 22t101.5 64q46 56 67 145.5t21 162.5q0 32 -4 51.5t-19 42.5t-50 37.5t-91 21.5q-22 4 -22 21q0 16 22 16 q17 0 104 -4t101 -4q22 0 136.5 -2t132.5 -2q67 0 90 -4q20 -5 20 -19q0 -11 -10 -14t-57 -6q-91 -6 -125 -103q-15 -36 -53.5 -169t-57.5 -209l-19 -6q-18 -6 -42 -13t-59 -17t-74.5 -18.5t-81 -16.5t-86.5 -12.5t-84 -4.5q-83 0 -163 20t-156 65t-133 110.5t-91.5 164 t-34.5 217.5z" />
<glyph unicode="H" horiz-adv-x="1579" d="M53 18q0 11 12 16t70 15q28 5 50 17t41 37t33 52t30 76.5t28 95t31 122.5q82 339 125 538q12 58 12 115q0 78 -32 110t-119 39q-25 5 -25 19q0 20 29 20q27 0 170.5 -2t167.5 -2l186 2q47 0 47 -22q0 -19 -28 -19q-15 0 -40.5 -3.5t-64.5 -18t-57 -37.5q-29 -34 -48 -104 t-91 -400q100 -8 307 -8q278 0 397 4q27 94 58.5 237.5t31.5 202.5q0 30 -9 53.5t-25.5 36.5t-32 21t-35.5 11.5t-29 4t-20 0.5q-17 0 -25.5 1t-16 6t-7.5 16q0 18 26 18q25 0 156 -4t153 -4l109 -2l158 2q30 0 30 -18q0 -12 -9 -15.5t-52 -9.5q-24 -4 -42 -7.5t-35 -11.5 t-29 -13.5t-24 -20.5l-20 -25t-17.5 -34t-15.5 -40.5t-16 -52t-16.5 -61t-18.5 -74.5q-134 -541 -151 -651q-6 -45 -6 -88q0 -47 35.5 -81.5t80.5 -39.5q52 -4 52 -21q0 -10 -11 -16t-26 -6q-16 0 -98 3t-95 3q-26 0 -162 -4q-132 -4 -155 -4q-31 0 -31 20q0 12 8 15t43 8 q57 7 98.5 37t65.5 104q28 88 63 234t48 215q-149 6 -703 6q-3 -17 -28 -123t-43.5 -197.5t-18.5 -120.5q0 -145 148 -155q41 -3 49 -5t8 -16q0 -16 -20 -16h-531q-66 0 -72 4q-6 3 -6 16z" />
<glyph unicode="I" horiz-adv-x="704" d="M70 14q0 12 12 17t63 12q34 5 60.5 19.5t41.5 30t27.5 44t17.5 47.5t13 54q8 34 66.5 258.5t109.5 427.5t51 227q0 26 -9 46t-19.5 30.5t-29 18t-29 9.5t-27.5 5q-50 8 -57 15q-3 4 -3 9q0 12 11.5 14t70.5 2q38 0 237 -5t232 -5q15 -8 15 -18q0 -12 -9.5 -15t-50.5 -8 q-23 -3 -40.5 -7t-33.5 -16t-26.5 -21t-23.5 -34.5t-20 -41.5t-20 -58.5t-20.5 -69.5t-24.5 -88q-95 -352 -147 -573q-26 -113 -32.5 -145.5t-6.5 -61.5q0 -89 106 -98q46 -4 46 -23q0 -18 -37 -18q-28 0 -176 4q-43 0 -104.5 1t-67.5 1l-136 -2q-30 0 -30 16z" />
<glyph unicode="J" d="M82 229q0 61 39 109.5t94 48.5q18 0 35.5 -5t35 -24t17.5 -49t-11.5 -50.5t-51.5 -68.5q-19 -25 -19 -57q0 -51 36 -82t85 -31q40 0 75 13t61.5 32t50.5 52.5t39.5 63t32.5 75t26.5 77t23.5 79.5q41 150 160 618q23 87 23 135q0 45 -27.5 64.5t-97.5 32.5q-31 5 -31 22 q0 7 1.5 10.5t10.5 7t27 3.5q21 0 73.5 -1t79.5 -1q20 -1 48.5 -2t47.5 -2t31 -1h197q19 0 31 -4.5t15 -8.5t3 -7q0 -11 -11.5 -15.5t-43.5 -7.5q-83 -8 -120 -50.5t-76 -180.5q-11 -36 -36 -133q-135 -516 -172 -623.5t-104 -169.5q-119 -114 -336 -114q-62 0 -111 19 t-76.5 46.5t-45 62.5t-23.5 63.5t-6 53.5z" />
<glyph unicode="K" horiz-adv-x="1323" d="M102 16q0 13 9.5 17t33.5 6q32 2 57.5 17.5t42 35.5t31.5 57.5t23 66t20 79.5q141 587 160 689q19 103 19 177q0 31 -13 52t-33 29t-33 10.5t-26 2.5q-20 1 -28 2.5t-14.5 5.5t-6.5 13q0 6 12 18q15 2 32 2h48q10 0 23 -1q27 0 69 1l138 2q221 0 229 -2q14 -2 14 -18 q0 -9 -4 -11t-24 -5q-28 -4 -40 -6t-32 -7.5t-28 -10.5t-21.5 -16t-20.5 -23.5t-18 -33.5t-19.5 -46t-19.5 -60q-36 -115 -68 -247t-41 -183q77 47 183.5 128t168 132t208.5 176q73 61 73 127q0 22 -18 42.5t-58 25.5q-26 3 -32 6.5t-6 15.5q0 11 10 14h34q34 -1 72 -1.5 t49 -0.5h80l70 4l51 -4l90 6q23 -6 23 -22q0 -4 -1 -7t-3.5 -4.5t-4 -2l-4.5 -1.5t-4 -1q-64 -7 -118 -35t-142 -94q-102 -77 -169 -131.5t-289 -241.5q41 -22 70.5 -45t51.5 -43.5t37.5 -51t25 -54.5t17 -68.5t11.5 -78t10 -97.5q6 -67 16.5 -114.5t23 -76t33.5 -46t40 -25 t49 -13.5q3 0 33 -3t36 -5q13 -3 13 -16q0 -7 -4 -10.5t-9.5 -4.5t-17.5 -2q-146 -7 -245 -7q-33 0 -62 1q-72 42 -72 182q0 54 -1 94t-5.5 90.5t-12.5 87t-22.5 74t-34.5 61t-49.5 38t-67.5 14.5q-11 0 -26 -5t-29 -12.5t-29 -17t-25 -17t-19 -13.5l-9 -7 q-33 -128 -59.5 -264t-26.5 -182q0 -31 25.5 -53t58.5 -29q34 -6 43.5 -10.5t9.5 -16.5q0 -10 -10 -12q-20 -4 -84 -4q-30 0 -110 2t-111 2h-92l-78 -4q-27 0 -27 18z" />
<glyph unicode="L" horiz-adv-x="1343" d="M39 14q0 13 11 17t63 12q35 6 64 20t50.5 37.5t36.5 44.5t28 53.5t19 49.5t15 47q94 319 138 501t44 281q0 45 -17 79t-39.5 52t-51.5 30t-46 15t-30 4q-62 4 -62 23q0 20 31 20l31 -2q25 -2 237 -2h197l157 2q16 0 23 -0.5t13.5 -4.5t6.5 -13q0 -10 -9 -13.5t-38 -6.5 q-39 -4 -67.5 -12t-50 -23.5t-35.5 -31t-26.5 -44.5t-20 -53t-19.5 -68q-43 -164 -65 -249.5t-56.5 -225.5t-50.5 -227t-16 -131q0 -33 10 -59t24.5 -42.5t38 -28.5t42.5 -17.5t46.5 -8.5t41.5 -3.5t36 -0.5q49 0 88 2t76 8.5t64 11.5t57 20l50 25t48 34.5t45 40.5t48 51 t50.5 58t57.5 70q17 17 25 17q6 0 11 -6.5t5 -12.5q0 -22 -55.5 -164.5t-81.5 -193.5q-81 -6 -217 -6q-126 0 -340 6q-143 4 -334 4h-137l-137 -2q-27 0 -27 16z" />
<glyph unicode="M" horiz-adv-x="1812" d="M39 20q0 18 31 21q36 5 102 29t90 53q6 7 11.5 15.5t11 20t10 20.5t10 24.5t9 24.5t9.5 28t8.5 28t9 31t9.5 31q30 102 48 167t41.5 154t47.5 175q8 31 18 68l15 55.5t11 41t8.5 33t5.5 23.5t4 21.5t1.5 17t0.5 18.5q0 22 -5.5 39.5t-12 30t-22.5 23.5t-27.5 17.5t-36 14 t-39 11t-46.5 10.5q-18 6 -18 18q0 10 5 14.5t24 4.5q13 0 54 -1.5t60 -1.5q21 0 109 -2t104 -2h129q4 -28 16.5 -164.5t14.5 -154.5q7 -53 24 -160.5t33 -202t31.5 -187.5l16.5 -99q89 110 208.5 286t250.5 378.5t196 295.5q124 8 213 8q114 0 225 -6q19 -5 19 -18 q0 -10 -6.5 -13t-36.5 -8q-68 -11 -109.5 -35.5t-78 -81.5t-74.5 -165q-68 -193 -134.5 -451t-66.5 -344q0 -128 145 -137q27 -2 27 -19q0 -18 -25 -18t-156 2t-153 2q-19 0 -118 -3t-115 -3q-31 0 -31 18q0 12 13.5 17.5t72.5 19.5q30 7 47 16t33.5 25.5t32 55t31.5 88.5 t42 141q133 471 203 795l-4 4q-30 -39 -68.5 -92t-86.5 -123.5t-87.5 -129.5t-98.5 -149.5t-92 -141.5t-95.5 -147.5t-83.5 -128.5q-3 -4 -41 -57t-67 -95t-36 -57q-18 -43 -33 -43q-10 0 -16 6q-35 293 -51.5 415t-59.5 399q-32 199 -57 309h-4q-31 -71 -67 -189t-140 -487 q-56 -198 -68 -247t-12 -77q0 -21 9 -38t22 -27t29 -17t29 -10t23 -5l11 -1q39 -2 55.5 -6.5t16.5 -18.5q0 -20 -35 -20l-442 2q-31 0 -31 18z" />
<glyph unicode="N" horiz-adv-x="1579" d="M63 23q0 11 12 14q6 2 36 6q43 3 69.5 6.5t56.5 19.5t47.5 32.5t42 59.5t40.5 86.5t43 129t50 170t60 225.5q73 299 76 309q-57 77 -81 103.5t-59.5 45t-95.5 27.5q-47 8 -57 11.5t-10 15.5q0 19 55 18q20 0 187 -8.5t184 -11.5q96 -177 213 -385q60 -110 143 -254 t135 -230.5t60 -97.5q37 80 160 480q75 240 75 303q0 60 -38.5 103t-82.5 48q-53 4 -66 8.5t-13 16.5q0 13 18.5 15.5t108.5 4.5q345 6 356 6q18 0 23.5 -5t5.5 -17q0 -9 -8.5 -13t-41.5 -8q-39 -5 -69 -19t-54.5 -41t-44.5 -60.5t-39.5 -85t-37.5 -105.5t-42 -131 q-1 -3 -1 -4q-119 -397 -222 -764q-14 -48 -19 -51q-2 -2 -7 -2q-16 0 -25 33q-8 28 -248.5 450t-306.5 520q-81 -228 -100 -292q-32 -99 -83.5 -289t-51.5 -234q0 -52 47 -89.5t104 -45.5q44 -6 55 -10t11 -14q0 -19 -21 -19h-522q-27 0 -27 19z" />
<glyph unicode="O" horiz-adv-x="1409" d="M229 549q0 105 34.5 216t101.5 212t156 181t206.5 127.5t243.5 47.5q112 0 202 -34.5t146.5 -88.5t94.5 -126.5t53.5 -143.5t15.5 -143q0 -145 -60.5 -293t-159.5 -263.5t-237 -188t-283 -72.5q-109 0 -199 38t-147 98t-96 137t-55.5 151t-16.5 145zM438 397q0 -26 3 -55 t11 -75t27 -85.5t47 -76.5t75 -58.5t106 -21.5q92 0 175.5 47t144.5 124t111 173t80.5 197.5t47 193.5t16.5 164q0 8 -0.5 21.5t-6 51t-14.5 72t-29 76.5t-47 72t-71 50.5t-98 20.5q-119 0 -228.5 -80.5t-185 -208t-120 -287t-44.5 -315.5z" />
<glyph unicode="P" horiz-adv-x="1323" d="M51 18q0 11 11 15t40 6q74 5 122 46t85 144q26 68 117.5 434.5t91.5 446.5q0 15 -4 34.5t-15 47.5t-38.5 47.5t-67.5 20.5q-22 0 -31.5 3.5t-9.5 14.5q0 18 27 18q5 0 46.5 -1t68.5 -1q49 -2 114 -2q1 0 83.5 1.5t175 3t118.5 1.5q41 0 83.5 -4.5t98 -16t102.5 -35 t88 -57.5t65 -88t24 -122q0 -108 -68.5 -194t-158.5 -124q-157 -65 -392 -65q-112 0 -221 16q-29 -96 -65.5 -250.5t-36.5 -207.5q0 -56 35 -84.5t82 -32.5q42 -3 52.5 -7t10.5 -16q0 -18 -37 -18q-15 0 -94 3t-92 3q-16 2 -162 2l-149 2q-5 0 -34.5 -2t-33.5 -2 q-31 0 -31 20zM618 649q117 -12 160 -12q88 0 160 17.5t118.5 44t81.5 63t53.5 70.5t29.5 70.5t13.5 58t2.5 38.5q0 21 -5.5 48.5t-24 66t-48.5 69t-85 52.5t-126 22q-70 0 -168 -20q-5 -18 -33 -112.5t-30 -102.5q-9 -31 -53 -197.5t-46 -175.5z" />
<glyph unicode="Q" horiz-adv-x="1386" d="M174 -369q0 34 25 65t66.5 53.5t68 34t55.5 21.5q99 35 191 88.5t135.5 88t72.5 63.5q-17 -1 -34 -1q-63 0 -122 9q-74 11 -148 43.5t-127.5 85t-87 139.5t-33.5 199q0 173 53 303t155 246q226 260 506 260q149 0 265 -72t175.5 -185.5t59.5 -246.5q0 -79 -17.5 -160 t-58 -170t-101.5 -171t-155.5 -162t-212.5 -144q-207 -106 -254 -137q-42 -24 -43 -24l4 -4q21 2 42 2q122 0 235 -64q155 -88 204.5 -110.5t98.5 -22.5q75 0 163 38t134 95q4 4 24.5 28.5t22.5 26.5l8 2q12 0 12 -16q0 -27 -18 -70.5t-54.5 -93t-84 -92.5t-113.5 -71.5 t-135 -28.5q-158 0 -289 137q-113 120 -163 159.5t-105 39.5q-45 0 -74.5 -23.5t-122.5 -130.5q-41 -49 -85 -68.5t-72 -19.5q-3 0 -8.5 1t-16 4.5t-19.5 9.5t-15.5 18t-6.5 28zM436 444q0 -167 78 -264q35 -43 87 -66.5t97 -23.5q75 0 147.5 41t130 108.5t106.5 155 t81.5 181t51 186t18.5 170.5q0 92 -29 172t-89.5 132t-141.5 52q-61 0 -118.5 -25t-99 -61.5t-80.5 -86.5t-61.5 -89.5t-42.5 -81.5q-135 -288 -135 -500z" />
<glyph unicode="R" horiz-adv-x="1366" d="M96 23q0 11 12 15t56 9q29 3 45.5 10t32.5 28t29 58.5t31.5 100t43.5 154.5q3 11 4 16q100 387 133 534q29 129 29 191q0 56 -34 84.5t-105 42.5q-25 4 -25 18q0 19 23 19q17 0 101.5 -4.5t98.5 -4.5q27 0 171 2t167 2q455 0 455 -290q0 -176 -182 -285q-47 -27 -174 -57 q31 -20 46.5 -31.5t40.5 -36.5t37.5 -50t22.5 -66.5t10 -92.5q0 -20 -12 -124.5t-12 -121.5q0 -26 16.5 -43.5t36.5 -17.5q28 0 62 18.5t92 57.5q18 12 30 12q13 0 13 -14q0 -21 -66 -62q-161 -110 -266 -110q-10 0 -23 2t-32.5 10t-34.5 20.5t-26 37.5t-11 57q0 50 26 161 q17 72 17 144q0 42 -4 75.5t-10 59t-18.5 44.5t-22.5 31.5t-30 21t-33 13t-39.5 6.5t-42 2.5t-46.5 0.5q-35 0 -121 -4q-30 -72 -80.5 -265.5t-50.5 -261.5q0 -81 144 -98q30 0 30 -16q0 -12 -12.5 -17.5t-24.5 -5.5q-17 0 -56 2l-40 2q-51 4 -168 4q-18 0 -114.5 -2 t-112.5 -2q-9 0 -18 4.5t-9 12.5zM616 711q47 -2 89 -2q126 0 208 16q71 14 122.5 53.5t76.5 90t36 94.5t11 81q0 90 -67.5 151.5t-190.5 61.5q-42 0 -141 -12q-3 -10 -29.5 -83.5t-30.5 -88.5q0 -1 -7.5 -27.5t-15 -55t-18 -70t-19 -77.5t-15.5 -72.5t-9 -59.5z" />
<glyph unicode="S" horiz-adv-x="1130" d="M92 18l29 58q12 26 70.5 182t70.5 182q34 82 51 82q8 0 12.5 -5t4.5 -11q0 -10 -4 -25t-4 -16q-17 -50 -17 -94q0 -146 106 -244t244 -98q113 0 174.5 65.5t61.5 143.5q0 41 -11.5 79t-29 71.5t-58.5 83t-79.5 91t-112.5 117.5q-89 91 -126.5 156t-37.5 151 q0 157 112 252.5t275 95.5q174 0 267 -121q23 -31 32 -39t15 -8q5 0 10 4t11 11.5t10 14t10 16t8 12.5q15 26 19 30.5t12 4.5q16 0 16 -19q0 -6 -46 -198t-54 -205q-13 -13 -21 -13q-6 0 -11 7.5t-5 15.5q0 7 4 44.5t4 43.5q0 151 -76.5 254.5t-208.5 103.5q-85 0 -151 -54 t-66 -146q0 -55 27 -114t47 -84t37 -42q212 -212 278 -305.5t66 -198.5q0 -62 -23.5 -123.5t-69 -116t-123.5 -88.5t-175 -34q-228 0 -379 153q-20 -9 -63.5 -39.5t-55.5 -44.5q-32 -32 -43 -40.5t-19 -8.5q-14 0 -14 10z" />
<glyph unicode="T" horiz-adv-x="1449" d="M256 977q0 18 48.5 130t96.5 189q4 0 140.5 -2t289 -4t195.5 -2q44 0 248 6q116 4 193 4q60 0 98 -2q3 -24 11.5 -170.5t8.5 -167.5q0 -22 -18 -22q-8 0 -12 8.5t-11 44.5q-5 26 -16 54.5t-37.5 67.5t-62 68.5t-96 50.5t-134.5 21q-40 0 -94 -8q-54 -134 -182.5 -595 t-128.5 -527q0 -21 14.5 -35.5t47.5 -23.5t62.5 -13t83.5 -10q34 -3 41 -5t7 -11q0 -12 -17.5 -19.5t-34.5 -7.5q-18 0 -112.5 2t-110.5 2h-389q-23 4 -23 16q0 21 56 21q33 0 57.5 3.5t42.5 7.5t32 17t22.5 22t18 33.5t14.5 40t16 52.5q108 369 186 705q53 229 78 317 q-58 12 -125 12q-111 0 -201 -44.5t-217 -174.5q-5 -4 -29.5 -31.5t-29.5 -31.5q-4 -4 -11 -4q-16 0 -16 16z" />
<glyph unicode="U" horiz-adv-x="1492" d="M324 1282q0 21 24 21q35 0 88 -3.5t62 -3.5q39 -2 143 -2q47 0 141 4q26 0 61 1t38 1q19 0 27.5 -3t10 -7.5t1.5 -15.5t-12 -13.5t-79 -9.5q-63 -6 -108.5 -82t-85.5 -254q-109 -480 -109 -608q0 -35 10 -70.5t34 -72t59.5 -64.5t91.5 -45.5t125 -17.5q94 0 165.5 29.5 t121.5 89t82.5 126t64.5 162.5q48 149 86.5 315t38.5 273q0 196 -182 223q-27 4 -34 8t-7 15q0 12 10 15t33 3q21 0 139 -4q24 -1 54.5 -2.5t51.5 -2.5t29 -1q16 0 86 4q15 1 33.5 2t28 1.5t10.5 0.5q12 0 17.5 -3.5t6 -6.5t0.5 -10q0 -11 -7.5 -14.5t-35.5 -6.5 q-24 -3 -44 -9.5t-35.5 -13.5t-28.5 -23.5t-22 -28t-17.5 -38.5t-13.5 -43.5t-11.5 -54t-9.5 -59.5t-10 -70q-20 -151 -89.5 -395.5t-156.5 -367.5q-46 -65 -127.5 -107t-154.5 -56t-144 -14q-40 0 -82.5 5t-94.5 17t-97 35.5t-83.5 56t-60.5 82.5t-22 112q0 80 76.5 452 t78.5 383q3 21 3 39q0 19 -4 33q-8 28 -33.5 43.5t-42 20t-55.5 10.5q-7 1 -11 2q-22 2 -22 18z" />
<glyph unicode="V" horiz-adv-x="1236" d="M240 -20l64 254q64 255 128 536t64 346q0 105 -138 127q-31 3 -38 6t-7 13t9 15t36 5l224 -4q29 0 169.5 8t141.5 8q20 0 20 -16q0 -12 -9 -15.5t-60 -9.5q-72 -10 -101 -49.5t-63 -161.5q-18 -65 -33.5 -124t-30.5 -121t-24.5 -102t-24 -106.5t-20 -92t-21.5 -102.5 t-20 -95l4 -4q55 51 196 206t289.5 337t178.5 254q12 42 12 65q0 46 -28 71t-68 27q-41 3 -50.5 6t-9.5 15q0 9 9 15.5t24 6.5l90 -2l156 4l188 -2q47 0 63.5 -3.5t16.5 -16.5q0 -14 -18 -14q-40 -8 -57 -11.5t-46 -13.5t-40.5 -16.5t-38.5 -26t-42.5 -35.5t-50 -52 t-62.5 -69.5t-79 -93.5q-38 -44 -183.5 -216t-148.5 -177q-12 -12 -95.5 -103t-203.5 -221q-129 -136 -205 -221q-33 -43 -53 -43q-7 0 -10.5 5.5t-3.5 9.5z" />
<glyph unicode="W" horiz-adv-x="1878" d="M211 -6q0 18 61 224.5t86 281.5q90 280 118 408.5t28 209.5q0 44 -31 80t-65 41q-31 5 -40.5 8.5t-9.5 12.5q0 20 35 20q40 0 246 6t240 6q36 0 36 -22q0 -11 -10 -15t-51 -10q-25 -3 -49 -23.5t-40 -45t-31.5 -58t-22.5 -53t-13 -39.5q-5 -16 -42 -129.5t-55.5 -173.5 t-47.5 -156t-43.5 -162.5t-17.5 -107.5q31 31 97.5 102t139.5 150.5t141 154t113.5 124.5t46.5 51q20 24 29.5 35.5t29.5 43t30 58t19 68.5t9 87q0 21 -8 35.5t-24.5 23t-29.5 12t-34 7.5q-21 5 -21 19q0 18 90 18q12 0 97.5 -0.5t157 -0.5t93.5 1q4 0 27.5 1t42.5 1t23 -2 q14 -3 14 -18q0 -19 -25 -19q-40 0 -67.5 -9t-59.5 -38t-62.5 -88.5t-64.5 -155.5q-123 -349 -186 -682l4 -4q43 43 160.5 153.5t161.5 154.5q26 26 55.5 56t107.5 115t134.5 153.5t103.5 143t47 111.5q0 34 -25.5 64t-78.5 30q-20 0 -28 0.5t-17.5 2.5t-12 6.5t-2.5 13.5 q0 20 45 20q27 0 94.5 -1t124 -1t95.5 2l114 4q14 0 27.5 -6t13.5 -18t-12 -17t-63 -12q-10 -1 -31 -8.5t-56.5 -24t-77 -50t-73.5 -77.5q-126 -168 -177.5 -233.5t-161 -182t-282.5 -278.5q-4 -4 -45 -43t-58.5 -56t-59.5 -58t-70 -70t-66.5 -71t-72.5 -81 q-25 -30 -32.5 -36.5t-14.5 -6.5q-6 0 -12.5 8t-6.5 21q0 41 205 805q1 6 7.5 29t6.5 24l-4 4q-51 -51 -289 -309.5t-262 -284.5l-258 -268q-27 -27 -41 -27q-16 0 -16 21z" />
<glyph unicode="X" horiz-adv-x="1449" d="M100 10q0 17 25 17q42 4 81 18t66.5 29.5t62.5 46.5t53.5 50.5t55.5 59.5q1 0 83 89t167 181.5t92 98.5q-138 348 -197 464q-29 57 -54 95q-11 16 -19.5 26t-29.5 26.5t-54 25t-76 8.5q-27 0 -37 3t-10 14q0 24 43 24h2q6 0 106 -2h60q54 0 82 2l307 10q45 0 45 -22 q0 -13 -13.5 -17t-45.5 -6q-48 -3 -82.5 -27t-34.5 -63q0 -49 51.5 -186t94.5 -234q20 17 143 150q111 121 137.5 160.5t26.5 89.5q0 8 -1 16t-7 23t-16.5 27t-32.5 23t-52 15q-29 3 -39 7.5t-10 15.5q0 18 27 18q15 0 92.5 -2t89.5 -2q80 0 260 12q25 2 41 2q33 0 33 -22 q0 -10 -13 -15t-67 -16q-40 -9 -110 -52.5t-146 -125.5q-219 -237 -334 -373q32 -80 49.5 -123.5t50.5 -119t56.5 -119.5t58 -101t64.5 -89.5t66.5 -58.5t72.5 -32q64 -12 68 -15t4 -11q0 -19 -25 -19l-209 6l-434 -6q-23 0 -23 16q0 19 23 19q101 15 150 35.5t49 58.5 q0 21 -52 154q-7 20 -54 135t-54 135q-86 -86 -225 -240q-40 -44 -60 -68.5t-37.5 -59t-17.5 -64.5q0 -16 6 -33t30.5 -35t63.5 -20q47 0 47 -19q0 -20 -30 -20q-16 0 -97 2t-94 2q-21 0 -130.5 -5t-127.5 -5q-12 0 -23.5 5t-11.5 13z" />
<glyph unicode="Y" horiz-adv-x="1429" d="M279 10q0 12 11.5 14.5t59.5 4.5q22 0 39 2t46.5 13t53.5 31t51.5 60t49.5 96q7 15 45.5 136t81.5 309t43 303q0 73 -15.5 126.5t-34 78t-44.5 38.5t-37 15.5t-21 1.5q-86 0 -158 -68t-96 -141q-38 -128 -45 -135q-4 -4 -10 -4q-16 0 -16 18q0 36 15 86t47 107t75 105 t105 80t130 32q26 0 56 -9t65.5 -34.5t63.5 -64t46.5 -104.5t18.5 -149q0 -132 -18 -249l4 -4q128 236 163 294t91 121q88 103 181 156t181 53q62 0 101 -42.5t39 -90.5q0 -8 -3.5 -23.5t-12.5 -39t-32.5 -40t-56.5 -16.5q-38 0 -57.5 21.5t-57.5 93.5q-5 14 -19.5 28.5 t-37.5 14.5t-55.5 -18t-81 -62.5t-114.5 -141t-136 -231.5q-118 -226 -169.5 -389t-51.5 -239q0 -59 38.5 -92t102.5 -35q57 0 72.5 -3t15.5 -16q0 -18 -41 -18q-72 0 -198 6q-164 4 -195 4q-72 0 -125 -4q-25 -1 -68.5 -3.5t-52.5 -2.5q-32 0 -32 20z" />
<glyph unicode="Z" horiz-adv-x="1280" d="M145 4q0 19 115 154q21 24 146.5 171.5t310.5 362.5q121 141 213 248.5t124.5 147t58 68.5t48.5 54q13 13 13 23q0 6 -5 7t-28 1l-346 6h-19q-28 0 -46 -2q-24 -3 -64.5 -19.5t-94.5 -55t-135 -105.5q-75 -61 -114 -109q-16 -16 -25 -16q-7 0 -14 5t-7 13t83 162t98 178 q9 0 89 -4q72 -4 82 -5q1 0 1.5 0.5t2.5 0.5q14 0 97 -3q64 -2 105 -2q20 1 34 1q26 1 94 0h109l330 2q18 0 18 -10q0 -15 -37 -61q-274 -341 -657 -787q-31 -35 -136.5 -161.5t-152.5 -178.5q-20 -23 -20 -31q0 -4 6 -7t10 -3q20 -6 219 -6q102 0 163 4.5t110 13t86.5 32 t68.5 50.5t80 80q26 29 64 86t53 90q9 25 24 25q7 0 12 -6.5t5 -11.5q0 -8 -68 -203t-73 -203h-258q-15 0 -198 2q-137 1 -249 1q-37 -1 -71 -1q-137 0 -171 -4q-24 -6 -67 -6q-8 0 -12.5 4t-4.5 8z" />
<glyph unicode="[" horiz-adv-x="917" d="M190 -420q0 1 62.5 265t134.5 571t90 393q38 190 94 442q0 9 9 9q17 0 100 -5.5t96 -5.5q246 -8 318 -8q27 0 47.5 6t31 14.5t16.5 18.5t7.5 16t1.5 9q0 4 -4 21t-4 20q0 16 16 16q21 0 31 -28t10 -50q0 -63 -62.5 -114.5t-131.5 -51.5q-49 0 -193 30.5t-246 57.5 q-6 -30 -78.5 -355t-161.5 -713.5t-120 -512.5q222 56 282.5 69t116.5 13q84 0 142.5 -52.5t58.5 -113.5q0 -32 -18.5 -58t-34.5 -26q-8 0 -14.5 6t-6.5 11q0 4 19 32q4 12 4 23q0 16 -8 27t-17.5 16.5t-29 8t-32 3t-36.5 0.5q-186 0 -322 -12q-92 -8 -145 -8q-23 0 -23 16z " />
<glyph unicode="\" horiz-adv-x="1024" d="M240 1352h86l704 -1389h-86z" />
<glyph unicode="]" horiz-adv-x="917" d="M-113 -465q0 63 63 114.5t132 51.5q49 0 192 -30.5t246 -57.5q6 29 79 354.5t162 714t120 512.5q-220 -56 -282 -69t-118 -13q-84 0 -142 52.5t-58 113.5q0 32 18.5 58t34.5 26q8 0 14 -5.5t6 -10.5q0 -6 -18 -33q-4 -12 -4 -23q0 -16 8 -27t17.5 -16.5t29 -8t32 -3 t36.5 -0.5q185 0 321 12q92 8 146 8q22 0 22 -16q0 -1 -62.5 -265t-134.5 -571t-90 -393q-38 -190 -94 -442q0 -8 -8 -8q-17 0 -100.5 5t-96.5 5q-246 8 -317 8q-27 0 -47.5 -6t-31 -14t-16.5 -18t-7.5 -16t-1.5 -9q0 -4 4 -21t4 -20q0 -7 -5.5 -12t-11.5 -5q-21 0 -31 28 t-10 50z" />
<glyph unicode="^" horiz-adv-x="874" d="M145 580l433 716h28l426 -716h-92l-350 585l-350 -585h-95z" />
<glyph unicode="_" horiz-adv-x="1024" d="M-12 -154h1048v-102h-1048v102z" />
<glyph unicode="`" horiz-adv-x="681" d="M442 1290q0 23 16.5 39.5t43.5 16.5q43 0 75 -39.5t76 -126.5q95 -210 95 -217q0 -6 -5.5 -12.5t-11.5 -6.5q-9 0 -16.5 6t-34.5 35q-164 174 -201 222t-37 83z" />
<glyph unicode="a" horiz-adv-x="937" d="M150 166q0 73 34.5 167t93.5 184.5t129.5 168t150 125t147.5 47.5q8 0 15.5 -1t23.5 -7.5t27.5 -18.5t23 -37.5t14.5 -60.5h4q16 46 55 121l88 -16q-41 -97 -141 -418q-58 -184 -72 -238.5t-14 -85.5q0 -13 9 -23t22 -10q26 0 70.5 35t84.5 80q26 33 39 33q5 0 11 -6 t6 -10q0 -16 -48.5 -67t-123 -98.5t-131.5 -47.5q-58 0 -58 79q0 31 6 136l-4 4q-79 -110 -162.5 -159.5t-156.5 -49.5q-29 0 -52.5 9.5t-38 23.5t-25.5 34t-16 36t-7.5 34t-3 25t-0.5 12zM295 205q0 -10 0.5 -18t5 -31t13 -38.5t27 -28.5t44.5 -13q60 0 122.5 61t115.5 160 q51 93 82.5 196t31.5 179q0 53 -23.5 93t-64.5 40q-76 0 -161 -106.5t-139 -248t-54 -245.5z" />
<glyph unicode="b" horiz-adv-x="854" d="M190 201q0 78 19.5 158t132.5 460q8 27 54 190t55 191q14 46 14 70q0 29 -20 39.5t-72 19.5q-17 3 -22 7t-5 14q0 16 21 16q13 0 80.5 -2t78.5 -2q25 0 59.5 1t45.5 1q-4 -20 -37 -127q-6 -21 -135 -467l4 -4q45 36 106 64t117 28q54 0 96 -27t66 -71t35.5 -92.5 t11.5 -98.5q0 -107 -45.5 -217t-115.5 -191t-156 -132.5t-164 -51.5q-20 0 -43 3.5t-57 17.5t-60 36.5t-45 66t-19 100.5zM330 223q0 -29 4 -56.5t15.5 -62.5t38 -56t65.5 -21q79 0 149.5 79.5t112 211t41.5 278.5q0 209 -111 209q-60 0 -120 -53.5t-93 -124.5 q-48 -103 -75 -224t-27 -180z" />
<glyph unicode="c" horiz-adv-x="681" d="M127 178q0 106 51.5 227.5t129 219t175 162.5t183.5 65q61 0 96 -39t35 -82q0 -37 -20 -57.5t-44 -20.5q-17 0 -29 6.5t-19.5 19.5t-11.5 24t-9 30q-8 36 -19 51t-35 15q-55 0 -115 -62t-106 -152.5t-76 -197.5t-30 -194q0 -25 4 -49t14 -52t33 -45.5t57 -17.5 q61 0 130.5 58.5t115.5 125.5q24 37 39 37q7 0 11.5 -6t4.5 -13q0 -19 -65 -100q-18 -21 -30 -34t-42.5 -39t-59.5 -41.5t-73 -28.5t-90 -13q-92 0 -148.5 54.5t-56.5 148.5z" />
<glyph unicode="d" horiz-adv-x="980" d="M147 176q0 104 50.5 218.5t128.5 205.5t180 151t199 60q54 0 137 -23q1 3 26.5 79t51 150t36.5 103q35 98 35 137q0 27 -20.5 37.5t-77.5 22.5q-46 11 -55 15t-9 14q0 3 1 6.5t6 7.5t12 4q1 0 176 -14q22 -1 66.5 -2t66.5 -2q-13 -43 -115 -342.5t-185 -565.5t-83 -325 q0 -17 10.5 -27t22.5 -10q32 0 77 40t85 89q1 1 6.5 7t11.5 12.5t12.5 13t11.5 10.5t7 4q6 0 13 -8t7 -13q0 -9 -31 -48t-75.5 -83t-100.5 -79t-98 -35q-36 0 -62 37.5t-26 89.5q0 31 6 75l-4 5q-41 -47 -68 -74.5t-70.5 -64t-89 -54.5t-93.5 -18q-50 0 -86.5 17.5t-53.5 39 t-27 53.5t-11 48t-1 36zM293 209q0 -33 7.5 -68.5t30 -67.5t54.5 -32q44 0 112.5 55.5t127.5 134.5q61 84 111 216.5t50 224.5q0 39 -24 68.5t-76 29.5q-77 0 -170 -88.5t-158 -222t-65 -250.5z" />
<glyph unicode="e" horiz-adv-x="704" d="M137 203q0 198 197 452q157 203 315 203q59 0 97 -42t38 -89q0 -71 -54 -140t-132 -118q-88 -56 -283 -117q-32 -144 -32 -209q0 -37 23.5 -73.5t68.5 -36.5q62 0 128.5 50t110.5 120q24 35 43 35q8 0 13.5 -6.5t5.5 -12.5q0 -20 -28.5 -59t-73 -79.5t-110 -70.5 t-128.5 -30q-50 0 -89.5 21t-62.5 54.5t-35 71.5t-12 76zM332 397q79 35 143 78.5t102 83.5t63 80t34.5 69t9.5 50q0 19 -13.5 39t-39.5 20q-41 0 -94 -39t-97 -108q-53 -85 -108 -273z" />
<glyph unicode="f" horiz-adv-x="575" d="M-373 -379q0 42 27 73.5t67 31.5q32 0 56 -21.5t24 -50.5q0 -8 -12 -46.5t-12 -45.5q0 -22 21.5 -42t60.5 -20q38 0 70.5 16t62 46t59 83.5t56.5 118t58 161t61 200.5t69 248q102 388 104 395q-18 0 -107.5 -3t-103.5 -3l13 57q54 3 213 8q10 38 16.5 62t28.5 86.5 t44.5 106.5t61.5 101.5t82.5 94t105 62.5t130.5 26q96 0 146 -50.5t50 -107.5q0 -34 -23 -64t-65 -30q-31 0 -54.5 20.5t-23.5 51.5q0 22 23 55q14 28 14 37q0 20 -20 33.5t-51 13.5q-51 0 -95 -26.5t-75.5 -67t-61.5 -108t-51 -130.5t-45 -153q33 -4 190 -4q-1 -4 -5 -30 t-5 -30q-16 0 -100.5 -2t-98.5 -2q-12 -42 -107 -384t-140 -482q-17 -52 -37.5 -101.5t-61 -116.5t-86.5 -115.5t-115.5 -83t-146.5 -34.5q-94 0 -152.5 50t-58.5 116z" />
<glyph unicode="g" horiz-adv-x="960" d="M-18 -330q0 76 81.5 159.5t223.5 139.5q-39 15 -65.5 35.5t-37 40.5t-14.5 33t-4 24q0 10 1.5 20t12 31t28.5 38t56 34.5t90 26.5q-26 23 -39.5 37t-34.5 41.5t-30.5 62t-9.5 76.5q0 157 119 274t280 117q64 0 119 -27.5t90 -78.5q49 51 91 80.5t85 29.5q48 0 82.5 -30 t34.5 -68q0 -24 -16.5 -49t-49.5 -25q-17 0 -30.5 7.5t-21.5 16.5t-28 34q-19 24 -45 24q-19 0 -33.5 -11t-44.5 -46q27 -56 27 -107q0 -83 -36 -157t-94 -124.5t-130 -80t-143 -31.5q-113 -2 -151.5 -6.5t-59.5 -22.5q-19 -15 -19 -30q0 -14 8.5 -26t29 -22t34 -16t43 -13 t36 -8.5t32.5 -6.5q192 -39 247 -59q58 -20 92 -50q76 -66 76 -158q0 -58 -33.5 -117.5t-94.5 -110.5t-159.5 -83.5t-216.5 -32.5q-96 0 -171.5 20t-119 52.5t-65.5 69t-22 73.5zM104 -324q0 -77 71 -128.5t206 -51.5q160 0 262 76t102 168q0 20 -4 37t-15 31.5t-20.5 26 t-31 22t-36 18t-45.5 16t-49.5 14t-58 13t-61 11.5t-68.5 12q-70 -13 -121.5 -45.5t-75.5 -64.5t-38 -71.5t-15.5 -56t-1.5 -27.5zM375 420q0 -62 33 -112t94 -50q59 0 109.5 43.5t80 107t46 128t16.5 114.5q0 24 -6 50.5t-19.5 54.5t-40 45.5t-61.5 17.5q-60 0 -110 -41 t-79.5 -103.5t-46 -129.5t-16.5 -125z" />
<glyph unicode="h" horiz-adv-x="937" d="M127 8q0 3 191.5 595t191.5 648q0 6 -2.5 12t-8 10t-10 7.5t-12.5 6t-12 4t-11 3.5l-8 2q-58 13 -69.5 17.5t-11.5 17.5t12 16.5t67 2.5q202 0 218 -2q12 -3 12 -13q0 -18 -82.5 -281.5t-167.5 -512.5l4 -4q140 188 228.5 259.5t152.5 71.5q51 0 83 -31.5t32 -78.5 t-19.5 -118.5t-81.5 -248.5q-27 -71 -59.5 -174.5t-32.5 -136.5q0 -12 9 -22.5t20 -10.5q35 0 123 88q1 1 25.5 31.5t43.5 51t25 20.5q5 0 10.5 -7.5t5.5 -15.5q0 -10 -27.5 -47.5t-69 -81t-100 -77.5t-110.5 -34q-50 0 -74 22t-24 50q0 36 49 176q3 10 27 75.5t37 102.5 t32.5 94t30.5 97.5t14 64.5q13 39 13 82q0 45 -35 45q-25 0 -71.5 -28t-98.5 -80q-134 -134 -211 -332q-11 -28 -59 -175t-56 -169q-7 -20 -20 -20q-27 0 -70 10t-43 18z" />
<glyph unicode="i" horiz-adv-x="575" d="M188 51q0 43 126 353t126 348q0 34 -26 34t-95 -51q-4 -3 -26 -23.5t-42 -36.5t-28 -16q-4 0 -9 5t-5 12q0 12 45 56t117.5 87t130.5 43q35 0 59.5 -26t24.5 -54q0 -42 -54 -172q-2 -6 -4 -10.5t-4 -9.5q-173 -416 -198 -490q-1 -2 -4 -11.5t-5 -17.5t-2 -12q0 -14 9 -24 t20 -10q66 0 191 125q22 22 36 22q17 0 17 -16q0 -19 -49 -64q-129 -117 -238 -117q-61 0 -87 24.5t-26 51.5zM561 1264q0 34 22.5 56.5t55.5 22.5q34 0 57 -22.5t23 -56.5q0 -31 -23.5 -54.5t-56.5 -23.5q-32 0 -55 23t-23 55z" />
<glyph unicode="j" horiz-adv-x="512" d="M-313 -393q0 42 26 70t68 28q37 0 55.5 -20t18.5 -47q0 -19 -5.5 -29.5t-31.5 -44.5q-15 -20 -15 -35q0 -13 15.5 -25t50.5 -12q28 0 50.5 4.5t45 18.5t40 29t38 47.5t36 61.5t36.5 84.5t38 102.5t42.5 128t46 150t53.5 179q9 31 53 188.5t51 182.5q21 49 21 104 q0 14 -11.5 23.5t-21.5 9.5q-50 0 -143 -115q-31 -39 -41 -48t-19 -9q-7 0 -12.5 5.5t-5.5 10.5q0 8 38.5 55t57.5 66l5 5q96 97 179 97q41 0 69 -27.5t28 -60.5q0 -43 -43 -205.5t-90 -316.5q-114 -368 -147.5 -459t-76.5 -153q-134 -195 -325 -195q-27 0 -55.5 8t-56 25 t-45 48t-17.5 71zM528 1270q0 32 24 55t56 23t55 -23t23 -55q0 -33 -23.5 -56.5t-54.5 -23.5t-55.5 23.5t-24.5 56.5z" />
<glyph unicode="k" horiz-adv-x="854" d="M135 -4q5 41 80 268q69 208 272 916q11 38 11 82q0 21 -5.5 34.5t-16.5 19t-16 7t-16 2.5q-36 2 -47.5 5t-11.5 16q0 22 47 22q18 0 119 2t125 2q-242 -793 -248 -829q20 -2 38 -2q36 0 64 7q42 10 71 37t46.5 57.5t36.5 80.5q10 28 19 45t26 42t43 37.5t59 12.5 q47 0 68 -29.5t21 -60.5q0 -30 -20 -44.5t-40 -14.5q-31 0 -55 28q-15 23 -20 28t-13 5q-26 0 -43 -45q-25 -73 -48 -108.5t-73 -75.5q24 -17 35.5 -27t25 -39.5t13.5 -70.5q0 -56 -14 -164q-21 -139 -21 -154q0 -33 21 -33q17 0 87 54.5t85 54.5q7 0 11.5 -4.5t4.5 -9.5 q0 -12 -7 -20.5t-38 -33.5q-86 -70 -124 -92t-81 -22q-26 0 -43.5 11.5t-24.5 29t-9.5 29t-2.5 20.5q0 23 18.5 166t18.5 170q0 39 -20 61.5t-41 28.5q-5 1 -15 1.5t-30.5 1.5t-42.5 3q-12 -46 -82.5 -267.5t-77.5 -240.5q-36 -4 -86 -4q-9 0 -33 4z" />
<glyph unicode="l" horiz-adv-x="532" d="M190 70q0 67 26.5 163.5t160.5 522.5q78 249 109.5 359.5t31.5 146.5q0 57 -102 57q-48 3 -55 10q-3 4 -3 10q0 21 43 21q26 0 155.5 5t137.5 5q-6 -24 -107.5 -351t-192.5 -633t-91 -339q0 -14 12 -14q23 0 87 48.5t118 111.5q3 3 17 21.5t27 33t18 14.5q7 0 12.5 -5 t5.5 -11q0 -11 -29.5 -52.5t-74 -89.5t-107.5 -86t-119 -38q-10 0 -21.5 3.5t-25.5 12t-23.5 28t-9.5 46.5z" />
<glyph unicode="m" horiz-adv-x="1429" d="M145 555q0 8 30 53t72.5 98t97 95.5t95.5 42.5q46 0 68 -29.5t22 -64.5q0 -73 -75 -277l4 -4q16 30 66.5 117t66.5 108q47 66 108.5 116t124.5 50q35 0 60 -14t36.5 -31t18.5 -40t7.5 -33t0.5 -19q0 -38 -8 -77t-41 -173l4 -4q29 55 48.5 90t51 86.5t59.5 84.5t63 65.5 t72.5 48.5t76.5 16q57 0 89 -35.5t32 -83.5q0 -107 -170 -579q-23 -58 -23 -86q0 -10 8 -18.5t17 -8.5q29 0 110.5 70t114.5 114q19 29 37 29q16 0 16 -12q0 -23 -60.5 -88.5t-147.5 -125t-146 -59.5q-35 0 -55.5 26.5t-20.5 57.5q0 32 11.5 70t60.5 176q20 54 31 86 q90 257 90 355q0 10 -2 21t-11 22.5t-24 11.5q-32 0 -67.5 -25.5t-71.5 -73.5t-64 -93.5t-63 -108.5q-65 -119 -113 -230t-113 -286q-32 -4 -73 -4q-16 0 -48 4q67 186 100.5 283.5t68 223.5t34.5 183q0 115 -51 115q-48 0 -120 -94t-141 -229t-125 -263.5t-87 -218.5 q-2 0 -17.5 -2t-23.5 -2l-88 4q7 21 77.5 216.5t82.5 231.5q17 56 46 163t29 130q0 35 -24 35q-46 0 -174 -184q-17 -25 -23.5 -31t-15.5 -6t-15 4.5t-6 9.5z" />
<glyph unicode="n" horiz-adv-x="980" d="M156 618q0 22 96 125q106 115 221 115q33 0 48.5 -24t15.5 -48q0 -60 -43 -254q-1 -4 -2.5 -11t-3 -12t-1.5 -7h5q24 45 57.5 96t84 114t110 103.5t114.5 40.5q37 0 60.5 -22t30.5 -45.5t7 -45.5q0 -63 -20 -131t-111 -319q-57 -155 -57 -203q0 -14 9 -23.5t20 -9.5 q30 0 82.5 46.5t76.5 84.5q27 45 45 45q17 0 17 -20q0 -16 -27 -54.5t-68 -80t-97.5 -73.5t-106.5 -32q-25 0 -43.5 7.5t-27.5 17t-14 22t-6 19.5t-1 12q0 74 88 309q94 255 105 303q9 38 9 74q0 45 -32 45q-17 0 -46.5 -19t-71 -60t-96 -122t-110.5 -188 q-63 -123 -172 -368q-14 -32 -19 -40t-12 -8q-98 0 -98 25q0 5 59.5 171t119 348.5t59.5 228.5q0 12 -9 20t-20 8q-26 0 -81 -48.5t-89 -92.5q-26 -35 -41 -35q-14 0 -14 16z" />
<glyph unicode="o" horiz-adv-x="854" d="M154 297q0 138 65 267.5t167.5 208.5t209.5 79q59 0 108 -21.5t81 -56.5t54.5 -80.5t32 -91.5t9.5 -92q0 -71 -21.5 -146t-62.5 -144t-96 -123.5t-129 -87t-154 -32.5q-54 0 -97 17.5t-70 43t-47 61.5t-29 66t-14.5 63t-6 46.5t-0.5 22.5zM293 195q0 -72 33.5 -124.5 t89.5 -52.5q78 0 157.5 99.5t128 241t48.5 264.5q0 13 -1 25t-4 37t-12 44.5t-23 39.5t-38 31t-56 11q-61 0 -122 -64t-104 -157.5t-70 -200.5t-27 -194z" />
<glyph unicode="p" horiz-adv-x="897" d="M-154 -532q0 13 9.5 16t54.5 6q27 2 47.5 8t37.5 22.5t28.5 32t25.5 51.5t23.5 64t27.5 86q115 365 295 977q-62 -33 -133.5 -96.5t-99.5 -99.5q-37 -47 -43 -50q-4 -2 -10 -2t-10.5 5.5t-4.5 11.5q0 34 98 129t222 164q7 28 45.5 160.5t42.5 148.5q78 -3 131 -10 q-5 -19 -37.5 -128.5t-36.5 -129.5q38 10 88 10q59 0 106.5 -18t78 -46.5t51.5 -66.5t30 -76.5t9 -77.5q0 -220 -163 -372t-460 -203q-74 -230 -92 -299q-21 -66 -21 -115q0 -41 33.5 -56.5t95.5 -21.5q7 0 16 -4t9 -12q0 -21 -27 -21q-18 0 -111 2t-108 2q-18 0 -111.5 -6 t-109.5 -6q-9 0 -18 5.5t-9 15.5zM322 45q20 -4 36 -4q34 0 83.5 16.5t108.5 55.5t109 92.5t83.5 136.5t33.5 180q0 20 -1.5 42t-12 67t-28 78.5t-55.5 59.5t-89 26q-9 0 -45 -9q-22 -70 -103.5 -347t-119.5 -394z" />
<glyph unicode="q" horiz-adv-x="897" d="M152 250q0 137 67.5 279t169.5 232.5t197 90.5q44 0 91 -31.5t75 -79.5q25 -43 31.5 -51.5t19.5 -9.5q12 30 29 74.5t26.5 68.5t11.5 27h99q-16 -65 -60 -225t-59 -219q-13 -50 -54 -200t-85 -311.5t-52 -191.5q-20 -79 -20 -121q0 -27 6.5 -45t19.5 -25.5t21 -10 t21 -3.5q43 -3 51 -6t8 -16q0 -11 -9.5 -16t-19.5 -5q-14 0 -92 4t-90 4q-19 0 -113 -4t-108 -4t-21.5 7t-7.5 16q0 10 11 13.5t49 8.5q28 3 38.5 5t28 8.5t24.5 16t19 29.5t21 47t22 70q27 90 115 422l-4 4q-111 -129 -234 -129q-53 0 -96.5 19t-70 48t-44.5 67t-25 73.5 t-7 69.5zM297 227q0 -87 41 -141.5t94 -54.5q23 0 52 11t62.5 34t66.5 68t55 104q31 86 52 191t21 171q0 78 -44.5 137.5t-106.5 59.5q-77 0 -146.5 -98.5t-108 -232t-38.5 -249.5z" />
<glyph unicode="r" horiz-adv-x="768" d="M156 594q0 8 28 48.5t68.5 88t93.5 85.5t94 38q40 0 61 -23t21 -53q0 -19 -12 -107t-12 -93l4 -5q164 281 295 281q56 0 80 -30t24 -64q0 -35 -23 -66.5t-61 -31.5q-65 0 -80 57q-7 23 -11.5 31t-14.5 8q-31 0 -89.5 -78.5t-99 -149.5t-63.5 -118q-18 -55 -65 -200.5 t-60 -186.5q-2 -9 -17 -45h-122q2 7 7.5 22.5t19 56.5t32.5 107q54 182 99.5 370t45.5 226q0 10 -5.5 15t-10.5 5q-17 0 -69 -48.5t-95 -110.5q-30 -45 -47 -45q-6 0 -11 5t-5 11z" />
<glyph unicode="s" horiz-adv-x="641" d="M121 127q0 30 21.5 58t58.5 28q27 0 49 -17t22 -51q0 -6 -9 -36t-9 -35q0 -25 26.5 -39.5t63.5 -14.5q48 0 82.5 17.5t49 44t20.5 47t6 37.5q0 42 -20 78.5t-81 117.5q-104 144 -104 246q0 58 29 115.5t86.5 98t128.5 40.5q74 0 129 -41t56 -90q0 -33 -22 -55.5 t-51 -22.5q-25 0 -38.5 15t-15 25t-1.5 18q0 63 -2 65q-6 19 -30.5 30t-49.5 11q-14 0 -32.5 -5.5t-40 -17.5t-36 -37.5t-14.5 -60.5q0 -29 19 -66.5t41 -68t75 -96.5q42 -53 64 -107t22 -94q0 -120 -85 -204.5t-199 -84.5q-91 0 -150 51t-59 101z" />
<glyph unicode="t" horiz-adv-x="575" d="M162 59q0 43 18.5 105.5t95.5 292.5q28 80 113 329l-94 2l-66 -2q-14 0 -14 15q0 16 3.5 24.5t6.5 10.5t11 2q62 8 172 8q6 21 48 145.5t48 147.5q5 16 16 16q27 0 66 -8t39 -21q0 -4 -4 -8l-91 -276q14 -1 89.5 -3t89.5 -3q12 0 12 -9q0 -45 -16 -45q-5 0 -91 5.5 t-94 5.5q-3 -9 -37.5 -110t-69.5 -204.5t-64.5 -210.5t-29.5 -145q0 -28 12 -44t34 -16q38 0 103 55t116 115q20 23 32 23q8 0 13.5 -5t5.5 -9q0 -6 -20 -33.5t-57.5 -66.5t-83 -76t-105 -63t-115.5 -26q-92 0 -92 82z" />
<glyph unicode="u" horiz-adv-x="960" d="M160 602q0 20 46.5 78t117 112t122.5 54q37 0 66 -30.5t29 -70.5q0 -33 -12 -72t-54 -145q-135 -333 -135 -419q0 -17 11.5 -34.5t27.5 -17.5q26 0 63 30t75.5 77.5t66 86t51.5 75.5q48 72 78 133.5t176 382.5q24 4 39 4q31 0 71 -4q-7 -21 -75 -207t-117 -338.5 t-49 -202.5q0 -11 8 -18.5t16 -7.5q31 0 83 52.5t83 100.5q26 37 41 37t15 -16q0 -23 -47.5 -84.5t-120.5 -118.5t-129 -57q-36 0 -53 31t-17 67q0 99 43 235l-4 4q-36 -55 -62 -92.5t-67 -87.5t-76 -80.5t-78 -52.5t-84 -22q-38 0 -67 32t-29 76q0 57 14.5 117t63.5 190 q37 98 59 161t29 85.5t12 34.5q19 48 19 74q0 9 -7.5 15.5t-15.5 6.5q-24 0 -71 -45t-85 -90q-30 -36 -39 -44.5t-18 -8.5q-4 0 -9 5t-5 9z" />
<glyph unicode="v" horiz-adv-x="917" d="M186 668q0 39 19 72.5t47 54t57 32t51 11.5q28 0 45.5 -6.5t75.5 -36.5q52 -27 97 -27q11 0 18 2t15 11.5t12 16t18 29.5t29 23q8 0 18 -8.5t10 -18.5q0 -18 -11 -30.5t-71 -67.5q-13 -12 -38 -62t-52 -119.5t-47 -159t-20 -165.5q0 -158 67 -158q46 0 110.5 49.5 t122 122.5t98 164t40.5 166q0 48 -43 158q0 2 -4 15.5t-7 28t-3 26.5q0 22 18 43.5t49 21.5t52 -23.5t28.5 -58.5t9.5 -54.5t2 -33.5q0 -98 -60.5 -244t-139.5 -249q-84 -110 -180.5 -164t-172.5 -54q-72 0 -109.5 42.5t-37.5 103.5q0 26 5.5 58t14.5 63t19.5 60.5t22.5 58 t20.5 47.5t16.5 36l8 17q9 18 41 69.5t67 107t41 64.5l-4 5q-44 -27 -64 -27q-17 0 -35.5 10t-32.5 22t-54 48q-22 22 -50 22q-11 0 -17.5 -5.5t-6.5 -10.5q0 -10 20 -49q21 -37 21 -55q0 -20 -21 -46t-55 -26q-33 0 -51.5 24t-18.5 54z" />
<glyph unicode="w" horiz-adv-x="1409" d="M170 690q0 67 64 114.5t141 47.5q61 0 141 -39q12 -7 42 -19t38 -12q26 0 66 54q15 20 32 20q7 0 12 -6t5 -12q0 -14 -25 -43q-30 -36 -94.5 -135.5t-97.5 -170.5q-62 -136 -62 -227q0 -21 6 -49t19.5 -61t42 -55.5t67.5 -22.5q45 0 89 22.5t112 87.5q20 17 66 74 q-2 30 -2 60q0 113 24 221q30 137 84 220t113 83q77 0 77 -107q0 -68 -44 -186.5t-134 -222.5q15 -60 35 -105.5t38 -69.5t38 -38.5t32.5 -18.5t24.5 -4q63 0 129.5 72t109 177t42.5 198q0 35 -4.5 63t-24.5 123q-4 20 -4 37q0 31 18.5 48t40.5 17q72 0 72 -92 q0 -82 -35.5 -217.5t-62.5 -204.5q-17 -46 -49 -97.5t-77.5 -104t-107.5 -87t-125 -34.5q-87 0 -142 54t-66 144q-30 -32 -50.5 -52t-61 -54t-75 -54t-81.5 -35.5t-93 -15.5q-80 0 -122 50.5t-42 121.5q0 202 273 570l-4 4q-6 -6 -26.5 -14.5t-35.5 -8.5q-14 0 -49 23 q-34 25 -54.5 38.5t-49.5 26.5t-52 13q-13 0 -29 -7t-16 -18q0 -8 6 -13t25 -13q18 -8 29 -26t12.5 -28t1.5 -18q0 -25 -20.5 -48.5t-55.5 -23.5q-39 0 -66.5 25t-27.5 61zM918 543q0 -75 18 -160q129 171 129 313q0 7 -1 16t-4 26.5t-12.5 28.5t-23.5 11q-29 0 -67.5 -72 t-38.5 -163z" />
<glyph unicode="x" d="M72 115q0 43 26 67.5t60 24.5q25 0 40 -17t15 -40q0 -5 -3 -28.5t-3 -25.5q0 -16 14 -34.5t43 -18.5q65 0 129 86q39 53 74 131q42 94 82.5 219t40.5 199q0 59 -23.5 90t-48.5 31q-29 0 -71 -30t-72 -64q-33 -35 -49 -35q-7 0 -12 4.5t-5 9.5q0 12 30 43.5t52 48.5 q24 24 70.5 50t93.5 26q113 0 135 -129q8 -4 10 -4q5 0 15 8t19 17t19 20t11 12q78 78 176 78q57 0 94 -40.5t37 -86.5q0 -27 -18.5 -50.5t-59.5 -23.5q-32 0 -46.5 20t-14.5 40q0 4 4 29t4 30q0 12 -9 20.5t-22 8.5q-72 0 -133 -76q-39 -51 -57 -100q-119 -303 -119 -457 q0 -36 10 -62.5t22.5 -39t29 -20t24.5 -8.5t14 -1q46 0 107.5 34.5t110.5 98.5q31 41 37 47t16 6q7 0 11.5 -5.5t4.5 -12.5q0 -16 -26.5 -51t-67.5 -72.5t-101.5 -65.5t-119.5 -28q-33 0 -73 13.5t-64 47.5q-7 8 -25.5 39.5t-24.5 42.5l-37 -31q-36 -30 -62 -48.5t-69.5 -38 t-78.5 -19.5q-52 0 -109 32.5t-57 88.5z" />
<glyph unicode="y" horiz-adv-x="768" d="M-158 -416q0 37 21 67t59 30q19 0 33 -7.5t20.5 -14.5t10.5 -24t4.5 -21.5t1.5 -21.5q0 -53 41 -53q18 0 44.5 14.5t41 26t20.5 17.5q79 68 142 145t153 205q-45 417 -94 690q-11 58 -24 88.5t-35 30.5q-48 0 -117 -154q-16 -36 -26.5 -51.5t-24.5 -15.5q-7 0 -12 5.5 t-5 10.5q0 18 82 176q77 133 162 133q50 0 78 -57.5t49 -188.5q4 -24 20.5 -140t32 -220t21.5 -135q21 30 63.5 107.5t90.5 200t48 198.5q0 49 -16 108q-8 36 -8 47q0 39 19 57.5t42 18.5q27 0 43.5 -24.5t16.5 -53.5q0 -111 -92.5 -344.5t-255.5 -484.5q-32 -48 -68 -98 t-96.5 -123.5t-117 -128t-122 -94.5t-117.5 -40q-56 0 -92.5 32t-36.5 87z" />
<glyph unicode="z" horiz-adv-x="980" d="M113 31q0 28 17 44t93 60q59 35 100 69t142 132l321 311q-2 0 -17.5 1t-23.5 1t-51.5 -5t-50.5 -5q-44 0 -73.5 17.5t-100.5 78.5q-54 46 -68 52q-12 4 -26 4q-44 0 -86.5 -37.5t-42.5 -104.5q0 -26 11.5 -43.5t33.5 -17.5q0 106 78 106q35 0 62.5 -24.5t27.5 -63.5 q0 -47 -33.5 -76.5t-77.5 -29.5q-60 0 -102.5 46t-42.5 109q0 82 67 142.5t144 60.5q59 0 100.5 -14.5t157.5 -75.5q20 -10 48.5 -26t39 -21.5t26 -10.5t29.5 -5q11 0 23 11t51 56q23 27 39 43t39 30.5t43 14.5q19 0 31 -13t12 -28q0 -16 -6 -28.5t-24.5 -25.5t-25.5 -17.5 t-34 -18.5q-46 -25 -90 -63.5t-195 -184.5q-34 -33 -139 -136.5t-105 -104.5q-14 -14 -10 -37q59 12 76 12q41 0 72.5 -15t103.5 -67q41 -29 80 -29q127 0 196 183q14 43 33 43q4 0 11.5 -5.5t7.5 -13.5q0 -12 -23.5 -63.5t-60.5 -114.5t-93.5 -112.5t-111.5 -49.5 q-56 0 -131.5 44.5t-128.5 95.5q-31 30 -46 38.5t-30 8.5q-36 0 -69.5 -28t-49.5 -54q-45 -73 -60 -85q-16 -14 -40 -14q-21 0 -34 17t-13 37z" />
<glyph unicode="{" horiz-adv-x="980" d="M344 389v41q62 9 109 34t71 57.5t35.5 63.5t11.5 60q0 17 -3.5 43.5t-7.5 47.5t-8.5 41t-4.5 22q-21 91 -21 155q0 63 24.5 125.5t70 117t118.5 93.5t162 51v-34q-103 -25 -164 -83.5t-61 -154.5q0 -48 24 -156q21 -81 21 -155q0 -24 -4.5 -51.5t-23 -70t-48.5 -80 t-87 -77t-132 -65.5v-4q146 -52 220.5 -149t74.5 -198q0 -54 -21 -155q-24 -108 -24 -158q0 -179 225 -237v-35q-173 24 -274 138.5t-101 250.5q0 63 21 156q5 15 14.5 68t9.5 85q0 29 -11.5 60t-36 63.5t-71 57t-108.5 32.5z" />
<glyph unicode="|" horiz-adv-x="1024" d="M580 -512v2048h90v-2048h-90z" />
<glyph unicode="}" horiz-adv-x="980" d="M291 -487q225 58 225 237q0 50 -24 158q-21 101 -21 155q0 101 74.5 198t220.5 149v4q-75 26 -132 65.5t-87 77t-48.5 80t-23 70t-4.5 51.5q0 74 21 155q24 108 24 156q0 96 -61 154.5t-164 83.5v34q89 -12 162 -51t118.5 -93.5t70 -117t24.5 -125.5q0 -64 -21 -155 q0 -2 -4.5 -22t-8.5 -41t-7.5 -47.5t-3.5 -43.5q0 -29 11.5 -60t35.5 -63.5t71 -57.5t109 -34v-41q-62 -8 -108.5 -32.5t-71 -57t-36 -63.5t-11.5 -60q0 -32 9.5 -85t14.5 -68q21 -93 21 -156q0 -136 -101 -250.5t-274 -138.5v35z" />
<glyph unicode="~" horiz-adv-x="1366" d="M254 461q3 76 28 132t53 81.5t66 40.5t54 16.5t30 1.5q89 0 379 -123q71 -31 118.5 -46t64 -17t40.5 -2q28 0 54.5 7.5t56 26t50 57.5t26.5 95h43q-1 -126 -71 -199t-171 -73q-45 0 -92.5 13t-169.5 63q-174 72 -229.5 90t-100.5 18q-152 0 -186 -182h-43z" />
<glyph unicode="&#xa1;" horiz-adv-x="618" d="M119 -461q0 25 33.5 135t56.5 174q80 221 199 572q19 51 30 51q7 0 12 -5t5 -11q-7 -29 -11 -43q-77 -266 -116 -709q-4 -40 -7 -66.5t-9 -58t-14 -50.5t-20.5 -37t-30 -26t-40.5 -8q-44 0 -66 29t-22 53zM397 702q0 35 26.5 60.5t61.5 25.5t60.5 -26t25.5 -60 q0 -33 -26 -60.5t-60 -27.5q-36 0 -62 26t-26 62z" />
<glyph unicode="&#xa2;" horiz-adv-x="681" d="M96 -246l133 242q-22 14 -33.5 23.5t-31 31.5t-28.5 54t-9 75q0 97 48.5 215.5t124 219t176 169t194.5 68.5q3 0 6.5 -0.5l10.5 -1.5t13 -2l103 184l39 -20l-101 -183q54 -46 54 -100q0 -27 -16 -51.5t-50 -24.5q-7 0 -14 1.5t-11.5 4t-9 6.5t-7 7t-5.5 8.5t-4 8 t-3.5 7.5t-2.5 6l-353 -636q21 -37 66 -37q64 0 131 53t115 123q31 43 45 43q5 0 11.5 -5t6.5 -12q0 -4 -14 -29.5t-45 -64t-71.5 -74.5t-103 -62t-130.5 -26q-29 0 -56 9l-137 -250zM283 209q0 -27 14 -92l356 647q-9 35 -41 35q-78 0 -157 -105.5t-125.5 -243 t-46.5 -241.5z" />
<glyph unicode="&#xa3;" horiz-adv-x="1705" d="M47 -74q0 48 37 84.5t85 53t93 16.5q154 0 336 -66q58 145 92 324l-381 -29q-26 -2 -32.5 3t-6.5 32q0 12 7 15.5t32 5.5l391 30q26 144 39.5 214.5t34 163t36.5 138t41 103t53.5 98.5t68.5 86q148 162 338 162q88 0 170.5 -45t134 -122.5t51.5 -164.5q0 -137 -85 -234.5 t-191 -97.5q-44 0 -91 20t-47 38q0 7 5.5 11.5t11.5 4.5q10 0 33 -10q6 -3 19.5 -9t18.5 -8t14.5 -5t17 -4t16.5 -1q74 0 125 68.5t51 204.5q0 88 -24.5 153t-65 99t-83.5 49.5t-89 15.5q-51 0 -94 -13t-73 -31.5t-55 -51t-40.5 -60.5t-29.5 -70.5t-20.5 -70.5t-15.5 -72 q-19 -92 -36.5 -219.5t-41.5 -267.5q-1 -4 -5 -29.5t-5 -29.5l409 32q15 1 25.5 0.5t16 -6t5.5 -18.5q0 -19 -7.5 -24t-30.5 -7l-431 -35q-45 -140 -82.5 -213t-101.5 -151q255 -86 461 -86q77 0 152.5 19.5t130.5 59t61 89.5q0 32 18 32q17 0 17 -30q0 -75 -25.5 -133.5 t-63 -92t-86.5 -55t-88.5 -28.5t-76.5 -7q-59 0 -114.5 15t-186.5 65q-164 62 -246 98q-186 -170 -364 -170q-90 0 -161 45t-71 119zM139 -88q0 -55 38 -83t102 -28q193 0 294 162q-160 78 -278 78q-25 0 -50 -6.5t-50 -20t-40.5 -40.5t-15.5 -62z" />
<glyph unicode="&#xa4;" horiz-adv-x="1386" d="M356 188l125 123q-22 31 -33.5 49.5t-30 56t-27.5 82t-9 95.5t9 95.5t27.5 82t30 56t33.5 49.5l-125 122l62 64l127 -123q37 28 66.5 45.5t88.5 35t125 17.5t126 -18.5t88.5 -35.5t68.5 -46l125 125l61 -64l-125 -122q21 -29 33.5 -48.5t31 -57t27.5 -83t9 -98.5 q0 -49 -8 -90t-26.5 -78t-30 -55t-36.5 -54l125 -125l-61 -61l-125 125q-39 -29 -67 -46.5t-88.5 -36.5t-127.5 -19t-127.5 19t-87 35.5t-65.5 45.5l-127 -123zM469 594q0 -147 104.5 -251.5t251.5 -104.5t252 105t105 251q0 148 -104.5 252t-252.5 104t-252 -104t-104 -252 z" />
<glyph unicode="&#xa5;" horiz-adv-x="1429" d="M188 387l15 59h454q40 145 54 201h-471l14 60h471q1 4 7.5 35t8.5 42t6.5 41t6.5 50t4 50t2 60q0 133 -46 193.5t-106 60.5q-86 0 -158 -68t-96 -141q-38 -128 -45 -135q-4 -4 -10 -4q-16 0 -16 18q0 36 15 86t47 107t75 105t105 80t130 32q26 0 56 -9t65.5 -34.5 t63.5 -64t46.5 -104.5t18.5 -149q0 -132 -18 -251h6q112 212 153 280t99 135q68 79 163.5 143t198.5 64q62 0 101 -43t39 -90q0 -8 -3.5 -23.5t-12.5 -39t-32.5 -40t-56.5 -16.5q-38 0 -57.5 21.5t-57.5 93.5q-5 14 -19.5 28.5t-37.5 14.5q-27 0 -64 -23.5t-69.5 -56.5 t-51.5 -54t-26 -30q-112 -150 -215 -364h477l-14 -60h-492q-36 -79 -81 -201h536l-14 -59h-543q-51 -161 -51 -233q0 -61 39.5 -93t101.5 -34q57 0 72.5 -3t15.5 -16q0 -18 -41 -18q-72 0 -198 6q-82 4 -195 4q-19 0 -125 -4q-25 -1 -68.5 -3.5t-52.5 -2.5q-32 0 -32 20 q0 12 12 15.5t59 3.5q39 0 71.5 10.5t56.5 25.5t46 44t36.5 53.5t30.5 68t25.5 73.5t24.5 83h-453z" />
<glyph unicode="&#xa6;" horiz-adv-x="1024" d="M580 358h90v-716h-90v716zM580 666v716h90v-716h-90z" />
<glyph unicode="&#xa7;" horiz-adv-x="917" d="M104 -381q0 49 32.5 80t74.5 31q35 0 55.5 -19t20.5 -47q0 -19 -8 -33t-39 -51q-15 -22 -15 -39q0 -45 107 -45q51 0 94 24t69.5 60t41 73.5t14.5 67.5q0 91 -36 178t-179 355q-50 94 -65 151t-15 109t15.5 99.5t46.5 89t86 67.5t126 29q-43 121 -43 209q0 140 100.5 248 t262.5 108q55 0 97.5 -16.5t65 -42t33.5 -51.5t11 -50q0 -41 -24 -74.5t-64 -33.5q-27 0 -48.5 19t-21.5 46q0 8 16.5 50.5t16.5 50.5q0 26 -27.5 42.5t-66.5 16.5q-80 0 -156 -72t-76 -184q0 -98 29 -174.5t131 -274.5q72 -138 96.5 -201.5t24.5 -129.5q0 -98 -66.5 -180.5 t-195.5 -118.5q34 -100 34 -183q0 -155 -101 -251.5t-255 -96.5q-93 0 -146 50.5t-53 113.5zM354 590q0 -83 101 -264q74 -138 131 -256q12 -27 17.5 -33t17.5 -6q52 0 103.5 60t51.5 132q0 24 -3 41t-18.5 53.5t-32.5 71.5t-60 125.5t-87 185.5q-6 18 -22 50q-32 8 -37 8 q-21 0 -47 -9t-52.5 -27.5t-44.5 -53t-18 -78.5z" />
<glyph unicode="&#xa8;" horiz-adv-x="681" d="M301 1053q0 37 25.5 62.5t60.5 25.5q37 0 62.5 -25.5t25.5 -62.5q0 -35 -25.5 -60.5t-62.5 -25.5q-35 0 -60.5 25.5t-25.5 60.5zM653 1053q0 37 25.5 62.5t60.5 25.5q37 0 62.5 -25.5t25.5 -62.5q0 -35 -25.5 -60.5t-62.5 -25.5q-35 0 -60.5 25.5t-25.5 60.5z" />
<glyph unicode="&#xa9;" horiz-adv-x="1556" d="M213 631q0 194 95.5 357t258.5 257t355 94t354.5 -94t258 -257t95.5 -357q0 -144 -56 -275.5t-151 -226.5t-226 -151t-275 -56q-115 0 -223.5 36t-195.5 101.5t-152.5 152.5t-101.5 195.5t-36 223.5zM274 631q0 -132 51.5 -252t138 -206.5t206.5 -137.5t252 -51 q176 0 325 86.5t235.5 235.5t86.5 325q0 178 -87.5 327t-236 234.5t-323.5 85.5q-131 0 -250.5 -50.5t-206.5 -136.5t-139 -206.5t-52 -253.5zM463 625q0 91 35.5 175t99 147.5t158 101.5t205.5 38q51 0 85 -6.5t101 -29.5q30 -9 37 -9q14 0 24.5 7.5t14 14.5t10.5 23h39 l20 -280h-39q-6 20 -10.5 31.5t-17 39t-26.5 46.5t-38.5 43t-52.5 39t-69 25.5t-89 10.5q-145 0 -233 -102t-88 -287q0 -25 1 -44.5t7 -65t17.5 -81t36.5 -79t59 -72.5t88.5 -49t122.5 -20q196 0 311 161l39 -20q-141 -203 -385 -203q-136 0 -243.5 63.5t-163.5 164.5 t-56 217z" />
<glyph unicode="&#xaa;" horiz-adv-x="618" d="M256 915q0 73 57 171.5t145.5 172.5t166.5 74q49 0 69 -47l25 45l80 -12q-13 -28 -76.5 -205t-69.5 -201q-4 -14 -4 -28q0 -23 13 -23q10 0 41.5 25.5t48.5 44.5q14 18 30 18q10 0 16.5 -4.5t6.5 -9.5q0 -11 -32 -42.5t-82.5 -61t-90.5 -29.5q-26 0 -37.5 13t-11.5 35.5 t2 53.5q-22 -21 -35 -32t-40 -29.5t-57 -27.5t-63 -9t-55.5 14t-31.5 35t-12 35t-3 24zM373 942q0 -6 1 -13.5t4.5 -23t13.5 -25.5t26 -10q45 0 97 61t85 142t33 139q0 32 -12 54t-33 22q-42 0 -93.5 -60.5t-86.5 -143t-35 -142.5z" />
<glyph unicode="&#xab;" horiz-adv-x="1044" d="M199 444l430 326q44 33 63 33q27 0 27 -8q0 -5 -10 -15l-312 -352l148 -356q9 -26 12 -29q6 -6 6 -12q0 -8 -12 -8q-18 0 -24.5 4.5t-24.5 29.5zM637 436l424 334q37 31 59 31q25 0 25 -10q0 -4 -23 -27l-313 -350l88 -355l8 -26q-5 -10 -22 -10q-8 0 -13 4.5t-14 21.5z " />
<glyph unicode="&#xac;" horiz-adv-x="1366" d="M289 795v88h1075v-576h-88v488h-987z" />
<glyph unicode="&#xad;" horiz-adv-x="788" d="M162 369q0 5 6 26l20 66q6 14 11.5 18t21.5 4l570 -2q26 0 26 -14q0 -10 -4 -14l-20 -66q-6 -23 -11 -28t-26 -5l-561 2q-33 0 -33 13z" />
<glyph unicode="&#xae;" horiz-adv-x="1556" d="M213 631q0 194 95.5 357t258.5 257t355 94t354.5 -94t258 -257t95.5 -357q0 -144 -56 -275.5t-151 -226.5t-226 -151t-275 -56q-115 0 -223.5 36t-195.5 101.5t-152.5 152.5t-101.5 195.5t-36 223.5zM274 631q0 -132 51.5 -252t138 -206.5t206.5 -137.5t252 -51 q176 0 325 86.5t235.5 235.5t86.5 325q0 178 -87.5 327t-236 234.5t-323.5 85.5q-131 0 -250.5 -50.5t-206.5 -136.5t-139 -206.5t-52 -253.5zM518 201v35q26 0 44 3t29.5 11.5t18 16.5t9.5 27.5t3.5 34t0.5 44.5v524q0 83 -14.5 108.5t-80.5 26.5v35h387q137 0 217 -62 t80 -161q0 -47 -19 -85.5t-42.5 -60.5t-60.5 -40t-56 -24t-45 -13l211 -297q21 -30 38.5 -48.5t33 -26.5t24.5 -10t25 -3v-35h-184l-295 405h-76v-309q0 -19 20 -37.5t50 -21.5q16 -2 49 -2v-35h-367zM766 649h31q42 0 81 7.5t81 25.5t67 56.5t25 92.5q0 79 -54.5 135 t-146.5 56q-40 0 -84 -14v-359z" />
<glyph unicode="&#xaf;" horiz-adv-x="681" d="M254 979v90h594v-90h-594z" />
<glyph unicode="&#xb0;" horiz-adv-x="811" d="M315 1081q0 127 91 217.5t217 90.5q127 0 217 -90t90 -218q0 -127 -90 -217t-217 -90t-217.5 89.5t-90.5 217.5zM399 1081q0 -93 65.5 -158t158.5 -65q92 0 157.5 65.5t65.5 157.5q0 93 -66 158.5t-157 65.5t-157.5 -65.5t-66.5 -158.5z" />
<glyph unicode="&#xb1;" horiz-adv-x="1366" d="M289 0v88h1075v-88h-1075zM289 709v88h493v493h88v-493h494v-88h-494v-494h-88v494h-493z" />
<glyph unicode="&#xb2;" horiz-adv-x="704" d="M231 715q0 5 19 18q245 161 364 256q142 113 142 219q0 12 -4 27.5t-15.5 37.5t-39 37t-66.5 15q-84 0 -151.5 -58t-67.5 -124q0 -34 22.5 -48t40.5 -14q19 0 37.5 8t29 16t36.5 30q16 8 18 8q6 0 10 -5t4 -10q0 -22 -54.5 -61t-106.5 -39q-48 0 -82.5 31t-34.5 82 q0 66 52.5 119t127.5 79.5t152 26.5q25 0 49 -3t56 -13.5t55.5 -28t40 -50t16.5 -75.5q0 -33 -6.5 -57.5t-32.5 -60t-74.5 -72.5t-136 -88.5t-213.5 -114.5q250 0 268 4q22 5 43.5 23.5t30.5 31.5q16 19 24 19q4 0 8.5 -4.5t4.5 -8.5q0 -7 -20 -40.5t-48 -77t-29 -45.5 q-20 -5 -55 -5l-362 5q-52 0 -52 10z" />
<glyph unicode="&#xb3;" horiz-adv-x="704" d="M248 844q0 32 18.5 48.5t42.5 16.5q22 0 39 -15.5t17 -31.5q0 -4 -6.5 -30t-6.5 -31q0 -36 30.5 -56t76.5 -20q84 0 141 67.5t57 153.5q0 15 -2.5 30t-20 34.5t-48.5 19.5q-28 0 -58 -12q-29 -12 -39 -12q-18 0 -18 14q0 6 8.5 12t42.5 23q39 19 59 29t50.5 29.5t46 36 t27.5 40t12 49.5q0 30 -23.5 59t-75.5 29q-63 0 -109 -37.5t-46 -79.5q0 -17 10 -31t21 -14l28 4q7 0 13 -5t6 -11q0 -15 -25.5 -24t-44.5 -9q-37 0 -60.5 21t-23.5 51q0 54 43 95.5t99.5 60t111.5 18.5q82 0 138.5 -38t56.5 -91q0 -22 -5.5 -40t-20 -34t-26.5 -27t-40 -25 t-44.5 -22t-54.5 -24q135 -15 135 -131q0 -103 -89 -173.5t-218 -70.5q-106 0 -165.5 42t-59.5 112z" />
<glyph unicode="&#xb4;" horiz-adv-x="681" d="M432 958q0 13 105 130t151 157q47 41 90 41q19 0 39.5 -14.5t20.5 -38.5q0 -47 -55.5 -89.5t-258.5 -162.5q-56 -37 -75 -37q-7 0 -12 4.5t-5 9.5z" />
<glyph unicode="&#xb5;" horiz-adv-x="1024" d="M-20 -360q0 25 12.5 57.5t62.5 126.5q70 137 142 391l182 631h153l-137 -475q-30 -103 -36.5 -131t-6.5 -52q0 -13 2 -26.5t10.5 -37.5t31 -39t57.5 -15q26 0 53.5 8.5t67 36.5t75.5 72.5t75.5 126t70.5 188.5l100 344h152l-156 -543q-6 -20 -15 -49t-12 -40t-5.5 -27.5 t-2.5 -32.5q0 -9 1 -17.5t5.5 -25t17.5 -27t33 -10.5q23 0 44.5 12.5t39.5 37t29 43.5t25 48h36q-12 -34 -17.5 -49t-20.5 -46t-35 -54.5t-47 -42.5q-64 -48 -133 -48q-6 0 -17 1.5t-32.5 10.5t-38.5 23.5t-30.5 45t-13.5 71.5q0 28 7 72l-4 4q-79 -119 -165 -173.5 t-153 -54.5q-32 0 -58 8.5t-40.5 16.5t-30 28t-19.5 27t-16 29q-16 -52 -23.5 -80t-16 -79t-13.5 -113q-3 -45 -6.5 -73t-9 -60.5t-13 -51t-19.5 -35.5t-29 -24.5t-40 -7.5q-21 0 -36 8.5t-22 18.5t-10.5 23.5t-4 19t-0.5 10.5z" />
<glyph unicode="&#xb6;" horiz-adv-x="1472" d="M330 754q0 194 110.5 339.5t302.5 184.5q90 18 211 25t459 10v-35q-49 -14 -78.5 -27t-48 -26.5t-26.5 -36.5t-10.5 -45t-2.5 -64v-1542h-78v1720q-108 10 -208 -22v-1698h-74v729q-45 -2 -71 -2t-76 4.5t-98.5 21.5t-96.5 46q-59 36 -103 87.5t-67.5 109t-34 112.5 t-10.5 109z" />
<glyph unicode="&#xb7;" horiz-adv-x="448" d="M264 535q0 41 29 69.5t69 28.5q41 0 70 -29t29 -69t-29 -69.5t-70 -29.5q-40 0 -69 29t-29 70z" />
<glyph unicode="&#xb8;" horiz-adv-x="681" d="M96 -393q0 9 8 13t43 13q34 8 55.5 14.5t47.5 19t38.5 32t12.5 45.5q0 44 -74 100q78 85 138 162h59l-59 -80q69 -46 69 -116q0 -46 -27 -85t-66 -63t-84.5 -41t-81 -24t-56.5 -7q-23 0 -23 17z" />
<glyph unicode="&#xb9;" horiz-adv-x="704" d="M297 719q0 15 37 18q44 4 60.5 25.5t37.5 85.5q111 358 113 366l4 29q0 15 -7 26t-13 16.5t-21.5 9t-18 4t-16.5 1.5q-31 0 -31 17q0 16 27 16q77 0 143 10q5 1 36 12t36 11q6 0 11 -5t5 -11q0 -3 -32 -109t-67 -221.5t-40 -134.5q-6 -22 -11.5 -41.5t-7.5 -27t-3.5 -15 t-1.5 -13.5q0 -44 47 -49q28 -3 36.5 -6.5t8.5 -13.5q0 -14 -31 -14h-276q-25 0 -25 14z" />
<glyph unicode="&#xba;" horiz-adv-x="555" d="M250 997q0 128 91.5 232t205.5 104q65 0 111 -35t64.5 -80t18.5 -90q0 -122 -90 -223.5t-219 -101.5q-42 0 -75 13t-51.5 34.5t-31 43.5t-17 47t-6 36.5t-1.5 19.5zM365 940q0 -40 17.5 -70t47.5 -30q43 0 91 56.5t79 139.5t31 156q0 24 -4.5 45t-22 40t-45.5 19 q-45 0 -91 -60.5t-74.5 -144t-28.5 -151.5z" />
<glyph unicode="&#xbb;" horiz-adv-x="1044" d="M80 35q0 4 22 26l314 351l-88 354l-9 27q5 10 23 10q8 0 13 -5t14 -22l219 -387l-424 -334q-36 -30 -60 -30t-24 10zM506 31q0 4 10 14l311 352l-147 357q-8 24 -12 28q-6 6 -6 13q0 8 12 8q18 0 24 -5t25 -30l303 -387l-430 -326q-43 -32 -64 -32q-26 0 -26 8z" />
<glyph unicode="&#xbc;" horiz-adv-x="1472" d="M297 721q0 15 37 18q44 3 61.5 25.5t36.5 85.5q2 5 33 102.5t55 175t25 86.5l4 29q0 15 -7 26t-13 16.5t-21.5 9t-18 4t-16.5 1.5q-31 0 -31 17q0 16 27 16q77 0 143 10q5 1 36 12t36 11q6 0 11 -5t5 -11t-81.5 -271.5t-81.5 -287.5q0 -45 47 -50q28 -3 36.5 -6.5 t8.5 -13.5q0 -14 -31 -14h-283q-6 0 -12 4t-6 10zM365 -20l968 1382h64l-967 -1382h-65zM840 227q10 25 18 41q143 143 498 373q20 14 29.5 16t44.5 2q14 0 14 -12q0 -21 -12 -51l-103 -328q73 -4 116.5 10t59.5 62q3 13 7.5 17.5t15.5 4.5q7 0 10.5 -5t3.5 -9 q0 -10 -65 -213q-10 -29 -23 -29q-6 0 -11 5.5t-5 11.5l2 61q-9 43 -66 43h-57q-37 -115 -37 -133q0 -31 18.5 -48t38.5 -19q39 -6 39 -17q0 -16 -24 -16h-256q-43 0 -52.5 2t-9.5 12q0 11 9 14t38 5q40 3 60.5 42t56.5 158h-358zM913 268h297q7 27 45.5 146t47.5 145l-5 4 q-267 -184 -385 -295z" />
<glyph unicode="&#xbd;" horiz-adv-x="1472" d="M297 721q0 15 37 18q44 3 61.5 25.5t36.5 85.5q2 5 33 102.5t55 175t25 86.5l4 29q0 15 -7 26t-13 16.5t-21.5 9t-18 4t-16.5 1.5q-31 0 -31 17q0 16 27 16q77 0 143 10q5 1 36 12t36 11q6 0 11 -5t5 -11t-81.5 -271.5t-81.5 -287.5q0 -45 47 -50q28 -3 36.5 -6.5 t8.5 -13.5q0 -14 -31 -14h-283q-6 0 -12 4t-6 10zM334 -20l969 1382h65l-969 -1382h-65zM842 8q0 12 86 64q261 167 358 266q80 86 80 162q0 6 -0.5 14.5t-7.5 28.5t-18.5 35t-37 27.5t-59.5 12.5q-84 0 -151.5 -58t-67.5 -124q0 -24 14 -39t26 -18.5t21 -3.5q20 0 38.5 7.5 t30 16t36.5 29.5q6 6 16 6q6 0 10.5 -3.5t4.5 -8.5q0 -22 -54 -61t-106 -39q-48 0 -82.5 30.5t-34.5 81.5q0 66 52.5 119t127.5 79.5t152 26.5q24 0 48 -3t55.5 -13.5t55 -28t40 -50t16.5 -75.5q0 -33 -6.5 -57t-32.5 -59.5t-74.5 -71.5t-135.5 -86.5t-214 -112.5v-4 q252 0 268 4q40 9 76 54q12 20 23 20q12 0 12 -12q0 -11 -40.5 -78t-55.5 -86q-16 -4 -56 -4l-362 4q-35 0 -43 1t-8 7z" />
<glyph unicode="&#xbe;" horiz-adv-x="1472" d="M248 840q0 32 18.5 48.5t42.5 16.5q22 0 39 -15.5t17 -31.5q0 -4 -6.5 -30t-6.5 -31q0 -35 30.5 -54.5t76.5 -19.5q84 0 141 66.5t57 152.5q0 15 -2.5 30t-20 34.5t-48.5 19.5t-58 -12q-31 -13 -39 -13t-13 5t-5 10q0 6 8.5 12t42.5 23q39 19 59 29t50.5 29.5t46 36 t27.5 40t12 49.5q0 30 -23.5 60t-75.5 30q-63 0 -109 -38.5t-46 -80.5q0 -17 10 -31t21 -14l28 4q7 0 13 -5t6 -11q0 -15 -25.5 -24t-44.5 -9q-37 0 -60.5 21t-23.5 51q0 54 43 95.5t99.5 60t111.5 18.5q82 0 138.5 -38t56.5 -91q0 -26 -10 -48t-23.5 -36.5t-42.5 -31.5 t-50.5 -26.5t-64.5 -27.5v-4q15 -1 29 -3.5t34.5 -10.5t35 -21t25.5 -37.5t11 -56.5q0 -103 -89 -173.5t-218 -70.5q-106 0 -165.5 42t-59.5 112zM365 -20l968 1382h64l-967 -1382h-65zM840 227q10 25 18 41q143 143 498 373q20 14 29 16t42 2q19 0 19 -12q0 -3 -14 -51 l-103 -328q73 -4 116.5 10t59.5 62q3 13 7.5 17.5t15.5 4.5q7 0 10.5 -5t3.5 -9q0 -10 -65 -213q-10 -29 -23 -29q-6 0 -11 5t-5 12l2 61q-9 43 -66 43h-57q-37 -115 -37 -133q0 -32 19 -48.5t38 -18.5q39 -6 39 -17q0 -16 -24 -16h-256q-43 0 -52.5 2t-9.5 12q0 11 9 14 t38 5q40 3 60.5 42t56.5 158h-358zM913 268h297q7 27 45.5 146t47.5 145l-5 4q-267 -184 -385 -295z" />
<glyph unicode="&#xbf;" horiz-adv-x="811" d="M39 -268q0 41 8.5 79t20.5 69t36 62t43.5 53.5t55.5 49t60 43t68.5 41t69.5 37t74 37.5q105 52 147 86.5t42 85.5q0 55 -42.5 90t-103.5 35q-46 0 -108 -23q-3 -2 -26 -10t-24 -8q-7 0 -12.5 5t-5.5 9q0 23 54.5 45.5t125.5 22.5q84 0 139.5 -54t55.5 -129 q0 -29 -5 -54.5t-20 -50.5t-26.5 -43t-40.5 -42.5t-44 -37.5t-56 -39t-58 -36.5t-66 -40.5q-41 -25 -70.5 -44.5t-69.5 -53t-65 -65t-43 -74t-18 -86.5q0 -55 19 -94.5t50.5 -59.5t65 -28.5t70.5 -8.5q87 0 145 42t58 89q0 25 -40 56q-6 5 -9 8q-8 6 -17.5 23t-9.5 36 q0 30 21 52t55 22q41 0 71.5 -33.5t30.5 -89.5q0 -91 -87.5 -168.5t-219.5 -77.5q-71 0 -126 18.5t-87 47t-52 66.5t-27 72t-7 69zM500 766q0 35 25.5 60.5t60.5 25.5q37 0 62.5 -25.5t25.5 -60.5q0 -37 -25.5 -62.5t-62.5 -25.5q-36 0 -61 25t-25 63z" />
<glyph unicode="&#xc0;" horiz-adv-x="1300" d="M-2 20q0 18 31 23q44 9 85.5 31t82.5 60.5t65 65t66 76.5q445 533 657 781l53 65q52 64 91.5 110t54.5 58q70 21 190 43q-14 -57 -87 -334.5t-136.5 -520.5t-65.5 -259q-2 -18 -2 -49q0 -60 33.5 -92t79.5 -39q27 -5 33 -7.5t6 -11.5q0 -20 -29 -20q-15 0 -92 3t-90 3 l-262 -2q-57 0 -70.5 3t-13.5 16q0 20 27 20q38 4 60 9.5t46.5 25t39.5 45t37 83t41.5 123.5t51.5 181h-295l-53 2q-34 1 -61 -20t-74 -80q-54 -67 -84 -105.5t-68.5 -104t-38.5 -100.5q0 -52 86 -59q43 -5 55.5 -9t12.5 -14q0 -16 -29 -16q-62 0 -199 2l-213 2 q-22 0 -22 12zM653 582q0 -10 8.5 -15.5t18.5 -5.5l315 -2q10 29 85 290.5t75 278.5q0 19 -14 19q-13 0 -30.5 -15t-53.5 -57q-195 -224 -381 -454q-2 -3 -6 -7.5t-5 -6t-3.5 -4.5t-3.5 -4.5t-2 -3.5l-1.5 -3t-1 -3t-0.5 -3.5v-3.5zM1182 1753q0 23 16 39t43 16 q43 0 75.5 -40t76.5 -126q94 -208 94 -217q0 -6 -5.5 -12t-11.5 -6q-9 0 -16.5 6t-34.5 35q-162 173 -199.5 221t-37.5 84z" />
<glyph unicode="&#xc1;" horiz-adv-x="1300" d="M-2 20q0 18 31 23q44 9 85.5 31t82.5 60.5t65 65t66 76.5q445 533 657 781l53 65q52 64 91.5 110t54.5 58q70 21 190 43q-14 -57 -87 -334.5t-136.5 -520.5t-65.5 -259q-2 -18 -2 -49q0 -60 33.5 -92t79.5 -39q27 -5 33 -7.5t6 -11.5q0 -20 -29 -20q-15 0 -92 3t-90 3 l-262 -2q-57 0 -70.5 3t-13.5 16q0 20 27 20q38 4 60 9.5t46.5 25t39.5 45t37 83t41.5 123.5t51.5 181h-295l-53 2q-34 1 -61 -20t-74 -80q-54 -67 -84 -105.5t-68.5 -104t-38.5 -100.5q0 -52 86 -59q43 -5 55.5 -9t12.5 -14q0 -16 -29 -16q-62 0 -199 2l-213 2 q-22 0 -22 12zM653 582q0 -10 8.5 -15.5t18.5 -5.5l315 -2q10 29 85 290.5t75 278.5q0 19 -14 19q-13 0 -30.5 -15t-53.5 -57q-195 -224 -381 -454q-2 -3 -6 -7.5t-5 -6t-3.5 -4.5t-3.5 -4.5t-2 -3.5l-1.5 -3t-1 -3t-0.5 -3.5v-3.5zM1171 1421q0 13 105 130t151 157 q47 41 91 41q19 0 39 -14.5t20 -38.5q0 -47 -55.5 -90t-257.5 -162q-56 -37 -76 -37q-7 0 -12 4.5t-5 9.5z" />
<glyph unicode="&#xc2;" horiz-adv-x="1300" d="M-2 20q0 18 31 23q44 9 85.5 31t82.5 60.5t65 65t66 76.5q445 533 657 781l53 65q52 64 91.5 110t54.5 58q70 21 190 43q-14 -57 -87 -334.5t-136.5 -520.5t-65.5 -259q-2 -18 -2 -49q0 -60 33.5 -92t79.5 -39q27 -5 33 -7.5t6 -11.5q0 -20 -29 -20q-15 0 -92 3t-90 3 l-262 -2q-57 0 -70.5 3t-13.5 16q0 20 27 20q38 4 60 9.5t46.5 25t39.5 45t37 83t41.5 123.5t51.5 181h-295l-53 2q-34 1 -61 -20t-74 -80q-54 -67 -84 -105.5t-68.5 -104t-38.5 -100.5q0 -52 86 -59q43 -5 55.5 -9t12.5 -14q0 -16 -29 -16q-62 0 -199 2l-213 2 q-22 0 -22 12zM653 582q0 -10 8.5 -15.5t18.5 -5.5l315 -2q10 29 85 290.5t75 278.5q0 19 -14 19q-13 0 -30.5 -15t-53.5 -57q-195 -224 -381 -454q-2 -3 -6 -7.5t-5 -6t-3.5 -4.5t-3.5 -4.5t-2 -3.5l-1.5 -3t-1 -3t-0.5 -3.5v-3.5zM1036 1425q0 13 283 365h111 q82 -248 112 -328q10 -31 10 -35q0 -8 -7 -15t-11 -7q-22 0 -51 55q-43 68 -129 176q-172 -122 -250 -194q-31 -31 -49 -31q-19 0 -19 14z" />
<glyph unicode="&#xc3;" horiz-adv-x="1300" d="M-2 20q0 18 31 23q44 9 85.5 31t82.5 60.5t65 65t66 76.5q445 533 657 781l53 65q52 64 91.5 110t54.5 58q70 21 190 43q-14 -57 -87 -334.5t-136.5 -520.5t-65.5 -259q-2 -18 -2 -49q0 -60 33.5 -92t79.5 -39q27 -5 33 -7.5t6 -11.5q0 -20 -29 -20q-15 0 -92 3t-90 3 l-262 -2q-57 0 -70.5 3t-13.5 16q0 20 27 20q38 4 60 9.5t46.5 25t39.5 45t37 83t41.5 123.5t51.5 181h-295l-53 2q-34 1 -61 -20t-74 -80q-54 -67 -84 -105.5t-68.5 -104t-38.5 -100.5q0 -52 86 -59q43 -5 55.5 -9t12.5 -14q0 -16 -29 -16q-62 0 -199 2l-213 2 q-22 0 -22 12zM653 582q0 -10 8.5 -15.5t18.5 -5.5l315 -2q10 29 85 290.5t75 278.5q0 19 -14 19q-13 0 -30.5 -15t-53.5 -57q-195 -224 -381 -454q-2 -3 -6 -7.5t-5 -6t-3.5 -4.5t-3.5 -4.5t-2 -3.5l-1.5 -3t-1 -3t-0.5 -3.5v-3.5zM1016 1442q0 20 47 96q54 88 135 88 q27 0 49 -8.5t58 -32.5q63 -43 110 -43q26 0 52.5 17.5t41.5 39.5q14 18 20.5 22.5t14.5 4.5q7 0 13 -6t6 -14t-11.5 -34.5t-32.5 -62t-60 -62t-85 -26.5q-28 0 -48.5 8.5t-72.5 38.5q-56 37 -100 37q-55 0 -82 -45q-14 -27 -19.5 -33t-15.5 -6t-15 7t-5 14z" />
<glyph unicode="&#xc4;" horiz-adv-x="1300" d="M-2 20q0 18 31 23q44 9 85.5 31t82.5 60.5t65 65t66 76.5q445 533 657 781l53 65q52 64 91.5 110t54.5 58q70 21 190 43q-14 -57 -87 -334.5t-136.5 -520.5t-65.5 -259q-2 -18 -2 -49q0 -60 33.5 -92t79.5 -39q27 -5 33 -7.5t6 -11.5q0 -20 -29 -20q-15 0 -92 3t-90 3 l-262 -2q-57 0 -70.5 3t-13.5 16q0 20 27 20q38 4 60 9.5t46.5 25t39.5 45t37 83t41.5 123.5t51.5 181h-295l-53 2q-34 1 -61 -20t-74 -80q-54 -67 -84 -105.5t-68.5 -104t-38.5 -100.5q0 -52 86 -59q43 -5 55.5 -9t12.5 -14q0 -16 -29 -16q-62 0 -199 2l-213 2 q-22 0 -22 12zM653 582q0 -10 8.5 -15.5t18.5 -5.5l315 -2q10 29 85 290.5t75 278.5q0 19 -14 19q-13 0 -30.5 -15t-53.5 -57q-195 -224 -381 -454q-2 -3 -6 -7.5t-5 -6t-3.5 -4.5t-3.5 -4.5t-2 -3.5l-1.5 -3t-1 -3t-0.5 -3.5v-3.5zM1040 1516q0 37 25.5 62.5t60.5 25.5 q37 0 62.5 -25.5t25.5 -62.5q0 -35 -25.5 -60.5t-62.5 -25.5q-35 0 -60.5 25.5t-25.5 60.5zM1393 1516q0 37 25.5 62.5t60.5 25.5q37 0 62.5 -25.5t25.5 -62.5q0 -35 -25.5 -60.5t-62.5 -25.5q-35 0 -60.5 25.5t-25.5 60.5z" />
<glyph unicode="&#xc5;" horiz-adv-x="1300" d="M-2 20q0 18 31 23q44 9 85.5 31t82.5 60.5t65 65t66 76.5q445 533 657 781l53 65q52 64 91.5 110t54.5 58q70 21 190 43q-14 -57 -87 -334.5t-136.5 -520.5t-65.5 -259q-2 -18 -2 -49q0 -60 33.5 -92t79.5 -39q27 -5 33 -7.5t6 -11.5q0 -20 -29 -20q-15 0 -92 3t-90 3 l-262 -2q-57 0 -70.5 3t-13.5 16q0 20 27 20q38 4 60 9.5t46.5 25t39.5 45t37 83t41.5 123.5t51.5 181h-295l-53 2q-34 1 -61 -20t-74 -80q-54 -67 -84 -105.5t-68.5 -104t-38.5 -100.5q0 -52 86 -59q43 -5 55.5 -9t12.5 -14q0 -16 -29 -16q-62 0 -199 2l-213 2 q-22 0 -22 12zM653 582q0 -10 8.5 -15.5t18.5 -5.5l315 -2q10 29 85 290.5t75 278.5q0 19 -14 19q-13 0 -30.5 -15t-53.5 -57q-195 -224 -381 -454q-2 -3 -6 -7.5t-5 -6t-3.5 -4.5t-3.5 -4.5t-2 -3.5l-1.5 -3t-1 -3t-0.5 -3.5v-3.5zM1174 1571q0 64 45 108.5t108 44.5 t108.5 -45t45.5 -108t-45 -108.5t-109 -45.5q-63 0 -108 45.5t-45 108.5zM1237 1571q0 -37 26 -63.5t64 -26.5q37 0 63.5 26.5t26.5 63.5q0 39 -27 64.5t-63 25.5q-38 0 -64 -26t-26 -64z" />
<glyph unicode="&#xc6;" horiz-adv-x="1921" d="M4 16q0 10 12.5 15t65.5 16q105 20 205 164q24 35 185.5 253t296 409t149.5 239q6 20 6 43q0 2 -0.5 6t-4 15t-9 20.5t-17.5 21t-29 19.5q-19 8 -70.5 15.5t-62.5 7.5q-31 0 -31 16q0 15 17 18q36 4 133 4q84 0 485 -14q88 -3 294.5 -5t314.5 -5q3 -16 12 -94.5 t16.5 -149.5t7.5 -72q0 -7 -4.5 -12.5t-11.5 -5.5q-19 0 -35 55q-4 16 -14 38t-34 58.5t-54 66t-79 53t-106 26.5q-61 4 -219 0q-32 -78 -82 -229q-87 -303 -96 -355q66 1 97.5 2.5t71.5 6.5t58.5 12.5t44.5 23.5t44.5 37.5t44.5 55.5q4 6 43 71q14 21 28 21q15 0 15 -17 q0 -9 -10 -41.5t-23 -70t-14 -41.5q-46 -154 -84 -373q-5 -26 -8 -32.5t-13 -6.5q-16 0 -16 18q0 3 0.5 28t0.5 45.5t-1 25.5q-3 30 -8.5 52.5t-11.5 41t-19 31.5t-22.5 22t-31.5 15.5t-36.5 10t-46.5 5.5t-53 2.5t-64 1.5q-5 -21 -38.5 -146.5t-37.5 -148.5q-4 -15 -12 -65 t-8 -76q0 -40 21.5 -69t55.5 -38q65 -16 326 -16q62 0 119.5 32t146.5 136q4 5 29 38t47 59t29 26q14 0 14 -19q0 -9 -27 -73q-7 -17 -47.5 -121.5t-48.5 -122.5q-58 -2 -600 6q-47 1 -147.5 5.5t-110.5 4.5q-17 0 -103 -6t-100 -6q-11 0 -20.5 4.5t-9.5 11.5q0 10 8.5 13.5 t46.5 9.5q29 5 44 9t39 13.5t40 27.5t28 44q17 37 64 194t74 273q-19 0 -113.5 4t-110.5 4q-23 0 -211 -8q-9 -14 -95 -130t-154 -217.5t-68 -127.5q0 -59 113 -84q44 -10 47 -14q2 -3 2 -9q0 -20 -29 -20q-4 0 -36.5 1t-55.5 1q-39 2 -90 2q-64 0 -111 -2q-45 -2 -106 -2 q-31 0 -31 18zM668 655q27 1 195 0t200 0q1 3 34.5 132.5t66 260.5t32.5 144q0 39 -41 39q-25 0 -54.5 -25.5t-101.5 -118.5q-75 -96 -331 -432z" />
<glyph unicode="&#xc7;" horiz-adv-x="1236" d="M223 475q0 140 42.5 273t115 236t165 182t197 121t205.5 42q91 0 195 -49q69 -33 90 -33q40 0 76 41l8.5 8.5l6.5 6.5l5 5t4.5 4t3.5 3t3 2.5t3 1t3.5 0.5h3.5q16 0 16 -19q-23 -84 -27 -96q-49 -214 -61 -297q-3 -26 -21 -26q-11 0 -13.5 10t-2.5 49q-7 126 -53 209 q-34 61 -101 100t-139 39q-80 0 -152 -36t-126.5 -98t-99 -143t-72.5 -173t-43 -186.5t-15 -184.5q0 -104 24.5 -183.5t59.5 -123t81.5 -71t82 -36t68.5 -8.5q112 0 230.5 71.5t195.5 194.5q19 29 30 29q8 0 13.5 -6.5t5.5 -11.5q0 -31 -55 -96t-145.5 -131t-172.5 -87 q-22 -5 -33.5 -9t-16 -7t-13.5 -10l-66 -70q96 -57 96 -141q0 -53 -35.5 -96.5t-85.5 -68.5t-109 -42t-101.5 -23t-67.5 -6q-6 0 -11 4t-5 10q0 11 12 16t61 15l6 2q6 1 13.5 3t18.5 6t22 8.5t23.5 11t23.5 13.5t21 16t17.5 19t12 22.5t4.5 25.5q0 27 -15.5 50.5t-28.5 33 t-34 21.5q5 5 49.5 47.5t80.5 76t48 41.5l-4 5q-3 0 -13.5 -2t-16.5 -3q-5 0 -23 -1t-29 -1q-108 0 -194 43.5t-137.5 115.5t-78 159.5t-26.5 181.5z" />
<glyph unicode="&#xc8;" horiz-adv-x="1386" d="M39 12q0 9 13 14t67 17q38 8 53.5 12.5t39 22.5t35 39.5t32.5 73t39.5 114t48.5 170.5q40 138 87.5 341.5t47.5 270.5q0 78 -42 119t-120 41q-39 0 -39 21q0 14 8.5 17t42.5 3q140 0 535 10q441 12 473 13q14 -69 22 -264q0 -4 2 -27.5t2 -26.5q0 -20 -14 -20 q-10 0 -19.5 15.5t-25.5 55.5q-20 47 -61.5 99t-69.5 74q-29 22 -64.5 32.5t-103.5 10.5q-148 0 -274 -17q-12 -28 -37.5 -115.5t-49 -174.5t-44 -164t-21.5 -80q50 -1 99 -2.5t98 9t90.5 29t77 58t57.5 96.5q14 37 19 46t14 9q7 0 12.5 -6.5t5.5 -13.5q0 -2 -16 -61.5 t-33 -124.5t-20 -76q-4 -21 -23 -101.5t-35 -160.5q-10 -50 -16 -54q-3 -2 -10 -2q-19 0 -19 21q0 5 1 26t1.5 35.5t-0.5 24.5q-18 109 -49 148.5t-92 49.5q-34 5 -172 5q-5 -24 -34.5 -130t-53 -201.5t-23.5 -125.5q0 -34 10.5 -61t24 -44t38.5 -29t43.5 -17.5t49.5 -8.5 t45 -3.5t41 -0.5q61 0 90.5 0.5t73.5 4t66 10t57 19.5t58.5 31t59.5 47.5t70.5 65t81.5 86.5q15 25 45 55q11 11 19 11q14 0 14 -21q0 -56 -127 -354q-14 3 -144.5 0.5t-144.5 -2.5q-46 0 -291.5 6t-285.5 6q-25 0 -155.5 -7t-151.5 -7q-29 0 -29 18zM836 1753q0 23 16 39 t43 16q43 0 75.5 -40t76.5 -126q94 -208 94 -217q0 -6 -5.5 -12t-11.5 -6q-9 0 -16.5 6t-34.5 35q-162 173 -199.5 221t-37.5 84z" />
<glyph unicode="&#xc9;" horiz-adv-x="1386" d="M39 12q0 9 13 14t67 17q38 8 53.5 12.5t39 22.5t35 39.5t32.5 73t39.5 114t48.5 170.5q40 138 87.5 341.5t47.5 270.5q0 78 -42 119t-120 41q-39 0 -39 21q0 14 8.5 17t42.5 3q140 0 535 10q441 12 473 13q14 -69 22 -264q0 -4 2 -27.5t2 -26.5q0 -20 -14 -20 q-10 0 -19.5 15.5t-25.5 55.5q-20 47 -61.5 99t-69.5 74q-29 22 -64.5 32.5t-103.5 10.5q-148 0 -274 -17q-12 -28 -37.5 -115.5t-49 -174.5t-44 -164t-21.5 -80q50 -1 99 -2.5t98 9t90.5 29t77 58t57.5 96.5q14 37 19 46t14 9q7 0 12.5 -6.5t5.5 -13.5q0 -2 -16 -61.5 t-33 -124.5t-20 -76q-4 -21 -23 -101.5t-35 -160.5q-10 -50 -16 -54q-3 -2 -10 -2q-19 0 -19 21q0 5 1 26t1.5 35.5t-0.5 24.5q-18 109 -49 148.5t-92 49.5q-34 5 -172 5q-5 -24 -34.5 -130t-53 -201.5t-23.5 -125.5q0 -34 10.5 -61t24 -44t38.5 -29t43.5 -17.5t49.5 -8.5 t45 -3.5t41 -0.5q61 0 90.5 0.5t73.5 4t66 10t57 19.5t58.5 31t59.5 47.5t70.5 65t81.5 86.5q15 25 45 55q11 11 19 11q14 0 14 -21q0 -56 -127 -354q-14 3 -144.5 0.5t-144.5 -2.5q-46 0 -291.5 6t-285.5 6q-25 0 -155.5 -7t-151.5 -7q-29 0 -29 18zM825 1421q0 13 105 130 t151 157q47 41 90 41q19 0 39.5 -14.5t20.5 -38.5q0 -47 -55.5 -90t-257.5 -162q-56 -37 -76 -37q-7 0 -12 4.5t-5 9.5z" />
<glyph unicode="&#xca;" horiz-adv-x="1386" d="M39 12q0 9 13 14t67 17q38 8 53.5 12.5t39 22.5t35 39.5t32.5 73t39.5 114t48.5 170.5q40 138 87.5 341.5t47.5 270.5q0 78 -42 119t-120 41q-39 0 -39 21q0 14 8.5 17t42.5 3q140 0 535 10q441 12 473 13q14 -69 22 -264q0 -4 2 -27.5t2 -26.5q0 -20 -14 -20 q-10 0 -19.5 15.5t-25.5 55.5q-20 47 -61.5 99t-69.5 74q-29 22 -64.5 32.5t-103.5 10.5q-148 0 -274 -17q-12 -28 -37.5 -115.5t-49 -174.5t-44 -164t-21.5 -80q50 -1 99 -2.5t98 9t90.5 29t77 58t57.5 96.5q14 37 19 46t14 9q7 0 12.5 -6.5t5.5 -13.5q0 -2 -16 -61.5 t-33 -124.5t-20 -76q-4 -21 -23 -101.5t-35 -160.5q-10 -50 -16 -54q-3 -2 -10 -2q-19 0 -19 21q0 5 1 26t1.5 35.5t-0.5 24.5q-18 109 -49 148.5t-92 49.5q-34 5 -172 5q-5 -24 -34.5 -130t-53 -201.5t-23.5 -125.5q0 -34 10.5 -61t24 -44t38.5 -29t43.5 -17.5t49.5 -8.5 t45 -3.5t41 -0.5q61 0 90.5 0.5t73.5 4t66 10t57 19.5t58.5 31t59.5 47.5t70.5 65t81.5 86.5q15 25 45 55q11 11 19 11q14 0 14 -21q0 -56 -127 -354q-14 3 -144.5 0.5t-144.5 -2.5q-46 0 -291.5 6t-285.5 6q-25 0 -155.5 -7t-151.5 -7q-29 0 -29 18zM690 1425q0 13 283 365 h110q74 -223 113 -328q10 -31 10 -35q0 -8 -7 -15t-11 -7q-22 0 -51 55q-43 68 -129 176q-172 -122 -250 -194q-31 -31 -49 -31q-19 0 -19 14z" />
<glyph unicode="&#xcb;" horiz-adv-x="1386" d="M39 12q0 9 13 14t67 17q38 8 53.5 12.5t39 22.5t35 39.5t32.5 73t39.5 114t48.5 170.5q40 138 87.5 341.5t47.5 270.5q0 78 -42 119t-120 41q-39 0 -39 21q0 14 8.5 17t42.5 3q140 0 535 10q441 12 473 13q14 -69 22 -264q0 -4 2 -27.5t2 -26.5q0 -20 -14 -20 q-10 0 -19.5 15.5t-25.5 55.5q-20 47 -61.5 99t-69.5 74q-29 22 -64.5 32.5t-103.5 10.5q-148 0 -274 -17q-12 -28 -37.5 -115.5t-49 -174.5t-44 -164t-21.5 -80q50 -1 99 -2.5t98 9t90.5 29t77 58t57.5 96.5q14 37 19 46t14 9q7 0 12.5 -6.5t5.5 -13.5q0 -2 -16 -61.5 t-33 -124.5t-20 -76q-4 -21 -23 -101.5t-35 -160.5q-10 -50 -16 -54q-3 -2 -10 -2q-19 0 -19 21q0 5 1 26t1.5 35.5t-0.5 24.5q-18 109 -49 148.5t-92 49.5q-34 5 -172 5q-5 -24 -34.5 -130t-53 -201.5t-23.5 -125.5q0 -34 10.5 -61t24 -44t38.5 -29t43.5 -17.5t49.5 -8.5 t45 -3.5t41 -0.5q61 0 90.5 0.5t73.5 4t66 10t57 19.5t58.5 31t59.5 47.5t70.5 65t81.5 86.5q15 25 45 55q11 11 19 11q14 0 14 -21q0 -56 -127 -354q-14 3 -144.5 0.5t-144.5 -2.5q-46 0 -291.5 6t-285.5 6q-25 0 -155.5 -7t-151.5 -7q-29 0 -29 18zM694 1516 q0 37 25.5 62.5t60.5 25.5q37 0 62.5 -25.5t25.5 -62.5q0 -35 -25.5 -60.5t-62.5 -25.5q-35 0 -60.5 25.5t-25.5 60.5zM1047 1516q0 37 25.5 62.5t60.5 25.5q37 0 62.5 -25.5t25.5 -62.5q0 -35 -25.5 -60.5t-62.5 -25.5q-35 0 -60.5 25.5t-25.5 60.5z" />
<glyph unicode="&#xcc;" horiz-adv-x="704" d="M70 14q0 12 12 17t63 12q34 5 60.5 19.5t41.5 30t27.5 44t17.5 47.5t13 54q8 34 66.5 258.5t109.5 427.5t51 227q0 26 -9 46t-19.5 30.5t-29 18t-29 9.5t-27.5 5q-50 8 -57 15q-3 4 -3 9q0 12 11.5 14t70.5 2q38 0 237 -5t232 -5q15 -8 15 -18q0 -12 -9.5 -15t-50.5 -8 q-23 -3 -40.5 -7t-33.5 -16t-26.5 -21t-23.5 -34.5t-20 -41.5t-20 -58.5t-20.5 -69.5t-24.5 -88q-95 -352 -147 -573q-26 -113 -32.5 -145.5t-6.5 -61.5q0 -89 106 -98q46 -4 46 -23q0 -18 -37 -18q-28 0 -176 4q-43 0 -104.5 1t-67.5 1l-136 -2q-30 0 -30 16zM557 1753 q0 23 16 39t43 16q43 0 75.5 -40t76.5 -126q94 -208 94 -217q0 -6 -5 -12t-11 -6q-9 0 -16.5 6t-34.5 35q-164 174 -201 222t-37 83z" />
<glyph unicode="&#xcd;" horiz-adv-x="704" d="M70 14q0 12 12 17t63 12q34 5 60.5 19.5t41.5 30t27.5 44t17.5 47.5t13 54q8 34 66.5 258.5t109.5 427.5t51 227q0 26 -9 46t-19.5 30.5t-29 18t-29 9.5t-27.5 5q-50 8 -57 15q-3 4 -3 9q0 12 11.5 14t70.5 2q38 0 237 -5t232 -5q15 -8 15 -18q0 -12 -9.5 -15t-50.5 -8 q-23 -3 -40.5 -7t-33.5 -16t-26.5 -21t-23.5 -34.5t-20 -41.5t-20 -58.5t-20.5 -69.5t-24.5 -88q-95 -352 -147 -573q-26 -113 -32.5 -145.5t-6.5 -61.5q0 -89 106 -98q46 -4 46 -23q0 -18 -37 -18q-28 0 -176 4q-43 0 -104.5 1t-67.5 1l-136 -2q-30 0 -30 16zM506 1421 q0 13 105 130t151 157q47 41 90 41q19 0 39 -14.5t20 -38.5q0 -47 -55.5 -90t-257.5 -162q-56 -37 -76 -37q-7 0 -11.5 4.5t-4.5 9.5z" />
<glyph unicode="&#xce;" horiz-adv-x="704" d="M70 14q0 12 12 17t63 12q34 5 60.5 19.5t41.5 30t27.5 44t17.5 47.5t13 54q8 34 66.5 258.5t109.5 427.5t51 227q0 26 -9 46t-19.5 30.5t-29 18t-29 9.5t-27.5 5q-50 8 -57 15q-3 4 -3 9q0 12 11.5 14t70.5 2q38 0 237 -5t232 -5q15 -8 15 -18q0 -12 -9.5 -15t-50.5 -8 q-23 -3 -40.5 -7t-33.5 -16t-26.5 -21t-23.5 -34.5t-20 -41.5t-20 -58.5t-20.5 -69.5t-24.5 -88q-95 -352 -147 -573q-26 -113 -32.5 -145.5t-6.5 -61.5q0 -89 106 -98q46 -4 46 -23q0 -18 -37 -18q-28 0 -176 4q-43 0 -104.5 1t-67.5 1l-136 -2q-30 0 -30 16zM412 1425 q0 15 282 365h111q74 -223 113 -328q10 -31 10 -35q0 -8 -7.5 -15t-11.5 -7q-22 0 -51 55q-43 68 -129 176q-172 -122 -250 -194q-31 -31 -49 -31t-18 14z" />
<glyph unicode="&#xcf;" horiz-adv-x="704" d="M70 14q0 12 12 17t63 12q34 5 60.5 19.5t41.5 30t27.5 44t17.5 47.5t13 54q8 34 66.5 258.5t109.5 427.5t51 227q0 26 -9 46t-19.5 30.5t-29 18t-29 9.5t-27.5 5q-50 8 -57 15q-3 4 -3 9q0 12 11.5 14t70.5 2q38 0 237 -5t232 -5q15 -8 15 -18q0 -12 -9.5 -15t-50.5 -8 q-23 -3 -40.5 -7t-33.5 -16t-26.5 -21t-23.5 -34.5t-20 -41.5t-20 -58.5t-20.5 -69.5t-24.5 -88q-95 -352 -147 -573q-26 -113 -32.5 -145.5t-6.5 -61.5q0 -89 106 -98q46 -4 46 -23q0 -18 -37 -18q-28 0 -176 4q-43 0 -104.5 1t-67.5 1l-136 -2q-30 0 -30 16zM416 1516 q0 37 25.5 62.5t60.5 25.5q37 0 62.5 -25.5t25.5 -62.5q0 -35 -25.5 -60.5t-62.5 -25.5q-35 0 -60.5 25.5t-25.5 60.5zM768 1516q0 37 25.5 62.5t60.5 25.5q37 0 62.5 -25.5t25.5 -62.5q0 -35 -25.5 -60.5t-62.5 -25.5q-35 0 -60.5 25.5t-25.5 60.5z" />
<glyph unicode="&#xd0;" horiz-adv-x="1515" d="M76 10q0 7 12.5 12.5t52.5 16.5q35 11 45 14.5t35 14.5t34.5 20t22 25.5t19.5 38.5q8 35 58.5 250.5t54.5 236.5h-201l14 55h199q63 292 63 396q0 64 -42.5 112.5t-116.5 48.5q-16 0 -24 1t-14.5 5t-6.5 13q0 20 32 20q54 0 160 4q347 21 416 21q99 0 173.5 -10 t149.5 -36.5t137 -78.5t113 -131q103 -159 103 -387q0 -39 -4 -80t-21.5 -111.5t-47.5 -132t-89 -128t-139 -111.5q-223 -123 -549 -113l-279 6q-22 1 -130 -3.5t-122 -4.5l-80 -2q-10 0 -19 6t-9 12zM526 201q0 -160 219 -160q109 0 201 32.5t153 83.5t109 119.5t75 135 t44.5 135.5t23 115t5.5 79q0 11 -0.5 24t-5 50.5t-12 72.5t-23.5 82.5t-38.5 87t-58.5 80.5t-80.5 69.5t-108 46.5t-138.5 18q-64 0 -97.5 -15t-50.5 -51q-60 -117 -141 -512h275l-15 -55h-272q-24 -123 -34.5 -178t-20 -130.5t-9.5 -129.5z" />
<glyph unicode="&#xd1;" horiz-adv-x="1579" d="M63 23q0 11 12 14q6 2 36 6q43 3 69.5 6.5t56.5 19.5t47.5 32.5t42 59.5t40.5 86.5t43 129t50 170t60 225.5q73 299 76 309q-57 77 -81 103.5t-59.5 45t-95.5 27.5q-47 8 -57 11.5t-10 15.5q0 19 55 19q20 0 187 -9t184 -12q96 -177 213 -385q60 -110 143 -254 t135 -230.5t60 -97.5q37 80 160 480q75 240 75 303q0 60 -38.5 103t-82.5 48q-53 4 -66 8.5t-13 16.5q0 13 18.5 15.5t108.5 4.5q345 6 356 6q18 0 23.5 -5t5.5 -17q0 -9 -8.5 -13t-41.5 -8q-39 -5 -69 -19t-54.5 -41t-44.5 -60.5t-39.5 -85t-37.5 -105.5t-42 -131 q-1 -3 -1 -4q-119 -397 -222 -764q-14 -48 -19 -51q-2 -2 -7 -2q-16 0 -25 33q-8 28 -248.5 450t-306.5 520q-81 -228 -100 -292q-32 -99 -83.5 -289t-51.5 -234q0 -52 47 -89.5t104 -45.5q44 -6 55 -10t11 -14q0 -19 -21 -19h-522q-27 0 -27 19zM827 1442q0 20 47 96 q54 88 136 88q27 0 48.5 -8.5t57.5 -32.5q63 -43 111 -43q26 0 52.5 17.5t41.5 39.5q14 18 20.5 22.5t14.5 4.5q7 0 12.5 -6t5.5 -14q0 -5 -6.5 -24t-21.5 -46.5t-36 -53t-54 -43.5t-70 -18q-28 0 -48.5 8.5t-72.5 38.5q-55 37 -100 37q-55 0 -82 -45q-14 -27 -19.5 -33 t-15.5 -6t-15.5 7t-5.5 14z" />
<glyph unicode="&#xd2;" horiz-adv-x="1409" d="M229 549q0 105 34.5 216t101.5 212t156 181t206.5 127.5t243.5 47.5q112 0 202 -34.5t146.5 -88.5t94.5 -126.5t53.5 -143.5t15.5 -143q0 -145 -60.5 -293t-159.5 -263.5t-237 -188t-283 -72.5q-109 0 -199 38t-147 98t-96 137t-55.5 151t-16.5 145zM438 397q0 -26 3 -55 t11 -75t27 -85.5t47 -76.5t75 -58.5t106 -21.5q92 0 175.5 47t144.5 124t111 173t80.5 197.5t47 193.5t16.5 164q0 8 -0.5 21.5t-6 51t-14.5 72t-29 76.5t-47 72t-71 50.5t-98 20.5q-119 0 -228.5 -80.5t-185 -208t-120 -287t-44.5 -315.5zM930 1753q0 23 16 39t43 16 q43 0 75.5 -40t76.5 -126q94 -208 94 -217q0 -6 -5 -12t-11 -6q-9 0 -17.5 6.5t-34.5 34.5q-162 173 -199.5 221t-37.5 84z" />
<glyph unicode="&#xd3;" horiz-adv-x="1409" d="M229 549q0 105 34.5 216t101.5 212t156 181t206.5 127.5t243.5 47.5q112 0 202 -34.5t146.5 -88.5t94.5 -126.5t53.5 -143.5t15.5 -143q0 -145 -60.5 -293t-159.5 -263.5t-237 -188t-283 -72.5q-109 0 -199 38t-147 98t-96 137t-55.5 151t-16.5 145zM438 397q0 -26 3 -55 t11 -75t27 -85.5t47 -76.5t75 -58.5t106 -21.5q92 0 175.5 47t144.5 124t111 173t80.5 197.5t47 193.5t16.5 164q0 8 -0.5 21.5t-6 51t-14.5 72t-29 76.5t-47 72t-71 50.5t-98 20.5q-119 0 -228.5 -80.5t-185 -208t-120 -287t-44.5 -315.5zM920 1421q0 13 105 130t151 157 q47 41 90 41q19 0 39 -14.5t20 -38.5q0 -47 -55.5 -90t-257.5 -162q-56 -37 -76 -37q-7 0 -11.5 4.5t-4.5 9.5z" />
<glyph unicode="&#xd4;" horiz-adv-x="1409" d="M229 549q0 105 34.5 216t101.5 212t156 181t206.5 127.5t243.5 47.5q112 0 202 -34.5t146.5 -88.5t94.5 -126.5t53.5 -143.5t15.5 -143q0 -145 -60.5 -293t-159.5 -263.5t-237 -188t-283 -72.5q-109 0 -199 38t-147 98t-96 137t-55.5 151t-16.5 145zM438 397q0 -26 3 -55 t11 -75t27 -85.5t47 -76.5t75 -58.5t106 -21.5q92 0 175.5 47t144.5 124t111 173t80.5 197.5t47 193.5t16.5 164q0 8 -0.5 21.5t-6 51t-14.5 72t-29 76.5t-47 72t-71 50.5t-98 20.5q-119 0 -228.5 -80.5t-185 -208t-120 -287t-44.5 -315.5zM784 1425q0 13 283 365h111 q82 -248 112 -328q10 -31 10 -35q0 -8 -7 -15t-11 -7q-22 0 -51 55q-43 68 -129 176q-172 -122 -250 -194q-31 -31 -49 -31q-19 0 -19 14z" />
<glyph unicode="&#xd5;" horiz-adv-x="1409" d="M229 549q0 105 34.5 216t101.5 212t156 181t206.5 127.5t243.5 47.5q112 0 202 -34.5t146.5 -88.5t94.5 -126.5t53.5 -143.5t15.5 -143q0 -145 -60.5 -293t-159.5 -263.5t-237 -188t-283 -72.5q-109 0 -199 38t-147 98t-96 137t-55.5 151t-16.5 145zM438 397q0 -26 3 -55 t11 -75t27 -85.5t47 -76.5t75 -58.5t106 -21.5q92 0 175.5 47t144.5 124t111 173t80.5 197.5t47 193.5t16.5 164q0 8 -0.5 21.5t-6 51t-14.5 72t-29 76.5t-47 72t-71 50.5t-98 20.5q-119 0 -228.5 -80.5t-185 -208t-120 -287t-44.5 -315.5zM764 1442q0 20 47 96 q54 88 135 88q27 0 49 -8.5t58 -32.5q63 -43 110 -43q26 0 52.5 17.5t41.5 39.5q14 18 20.5 22.5t14.5 4.5q7 0 13 -6t6 -14t-11.5 -34.5t-32.5 -62t-60 -62t-85 -26.5q-28 0 -48.5 8.5t-72.5 38.5q-56 37 -100 37q-55 0 -82 -45q-14 -27 -19.5 -33t-15.5 -6t-15 7t-5 14z " />
<glyph unicode="&#xd6;" horiz-adv-x="1409" d="M229 549q0 105 34.5 216t101.5 212t156 181t206.5 127.5t243.5 47.5q112 0 202 -34.5t146.5 -88.5t94.5 -126.5t53.5 -143.5t15.5 -143q0 -145 -60.5 -293t-159.5 -263.5t-237 -188t-283 -72.5q-109 0 -199 38t-147 98t-96 137t-55.5 151t-16.5 145zM438 397q0 -26 3 -55 t11 -75t27 -85.5t47 -76.5t75 -58.5t106 -21.5q92 0 175.5 47t144.5 124t111 173t80.5 197.5t47 193.5t16.5 164q0 8 -0.5 21.5t-6 51t-14.5 72t-29 76.5t-47 72t-71 50.5t-98 20.5q-119 0 -228.5 -80.5t-185 -208t-120 -287t-44.5 -315.5zM788 1516q0 37 25.5 62.5 t60.5 25.5q37 0 63 -25.5t26 -62.5q0 -35 -26 -60.5t-63 -25.5q-35 0 -60.5 25.5t-25.5 60.5zM1141 1516q0 37 25.5 62.5t60.5 25.5q37 0 62.5 -25.5t25.5 -62.5q0 -35 -25.5 -60.5t-62.5 -25.5q-35 0 -60.5 25.5t-25.5 60.5z" />
<glyph unicode="&#xd7;" horiz-adv-x="1366" d="M340 1020l61 61l426 -426l426 426l62 -61l-426 -428l422 -420l-62 -63l-422 421l-424 -421l-61 63l424 420z" />
<glyph unicode="&#xd8;" horiz-adv-x="1409" d="M229 549q0 105 34.5 216t101.5 212t156 181t206.5 127.5t243.5 47.5q178 0 315 -94l88 111l37 -27l-88 -115q62 -61 100.5 -145t49 -146t10.5 -122q0 -115 -38 -233t-107.5 -221.5t-160 -185t-203.5 -128.5t-229 -47q-184 0 -309 100l-104 -133l-37 26l108 138 q-80 79 -127 195.5t-47 242.5zM438 401q0 -112 35 -202l750 958q-64 131 -201 131q-100 0 -192.5 -53.5t-162 -143.5t-122.5 -204t-80 -240t-27 -246zM494 154q71 -129 213 -129q79 0 151.5 34.5t129 93.5t105.5 136t83 162t58.5 171.5t36 165t11.5 142.5q0 73 -37 180z" />
<glyph unicode="&#xd9;" horiz-adv-x="1492" d="M324 1282q0 21 24 21q35 0 88 -3.5t62 -3.5q39 -2 143 -2q47 0 141 4q26 0 61 1t38 1q19 0 27.5 -3t10 -7.5t1.5 -15.5t-12 -13.5t-79 -9.5q-63 -6 -108.5 -82t-85.5 -254q-109 -480 -109 -608q0 -35 10 -70.5t34 -72t59.5 -64.5t91.5 -45.5t125 -17.5q94 0 165.5 29.5 t121.5 89t82.5 126t64.5 162.5q48 149 86.5 315t38.5 273q0 196 -182 223q-27 4 -34 8t-7 15q0 12 10 15t33 3q21 0 139 -4q24 -1 54.5 -2.5t51.5 -2.5t29 -1q16 0 86 4q15 1 33.5 2t28 1.5t10.5 0.5q12 0 17.5 -3.5t6 -6.5t0.5 -10q0 -11 -7.5 -14.5t-35.5 -6.5 q-24 -3 -44 -9.5t-35.5 -13.5t-28.5 -23.5t-22 -28t-17.5 -38.5t-13.5 -43.5t-11.5 -54t-9.5 -59.5t-10 -70q-20 -151 -89.5 -395.5t-156.5 -367.5q-46 -65 -127.5 -107t-154.5 -56t-144 -14q-40 0 -82.5 5t-94.5 17t-97 35.5t-83.5 56t-60.5 82.5t-22 112q0 80 76.5 452 t78.5 383q7 44 -0.5 72.5t-33.5 43.5t-42.5 19.5t-55.5 10.5q-7 1 -11 2q-22 2 -22 18zM889 1753q0 23 16 39t43 16q43 0 75.5 -40t76.5 -126q94 -208 94 -217q0 -6 -5 -12t-11 -6q-9 0 -17.5 6.5t-34.5 34.5q-162 173 -199.5 221t-37.5 84z" />
<glyph unicode="&#xda;" horiz-adv-x="1492" d="M324 1282q0 21 24 21q35 0 88 -3.5t62 -3.5q39 -2 143 -2q47 0 141 4q26 0 61 1t38 1q19 0 27.5 -3t10 -7.5t1.5 -15.5t-12 -13.5t-79 -9.5q-63 -6 -108.5 -82t-85.5 -254q-109 -480 -109 -608q0 -35 10 -70.5t34 -72t59.5 -64.5t91.5 -45.5t125 -17.5q94 0 165.5 29.5 t121.5 89t82.5 126t64.5 162.5q48 149 86.5 315t38.5 273q0 196 -182 223q-27 4 -34 8t-7 15q0 12 10 15t33 3q21 0 139 -4q24 -1 54.5 -2.5t51.5 -2.5t29 -1q16 0 86 4q15 1 33.5 2t28 1.5t10.5 0.5q12 0 17.5 -3.5t6 -6.5t0.5 -10q0 -11 -7.5 -14.5t-35.5 -6.5 q-24 -3 -44 -9.5t-35.5 -13.5t-28.5 -23.5t-22 -28t-17.5 -38.5t-13.5 -43.5t-11.5 -54t-9.5 -59.5t-10 -70q-20 -151 -89.5 -395.5t-156.5 -367.5q-46 -65 -127.5 -107t-154.5 -56t-144 -14q-40 0 -82.5 5t-94.5 17t-97 35.5t-83.5 56t-60.5 82.5t-22 112q0 80 76.5 452 t78.5 383q7 44 -0.5 72.5t-33.5 43.5t-42.5 19.5t-55.5 10.5q-7 1 -11 2q-22 2 -22 18zM879 1421q0 13 105 130t151 157q47 41 90 41q19 0 39 -14.5t20 -38.5q0 -47 -55.5 -90t-257.5 -162q-56 -37 -76 -37q-7 0 -11.5 4.5t-4.5 9.5z" />
<glyph unicode="&#xdb;" horiz-adv-x="1492" d="M324 1282q0 21 24 21q35 0 88 -3.5t62 -3.5q39 -2 143 -2q47 0 141 4q26 0 61 1t38 1q19 0 27.5 -3t10 -7.5t1.5 -15.5t-12 -13.5t-79 -9.5q-63 -6 -108.5 -82t-85.5 -254q-109 -480 -109 -608q0 -35 10 -70.5t34 -72t59.5 -64.5t91.5 -45.5t125 -17.5q94 0 165.5 29.5 t121.5 89t82.5 126t64.5 162.5q48 149 86.5 315t38.5 273q0 196 -182 223q-27 4 -34 8t-7 15q0 12 10 15t33 3q21 0 139 -4q24 -1 54.5 -2.5t51.5 -2.5t29 -1q16 0 86 4q15 1 33.5 2t28 1.5t10.5 0.5q12 0 17.5 -3.5t6 -6.5t0.5 -10q0 -11 -7.5 -14.5t-35.5 -6.5 q-24 -3 -44 -9.5t-35.5 -13.5t-28.5 -23.5t-22 -28t-17.5 -38.5t-13.5 -43.5t-11.5 -54t-9.5 -59.5t-10 -70q-20 -151 -89.5 -395.5t-156.5 -367.5q-46 -65 -127.5 -107t-154.5 -56t-144 -14q-40 0 -82.5 5t-94.5 17t-97 35.5t-83.5 56t-60.5 82.5t-22 112q0 80 76.5 452 t78.5 383q7 44 -0.5 72.5t-33.5 43.5t-42.5 19.5t-55.5 10.5q-7 1 -11 2q-22 2 -22 18zM743 1425q0 13 283 365h111q82 -248 112 -328q11 -34 11 -35q0 -8 -7.5 -15t-11.5 -7q-22 0 -51 55q-43 68 -129 176q-172 -122 -250 -194q-31 -31 -49 -31q-19 0 -19 14z" />
<glyph unicode="&#xdc;" horiz-adv-x="1492" d="M324 1282q0 21 24 21q35 0 88 -3.5t62 -3.5q39 -2 143 -2q47 0 141 4q26 0 61 1t38 1q19 0 27.5 -3t10 -7.5t1.5 -15.5t-12 -13.5t-79 -9.5q-63 -6 -108.5 -82t-85.5 -254q-109 -480 -109 -608q0 -35 10 -70.5t34 -72t59.5 -64.5t91.5 -45.5t125 -17.5q94 0 165.5 29.5 t121.5 89t82.5 126t64.5 162.5q48 149 86.5 315t38.5 273q0 196 -182 223q-27 4 -34 8t-7 15q0 12 10 15t33 3q21 0 139 -4q24 -1 54.5 -2.5t51.5 -2.5t29 -1q16 0 86 4q15 1 33.5 2t28 1.5t10.5 0.5q12 0 17.5 -3.5t6 -6.5t0.5 -10q0 -11 -7.5 -14.5t-35.5 -6.5 q-24 -3 -44 -9.5t-35.5 -13.5t-28.5 -23.5t-22 -28t-17.5 -38.5t-13.5 -43.5t-11.5 -54t-9.5 -59.5t-10 -70q-20 -151 -89.5 -395.5t-156.5 -367.5q-46 -65 -127.5 -107t-154.5 -56t-144 -14q-40 0 -82.5 5t-94.5 17t-97 35.5t-83.5 56t-60.5 82.5t-22 112q0 80 76.5 452 t78.5 383q7 44 -0.5 72.5t-33.5 43.5t-42.5 19.5t-55.5 10.5q-7 1 -11 2q-22 2 -22 18zM768 1516q0 37 25.5 62.5t60.5 25.5q37 0 62.5 -25.5t25.5 -62.5q0 -35 -25.5 -60.5t-62.5 -25.5q-35 0 -60.5 25.5t-25.5 60.5zM1120 1516q0 37 25.5 62.5t60.5 25.5q37 0 62.5 -25.5 t25.5 -62.5q0 -35 -25.5 -60.5t-62.5 -25.5q-35 0 -60.5 25.5t-25.5 60.5z" />
<glyph unicode="&#xdd;" horiz-adv-x="1429" d="M279 10q0 12 11.5 14.5t59.5 4.5q22 0 39 2t46.5 13t53.5 31t51.5 60t49.5 96q7 15 45.5 136t81.5 309t43 303q0 73 -15.5 126.5t-34 78t-44.5 38.5t-37 15.5t-21 1.5q-86 0 -158 -68t-96 -141q-38 -128 -45 -135q-4 -4 -10 -4q-16 0 -16 18q0 36 15 86t47 107t75 105 t105 80t130 32q26 0 56 -9t65.5 -34.5t63.5 -64t46.5 -104.5t18.5 -149q0 -132 -18 -249l4 -4q128 236 163 294t91 121q88 103 181 156t181 53q62 0 101 -42.5t39 -90.5q0 -8 -3.5 -23.5t-12.5 -39t-32.5 -40t-56.5 -16.5q-38 0 -57.5 21.5t-57.5 93.5q-5 14 -19.5 28.5 t-37.5 14.5t-55.5 -18t-81 -62.5t-114.5 -141t-136 -231.5q-118 -226 -169.5 -389t-51.5 -239q0 -59 38.5 -92t102.5 -35q57 0 72.5 -3t15.5 -16q0 -18 -41 -18q-72 0 -198 6q-164 4 -195 4q-72 0 -125 -4q-25 -1 -68.5 -3.5t-52.5 -2.5q-32 0 -32 20zM889 1421 q0 13 105 130t151 157q47 41 90 41q19 0 39 -14.5t20 -38.5q0 -47 -55.5 -90t-257.5 -162q-55 -37 -76 -37q-7 0 -11.5 4.5t-4.5 9.5z" />
<glyph unicode="&#xde;" horiz-adv-x="1239" d="M51 23q0 12 8.5 14t51.5 4q82 3 136.5 73t98.5 251l135 546q31 150 31 203q0 42 -29.5 89t-89.5 54q-30 3 -39.5 7.5t-9.5 17.5q0 10 5.5 12t31.5 2h4.5h4.5h5q21 0 127 -4q110 -4 125 -4q23 0 129 4q53 2 123 2q39 0 49 -5t10 -19q0 -21 -28 -21q-54 0 -84 -7.5 t-56.5 -36.5t-44.5 -75.5t-43 -134.5q65 6 160 6q151 0 233.5 -20t141.5 -59q54 -35 89.5 -97.5t35.5 -140.5q0 -92 -48 -169t-120 -118q-178 -100 -473 -100q-89 0 -203 8q-20 -83 -20 -139q0 -31 11.5 -55.5t25 -37.5t33 -22t27.5 -11t17 -3q56 -8 66 -11t10 -16 q0 -10 -6.5 -15t-26.5 -5q-16 0 -129 12q-20 4 -73 4q-19 0 -115.5 -4t-112.5 -4q-57 0 -139 4q-35 7 -35 21zM530 346q78 -8 132 -8q130 0 203 18t128 54q72 47 116 125.5t44 156.5q0 107 -74 188t-200 81q-68 0 -195 -27z" />
<glyph unicode="&#xdf;" horiz-adv-x="937" d="M-401 -377q0 52 31.5 76.5t64.5 24.5q35 0 57.5 -21.5t22.5 -54.5q0 -14 -21 -60q-6 -12 -6 -26q0 -12 5 -25.5t24.5 -27t50.5 -13.5q48 0 87 21t77.5 75.5t72.5 128.5t75.5 201t81.5 271t95 358q79 307 128 444.5t126 233.5q50 64 118 103.5t142 39.5q71 0 124 -23 t80 -59.5t39.5 -73t12.5 -71.5q0 -36 -9.5 -69t-22.5 -57.5t-37.5 -49.5t-44 -41t-53.5 -35.5t-54.5 -30t-56.5 -28.5q-31 -14 -39 -20.5t-8 -14.5q0 -6 4.5 -8.5t24.5 -8.5q40 -12 69 -27.5t59.5 -45.5t47 -81.5t16.5 -121.5q0 -126 -58 -249t-155.5 -202.5t-202.5 -79.5 q-54 0 -97.5 33.5t-43.5 91.5q0 39 24 63.5t60 24.5q23 0 39 -10t22 -25t7.5 -23.5t1.5 -14.5l-11 -54q0 -20 12 -30.5t31 -10.5q37 0 78.5 39.5t75.5 104.5t56 156.5t22 185.5q0 91 -26.5 155t-94.5 101q-6 3 -38.5 11t-35.5 9q-14 4 -14 15q0 15 27 20q74 18 131 53 t90 74.5t54.5 85.5t28.5 82t7 68q0 57 -30 104t-93 47q-59 0 -107 -37t-89 -114.5t-74.5 -173.5t-71.5 -238q-152 -567 -211.5 -758t-120.5 -305q-21 -38 -53.5 -77.5t-78.5 -80.5t-108 -66.5t-126 -25.5q-97 0 -154 50.5t-57 117.5z" />
<glyph unicode="&#xe0;" horiz-adv-x="937" d="M150 166q0 73 34.5 167t93.5 184.5t129.5 168t150 125t147.5 47.5q8 0 15.5 -1t23.5 -7.5t27.5 -18.5t23 -37.5t14.5 -60.5h4q16 46 55 121l88 -16q-41 -97 -141 -418q-58 -184 -72 -238.5t-14 -85.5q0 -13 9 -23t22 -10q26 0 70.5 35t84.5 80q26 33 39 33q5 0 11 -6 t6 -10q0 -16 -48.5 -67t-123 -98.5t-131.5 -47.5q-58 0 -58 79q0 31 6 136l-4 4q-79 -110 -162.5 -159.5t-156.5 -49.5q-29 0 -52.5 9.5t-38 23.5t-25.5 34t-16 36t-7.5 34t-3 25t-0.5 12zM295 205q0 -10 0.5 -18t5 -31t13 -38.5t27 -28.5t44.5 -13q60 0 122.5 61t115.5 160 q51 93 82.5 196t31.5 179q0 53 -23.5 93t-64.5 40q-76 0 -161 -106.5t-139 -248t-54 -245.5zM592 1309q0 23 16 39t43 16q43 0 75.5 -40t76.5 -126q94 -208 94 -217q0 -6 -5 -12t-11 -6q-9 0 -17.5 6.5t-34.5 34.5q-162 173 -199.5 221t-37.5 84z" />
<glyph unicode="&#xe1;" horiz-adv-x="937" d="M150 166q0 73 34.5 167t93.5 184.5t129.5 168t150 125t147.5 47.5q8 0 15.5 -1t23.5 -7.5t27.5 -18.5t23 -37.5t14.5 -60.5h4q16 46 55 121l88 -16q-41 -97 -141 -418q-58 -184 -72 -238.5t-14 -85.5q0 -13 9 -23t22 -10q26 0 70.5 35t84.5 80q26 33 39 33q5 0 11 -6 t6 -10q0 -16 -48.5 -67t-123 -98.5t-131.5 -47.5q-58 0 -58 79q0 31 6 136l-4 4q-79 -110 -162.5 -159.5t-156.5 -49.5q-29 0 -52.5 9.5t-38 23.5t-25.5 34t-16 36t-7.5 34t-3 25t-0.5 12zM295 205q0 -10 0.5 -18t5 -31t13 -38.5t27 -28.5t44.5 -13q60 0 122.5 61t115.5 160 q51 93 82.5 196t31.5 179q0 53 -23.5 93t-64.5 40q-76 0 -161 -106.5t-139 -248t-54 -245.5zM561 977q0 13 105 130t151 157q47 41 90 41q18 0 39 -15t21 -39q0 -47 -55.5 -89.5t-258.5 -162.5q-54 -36 -75 -36q-7 0 -12 4.5t-5 9.5z" />
<glyph unicode="&#xe2;" horiz-adv-x="937" d="M150 166q0 73 34.5 167t93.5 184.5t129.5 168t150 125t147.5 47.5q8 0 15.5 -1t23.5 -7.5t27.5 -18.5t23 -37.5t14.5 -60.5h4q16 46 55 121l88 -16q-41 -97 -141 -418q-58 -184 -72 -238.5t-14 -85.5q0 -13 9 -23t22 -10q26 0 70.5 35t84.5 80q26 33 39 33q5 0 11 -6 t6 -10q0 -16 -48.5 -67t-123 -98.5t-131.5 -47.5q-58 0 -58 79q0 31 6 136l-4 4q-79 -110 -162.5 -159.5t-156.5 -49.5q-29 0 -52.5 9.5t-38 23.5t-25.5 34t-16 36t-7.5 34t-3 25t-0.5 12zM295 205q0 -10 0.5 -18t5 -31t13 -38.5t27 -28.5t44.5 -13q60 0 122.5 61t115.5 160 q51 93 82.5 196t31.5 179q0 53 -23.5 93t-64.5 40q-76 0 -161 -106.5t-139 -248t-54 -245.5zM446 981q0 13 283 365h111q82 -248 112 -328q11 -34 11 -35q0 -8 -7.5 -15t-11.5 -7q-22 0 -51 55q-43 68 -129 176q-167 -119 -250 -195q-30 -30 -49 -30t-19 14z" />
<glyph unicode="&#xe3;" horiz-adv-x="937" d="M150 166q0 73 34.5 167t93.5 184.5t129.5 168t150 125t147.5 47.5q8 0 15.5 -1t23.5 -7.5t27.5 -18.5t23 -37.5t14.5 -60.5h4q16 46 55 121l88 -16q-41 -97 -141 -418q-58 -184 -72 -238.5t-14 -85.5q0 -13 9 -23t22 -10q26 0 70.5 35t84.5 80q26 33 39 33q5 0 11 -6 t6 -10q0 -16 -48.5 -67t-123 -98.5t-131.5 -47.5q-58 0 -58 79q0 31 6 136l-4 4q-79 -110 -162.5 -159.5t-156.5 -49.5q-29 0 -52.5 9.5t-38 23.5t-25.5 34t-16 36t-7.5 34t-3 25t-0.5 12zM295 205q0 -10 0.5 -18t5 -31t13 -38.5t27 -28.5t44.5 -13q60 0 122.5 61t115.5 160 q51 93 82.5 196t31.5 179q0 53 -23.5 93t-64.5 40q-76 0 -161 -106.5t-139 -248t-54 -245.5zM426 997q0 21 47 97q54 88 135 88q27 0 49 -8.5t58 -32.5q63 -43 110 -43q26 0 53 17.5t42 39.5q14 18 20 22.5t14 4.5q7 0 13 -6.5t6 -14.5q0 -7 -11.5 -34t-32.5 -62t-60 -61.5 t-85 -26.5q-28 0 -48 8t-72 39q-56 37 -101 37q-55 0 -82 -45q-14 -27 -19.5 -33t-15.5 -6t-15 6.5t-5 13.5z" />
<glyph unicode="&#xe4;" horiz-adv-x="937" d="M150 166q0 73 34.5 167t93.5 184.5t129.5 168t150 125t147.5 47.5q8 0 15.5 -1t23.5 -7.5t27.5 -18.5t23 -37.5t14.5 -60.5h4q16 46 55 121l88 -16q-41 -97 -141 -418q-58 -184 -72 -238.5t-14 -85.5q0 -13 9 -23t22 -10q26 0 70.5 35t84.5 80q26 33 39 33q5 0 11 -6 t6 -10q0 -16 -48.5 -67t-123 -98.5t-131.5 -47.5q-58 0 -58 79q0 31 6 136l-4 4q-79 -110 -162.5 -159.5t-156.5 -49.5q-29 0 -52.5 9.5t-38 23.5t-25.5 34t-16 36t-7.5 34t-3 25t-0.5 12zM295 205q0 -10 0.5 -18t5 -31t13 -38.5t27 -28.5t44.5 -13q60 0 122.5 61t115.5 160 q51 93 82.5 196t31.5 179q0 53 -23.5 93t-64.5 40q-76 0 -161 -106.5t-139 -248t-54 -245.5zM451 1071q0 37 25.5 62.5t60.5 25.5q37 0 62.5 -25.5t25.5 -62.5q0 -35 -25.5 -60.5t-62.5 -25.5q-35 0 -60.5 25.5t-25.5 60.5zM803 1071q0 37 25.5 62.5t60.5 25.5 q37 0 62.5 -25.5t25.5 -62.5q0 -35 -25.5 -60.5t-62.5 -25.5q-35 0 -60.5 25.5t-25.5 60.5z" />
<glyph unicode="&#xe5;" horiz-adv-x="937" d="M150 166q0 73 34.5 167t93.5 184.5t129.5 168t150 125t147.5 47.5q8 0 15.5 -1t23.5 -7.5t27.5 -18.5t23 -37.5t14.5 -60.5h4q16 46 55 121l88 -16q-41 -97 -141 -418q-58 -184 -72 -238.5t-14 -85.5q0 -13 9 -23t22 -10q26 0 70.5 35t84.5 80q26 33 39 33q5 0 11 -6 t6 -10q0 -16 -48.5 -67t-123 -98.5t-131.5 -47.5q-58 0 -58 79q0 31 6 136l-4 4q-79 -110 -162.5 -159.5t-156.5 -49.5q-29 0 -52.5 9.5t-38 23.5t-25.5 34t-16 36t-7.5 34t-3 25t-0.5 12zM295 205q0 -10 0.5 -18t5 -31t13 -38.5t27 -28.5t44.5 -13q60 0 122.5 61t115.5 160 q51 93 82.5 196t31.5 179q0 53 -23.5 93t-64.5 40q-76 0 -161 -106.5t-139 -248t-54 -245.5zM584 1126q0 64 45 109t108 45t108.5 -45.5t45.5 -108.5t-45 -108t-109 -45q-63 0 -108 45t-45 108zM647 1126q0 -37 26 -63.5t64 -26.5q37 0 63.5 26.5t26.5 63.5q0 39 -27 65 t-63 26q-38 0 -64 -26.5t-26 -64.5z" />
<glyph unicode="&#xe6;" horiz-adv-x="1193" d="M154 121q0 86 46 185t133.5 194.5t202 173.5t265.5 126t309 48q107 0 152 -45q32 -34 32 -72q0 -65 -74.5 -136t-188.5 -125t-236 -81q-18 -91 -22.5 -119t-4.5 -69q0 -22 3.5 -44t12.5 -48t30 -42t50 -16q42 0 120.5 59t125.5 113q33 41 45 41q5 0 10.5 -6t5.5 -12 q0 -14 -36.5 -55.5t-89.5 -87.5t-122.5 -81.5t-125.5 -35.5q-40 0 -82 19.5t-68 66.5q-24 43 -20 147l-4 4q-20 -28 -52.5 -63.5t-78.5 -77t-102 -69t-105 -27.5q-52 0 -91.5 31.5t-39.5 103.5zM295 182q0 -49 25 -78.5t55 -29.5q55 0 133 82q123 129 131 139 q21 93 65.5 181t95 150t93.5 102.5t76 62.5l-4 4q-113 -13 -244 -71t-219 -146q-96 -99 -151.5 -211t-55.5 -185zM805 430q200 59 260 119q44 44 67 96.5t23 93.5q0 24 -6.5 39t-19.5 20.5t-21.5 7t-22.5 1.5q-41 0 -73 -22t-70 -78q-12 -17 -23.5 -34.5t-22 -36.5 t-18.5 -34t-17 -35t-14 -31t-13 -31.5t-11 -27t-10 -26t-8 -21.5z" />
<glyph unicode="&#xe7;" horiz-adv-x="681" d="M127 178q0 84 33 180.5t89 182.5t124 156.5t146 112.5t147 42q59 0 95 -39.5t36 -81.5q0 -37 -20 -57.5t-44 -20.5q-17 0 -29 6.5t-19.5 19.5t-11.5 24t-9 30q-8 36 -19 51t-35 15q-55 0 -115 -61.5t-106 -152t-76 -197.5t-30 -195q0 -24 4 -48t14 -52.5t33 -46t57 -17.5 q61 0 130.5 58.5t115.5 125.5q22 37 39 37q6 0 11 -6.5t5 -12.5q0 -20 -40.5 -70t-63.5 -73q-79 -79 -180 -104q-20 -24 -35 -39q71 -32 71 -97q0 -78 -79.5 -139t-169.5 -61q-21 0 -21 18q0 11 6.5 15t32.5 8q39 8 64 20t35.5 27t14 27t3.5 28q0 24 -12 40t-25 22t-35 12 l92 110q-110 -4 -166.5 54t-56.5 149z" />
<glyph unicode="&#xe8;" horiz-adv-x="704" d="M137 203q0 198 197 452q157 203 315 203q59 0 97 -42t38 -89q0 -71 -54 -140t-132 -118q-88 -56 -283 -117q-32 -144 -32 -209q0 -37 23.5 -73.5t68.5 -36.5q62 0 128.5 50t110.5 120q24 35 43 35q8 0 13.5 -6.5t5.5 -12.5q0 -20 -28.5 -59t-73 -79.5t-110 -70.5 t-128.5 -30q-50 0 -89.5 21t-62.5 54.5t-35 71.5t-12 76zM332 397q79 35 143 78.5t102 83.5t63 80t34.5 69t9.5 50q0 19 -13.5 39t-39.5 20q-41 0 -94 -39t-97 -108q-53 -85 -108 -273zM455 1309q0 23 16 39t43 16q43 0 75.5 -40t76.5 -126q94 -208 94 -217q0 -6 -5.5 -12 t-11.5 -6q-9 0 -16.5 6t-34.5 35q-162 173 -199.5 221t-37.5 84z" />
<glyph unicode="&#xe9;" horiz-adv-x="704" d="M137 203q0 198 197 452q157 203 315 203q59 0 97 -42t38 -89q0 -71 -54 -140t-132 -118q-88 -56 -283 -117q-32 -144 -32 -209q0 -37 23.5 -73.5t68.5 -36.5q62 0 128.5 50t110.5 120q24 35 43 35q8 0 13.5 -6.5t5.5 -12.5q0 -20 -28.5 -59t-73 -79.5t-110 -70.5 t-128.5 -30q-50 0 -89.5 21t-62.5 54.5t-35 71.5t-12 76zM332 397q79 35 143 78.5t102 83.5t63 80t34.5 69t9.5 50q0 19 -13.5 39t-39.5 20q-41 0 -94 -39t-97 -108q-53 -85 -108 -273zM444 977q0 13 105 130t151 157q47 41 91 41q18 0 38.5 -15t20.5 -39q0 -47 -55.5 -90 t-257.5 -162q-54 -36 -76 -36q-7 0 -12 4.5t-5 9.5z" />
<glyph unicode="&#xea;" horiz-adv-x="704" d="M137 203q0 198 197 452q157 203 315 203q59 0 97 -42t38 -89q0 -71 -54 -140t-132 -118q-88 -56 -283 -117q-32 -144 -32 -209q0 -37 23.5 -73.5t68.5 -36.5q62 0 128.5 50t110.5 120q24 35 43 35q8 0 13.5 -6.5t5.5 -12.5q0 -20 -28.5 -59t-73 -79.5t-110 -70.5 t-128.5 -30q-50 0 -89.5 21t-62.5 54.5t-35 71.5t-12 76zM330 981q0 15 282 365h111q74 -223 113 -328q10 -31 10 -35q0 -8 -7.5 -15t-11.5 -7q-22 0 -51 55q-43 68 -129 176q-167 -119 -250 -195q-30 -30 -49 -30q-18 0 -18 14zM332 397q79 35 143 78.5t102 83.5t63 80 t34.5 69t9.5 50q0 19 -13.5 39t-39.5 20q-41 0 -94 -39t-97 -108q-53 -85 -108 -273z" />
<glyph unicode="&#xeb;" horiz-adv-x="704" d="M137 203q0 198 197 452q157 203 315 203q59 0 97 -42t38 -89q0 -71 -54 -140t-132 -118q-88 -56 -283 -117q-32 -144 -32 -209q0 -37 23.5 -73.5t68.5 -36.5q62 0 128.5 50t110.5 120q24 35 43 35q8 0 13.5 -6.5t5.5 -12.5q0 -20 -28.5 -59t-73 -79.5t-110 -70.5 t-128.5 -30q-50 0 -89.5 21t-62.5 54.5t-35 71.5t-12 76zM332 397q79 35 143 78.5t102 83.5t63 80t34.5 69t9.5 50q0 19 -13.5 39t-39.5 20q-41 0 -94 -39t-97 -108q-53 -85 -108 -273zM334 1071q0 37 25.5 62.5t60.5 25.5q37 0 62.5 -25.5t25.5 -62.5q0 -35 -25.5 -60.5 t-62.5 -25.5q-35 0 -60.5 25.5t-25.5 60.5zM686 1071q0 37 25.5 62.5t60.5 25.5q37 0 62.5 -25.5t25.5 -62.5q0 -35 -25.5 -60.5t-62.5 -25.5q-35 0 -60.5 25.5t-25.5 60.5z" />
<glyph unicode="&#xec;" horiz-adv-x="575" d="M188 51q0 43 126 353t126 348q0 34 -26 34t-95 -51q-4 -3 -26 -23.5t-42 -36.5t-28 -16q-4 0 -9 5t-5 12q0 12 45 56t117.5 87t130.5 43q35 0 59.5 -26t24.5 -54q0 -42 -54 -172q-2 -6 -4 -10.5t-4 -9.5q-173 -416 -198 -490q-1 -2 -4 -11.5t-5 -17.5t-2 -12q0 -14 9 -24 t20 -10q66 0 191 125q22 22 36 22q17 0 17 -16q0 -19 -49 -64q-129 -117 -238 -117q-61 0 -87 24.5t-26 51.5zM389 1309q0 23 16.5 39t43.5 16q43 0 75 -39.5t76 -126.5q94 -208 94 -217q0 -6 -5 -12t-11 -6q-9 0 -16.5 6t-34.5 35q-164 174 -201 222t-37 83z" />
<glyph unicode="&#xed;" horiz-adv-x="575" d="M188 51q0 43 126 353t126 348q0 34 -26 34t-95 -51q-4 -3 -26 -23.5t-42 -36.5t-28 -16q-4 0 -9 5t-5 12q0 12 45 56t117.5 87t130.5 43q35 0 59.5 -26t24.5 -54q0 -42 -54 -172q-2 -6 -4 -10.5t-4 -9.5q-173 -416 -198 -490q-1 -2 -4 -11.5t-5 -17.5t-2 -12q0 -14 9 -24 t20 -10q66 0 191 125q22 22 36 22q17 0 17 -16q0 -19 -49 -64q-129 -117 -238 -117q-61 0 -87 24.5t-26 51.5zM379 977q0 13 105 130t151 157q47 41 90 41q18 0 38.5 -15t20.5 -39q0 -47 -55.5 -90t-257.5 -162q-54 -36 -76 -36q-7 0 -11.5 4.5t-4.5 9.5z" />
<glyph unicode="&#xee;" horiz-adv-x="575" d="M188 51q0 43 126 353t126 348q0 34 -26 34t-95 -51q-4 -3 -26 -23.5t-42 -36.5t-28 -16q-4 0 -9 5t-5 12q0 12 45 56t117.5 87t130.5 43q35 0 59.5 -26t24.5 -54q0 -42 -54 -172q-2 -6 -4 -10.5t-4 -9.5q-173 -416 -198 -490q-1 -2 -4 -11.5t-5 -17.5t-2 -12q0 -14 9 -24 t20 -10q66 0 191 125q22 22 36 22q17 0 17 -16q0 -19 -49 -64q-129 -117 -238 -117q-61 0 -87 24.5t-26 51.5zM244 981q0 15 282 365h111q74 -223 113 -328q10 -31 10 -35q0 -8 -7.5 -15t-11.5 -7q-22 0 -51 55q-43 68 -129 176q-167 -119 -250 -195q-30 -30 -49 -30 q-18 0 -18 14z" />
<glyph unicode="&#xef;" horiz-adv-x="575" d="M188 51q0 43 126 353t126 348q0 34 -26 34t-95 -51q-4 -3 -26 -23.5t-42 -36.5t-28 -16q-4 0 -9 5t-5 12q0 12 45 56t117.5 87t130.5 43q35 0 59.5 -26t24.5 -54q0 -42 -54 -172q-2 -6 -4 -10.5t-4 -9.5q-173 -416 -198 -490q-1 -2 -4 -11.5t-5 -17.5t-2 -12q0 -14 9 -24 t20 -10q66 0 191 125q22 22 36 22q17 0 17 -16q0 -19 -49 -64q-129 -117 -238 -117q-61 0 -87 24.5t-26 51.5zM268 1071q0 37 25.5 62.5t60.5 25.5q37 0 62.5 -25.5t25.5 -62.5q0 -35 -25.5 -60.5t-62.5 -25.5q-35 0 -60.5 25.5t-25.5 60.5zM621 1071q0 37 25.5 62.5 t60.5 25.5q37 0 62.5 -25.5t25.5 -62.5q0 -35 -25.5 -60.5t-62.5 -25.5q-35 0 -60.5 25.5t-25.5 60.5z" />
<glyph unicode="&#xf0;" horiz-adv-x="854" d="M156 309q0 121 65 247.5t168.5 210t206.5 83.5q69 0 135 -53q-19 102 -50 175t-99 173l-166 -121l-33 47l162 115q-23 30 -71 76.5t-81 72.5h94q19 -14 111 -106l147 106l35 -47l-143 -102q248 -286 248 -637q0 -144 -53.5 -266.5t-124.5 -182.5q-154 -127 -299 -127 q-79 0 -138 51.5t-86.5 126.5t-27.5 158zM301 217q0 -22 3.5 -47.5t14 -65t38.5 -65t69 -25.5q61 0 120 60t105 157q43 89 68.5 190t25.5 179q0 30 -7 62t-22 64.5t-44 53.5t-68 21q-74 0 -147 -104.5t-114.5 -240t-41.5 -239.5z" />
<glyph unicode="&#xf1;" horiz-adv-x="980" d="M156 618q0 22 96 125q106 115 221 115q33 0 48.5 -24t15.5 -48q0 -60 -43 -254q-1 -4 -2.5 -11t-3 -12t-1.5 -7h5q24 45 57.5 96t84 114t110 103.5t114.5 40.5q37 0 60.5 -22t30.5 -45.5t7 -45.5q0 -63 -20 -131t-111 -319q-57 -155 -57 -203q0 -14 9 -23.5t20 -9.5 q30 0 82.5 46.5t76.5 84.5q27 45 45 45q17 0 17 -20q0 -16 -27 -54.5t-68 -80t-97.5 -73.5t-106.5 -32q-25 0 -43.5 7.5t-27.5 17t-14 22t-6 19.5t-1 12q0 74 88 309q94 255 105 303q9 38 9 74q0 45 -32 45q-17 0 -46.5 -19t-71 -60t-96 -122t-110.5 -188 q-63 -123 -172 -368q-14 -32 -19 -40t-12 -8q-98 0 -98 25q0 5 59.5 171t119 348.5t59.5 228.5q0 12 -9 20t-20 8q-26 0 -81 -48.5t-89 -92.5q-26 -35 -41 -35q-14 0 -14 16zM426 997q0 21 47 97q54 88 135 88q27 0 49 -8.5t58 -32.5q63 -43 110 -43q26 0 53 17.5t42 39.5 q14 18 20 22.5t14 4.5q7 0 13 -6.5t6 -14.5q0 -7 -11.5 -34t-32.5 -62t-60 -61.5t-85 -26.5q-28 0 -48 8t-72 39q-56 37 -101 37q-55 0 -82 -45q-14 -27 -19.5 -33t-15.5 -6t-15 6.5t-5 13.5z" />
<glyph unicode="&#xf2;" horiz-adv-x="854" d="M154 297q0 138 65 267.5t167.5 208.5t209.5 79q59 0 108 -21.5t81 -56.5t54.5 -80.5t32 -91.5t9.5 -92q0 -71 -21.5 -146t-62.5 -144t-96 -123.5t-129 -87t-154 -32.5q-54 0 -97 17.5t-70 43t-47 61.5t-29 66t-14.5 63t-6 46.5t-0.5 22.5zM293 195q0 -72 33.5 -124.5 t89.5 -52.5q78 0 157.5 99.5t128 241t48.5 264.5q0 13 -1 25t-4 37t-12 44.5t-23 39.5t-38 31t-56 11q-61 0 -122 -64t-104 -157.5t-70 -200.5t-27 -194zM528 1309q0 23 16.5 39t43.5 16q43 0 75 -39.5t76 -126.5q95 -210 95 -217q0 -6 -5.5 -12t-11.5 -6q-9 0 -16.5 6 t-34.5 35q-164 174 -201 222t-37 83z" />
<glyph unicode="&#xf3;" horiz-adv-x="854" d="M154 297q0 138 65 267.5t167.5 208.5t209.5 79q59 0 108 -21.5t81 -56.5t54.5 -80.5t32 -91.5t9.5 -92q0 -71 -21.5 -146t-62.5 -144t-96 -123.5t-129 -87t-154 -32.5q-54 0 -97 17.5t-70 43t-47 61.5t-29 66t-14.5 63t-6 46.5t-0.5 22.5zM293 195q0 -72 33.5 -124.5 t89.5 -52.5q78 0 157.5 99.5t128 241t48.5 264.5q0 13 -1 25t-4 37t-12 44.5t-23 39.5t-38 31t-56 11q-61 0 -122 -64t-104 -157.5t-70 -200.5t-27 -194zM518 977q0 13 105 130t151 157q47 41 90 41q18 0 39 -15t21 -39q0 -47 -55.5 -89.5t-258.5 -162.5q-54 -36 -75 -36 q-7 0 -12 4.5t-5 9.5z" />
<glyph unicode="&#xf4;" horiz-adv-x="854" d="M154 297q0 138 65 267.5t167.5 208.5t209.5 79q59 0 108 -21.5t81 -56.5t54.5 -80.5t32 -91.5t9.5 -92q0 -71 -21.5 -146t-62.5 -144t-96 -123.5t-129 -87t-154 -32.5q-54 0 -97 17.5t-70 43t-47 61.5t-29 66t-14.5 63t-6 46.5t-0.5 22.5zM293 195q0 -72 33.5 -124.5 t89.5 -52.5q78 0 157.5 99.5t128 241t48.5 264.5q0 13 -1 25t-4 37t-12 44.5t-23 39.5t-38 31t-56 11q-61 0 -122 -64t-104 -157.5t-70 -200.5t-27 -194zM403 981q0 13 283 365h111q82 -248 112 -328q11 -34 11 -35q0 -8 -7.5 -15t-11.5 -7q-22 0 -51 55q-43 68 -129 176 q-167 -119 -250 -195q-30 -30 -49 -30t-19 14z" />
<glyph unicode="&#xf5;" horiz-adv-x="854" d="M154 297q0 138 65 267.5t167.5 208.5t209.5 79q59 0 108 -21.5t81 -56.5t54.5 -80.5t32 -91.5t9.5 -92q0 -71 -21.5 -146t-62.5 -144t-96 -123.5t-129 -87t-154 -32.5q-54 0 -97 17.5t-70 43t-47 61.5t-29 66t-14.5 63t-6 46.5t-0.5 22.5zM293 195q0 -72 33.5 -124.5 t89.5 -52.5q78 0 157.5 99.5t128 241t48.5 264.5q0 13 -1 25t-4 37t-12 44.5t-23 39.5t-38 31t-56 11q-61 0 -122 -64t-104 -157.5t-70 -200.5t-27 -194zM362 997q0 19 48 97q54 88 135 88q27 0 48.5 -8.5t57.5 -32.5q63 -43 111 -43q26 0 52.5 17.5t41.5 39.5 q14 18 20.5 22.5t14.5 4.5q7 0 12.5 -6.5t5.5 -14.5t-11.5 -34.5t-32 -61.5t-59.5 -61.5t-85 -26.5q-28 0 -48.5 8.5t-72.5 38.5q-56 37 -100 37q-55 0 -82 -45q-14 -27 -19.5 -33t-15.5 -6t-15.5 6.5t-5.5 13.5z" />
<glyph unicode="&#xf6;" horiz-adv-x="854" d="M154 297q0 138 65 267.5t167.5 208.5t209.5 79q59 0 108 -21.5t81 -56.5t54.5 -80.5t32 -91.5t9.5 -92q0 -71 -21.5 -146t-62.5 -144t-96 -123.5t-129 -87t-154 -32.5q-54 0 -97 17.5t-70 43t-47 61.5t-29 66t-14.5 63t-6 46.5t-0.5 22.5zM293 195q0 -72 33.5 -124.5 t89.5 -52.5q78 0 157.5 99.5t128 241t48.5 264.5q0 13 -1 25t-4 37t-12 44.5t-23 39.5t-38 31t-56 11q-61 0 -122 -64t-104 -157.5t-70 -200.5t-27 -194zM387 1071q0 37 25.5 62.5t60.5 25.5q37 0 62.5 -25.5t25.5 -62.5q0 -35 -25.5 -60.5t-62.5 -25.5q-35 0 -60.5 25.5 t-25.5 60.5zM739 1071q0 37 25.5 62.5t60.5 25.5q37 0 62.5 -25.5t25.5 -62.5q0 -35 -25.5 -60.5t-62.5 -25.5q-35 0 -60.5 25.5t-25.5 60.5z" />
<glyph unicode="&#xf7;" horiz-adv-x="1366" d="M289 551v88h1075v-88h-1075zM762 182q0 26 18 44t43 18q26 0 44 -18t18 -44t-18 -43.5t-44 -17.5q-25 0 -43 17.5t-18 43.5zM762 1014q0 25 18 40t43 15q26 0 44 -17.5t18 -43.5q0 -25 -17 -43.5t-43 -18.5q-27 0 -45 20.5t-18 47.5z" />
<glyph unicode="&#xf8;" horiz-adv-x="854" d="M139 6l72 84q-57 90 -57 205q0 135 62 264t168 211t222 82q102 0 180 -78l72 84l33 -24l-78 -93q68 -99 68 -225q0 -94 -35 -190.5t-94.5 -173.5t-147.5 -126t-186 -49q-121 0 -182 78l-64 -75zM293 188l444 525q-7 20 -11 29t-17.5 29t-35.5 30t-52 10q-65 0 -128 -66.5 t-105.5 -163.5t-69 -204t-25.5 -189zM301 131q12 -53 44 -83t71 -30q65 0 132 71t113 171t71.5 211.5t15.5 190.5z" />
<glyph unicode="&#xf9;" horiz-adv-x="960" d="M160 602q0 20 46.5 78t117 112t122.5 54q37 0 66 -30.5t29 -70.5q0 -33 -12 -72t-54 -145q-135 -333 -135 -419q0 -17 11.5 -34.5t27.5 -17.5q26 0 63 30t75.5 77.5t66 86t51.5 75.5q48 72 78 133.5t176 382.5q24 4 39 4q31 0 71 -4q-7 -21 -75 -207t-117 -338.5 t-49 -202.5q0 -11 8 -18.5t16 -7.5q31 0 83 52.5t83 100.5q26 37 41 37t15 -16q0 -23 -47.5 -84.5t-120.5 -118.5t-129 -57q-36 0 -53 31t-17 67q0 99 43 235l-4 4q-36 -55 -62 -92.5t-67 -87.5t-76 -80.5t-78 -52.5t-84 -22q-38 0 -67 32t-29 76q0 57 14.5 117t63.5 190 q37 98 59 161t29 85.5t12 34.5q19 48 19 74q0 9 -7.5 15.5t-15.5 6.5q-24 0 -71 -45t-85 -90q-30 -36 -39 -44.5t-18 -8.5q-4 0 -9 5t-5 9zM582 1309q0 23 16 39t43 16q43 0 75.5 -40t76.5 -126q94 -208 94 -217q0 -6 -5.5 -12t-11.5 -6q-9 0 -16.5 6t-34.5 35 q-162 173 -199.5 221t-37.5 84z" />
<glyph unicode="&#xfa;" horiz-adv-x="960" d="M160 602q0 20 46.5 78t117 112t122.5 54q37 0 66 -30.5t29 -70.5q0 -33 -12 -72t-54 -145q-135 -333 -135 -419q0 -17 11.5 -34.5t27.5 -17.5q26 0 63 30t75.5 77.5t66 86t51.5 75.5q48 72 78 133.5t176 382.5q24 4 39 4q31 0 71 -4q-7 -21 -75 -207t-117 -338.5 t-49 -202.5q0 -11 8 -18.5t16 -7.5q31 0 83 52.5t83 100.5q26 37 41 37t15 -16q0 -23 -47.5 -84.5t-120.5 -118.5t-129 -57q-36 0 -53 31t-17 67q0 99 43 235l-4 4q-36 -55 -62 -92.5t-67 -87.5t-76 -80.5t-78 -52.5t-84 -22q-38 0 -67 32t-29 76q0 57 14.5 117t63.5 190 q37 98 59 161t29 85.5t12 34.5q19 48 19 74q0 9 -7.5 15.5t-15.5 6.5q-24 0 -71 -45t-85 -90q-30 -36 -39 -44.5t-18 -8.5q-4 0 -9 5t-5 9zM571 977q0 13 105 130t151 157q47 41 91 41q18 0 38.5 -15t20.5 -39q0 -47 -55.5 -90t-257.5 -162q-54 -36 -76 -36q-7 0 -12 4.5 t-5 9.5z" />
<glyph unicode="&#xfb;" horiz-adv-x="960" d="M160 602q0 20 46.5 78t117 112t122.5 54q37 0 66 -30.5t29 -70.5q0 -33 -12 -72t-54 -145q-135 -333 -135 -419q0 -17 11.5 -34.5t27.5 -17.5q26 0 63 30t75.5 77.5t66 86t51.5 75.5q48 72 78 133.5t176 382.5q24 4 39 4q31 0 71 -4q-7 -21 -75 -207t-117 -338.5 t-49 -202.5q0 -11 8 -18.5t16 -7.5q31 0 83 52.5t83 100.5q26 37 41 37t15 -16q0 -23 -47.5 -84.5t-120.5 -118.5t-129 -57q-36 0 -53 31t-17 67q0 99 43 235l-4 4q-36 -55 -62 -92.5t-67 -87.5t-76 -80.5t-78 -52.5t-84 -22q-38 0 -67 32t-29 76q0 57 14.5 117t63.5 190 q37 98 59 161t29 85.5t12 34.5q19 48 19 74q0 9 -7.5 15.5t-15.5 6.5q-24 0 -71 -45t-85 -90q-30 -36 -39 -44.5t-18 -8.5q-4 0 -9 5t-5 9zM436 981q0 13 283 365h110q74 -223 113 -328q10 -31 10 -35q0 -8 -7 -15t-11 -7q-22 0 -51 55q-43 68 -129 176q-167 -119 -250 -195 q-30 -30 -49 -30t-19 14z" />
<glyph unicode="&#xfc;" horiz-adv-x="960" d="M160 602q0 20 46.5 78t117 112t122.5 54q37 0 66 -30.5t29 -70.5q0 -33 -12 -72t-54 -145q-135 -333 -135 -419q0 -17 11.5 -34.5t27.5 -17.5q26 0 63 30t75.5 77.5t66 86t51.5 75.5q48 72 78 133.5t176 382.5q24 4 39 4q31 0 71 -4q-7 -21 -75 -207t-117 -338.5 t-49 -202.5q0 -11 8 -18.5t16 -7.5q31 0 83 52.5t83 100.5q26 37 41 37t15 -16q0 -23 -47.5 -84.5t-120.5 -118.5t-129 -57q-36 0 -53 31t-17 67q0 99 43 235l-4 4q-36 -55 -62 -92.5t-67 -87.5t-76 -80.5t-78 -52.5t-84 -22q-38 0 -67 32t-29 76q0 57 14.5 117t63.5 190 q37 98 59 161t29 85.5t12 34.5q19 48 19 74q0 9 -7.5 15.5t-15.5 6.5q-24 0 -71 -45t-85 -90q-30 -36 -39 -44.5t-18 -8.5q-4 0 -9 5t-5 9zM440 1071q0 37 25.5 62.5t60.5 25.5q37 0 62.5 -25.5t25.5 -62.5q0 -35 -25.5 -60.5t-62.5 -25.5q-35 0 -60.5 25.5t-25.5 60.5z M793 1071q0 37 25.5 62.5t60.5 25.5q37 0 62.5 -25.5t25.5 -62.5q0 -35 -25.5 -60.5t-62.5 -25.5q-35 0 -60.5 25.5t-25.5 60.5z" />
<glyph unicode="&#xfd;" horiz-adv-x="768" d="M-158 -416q0 37 21 67t59 30q19 0 33 -7.5t20.5 -14.5t10.5 -24t4.5 -21.5t1.5 -21.5q0 -53 41 -53q18 0 44.5 14.5t41 26t20.5 17.5q79 68 142 145t153 205q-45 417 -94 690q-11 58 -24 88.5t-35 30.5q-48 0 -117 -154q-16 -36 -26.5 -51.5t-24.5 -15.5q-7 0 -12 5.5 t-5 10.5q0 18 82 176q77 133 162 133q50 0 78 -57.5t49 -188.5q4 -24 20.5 -140t32 -220t21.5 -135q21 30 63.5 107.5t90.5 200t48 198.5q0 49 -16 108q-8 36 -8 47q0 39 19 57.5t42 18.5q27 0 43.5 -24.5t16.5 -53.5q0 -111 -92.5 -344.5t-255.5 -484.5q-32 -48 -68 -98 t-96.5 -123.5t-117 -128t-122 -94.5t-117.5 -40q-56 0 -92.5 32t-36.5 87zM475 977q0 13 105 130t151 157q47 41 90 41q18 0 39 -15t21 -39q0 -47 -55.5 -89.5t-258.5 -162.5q-54 -36 -75 -36q-7 0 -12 4.5t-5 9.5z" />
<glyph unicode="&#xfe;" horiz-adv-x="897" d="M-158 -524q0 9 6 11t37 7q34 5 44 7t31.5 8.5t30.5 15t21.5 25t24.5 40.5q13 27 31.5 75t31 83t13.5 41l309 954q-85 -45 -160.5 -113t-103.5 -104q-26 -32 -39 -32q-5 0 -10 4t-5 10t16.5 29t48.5 58t71 71.5t92 73t104 59.5l109 358q24 78 24 109q0 36 -84 47 q-48 6 -59.5 10t-11.5 16q0 19 24 19q44 0 74 -6q104 -6 227 -6q-28 -70 -53.5 -146t-43.5 -133.5t-69 -224.5q28 4 31 4q6 2 23 2q139 0 220 -75t81 -234q0 -64 -16 -121.5t-40.5 -102t-65 -85t-77.5 -69t-90 -55.5t-91 -43.5t-93 -33.5t-82.5 -24.5t-71.5 -18.5 q-22 -49 -72.5 -209.5t-50.5 -200.5q0 -36 33 -60t72 -26q42 -3 47 -10q2 -3 2 -8q0 -12 -10 -14.5t-52 -2.5q-14 0 -88 4q-78 4 -90 4q-4 0 -45 -1t-70 -1t-69.5 -2t-44.5 -2q-21 0 -21 19zM319 49q134 2 243 70.5t167.5 177.5t58.5 233q0 65 -18.5 122.5t-62 98 t-103.5 40.5q-17 0 -45 -7z" />
<glyph unicode="&#xff;" horiz-adv-x="768" d="M-158 -416q0 37 21 67t59 30q19 0 33 -7.5t20.5 -14.5t10.5 -24t4.5 -21.5t1.5 -21.5q0 -53 41 -53q18 0 44.5 14.5t41 26t20.5 17.5q79 68 142 145t153 205q-45 417 -94 690q-11 58 -24 88.5t-35 30.5q-48 0 -117 -154q-16 -36 -26.5 -51.5t-24.5 -15.5q-7 0 -12 5.5 t-5 10.5q0 18 82 176q77 133 162 133q50 0 78 -57.5t49 -188.5q4 -24 20.5 -140t32 -220t21.5 -135q21 30 63.5 107.5t90.5 200t48 198.5q0 49 -16 108q-8 36 -8 47q0 39 19 57.5t42 18.5q27 0 43.5 -24.5t16.5 -53.5q0 -111 -92.5 -344.5t-255.5 -484.5q-32 -48 -68 -98 t-96.5 -123.5t-117 -128t-122 -94.5t-117.5 -40q-56 0 -92.5 32t-36.5 87zM344 1071q0 37 25.5 62.5t60.5 25.5q37 0 62.5 -25.5t25.5 -62.5q0 -35 -25.5 -60.5t-62.5 -25.5q-35 0 -60.5 25.5t-25.5 60.5zM696 1071q0 37 25.5 62.5t60.5 25.5q37 0 62.5 -25.5t25.5 -62.5 q0 -35 -25.5 -60.5t-62.5 -25.5q-35 0 -60.5 25.5t-25.5 60.5z" />
<glyph unicode="&#x152;" horiz-adv-x="2177" d="M223 393q0 122 40.5 247.5t117 236.5t177 199t229.5 139.5t266 52.5q225 2 651 20q317 13 436 8q7 -22 32.5 -159.5t25.5 -145.5q0 -7 -5 -13.5t-12 -6.5t-12.5 6.5t-16.5 26.5q-33 60 -53 92t-48 66.5t-55 50t-64.5 26t-86.5 10.5q-129 0 -268 -18q-8 -30 -49 -162 q-38 -123 -51.5 -175.5t-44.5 -191.5l-5 -18q50 -4 93 -4q72 0 124.5 14.5t87 44t55.5 61.5t42 81q22 55 33 55q8 0 14 -7.5t6 -15.5q0 -1 -13.5 -49t-29 -104t-18.5 -72t-36 -178t-40 -193q-9 -30 -21 -30q-9 0 -14.5 7.5t-5.5 14.5q0 8 6 53t6 52q0 46 -8 82.5t-19.5 59 t-31.5 39t-35 24t-39.5 11.5t-36 4.5t-33.5 0.5q-52 0 -102 -4q-13 -44 -53.5 -216.5t-40.5 -209.5q0 -38 13 -66.5t39 -45t50.5 -26.5t64 -14t61.5 -5t59 -1q59 0 95.5 1.5t77 5.5t68 14t59 25t60 40t60 57t69.5 78q43 65 57 76q12 6 15 6q7 0 12.5 -5t5.5 -11 q0 -3 -69.5 -152.5t-81.5 -173.5q-28 -1 -558.5 -6.5t-615.5 -11.5q-125 -10 -211 -10q-55 0 -110.5 12t-113 42t-101 75.5t-71.5 118.5t-28 165zM432 354q0 -20 3 -51.5t21 -94t48 -104.5q58 -79 186 -79q108 0 204.5 49t152.5 135q20 31 43.5 73t58.5 119t61.5 157 t46 184.5t19.5 203.5q0 27 -3.5 59t-26.5 90.5t-64 94.5q-42 37 -127 37q-234 0 -377 -185q-115 -150 -180.5 -336t-65.5 -352z" />
<glyph unicode="&#x153;" horiz-adv-x="1280" d="M143 201q0 101 49 217.5t127 213t184 160.5t210 64q44 0 76 -13t50.5 -31.5t31 -51.5t18 -61t10.5 -72q45 49 69 74.5t64 61t70 52.5t70.5 30t82.5 13q70 0 100.5 -35t30.5 -69q0 -223 -532 -367q-33 -85 -46 -131.5t-13 -97.5q0 -127 88 -127q38 0 99 22t128 68 q3 2 27 22.5t44 35t27 14.5q8 0 14.5 -6t6.5 -13q0 -12 -36 -43.5t-90.5 -66t-130.5 -61t-143 -26.5q-82 0 -126 43.5t-50 122.5q-19 -23 -42 -45.5t-62.5 -53.5t-91 -50t-103.5 -19q-59 0 -102 22.5t-63 50.5t-31.5 66t-13 55t-1.5 32zM276 225q0 -98 33.5 -149t85.5 -51 q64 0 125.5 51t105.5 128.5t78 165.5t51 164t17 123q0 18 -2 34.5t-10 47.5t-30 49.5t-56 18.5q-70 0 -142 -48t-128.5 -126.5t-92 -187t-35.5 -220.5zM874 440q131 40 190.5 65.5t104.5 65.5q35 30 56.5 77.5t21.5 90.5q0 25 -13 43.5t-38 18.5q-47 0 -115.5 -54t-128 -140 t-78.5 -167z" />
<glyph unicode="&#x178;" horiz-adv-x="1429" d="M279 10q0 12 11.5 14.5t59.5 4.5q22 0 39 2t46.5 13t53.5 31t51.5 60t49.5 96q7 15 45.5 136t81.5 309t43 303q0 73 -15.5 126.5t-34 78t-44.5 38.5t-37 15.5t-21 1.5q-86 0 -158 -68t-96 -141q-38 -128 -45 -135q-4 -4 -10 -4q-16 0 -16 18q0 36 15 86t47 107t75 105 t105 80t130 32q26 0 56 -9t65.5 -34.5t63.5 -64t46.5 -104.5t18.5 -149q0 -132 -18 -249l4 -4q128 236 163 294t91 121q88 103 181 156t181 53q62 0 101 -42.5t39 -90.5q0 -8 -3.5 -23.5t-12.5 -39t-32.5 -40t-56.5 -16.5q-38 0 -57.5 21.5t-57.5 93.5q-5 14 -19.5 28.5 t-37.5 14.5t-55.5 -18t-81 -62.5t-114.5 -141t-136 -231.5q-118 -226 -169.5 -389t-51.5 -239q0 -59 38.5 -92t102.5 -35q57 0 72.5 -3t15.5 -16q0 -18 -41 -18q-72 0 -198 6q-164 4 -195 4q-72 0 -125 -4q-25 -1 -68.5 -3.5t-52.5 -2.5q-32 0 -32 20zM758 1516 q0 37 25.5 62.5t60.5 25.5q37 0 62.5 -25.5t25.5 -62.5q0 -35 -25.5 -60.5t-62.5 -25.5q-35 0 -60.5 25.5t-25.5 60.5zM1110 1516q0 37 25.5 62.5t60.5 25.5q37 0 62.5 -25.5t25.5 -62.5q0 -35 -25.5 -60.5t-62.5 -25.5q-35 0 -60.5 25.5t-25.5 60.5z" />
<glyph unicode="&#x2c6;" horiz-adv-x="681" d="M297 963q0 12 283 364h110q74 -223 113 -328q10 -31 10 -34q0 -8 -7 -15.5t-11 -7.5q-23 0 -52 55q-46 73 -129 177q-163 -116 -249 -195q-31 -31 -50 -31q-7 0 -12.5 4.5t-5.5 10.5z" />
<glyph unicode="&#x2dc;" horiz-adv-x="681" d="M276 979q0 18 48 96q54 88 135 88q27 0 48.5 -8.5t57.5 -32.5q63 -43 111 -43q26 0 52.5 18t41.5 40q21 26 35 26q7 0 12.5 -6t5.5 -14q0 -5 -6.5 -24t-21.5 -46.5t-36 -53t-54 -43.5t-70 -18q-28 0 -48 8.5t-73 39.5q-54 36 -100 36q-55 0 -82 -45q-14 -27 -19.5 -33 t-15.5 -6t-15.5 7t-5.5 14z" />
<glyph unicode="&#x2000;" horiz-adv-x="904" />
<glyph unicode="&#x2001;" horiz-adv-x="1808" />
<glyph unicode="&#x2002;" horiz-adv-x="904" />
<glyph unicode="&#x2003;" horiz-adv-x="1808" />
<glyph unicode="&#x2004;" horiz-adv-x="602" />
<glyph unicode="&#x2005;" horiz-adv-x="452" />
<glyph unicode="&#x2006;" horiz-adv-x="301" />
<glyph unicode="&#x2007;" horiz-adv-x="301" />
<glyph unicode="&#x2008;" horiz-adv-x="226" />
<glyph unicode="&#x2009;" horiz-adv-x="361" />
<glyph unicode="&#x200a;" horiz-adv-x="100" />
<glyph unicode="&#x2010;" horiz-adv-x="788" d="M162 369q0 5 6 26l20 66q6 14 11.5 18t21.5 4l570 -2q26 0 26 -14q0 -10 -4 -14l-20 -66q-6 -23 -11 -28t-26 -5l-561 2q-33 0 -33 13z" />
<glyph unicode="&#x2011;" horiz-adv-x="788" d="M162 369q0 5 6 26l20 66q6 14 11.5 18t21.5 4l570 -2q26 0 26 -14q0 -10 -4 -14l-20 -66q-6 -23 -11 -28t-26 -5l-561 2q-33 0 -33 13z" />
<glyph unicode="&#x2012;" horiz-adv-x="788" d="M162 369q0 5 6 26l20 66q6 14 11.5 18t21.5 4l570 -2q26 0 26 -14q0 -10 -4 -14l-20 -66q-6 -23 -11 -28t-26 -5l-561 2q-33 0 -33 13z" />
<glyph unicode="&#x2013;" horiz-adv-x="1024" d="M-12 465v94h1048v-94h-1048z" />
<glyph unicode="&#x2014;" horiz-adv-x="2048" d="M-12 465v94h2072v-94h-2072z" />
<glyph unicode="&#x2018;" horiz-adv-x="512" d="M358 1051q0 43 26 87.5t63.5 78.5t77.5 61.5t69.5 42t38.5 14.5q8 0 14 -4.5t6 -9.5q0 -11 -10 -19.5t-61 -41.5q-33 -21 -74 -71t-41 -77q0 -12 49 -37q22 -12 33.5 -35.5t11.5 -40.5q0 -26 -19.5 -52.5t-64.5 -26.5q-53 0 -86 40t-33 91z" />
<glyph unicode="&#x2019;" horiz-adv-x="512" d="M313 934q0 10 10 19t44 31q4 2 6 3.5t5.5 3.5t6.5 4q33 21 74 71t41 77q0 12 -49 37q-22 12 -33.5 35t-11.5 40q0 26 19 53t64 27q53 0 86 -40t33 -91q0 -43 -26 -87.5t-63.5 -78.5t-77.5 -61.5t-69 -42t-38 -14.5t-15 4.5t-6 9.5z" />
<glyph unicode="&#x201a;" horiz-adv-x="385" d="M63 -242q0 11 10.5 20t61.5 42q33 21 74 70.5t41 76.5q0 12 -49 37q-22 12 -33.5 35.5t-11.5 40.5q0 26 19.5 53t64.5 27q53 0 85.5 -40t32.5 -91q0 -53 -39 -108t-89 -92t-92.5 -61t-53.5 -24q-9 0 -15 4.5t-6 9.5z" />
<glyph unicode="&#x201c;" horiz-adv-x="811" d="M383 1051q0 43 26 87.5t63.5 78.5t77.5 61.5t69 42t38 14.5t15 -4.5t6 -9.5q0 -10 -10 -19t-44 -31q-12 -7 -18 -11q-33 -21 -73.5 -71t-40.5 -77q0 -12 49 -37q22 -12 33.5 -35.5t11.5 -40.5q0 -26 -19.5 -52.5t-64.5 -26.5q-53 0 -86 40t-33 91zM682 1051q0 43 26 87.5 t63.5 78.5t77.5 61.5t69 42t38 14.5t15 -4.5t6 -9.5q0 -10 -10 -19t-44 -31q-12 -7 -18 -11q-33 -21 -73.5 -71t-40.5 -77q0 -12 49 -37q22 -12 33.5 -35.5t11.5 -40.5q0 -26 -19.5 -52.5t-64.5 -26.5q-53 0 -86 40t-33 91z" />
<glyph unicode="&#x201d;" horiz-adv-x="811" d="M338 934q0 10 10 19t44 31q4 2 6 3.5t5.5 3.5t6.5 4q33 21 73.5 71t40.5 77q0 12 -49 37q-22 12 -33.5 35t-11.5 40q0 26 19.5 53t64.5 27q53 0 86 -40t33 -91q0 -43 -26 -87.5t-63.5 -78.5t-77.5 -61.5t-69.5 -42t-38.5 -14.5q-8 0 -14 4.5t-6 9.5zM637 934q0 10 10 19 t44 31q4 2 6 3.5t5.5 3.5t6.5 4q33 21 73.5 71t40.5 77q0 12 -49 37q-22 12 -33.5 35t-11.5 40q0 26 19.5 53t64.5 27q53 0 86 -40t33 -91q0 -43 -26 -87.5t-63.5 -78.5t-77.5 -61.5t-69.5 -42t-38.5 -14.5q-8 0 -14 4.5t-6 9.5z" />
<glyph unicode="&#x201e;" horiz-adv-x="747" d="M78 -242q0 11 10.5 20t61.5 42q33 21 73.5 70.5t40.5 76.5q0 12 -49 37q-22 12 -33.5 35.5t-11.5 40.5q0 26 19.5 53t64.5 27q53 0 86 -40t33 -91q0 -53 -39 -108t-89.5 -92t-93 -61t-53.5 -24q-8 0 -14 4.5t-6 9.5zM377 -242q0 11 10.5 20t61.5 42q33 21 73.5 70.5 t40.5 76.5q0 12 -49 37q-22 12 -33.5 35.5t-11.5 40.5q0 26 19.5 53t64.5 27q53 0 86 -40t33 -91q0 -53 -39 -108t-89.5 -92t-93 -61t-53.5 -24q-8 0 -14 4.5t-6 9.5z" />
<glyph unicode="&#x2022;" horiz-adv-x="724" d="M256 678q0 103 73.5 176.5t176.5 73.5q104 0 178 -73.5t74 -176.5q0 -104 -74 -178t-178 -74q-103 0 -176.5 74t-73.5 178z" />
<glyph unicode="&#x2026;" horiz-adv-x="2048" d="M244 78q0 41 28.5 69.5t69.5 28.5q40 0 69 -29t29 -69t-28.5 -69t-69.5 -29t-69.5 28.5t-28.5 69.5zM926 78q0 41 29 69.5t69 28.5q41 0 69.5 -29t28.5 -69t-28.5 -69t-69.5 -29q-40 0 -69 28.5t-29 69.5zM1608 78q0 41 29 69.5t69 28.5q41 0 69.5 -29t28.5 -69 t-28.5 -69t-69.5 -29q-40 0 -69 28.5t-29 69.5z" />
<glyph unicode="&#x202f;" horiz-adv-x="361" />
<glyph unicode="&#x2039;" horiz-adv-x="618" d="M199 444l430 326q44 33 63 33q27 0 27 -8q0 -5 -10 -15l-312 -352l148 -356q9 -26 12 -29q6 -6 6 -12q0 -8 -12 -8q-18 0 -24.5 4.5t-24.5 29.5z" />
<glyph unicode="&#x203a;" horiz-adv-x="618" d="M123 31q0 4 10 14l311 352l-147 357q-8 24 -12 28q-6 6 -6 13q0 8 12 8q18 0 24 -5t25 -30l303 -387l-430 -326q-43 -32 -63 -32q-27 0 -27 8z" />
<glyph unicode="&#x205f;" horiz-adv-x="452" />
<glyph unicode="&#x20ac;" horiz-adv-x="1236" d="M158 457q0 28 39 28h100q12 65 33 123h-88q-39 0 -39 27q0 29 39 29h112q47 94 123 174.5t159 133t166.5 82t151.5 29.5q108 0 183 -54.5t75 -147.5q0 -47 -24 -75t-64 -28q-26 0 -47.5 22t-21.5 58q0 22 11 38.5t24.5 23.5t24.5 15t11 17q0 34 -52 64.5t-120 30.5 q-118 0 -240 -107t-188 -276h510q39 0 39 -29q0 -14 -7 -20t-12 -6.5t-20 -0.5h-528q-22 -70 -29 -123h506q39 0 39 -28q0 -14 -7 -20t-12 -6.5t-20 -0.5h-510q-2 -16 -2 -53q0 -85 21 -149.5t50.5 -99.5t69 -57t69.5 -28t58 -6q85 0 178 56.5t160 156.5q17 24 33 24 q11 0 17 -6t6 -10q0 -3 -0.5 -6t-1.5 -6t-2 -5.5t-3.5 -6.5t-3.5 -6t-4.5 -7t-5.5 -7.5t-7 -9t-7 -9.5q-27 -37 -62 -71t-89 -70.5t-130 -58.5t-162 -22q-90 0 -162 35t-116 94t-67 131t-23 152v45h-92q-39 0 -39 27z" />
<glyph unicode="&#x2122;" horiz-adv-x="2004" d="M178 1108v188h674v-188h-27q-9 82 -38.5 110.5t-116.5 28.5h-95v-565q0 -109 22 -136.5t97 -25.5v-33h-356v33q50 -1 72.5 8.5t33.5 44t11 109.5v565h-93q-38 0 -60.5 -4t-45 -17t-34.5 -42t-17 -76h-27zM924 487v33q30 0 48.5 1.5t32 9.5t19.5 14.5t9.5 28t4 36 t0.5 52.5v458q0 33 -0.5 48t-4 34.5t-10 27t-19.5 17t-32 13t-48 6.5v30h237l295 -634l287 634h227v-30q-42 -2 -62.5 -6.5t-33.5 -19.5t-16 -37t-3 -68v-473q0 -92 18.5 -116.5t96.5 -25.5v-33h-346v33q78 0 98.5 25t20.5 117v516h-4l-307 -691h-17l-317 676h-4v-508v-40.5 t1.5 -30.5t4 -24.5t8.5 -16t13.5 -12.5t21 -6t29 -4.5t38.5 -0.5v-33h-286z" />
<glyph unicode="&#xe000;" horiz-adv-x="849" d="M0 0v850h850v-850h-850z" />
</font>
</defs>
</svg>
